v 1.0342339 20.002136 -1.310491
v 1.1558154 20 -1.2577939
l 1 2
v 0.78329217 20 -1.3939967
v 1.1558154 20 -1.2577939
l 3 4
v 1.1558154 20 -1.2577939
v 1.46735 19.998709 -1.0823802
l 5 6
v 1.3510618 20.002136 -1.1576697
v 1.1558154 20 -1.2577939
l 7 8
v 0.35302809 20.002136 -1.4793367
v 0.39526385 20 -1.473731
l 9 10
v 0.6989159 20.002136 -1.416774
v 0.39526385 20 -1.473731
l 11 12
v 0.39526385 20 -1.473731
v 0.78329217 20 -1.3939967
l 13 14
v 0 20 -1.5
v 0.39526385 20 -1.473731
l 15 16
v 2.0728614 20 -0.31993777
v 2.1213202 20 -1.8369701e-16
l 17 18
v 2.0616913 20.002136 -0.35932636
v 2.0728614 20 -0.31993777
l 19 20
v 2.0728614 20 -0.31993777
v 2.0616913 20.002136 -0.35932636
l 21 22
v 0.39526385 20 1.473731
v 0.35302809 20.002136 1.4793367
l 23 24
v 0.6989159 20.002136 1.416774
v 0.39526385 20 1.473731
l 25 26
v 0.78329217 20 1.3939967
v 0.39526385 20 1.473731
l 27 28
v 0.39526385 20 1.473731
v 0 20 1.5
l 29 30
v 1.0342339 20.002136 1.310491
v 1.1558154 20 1.2577939
l 31 32
v 1.1558154 20 1.2577939
v 0.78329217 20 1.3939967
l 33 34
v 1.4673498 19.998709 1.0823803
v 1.1558154 20 1.2577939
l 35 36
v 1.1558154 20 1.2577939
v 1.3510618 20.002136 1.1576697
l 37 38
v 2.1213202 20 -1.8369701e-16
v 2.0728614 20 0.31993777
l 39 40
v 2.0616913 20.002136 0.35932636
v 2.0728614 20 0.31993777
l 41 42
v 2.0728614 20 0.31993777
v 2.0616913 20.002136 0.35932636
l 43 44
v 0.78329217 20 -1.3939967
v 1.0342339 20.002136 -1.310491
l 45 46
v 0.78329217 20 -1.3939967
v 0.6989159 20.002136 -1.416774
l 47 48
v 0.78329217 20 -1.3939967
v 1.1558154 20 -1.2577939
l 49 50
v 0.39526385 20 -1.473731
v 0.78329217 20 -1.3939967
l 51 52
v 0.78329217 20 1.3939967
v 0.6989159 20.002136 1.416774
l 53 54
v 0.78329217 20 1.3939967
v 1.0342339 20.002136 1.310491
l 55 56
v 0.78329217 20 1.3939967
v 0.39526385 20 1.473731
l 57 58
v 1.1558154 20 1.2577939
v 0.78329217 20 1.3939967
l 59 60
v 1.3510618 20.002136 -1.1576697
v 1.46735 19.998709 -1.0823802
l 61 62
v 1.46735 19.998709 -1.0823802
v 1.3510618 20.002136 -1.1576697
l 63 64
v 1.3510618 20.002136 -1.1576697
v 1.1558154 20 -1.2577939
l 65 66
v 1.3510618 20.002136 -1.1576697
v 1.3510618 20.002136 -1.1576697
l 67 68
v 1.3510618 20.002136 -1.1576697
v 1.3510618 20.002136 -1.1576697
l 69 70
v 1.3510618 20.002136 1.1576697
v 1.4673498 19.998709 1.0823803
l 71 72
v 1.4673498 19.998709 1.0823803
v 1.3510618 20.002136 1.1576697
l 73 74
v 1.1558154 20 1.2577939
v 1.3510618 20.002136 1.1576697
l 75 76
v 1.3510618 20.002136 1.1576697
v 1.3510618 20.002136 1.1576697
l 77 78
v 1.3510618 20.002136 1.1576697
v 1.3510618 20.002136 1.1576697
l 79 80
v 1.5312017 19.998573 -1.0370759
v 1.6461608 20.002136 -0.94794017
l 81 82
v 1.6461608 20.002136 -0.94794017
v 1.70996 19.998245 -0.88601106
l 83 84
v 1.6461608 20.002136 -0.94794017
v 1.6461608 20.002136 -0.94794017
l 85 86
v 1.6461608 20.002136 -0.94794017
v 1.6461608 20.002136 -0.94794017
l 87 88
v 1.7896863 19.99687 -0.80181456
v 1.8916343 20.002136 -0.68183374
l 89 90
v 1.8916343 20.002136 -0.68183374
v 1.9222438 19.998358 -0.63192779
l 91 92
v 1.8916343 20.002136 -0.68183374
v 1.8916343 20.002136 -0.68183374
l 93 94
v 1.8916343 20.002136 -0.68183374
v 1.8916343 20.002136 -0.68183374
l 95 96
v 1.46735 19.998709 -1.0823802
v 1.5 20 -1.0606601
l 97 98
v 1.3510618 20.002136 -1.1576697
v 1.46735 19.998709 -1.0823802
l 99 100
v 1.46735 19.998709 -1.0823802
v 1.3510618 20.002136 -1.1576697
l 101 102
v 1.1558154 20 -1.2577939
v 1.46735 19.998709 -1.0823802
l 103 104
v 1.9222438 19.998358 0.63192779
v 1.8916343 20.002136 0.68183374
l 105 106
v 1.8916343 20.002136 0.68183374
v 1.7896863 19.99687 0.80181456
l 107 108
v 1.8916343 20.002136 0.68183374
v 1.8916343 20.002136 0.68183374
l 109 110
v 1.8916343 20.002136 0.68183374
v 1.8916343 20.002136 0.68183374
l 111 112
v 1.5 20 1.0606601
v 1.4673498 19.998709 1.0823803
l 113 114
v 1.3510618 20.002136 1.1576697
v 1.4673498 19.998709 1.0823803
l 115 116
v 1.4673498 19.998709 1.0823803
v 1.3510618 20.002136 1.1576697
l 117 118
v 1.4673498 19.998709 1.0823803
v 1.1558154 20 1.2577939
l 119 120
v 1.70996 19.998245 0.88601106
v 1.6461608 20.002136 0.94794017
l 121 122
v 1.6461608 20.002136 0.94794017
v 1.5312017 19.998573 1.0370759
l 123 124
v 1.6461608 20.002136 0.94794017
v 1.6461608 20.002136 0.94794017
l 125 126
v 1.6461608 20.002136 0.94794017
v 1.6461608 20.002136 0.94794017
l 127 128
v 2.0616913 20.002136 -0.35932636
v 2.0616913 20.002136 -0.35932636
l 129 130
v 2.0616913 20.002136 -0.35932636
v 2.0616913 20.002136 -0.35932636
l 131 132
v 2.0616913 20.002136 -0.35932636
v 2.0728614 20 -0.31993777
l 133 134
v 2.0728614 20 -0.31993777
v 2.0616913 20.002136 -0.35932636
l 135 136
v 2.0616913 20.002136 -0.35932636
v 1.9901451 19.995083 -0.50976759
l 137 138
v 1.9901451 19.995083 -0.50976759
v 2.0616913 20.002136 -0.35932636
l 139 140
v 1.9901451 19.995083 -0.50976759
v 1.94032 20 -0.60628307
l 141 142
v 2.0616913 20.002136 -0.35932636
v 1.9901451 19.995083 -0.50976759
l 143 144
v 1.9901451 19.995083 -0.50976759
v 2.0616913 20.002136 -0.35932636
l 145 146
v 2.0616913 20.002136 0.35932636
v 2.0616913 20.002136 0.35932636
l 147 148
v 2.0616913 20.002136 0.35932636
v 2.0616913 20.002136 0.35932636
l 149 150
v 2.0616913 20.002136 0.35932636
v 2.0728614 20 0.31993777
l 151 152
v 2.0728614 20 0.31993777
v 2.0616913 20.002136 0.35932636
l 153 154
v 2.0616913 20.002136 0.35932636
v 1.9901451 19.995083 0.50976759
l 155 156
v 1.9901451 19.995083 0.50976759
v 2.0616913 20.002136 0.35932636
l 157 158
v 1.94032 20 0.60628307
v 1.9901451 19.995083 0.50976759
l 159 160
v 2.0616913 20.002136 0.35932636
v 1.9901451 19.995083 0.50976759
l 161 162
v 1.9901451 19.995083 0.50976759
v 2.0616913 20.002136 0.35932636
l 163 164
