v 1.3510618 20.002136 -1.1576697
v 1.1558154 20 -1.2577939
l 1 2
v 1.1558154 20 1.2577939
v 1.3510618 20.002136 1.1576697
l 3 4
v 1.5312017 19.998573 -1.0370759
v 1.6461608 20.002136 -0.94794017
l 5 6
v 1.6461608 20.002136 -0.94794017
v 1.70996 19.998245 -0.88601106
l 7 8
v 1.7896863 19.99687 -0.80181456
v 1.8916343 20.002136 -0.68183374
l 9 10
v 1.8916343 20.002136 -0.68183374
v 1.9222438 19.998358 -0.63192779
l 11 12
v 1.9222438 19.998358 0.63192779
v 1.8916343 20.002136 0.68183374
l 13 14
v 1.8916343 20.002136 0.68183374
v 1.7896863 19.99687 0.80181456
l 15 16
v 1.70996 19.998245 0.88601106
v 1.6461608 20.002136 0.94794017
l 17 18
v 1.6461608 20.002136 0.94794017
v 1.5312017 19.998573 1.0370759
l 19 20
v 1.6461608 20.002136 -0.94794017
v 1.6461608 20.002136 -0.94794017
l 21 22
v 2.0616913 20.002136 -0.35932636
v 2.0616913 20.002136 -0.35932636
l 23 24
v 2.0616913 20.002136 -0.35932636
v 2.0728614 20 -0.31993777
l 25 26
v 2.0728614 20 -0.31993777
v 2.0616913 20.002136 -0.35932636
l 27 28
v 2.0616913 20.002136 -0.35932636
v 1.9901451 19.995083 -0.50976759
l 29 30
v 1.9901451 19.995083 -0.50976759
v 2.0616913 20.002136 -0.35932636
l 31 32
v 1.8916343 20.002136 -0.68183374
v 1.8916343 20.002136 -0.68183374
l 33 34
v 1.6461608 20.002136 0.94794017
v 1.6461608 20.002136 0.94794017
l 35 36
v 1.3510618 20.002136 1.1576697
v 1.3510618 20.002136 1.1576697
l 37 38
v 1.8916343 20.002136 0.68183374
v 1.8916343 20.002136 0.68183374
l 39 40
v 2.0616913 20.002136 0.35932636
v 2.0616913 20.002136 0.35932636
l 41 42
v 2.0616913 20.002136 0.35932636
v 2.0728614 20 0.31993777
l 43 44
v 2.0728614 20 0.31993777
v 2.0616913 20.002136 0.35932636
l 45 46
v 2.0616913 20.002136 0.35932636
v 1.9901451 19.995083 0.50976759
l 47 48
v 1.9901451 19.995083 0.50976759
v 2.0616913 20.002136 0.35932636
l 49 50
v 1.3510618 20.002136 -1.1576697
v 1.3510618 20.002136 -1.1576697
l 51 52
