v 2.0728614 20 -0.31993777
v 2.1213202 20 -1.8369701e-16
l 1 2
v 2.1213202 20 -1.8369701e-16
v 2.0728614 20 0.31993777
l 3 4
v -2.0616133 20.002136 -0.35955703
v -1.8916343 20.002136 -0.68183374
l 5 6
v -2.123456 20.002136 -2.0287081e-16
v -2.0616133 20.002136 -0.35955703
l 7 8
v -1.3510618 20.002136 -1.1576697
v -1.034234 20.002136 -1.3104911
l 9 10
v -1.8916343 20.002136 -0.68183374
v -1.6461778 20.002136 -0.94792396
l 11 12
v -1.6461778 20.002136 -0.94792396
v -1.3510618 20.002136 -1.1576697
l 13 14
v -2.0616913 20.002136 0.35932636
v -2.123456 20.002136 -2.0287081e-16
l 15 16
v -1.8916343 20.002136 0.68183374
v -2.0616913 20.002136 0.35932636
l 17 18
v -1.6461608 20.002136 0.94794017
v -1.8916343 20.002136 0.68183374
l 19 20
v -1.0342339 20.002136 1.310491
v -1.3510618 20.002136 1.1576697
l 21 22
v -1.3510618 20.002136 1.1576697
v -1.6461608 20.002136 0.94794017
l 23 24
v -0.6989159 20.002136 -1.416774
v -0.353028 20.002136 -1.4793367
l 25 26
v -1.034234 20.002136 -1.3104911
v -0.6989159 20.002136 -1.416774
l 27 28
v -0.0021356237 20.002136 -1.5
v 3.5527137e-15 20.002136 -1.4999988
l 29 30
v -0.353028 20.002136 -1.4793367
v -0.0021356237 20.002136 -1.5
l 31 32
v -0.6989159 20.002136 1.416774
v -1.0342339 20.002136 1.310491
l 33 34
v -0.35302809 20.002136 1.4793367
v -0.6989159 20.002136 1.416774
l 35 36
v -0.0021356237 20.002136 1.5
v -0.35302809 20.002136 1.4793367
l 37 38
v 3.5527137e-15 20.002136 1.4999988
v -0.0021356237 20.002136 1.5
l 39 40
v 20.002136 -1.7631065e-15 -1.4999988
v 20.002136 -0.0021356237 -1.5
l 41 42
v 20.002136 -0.0021356237 -1.5
v 20.002136 -0.35302809 -1.4793367
l 43 44
v 20.002136 -0.35302809 -1.4793367
v 20.002136 -0.6989159 -1.416774
l 45 46
v 20.002136 -0.6989159 -1.416774
v 20.002136 -1.0342339 -1.310491
l 47 48
v 20.002136 -0.0021356237 1.5
v 20.002136 -1.7769426e-15 1.4999988
l 49 50
v 20.002136 -0.35302809 1.4793367
v 20.002136 -0.0021356237 1.5
l 51 52
v 20.002136 -1.0342339 1.310491
v 20.002136 -0.6989159 1.416774
l 53 54
v 20.002136 -0.6989159 1.416774
v 20.002136 -0.35302809 1.4793367
l 55 56
v 20.002136 -1.0342339 -1.310491
v 20.002136 -1.3510618 -1.1576697
l 57 58
v 20.002136 -1.3510618 -1.1576697
v 20.002136 -1.6461608 -0.94794017
l 59 60
v 20.002136 -1.6461608 -0.94794017
v 20.002136 -1.8916343 -0.68183374
l 61 62
v 20.002136 -1.8916343 -0.68183374
v 20.002136 -2.0616913 -0.35932636
l 63 64
v 20.002136 -2.0616913 -0.35932636
v 20.002136 -2.123456 -9.1848507e-17
l 65 66
v 20.002136 -1.6461608 0.94794017
v 20.002136 -1.3510618 1.1576697
l 67 68
v 20.002136 -1.3510618 1.1576697
v 20.002136 -1.0342339 1.310491
l 69 70
v 20.002136 -2.0616913 0.35932636
v 20.002136 -1.8916343 0.68183374
l 71 72
v 20.002136 -1.8916343 0.68183374
v 20.002136 -1.6461608 0.94794017
l 73 74
v 20.002136 -2.123456 -9.1848507e-17
v 20.002136 -2.0616913 0.35932636
l 75 76
v 0.00053390634 -20.002136 -1.4999986
v -1.7763568e-15 -20.002136 -1.4999988
l 77 78
v 0.0010678124 -20.002136 -1.4999982
v 0.00053390634 -20.002136 -1.4999986
l 79 80
v 0.0016017182 -20.002136 -1.4999976
v 0.0010678124 -20.002136 -1.4999982
l 81 82
v 0.0021356237 -20.002136 -1.4999969
v 0.0016017182 -20.002136 -1.4999976
l 83 84
v 0.00053390622 -20.002136 1.4999986
v 0.0010678123 -20.002136 1.4999982
l 85 86
v 0.0010678123 -20.002136 1.4999982
v 0.0016017181 -20.002136 1.4999976
l 87 88
v 0 -20.002136 1.4999988
v 0.00053390622 -20.002136 1.4999986
l 89 90
v 0.0016017181 -20.002136 1.4999976
v 0.0021356237 -20.002136 1.4999969
l 91 92
v -1.8880247 -20.002136 -0.68091631
v -2.0576067 -20.002136 -0.35879093
l 93 94
v -2.0576067 -20.002136 -0.35879093
v -2.1191847 -20.002136 -9.1848507e-17
l 95 96
v -2.1191847 -20.002136 -9.1848507e-17
v -2.0576067 -20.002136 0.35879093
l 97 98
v -1.6431576 -20.002136 -0.94683951
v -1.8880247 -20.002136 -0.68091631
l 99 100
v -0.69779885 -20.002136 -1.4159964
v -1.3487135 -20.002136 -1.156548
l 101 102
v -1.3487135 -20.002136 -1.156548
v -1.6431576 -20.002136 -0.94683951
l 103 104
v -0.0021356237 -20.002136 -1.4999969
v -0.69779885 -20.002136 -1.4159964
l 105 106
v -1.8880247 -20.002136 0.68091631
v -1.6431576 -20.002136 0.94683951
l 107 108
v -1.3487135 -20.002136 1.156548
v -0.69779885 -20.002136 1.4159964
l 109 110
v -0.69779885 -20.002136 1.4159964
v -0.0021356237 -20.002136 1.4999969
l 111 112
v -1.6431576 -20.002136 0.94683951
v -1.3487135 -20.002136 1.156548
l 113 114
v -2.0576067 -20.002136 0.35879093
v -1.8880247 -20.002136 0.68091631
l 115 116
v -0.0021356237 -20.002136 1.4999969
v -0.0016017182 -20.002136 1.4999976
l 117 118
v -0.0010678124 -20.002136 1.4999982
v -0.00053390634 -20.002136 1.4999986
l 119 120
v -0.00053390634 -20.002136 1.4999986
v 0 -20.002136 1.4999988
l 121 122
v -0.0016017182 -20.002136 1.4999976
v -0.0010678124 -20.002136 1.4999982
l 123 124
v -1.7763568e-15 -20.002136 -1.4999988
v -0.00053390622 -20.002136 -1.4999986
l 125 126
v -0.0016017181 -20.002136 -1.4999976
v -0.0021356237 -20.002136 -1.4999969
l 127 128
v -0.0010678123 -20.002136 -1.4999982
v -0.0016017181 -20.002136 -1.4999976
l 129 130
v -0.00053390622 -20.002136 -1.4999986
v -0.0010678123 -20.002136 -1.4999982
l 131 132
v -20.002136 -2.0616913 -0.35932636
v -20.002136 -1.8916343 -0.68183374
l 133 134
v -20.002136 -2.123456 -3.1389313e-16
v -20.002136 -2.0616913 -0.35932636
l 135 136
v -20.002136 -1.3510618 -1.1576697
v -20.002136 -1.0342339 -1.310491
l 137 138
v -20.002136 -1.8916343 -0.68183374
v -20.002136 -1.6461608 -0.94794017
l 139 140
v -20.002136 -1.6461608 -0.94794017
v -20.002136 -1.3510618 -1.1576697
l 141 142
v -20.002136 -2.0616913 0.35932636
v -20.002136 -2.123456 -3.1389313e-16
l 143 144
v -20.002136 -1.8916343 0.68183374
v -20.002136 -2.0616913 0.35932636
l 145 146
v -20.002136 -1.3510618 1.1576697
v -20.002136 -1.6461608 0.94794017
l 147 148
v -20.002136 -1.0342339 1.310491
v -20.002136 -1.3510618 1.1576697
l 149 150
v -20.002136 -1.6461608 0.94794017
v -20.002136 -1.8916343 0.68183374
l 151 152
v -20.002136 -0.6989159 -1.416774
v -20.002136 -0.35302809 -1.4793367
l 153 154
v -20.002136 -1.0342339 -1.310491
v -20.002136 -0.6989159 -1.416774
l 155 156
v -20.002136 -0.0021356237 -1.5
v -20.002136 -5.3263587e-15 -1.4999988
l 157 158
v -20.002136 -0.35302809 -1.4793367
v -20.002136 -0.0021356237 -1.5
l 159 160
v -20.002136 -0.6989159 1.416774
v -20.002136 -1.0342339 1.310491
l 161 162
v -20.002136 -0.35302809 1.4793367
v -20.002136 -0.6989159 1.416774
l 163 164
v -20.002136 -0.0021356237 1.5
v -20.002136 -0.35302809 1.4793367
l 165 166
v -20.002136 -5.3296639e-15 1.4999988
v -20.002136 -0.0021356237 1.5
l 167 168
v 0.69779885 -20.002136 -1.4159964
v 0.0021356237 -20.002136 -1.4999969
l 169 170
v 1.3487135 -20.002136 -1.156548
v 0.69779885 -20.002136 -1.4159964
l 171 172
v 1.6431576 -20.002136 -0.94683951
v 1.3487135 -20.002136 -1.156548
l 173 174
v 0.0021356237 -20.002136 1.4999969
v 0.69779885 -20.002136 1.4159964
l 175 176
v 0.69779885 -20.002136 1.4159964
v 1.3487135 -20.002136 1.156548
l 177 178
v 1.8880247 -20.002136 -0.68091631
v 1.6431576 -20.002136 -0.94683951
l 179 180
v 2.1191847 -20.002136 -2.0287081e-16
v 2.0576067 -20.002136 -0.35879093
l 181 182
v 1.8880247 -20.002136 0.68091631
v 2.0576067 -20.002136 0.35879093
l 183 184
v 2.0576067 -20.002136 0.35879093
v 2.1191847 -20.002136 -2.0287081e-16
l 185 186
v 2.0576067 -20.002136 -0.35879093
v 1.8880247 -20.002136 -0.68091631
l 187 188
v 1.6431576 -20.002136 0.94683951
v 1.8880247 -20.002136 0.68091631
l 189 190
v 1.3487135 -20.002136 1.156548
v 1.6431576 -20.002136 0.94683951
l 191 192
v 3.5527137e-15 20.002136 -1.4999988
v 0.0021356237 20.002136 -1.5
l 193 194
v 0.35302809 20.002136 -1.4793367
v 0 20 -1.5
l 195 196
v 0.0021356237 20.002136 -1.5
v 0.35302809 20.002136 -1.4793367
l 197 198
v 0.35302809 20.002136 -1.4793367
v 0.39526385 20 -1.473731
l 199 200
v 0.6989159 20.002136 -1.416774
v 0.39526385 20 -1.473731
l 201 202
v 0.35302809 20.002136 -1.4793367
v 0.6989159 20.002136 -1.416774
l 203 204
v 0.78329217 20 -1.3939967
v 1.0342339 20.002136 -1.310491
l 205 206
v 1.0342339 20.002136 -1.310491
v 1.1558154 20 -1.2577939
l 207 208
v 0.78329217 20 -1.3939967
v 0.6989159 20.002136 -1.416774
l 209 210
v 0 20 1.5
v 0.35302809 20.002136 1.4793367
l 211 212
v 0.35302809 20.002136 1.4793367
v 0.0021356237 20.002136 1.5
l 213 214
v 0.39526385 20 1.473731
v 0.35302809 20.002136 1.4793367
l 215 216
v 0.0021356237 20.002136 1.5
v 3.5527137e-15 20.002136 1.4999988
l 217 218
v 1.0342339 20.002136 1.310491
v 1.1558154 20 1.2577939
l 219 220
v 0.78329217 20 1.3939967
v 0.6989159 20.002136 1.416774
l 221 222
v 0.6989159 20.002136 1.416774
v 0.39526385 20 1.473731
l 223 224
v 0.78329217 20 1.3939967
v 1.0342339 20.002136 1.310491
l 225 226
v 0.6989159 20.002136 1.416774
v 0.35302809 20.002136 1.4793367
l 227 228
v 20.002136 2.0616133 -0.35955703
v 20.002136 1.8916343 -0.68183374
l 229 230
v 20.002136 2.123456 -2.0287081e-16
v 20.002136 2.0616133 -0.35955703
l 231 232
v 20.002136 1.3510618 -1.1576697
v 20.002136 1.034234 -1.3104911
l 233 234
v 20.002136 1.8916343 -0.68183374
v 20.002136 1.6461778 -0.94792396
l 235 236
v 20.002136 1.6461778 -0.94792396
v 20.002136 1.3510618 -1.1576697
l 237 238
v 20.002136 1.8916343 0.68183374
v 20.002136 2.0616913 0.35932636
l 239 240
v 20.002136 2.0616913 0.35932636
v 20.002136 2.123456 -2.0287081e-16
l 241 242
v 20.002136 1.3510618 1.1576697
v 20.002136 1.6461608 0.94794017
l 243 244
v 20.002136 1.0342339 1.310491
v 20.002136 1.3510618 1.1576697
l 245 246
v 20.002136 1.6461608 0.94794017
v 20.002136 1.8916343 0.68183374
l 247 248
v 20.002136 0.6989159 -1.416774
v 20.002136 0.353028 -1.4793367
l 249 250
v 20.002136 1.034234 -1.3104911
v 20.002136 0.6989159 -1.416774
l 251 252
v 20.002136 0.0021356237 -1.5
v 20.002136 -1.7631065e-15 -1.4999988
l 253 254
v 20.002136 0.353028 -1.4793367
v 20.002136 0.0021356237 -1.5
l 255 256
v 20.002136 0.6989159 1.416774
v 20.002136 1.0342339 1.310491
l 257 258
v 20.002136 0.35302809 1.4793367
v 20.002136 0.6989159 1.416774
l 259 260
v 20.002136 0.0021356237 1.5
v 20.002136 0.35302809 1.4793367
l 261 262
v 20.002136 -1.7769426e-15 1.4999988
v 20.002136 0.0021356237 1.5
l 263 264
v -20.002136 -5.3263587e-15 -1.4999988
v -20.002136 0.0021356237 -1.5
l 265 266
v -20.002136 0.0021356237 -1.5
v -20.002136 0.35302809 -1.4793367
l 267 268
v -20.002136 0.35302809 -1.4793367
v -20.002136 0.6989159 -1.416774
l 269 270
v -20.002136 0.6989159 -1.416774
v -20.002136 1.0342339 -1.310491
l 271 272
v -20.002136 0.0021356237 1.5
v -20.002136 -5.3296639e-15 1.4999988
l 273 274
v -20.002136 0.35302809 1.4793367
v -20.002136 0.0021356237 1.5
l 275 276
v -20.002136 1.0342339 1.310491
v -20.002136 0.6989159 1.416774
l 277 278
v -20.002136 0.6989159 1.416774
v -20.002136 0.35302809 1.4793367
l 279 280
v -20.002136 1.0342339 -1.310491
v -20.002136 1.3510618 -1.1576697
l 281 282
v -20.002136 1.3510618 -1.1576697
v -20.002136 1.6461608 -0.94794017
l 283 284
v -20.002136 1.6461608 -0.94794017
v -20.002136 1.8916343 -0.68183374
l 285 286
v -20.002136 1.8916343 -0.68183374
v -20.002136 2.0616913 -0.35932636
l 287 288
v -20.002136 2.0616913 -0.35932636
v -20.002136 2.123456 -2.5838197e-16
l 289 290
v -20.002136 1.6461608 0.94794017
v -20.002136 1.3510618 1.1576697
l 291 292
v -20.002136 1.3510618 1.1576697
v -20.002136 1.0342339 1.310491
l 293 294
v -20.002136 2.123456 -2.5838197e-16
v -20.002136 2.0616913 0.35932636
l 295 296
v -20.002136 2.0616913 0.35932636
v -20.002136 1.8916343 0.68183374
l 297 298
v -20.002136 1.8916343 0.68183374
v -20.002136 1.6461608 0.94794017
l 299 300
v 1.5 20 -1.0606601
v 1.5312017 19.998573 -1.0370759
l 301 302
v 1.70996 19.998245 -0.88601106
v 1.7429487 20 -0.85465187
l 303 304
v 1.7429487 20 -0.85465187
v 1.7896863 19.99687 -0.80181456
l 305 306
v 1.9222438 19.998358 -0.63192779
v 1.94032 20 -0.60628307
l 307 308
v 1.46735 19.998709 -1.0823802
v 1.5 20 -1.0606601
l 309 310
v 1.94032 20 0.60628307
v 1.9222438 19.998358 0.63192779
l 311 312
v 1.7896863 19.99687 0.80181456
v 1.7429487 20 0.85465187
l 313 314
v 1.5 20 1.0606601
v 1.4673498 19.998709 1.0823803
l 315 316
v 1.7429487 20 0.85465187
v 1.70996 19.998245 0.88601106
l 317 318
v 1.5312017 19.998573 1.0370759
v 1.5 20 1.0606601
l 319 320
v 1.94032 20 0.60628307
v 1.9901451 19.995083 0.50976759
l 321 322
v 1.9901451 19.995083 -0.50976759
v 1.94032 20 -0.60628307
l 323 324
v 1.3510618 20.002136 1.1576697
v 1.4673498 19.998709 1.0823803
l 325 326
v 1.4673498 19.998709 1.0823803
v 1.3510618 20.002136 1.1576697
l 327 328
v 1.3510618 20.002136 -1.1576697
v 1.46735 19.998709 -1.0823802
l 329 330
v 1.46735 19.998709 -1.0823802
v 1.3510618 20.002136 -1.1576697
l 331 332
