v 90 97.895386 -0.18785922
v 90 97.944244 -0.37005267
l 1 2
v 90 97.882828 -0.094326638
v 90 97.895386 -0.18785922
l 3 4
v 90 98.029938 -0.5562638
v 90 98.15271 -0.73739761
l 5 6
v 90 98.311485 -0.90799814
v 90 98.503159 -1.0628899
l 7 8
v 90 98.15271 -0.73739761
v 90 98.311485 -0.90799814
l 9 10
v 90 97.944244 -0.37005267
v 90 98.029938 -0.5562638
l 11 12
v 90 98.72274 -1.1976237
v 90 98.963768 -1.3088576
l 13 14
v 90 98.963768 -1.3088576
v 90 99.218895 -1.3946096
l 15 16
v 90 98.503159 -1.0628899
v 90 98.72274 -1.1976237
l 17 18
v 90 98.15271 0.73739761
v 90 98.029938 0.5562638
l 19 20
v 90 98.311485 0.90799814
v 90 98.15271 0.73739761
l 21 22
v 90 98.72274 1.1976237
v 90 98.503159 1.0628899
l 23 24
v 90 98.963768 1.3088576
v 90 98.72274 1.1976237
l 25 26
v 90 98.503159 1.0628899
v 90 98.311485 0.90799814
l 27 28
v 90 97.882828 0.094326638
v 90 97.878677 0
l 29 30
v 90 97.895386 0.18785922
v 90 97.882828 0.094326638
l 31 32
v 90 97.944244 0.37005267
v 90 97.895386 0.18785922
l 33 34
v 90 98.029938 0.5562638
v 90 97.944244 0.37005267
l 35 36
v 90 99.218895 1.3946096
v 90 98.963768 1.3088576
l 37 38
v 90 97.878677 0
v 90 97.882828 -0.094326638
l 39 40
v 72.117172 80 -0.094326638
v 72.104614 80 -0.18785922
l 41 42
v 70 81.889496 -0.68183374
v 70 81.986633 -0.52593219
l 43 44
v 72.104614 80 -0.18785922
v 72.055756 80 -0.37005267
l 45 46
v 72.121323 80 0
v 72.117172 80 -0.094326638
l 47 48
v 70 81.986633 -0.52593219
v 70 82.059555 -0.35932636
l 49 50
v 71.970062 80 -0.5562638
v 71.84729 80 -0.73739761
l 51 52
v 72.055756 80 -0.37005267
v 71.970062 80 -0.5562638
l 53 54
v 70 82.1054 -0.18351579
v 70 82.121323 -1.8369701e-16
l 55 56
v 70 82.059555 0.35932636
v 70 81.986633 0.52593219
l 57 58
v 70 82.1054 0.18351579
v 70 82.059555 0.35932636
l 59 60
v 70 82.121323 -1.8369701e-16
v 70 82.1054 0.18351579
l 61 62
v 70 82.059555 -0.35932636
v 70 82.1054 -0.18351579
l 63 64
v 70 81.986633 0.52593219
v 70 81.889496 0.68183374
l 65 66
v 71.688515 80 -0.90799814
v 71.496841 80 -1.0628899
l 67 68
v 71.27726 80 -1.1976237
v 71.036232 80 -1.3088576
l 69 70
v 71.496841 80 -1.0628899
v 71.27726 80 -1.1976237
l 71 72
v 71.036232 80 -1.3088576
v 70.781105 80 -1.3946096
l 73 74
v 70 81.774506 -0.82194227
v 70 81.889496 -0.68183374
l 75 76
v 70 81.644028 -0.94794017
v 70 81.774506 -0.82194227
l 77 78
v 70 80.696777 -1.416774
v 70 81.032097 -1.310491
l 79 80
v 70 81.348923 -1.1576697
v 70 81.501137 -1.0598439
l 81 82
v 70 81.032097 -1.310491
v 70 81.348923 -1.1576697
l 83 84
v 70 81.501137 -1.0598439
v 70 81.644028 -0.94794017
l 85 86
v 71.84729 80 -0.73739761
v 71.688515 80 -0.90799814
l 87 88
v 71.970062 80 0.5562638
v 72.055756 80 0.37005267
l 89 90
v 72.104614 80 0.18785922
v 72.117172 80 0.094326638
l 91 92
v 72.117172 80 0.094326638
v 72.121323 80 0
l 93 94
v 72.055756 80 0.37005267
v 72.104614 80 0.18785922
l 95 96
v 70 81.774506 0.82194227
v 70 81.644028 0.94794017
l 97 98
v 70 81.501137 1.0598439
v 70 81.348923 1.1576697
l 99 100
v 70 81.644028 0.94794017
v 70 81.501137 1.0598439
l 101 102
v 70 81.032097 1.310491
v 70 80.696777 1.416774
l 103 104
v 70 81.348923 1.1576697
v 70 81.032097 1.310491
l 105 106
v 71.496841 80 1.0628899
v 71.688515 80 0.90799814
l 107 108
v 71.84729 80 0.73739761
v 71.970062 80 0.5562638
l 109 110
v 71.688515 80 0.90799814
v 71.84729 80 0.73739761
l 111 112
v 71.036232 80 1.3088576
v 71.27726 80 1.1976237
l 113 114
v 70.781105 80 1.3946096
v 71.036232 80 1.3088576
l 115 116
v 71.27726 80 1.1976237
v 71.496841 80 1.0628899
l 117 118
v 70 81.889496 0.68183374
v 70 81.774506 0.82194227
l 119 120
v 70 78.967903 -1.310491
v 70 79.303223 -1.416774
l 121 122
v 70 78.498863 -1.0598439
v 70 78.651077 -1.1576697
l 123 124
v 70 78.225494 -0.82194227
v 70 78.355972 -0.94794017
l 125 126
v 70 78.355972 -0.94794017
v 70 78.498863 -1.0598439
l 127 128
v 70 78.651077 -1.1576697
v 70 78.967903 -1.310491
l 129 130
v 70 79.303223 1.416774
v 70 78.967903 1.310491
l 131 132
v 70 78.355972 0.94794017
v 70 78.225494 0.82194227
l 133 134
v 70 78.651077 1.1576697
v 70 78.498863 1.0598439
l 135 136
v 70 78.498863 1.0598439
v 70 78.355972 0.94794017
l 137 138
v 70 78.967903 1.310491
v 70 78.651077 1.1576697
l 139 140
v 70 77.940445 -0.35932636
v 70 78.013367 -0.52593219
l 141 142
v 70 77.878677 -1.8369701e-16
v 70 77.8946 -0.18351579
l 143 144
v 70 77.8946 -0.18351579
v 70 77.940445 -0.35932636
l 145 146
v 70 78.013367 -0.52593219
v 70 78.110504 -0.68183374
l 147 148
v 70 77.8946 0.18351579
v 70 77.878677 -1.8369701e-16
l 149 150
v 70 78.110504 0.68183374
v 70 78.013367 0.52593219
l 151 152
v 70 78.013367 0.52593219
v 70 77.940445 0.35932636
l 153 154
v 70 78.225494 0.82194227
v 70 78.110504 0.68183374
l 155 156
v 70 77.940445 0.35932636
v 70 77.8946 0.18351579
l 157 158
v 70 78.110504 -0.68183374
v 70 78.225494 -0.82194227
l 159 160
v 90 62.117176 -0.094326638
v 90 62.104614 -0.18785922
l 161 162
v 90 62.104614 -0.18785922
v 90 62.055756 -0.37005267
l 163 164
v 90 62.055756 -0.37005267
v 90 61.970062 -0.5562638
l 165 166
v 87.940445 60 -0.35932636
v 87.8946 60 -0.18351579
l 167 168
v 90 61.970062 -0.5562638
v 90 61.847294 -0.73739761
l 169 170
v 88.110504 60 -0.68183374
v 88.013367 60 -0.52593219
l 171 172
v 90 61.847294 -0.73739761
v 90 61.688515 -0.90799814
l 173 174
v 88.013367 60 -0.52593219
v 87.940445 60 -0.35932636
l 175 176
v 87.878677 60 -1.8369701e-16
v 87.8946 60 0.18351579
l 177 178
v 87.940445 60 0.35932636
v 88.013367 60 0.52593219
l 179 180
v 87.8946 60 0.18351579
v 87.940445 60 0.35932636
l 181 182
v 87.8946 60 -0.18351579
v 87.878677 60 -1.8369701e-16
l 183 184
v 88.013367 60 0.52593219
v 88.110504 60 0.68183374
l 185 186
v 90 62.121319 0
v 90 62.117176 -0.094326638
l 187 188
v 90 61.496841 -1.0628899
v 90 61.27726 -1.1976237
l 189 190
v 90 61.036236 -1.3088576
v 90 60.781109 -1.3946096
l 191 192
v 90 61.27726 -1.1976237
v 90 61.036236 -1.3088576
l 193 194
v 88.355972 60 -0.94794017
v 88.225494 60 -0.82194227
l 195 196
v 88.225494 60 -0.82194227
v 88.110504 60 -0.68183374
l 197 198
v 89.303223 60 -1.416774
v 88.967903 60 -1.310491
l 199 200
v 88.651077 60 -1.1576697
v 88.498863 60 -1.0598439
l 201 202
v 88.967903 60 -1.310491
v 88.651077 60 -1.1576697
l 203 204
v 88.498863 60 -1.0598439
v 88.355972 60 -0.94794017
l 205 206
v 90 61.688515 -0.90799814
v 90 61.496841 -1.0628899
l 207 208
v 88.110504 60 0.68183374
v 88.225494 60 0.82194227
l 209 210
v 90 61.970062 0.5562638
v 90 62.055756 0.37005267
l 211 212
v 90 62.104614 0.18785922
v 90 62.117176 0.094326638
l 213 214
v 90 62.117176 0.094326638
v 90 62.121319 0
l 215 216
v 90 62.055756 0.37005267
v 90 62.104614 0.18785922
l 217 218
v 88.355972 60 0.94794017
v 88.498863 60 1.0598439
l 219 220
v 88.651077 60 1.1576697
v 88.967903 60 1.310491
l 221 222
v 88.498863 60 1.0598439
v 88.651077 60 1.1576697
l 223 224
v 88.967903 60 1.310491
v 89.303223 60 1.416774
l 225 226
v 90 61.496841 1.0628899
v 90 61.688515 0.90799814
l 227 228
v 90 61.847294 0.73739761
v 90 61.970062 0.5562638
l 229 230
v 90 61.688515 0.90799814
v 90 61.847294 0.73739761
l 231 232
v 90 61.036236 1.3088576
v 90 61.27726 1.1976237
l 233 234
v 90 60.781109 1.3946096
v 90 61.036236 1.3088576
l 235 236
v 90 61.27726 1.1976237
v 90 61.496841 1.0628899
l 237 238
v 88.225494 60 0.82194227
v 88.355972 60 0.94794017
l 239 240
v 91.332703 60 -1.1670355
v 91.155815 60 -1.2577939
l 241 242
v 91.625969 60 -0.96322507
v 91.5 60 -1.0606601
l 243 244
v 91.5 60 -1.0606601
v 91.332703 60 -1.1670355
l 245 246
v 91.155815 60 -1.2577939
v 90.783295 60 -1.3939967
l 247 248
v 91.74295 60 -0.85465187
v 91.625969 60 -0.96322507
l 249 250
v 91.848534 60 -0.73548853
v 91.74295 60 -0.85465187
l 251 252
v 91.940323 60 -0.60628307
v 91.848534 60 -0.73548853
l 253 254
v 92.072861 60 -0.31993777
v 92.0159 60 -0.46758348
l 255 256
v 92.121323 60 -1.8369701e-16
v 92.108803 60 -0.16389392
l 257 258
v 92.108803 60 -0.16389392
v 92.072861 60 -0.31993777
l 259 260
v 92.0159 60 -0.46758348
v 91.940323 60 -0.60628307
l 261 262
v 92.108803 60 0.16389392
v 92.121323 60 -1.8369701e-16
l 263 264
v 91.155815 60 1.2577939
v 91.332703 60 1.1670355
l 265 266
v 90.783295 60 1.3939967
v 91.155815 60 1.2577939
l 267 268
v 91.332703 60 1.1670355
v 91.5 60 1.0606601
l 269 270
v 91.625969 60 0.96322507
v 91.74295 60 0.85465187
l 271 272
v 91.5 60 1.0606601
v 91.625969 60 0.96322507
l 273 274
v 91.940323 60 0.60628307
v 92.0159 60 0.46758348
l 275 276
v 91.74295 60 0.85465187
v 91.848534 60 0.73548853
l 277 278
v 91.848534 60 0.73548853
v 91.940323 60 0.60628307
l 279 280
v 92.0159 60 0.46758348
v 92.072861 60 0.31993777
l 281 282
v 107.89539 80 0.18785922
v 107.88283 80 0.094326638
l 283 284
v 107.88283 80 0.094326638
v 107.87868 80 0
l 285 286
v 92.072861 60 0.31993777
v 92.108803 60 0.16389392
l 287 288
v 107.87868 80 0
v 107.88283 80 -0.094326638
l 289 290
v 107.94424 80 -0.37005267
v 108.02994 80 -0.5562638
l 291 292
v 107.89539 80 -0.18785922
v 107.94424 80 -0.37005267
l 293 294
v 108.15271 80 -0.73739761
v 108.31149 80 -0.90799814
l 295 296
v 108.50316 80 -1.0628899
v 108.72274 80 -1.1976237
l 297 298
v 108.31149 80 -0.90799814
v 108.50316 80 -1.0628899
l 299 300
v 108.02994 80 -0.5562638
v 108.15271 80 -0.73739761
l 301 302
v 108.96377 80 -1.3088576
v 109.21889 80 -1.3946096
l 303 304
v 108.72274 80 -1.1976237
v 108.96377 80 -1.3088576
l 305 306
v 109.21889 80 1.3946096
v 108.96377 80 1.3088576
l 307 308
v 108.96377 80 1.3088576
v 108.72274 80 1.1976237
l 309 310
v 107.94424 80 0.37005267
v 107.89539 80 0.18785922
l 311 312
v 108.02994 80 0.5562638
v 107.94424 80 0.37005267
l 313 314
v 108.72274 80 1.1976237
v 108.50316 80 1.0628899
l 315 316
v 108.31149 80 0.90799814
v 108.15271 80 0.73739761
l 317 318
v 108.50316 80 1.0628899
v 108.31149 80 0.90799814
l 319 320
v 108.15271 80 0.73739761
v 108.02994 80 0.5562638
l 321 322
v 107.88283 80 -0.094326638
v 107.89539 80 -0.18785922
l 323 324
v 50 97.895386 -0.18785922
v 50 97.944244 -0.37005267
l 325 326
v 50 97.882828 -0.094326638
v 50 97.895386 -0.18785922
l 327 328
v 50 98.029938 -0.5562638
v 50 98.15271 -0.73739761
l 329 330
v 50 98.311485 -0.90799814
v 50 98.503159 -1.0628899
l 331 332
v 50 98.15271 -0.73739761
v 50 98.311485 -0.90799814
l 333 334
v 50 97.944244 -0.37005267
v 50 98.029938 -0.5562638
l 335 336
v 50 98.72274 -1.1976237
v 50 98.963768 -1.3088576
l 337 338
v 50 98.963768 -1.3088576
v 50 99.218895 -1.3946096
l 339 340
v 50 98.503159 -1.0628899
v 50 98.72274 -1.1976237
l 341 342
v 50 98.15271 0.73739761
v 50 98.029938 0.5562638
l 343 344
v 50 98.311485 0.90799814
v 50 98.15271 0.73739761
l 345 346
v 50 98.72274 1.1976237
v 50 98.503159 1.0628899
l 347 348
v 50 98.963768 1.3088576
v 50 98.72274 1.1976237
l 349 350
v 50 98.503159 1.0628899
v 50 98.311485 0.90799814
l 351 352
v 50 97.882828 0.094326638
v 50 97.878677 0
l 353 354
v 50 97.895386 0.18785922
v 50 97.882828 0.094326638
l 355 356
v 50 97.944244 0.37005267
v 50 97.895386 0.18785922
l 357 358
v 50 98.029938 0.5562638
v 50 97.944244 0.37005267
l 359 360
v 50 99.218895 1.3946096
v 50 98.963768 1.3088576
l 361 362
v 50 97.878677 0
v 50 97.882828 -0.094326638
l 363 364
v 32.121319 80 0
v 32.117176 80 -0.094326638
l 365 366
v 32.104614 80 -0.18785922
v 32.055756 80 -0.37005267
l 367 368
v 32.117176 80 -0.094326638
v 32.104614 80 -0.18785922
l 369 370
v 32.055756 80 -0.37005267
v 31.97006 80 -0.5562638
l 371 372
v 30 82.059555 -0.35932636
v 30 82.1054 -0.18351579
l 373 374
v 30 81.986633 -0.52593219
v 30 82.059555 -0.35932636
l 375 376
v 30 81.644028 -0.94794017
v 30 81.774506 -0.82194227
l 377 378
v 30 81.774506 -0.82194227
v 30 81.889496 -0.68183374
l 379 380
v 31.847292 80 -0.73739761
v 31.688515 80 -0.90799814
l 381 382
v 30 81.889496 -0.68183374
v 30 81.986633 -0.52593219
l 383 384
v 31.97006 80 -0.5562638
v 31.847292 80 -0.73739761
l 385 386
v 30 82.1054 -0.18351579
v 30 82.121323 -1.8369701e-16
l 387 388
v 31.27726 80 -1.1976237
v 31.036236 80 -1.3088576
l 389 390
v 31.49684 80 -1.0628899
v 31.27726 80 -1.1976237
l 391 392
v 31.036236 80 -1.3088576
v 30.781107 80 -1.3946096
l 393 394
v 30 81.501137 -1.0598439
v 30 81.644028 -0.94794017
l 395 396
v 30 81.348923 -1.1576697
v 30 81.501137 -1.0598439
l 397 398
v 30 80.696777 -1.416774
v 30 81.032097 -1.310491
l 399 400
v 30 81.032097 -1.310491
v 30 81.348923 -1.1576697
l 401 402
v 31.688515 80 -0.90799814
v 31.49684 80 -1.0628899
l 403 404
v 30 82.059555 0.35932636
v 30 81.986633 0.52593219
l 405 406
v 30 82.1054 0.18351579
v 30 82.059555 0.35932636
l 407 408
v 30 81.889496 0.68183374
v 30 81.774506 0.82194227
l 409 410
v 30 81.644028 0.94794017
v 30 81.501137 1.0598439
l 411 412
v 30 81.774506 0.82194227
v 30 81.644028 0.94794017
l 413 414
v 30 81.986633 0.52593219
v 30 81.889496 0.68183374
l 415 416
v 31.847292 80 0.73739761
v 31.97006 80 0.5562638
l 417 418
v 32.117176 80 0.094326638
v 32.121319 80 0
l 419 420
v 32.055756 80 0.37005267
v 32.104614 80 0.18785922
l 421 422
v 32.104614 80 0.18785922
v 32.117176 80 0.094326638
l 423 424
v 31.97006 80 0.5562638
v 32.055756 80 0.37005267
l 425 426
v 30 82.121323 -1.8369701e-16
v 30 82.1054 0.18351579
l 427 428
v 30 81.032097 1.310491
v 30 80.696777 1.416774
l 429 430
v 30 81.348923 1.1576697
v 30 81.032097 1.310491
l 431 432
v 31.688515 80 0.90799814
v 31.847292 80 0.73739761
l 433 434
v 31.49684 80 1.0628899
v 31.688515 80 0.90799814
l 435 436
v 30.781107 80 1.3946096
v 31.036236 80 1.3088576
l 437 438
v 31.036236 80 1.3088576
v 31.27726 80 1.1976237
l 439 440
v 31.27726 80 1.1976237
v 31.49684 80 1.0628899
l 441 442
v 30 81.501137 1.0598439
v 30 81.348923 1.1576697
l 443 444
v 30 78.651077 -1.1576697
v 30 78.967903 -1.310491
l 445 446
v 30 78.498863 -1.0598439
v 30 78.651077 -1.1576697
l 447 448
v 30 78.967903 -1.310491
v 30 79.303223 -1.416774
l 449 450
v 30 78.355972 -0.94794017
v 30 78.498863 -1.0598439
l 451 452
v 30 77.878677 -1.8369701e-16
v 30 77.8946 -0.18351579
l 453 454
v 30 78.225494 -0.82194227
v 30 78.355972 -0.94794017
l 455 456
v 30 78.110504 -0.68183374
v 30 78.225494 -0.82194227
l 457 458
v 30 77.940445 -0.35932636
v 30 78.013367 -0.52593219
l 459 460
v 30 78.013367 -0.52593219
v 30 78.110504 -0.68183374
l 461 462
v 30 77.8946 -0.18351579
v 30 77.940445 -0.35932636
l 463 464
v 30 78.651077 1.1576697
v 30 78.498863 1.0598439
l 465 466
v 30 78.967903 1.310491
v 30 78.651077 1.1576697
l 467 468
v 30 79.303223 1.416774
v 30 78.967903 1.310491
l 469 470
v 30 78.225494 0.82194227
v 30 78.110504 0.68183374
l 471 472
v 30 78.355972 0.94794017
v 30 78.225494 0.82194227
l 473 474
v 30 77.940445 0.35932636
v 30 77.8946 0.18351579
l 475 476
v 30 78.013367 0.52593219
v 30 77.940445 0.35932636
l 477 478
v 30 78.110504 0.68183374
v 30 78.013367 0.52593219
l 479 480
v 30 77.8946 0.18351579
v 30 77.878677 -1.8369701e-16
l 481 482
v 30 78.498863 1.0598439
v 30 78.355972 0.94794017
l 483 484
v 50 62.104614 -0.18785922
v 50 62.055756 -0.37005267
l 485 486
v 50 62.117176 -0.094326638
v 50 62.104614 -0.18785922
l 487 488
v 50 61.847294 -0.73739761
v 50 61.688515 -0.90799814
l 489 490
v 50 61.970062 -0.5562638
v 50 61.847294 -0.73739761
l 491 492
v 50 62.055756 -0.37005267
v 50 61.970062 -0.5562638
l 493 494
v 47.940445 60 -0.35932636
v 47.894596 60 -0.18351579
l 495 496
v 48.013367 60 -0.52593219
v 47.940445 60 -0.35932636
l 497 498
v 48.225491 60 -0.82194227
v 48.1105 60 -0.68183374
l 499 500
v 48.1105 60 -0.68183374
v 48.013367 60 -0.52593219
l 501 502
v 48.355976 60 -0.94794017
v 48.225491 60 -0.82194227
l 503 504
v 50 61.688515 -0.90799814
v 50 61.496841 -1.0628899
l 505 506
v 47.894596 60 -0.18351579
v 47.878681 60 -1.8369701e-16
l 507 508
v 50 61.036236 -1.3088576
v 50 60.781109 -1.3946096
l 509 510
v 50 61.27726 -1.1976237
v 50 61.036236 -1.3088576
l 511 512
v 48.498863 60 -1.0598439
v 48.355976 60 -0.94794017
l 513 514
v 48.651073 60 -1.1576697
v 48.498863 60 -1.0598439
l 515 516
v 49.303219 60 -1.416774
v 48.967903 60 -1.310491
l 517 518
v 48.967903 60 -1.310491
v 48.651073 60 -1.1576697
l 519 520
v 50 61.496841 -1.0628899
v 50 61.27726 -1.1976237
l 521 522
v 47.940445 60 0.35932636
v 48.013367 60 0.52593219
l 523 524
v 47.894596 60 0.18351579
v 47.940445 60 0.35932636
l 525 526
v 48.225491 60 0.82194227
v 48.355976 60 0.94794017
l 527 528
v 48.1105 60 0.68183374
v 48.225491 60 0.82194227
l 529 530
v 48.013367 60 0.52593219
v 48.1105 60 0.68183374
l 531 532
v 50 62.117176 0.094326638
v 50 62.121319 0
l 533 534
v 50 62.104614 0.18785922
v 50 62.117176 0.094326638
l 535 536
v 50 61.688515 0.90799814
v 50 61.847294 0.73739761
l 537 538
v 50 61.970062 0.5562638
v 50 62.055756 0.37005267
l 539 540
v 50 61.847294 0.73739761
v 50 61.970062 0.5562638
l 541 542
v 50 62.055756 0.37005267
v 50 62.104614 0.18785922
l 543 544
v 48.355976 60 0.94794017
v 48.498863 60 1.0598439
l 545 546
v 47.878681 60 -1.8369701e-16
v 47.894596 60 0.18351579
l 547 548
v 48.651073 60 1.1576697
v 48.967903 60 1.310491
l 549 550
v 48.498863 60 1.0598439
v 48.651073 60 1.1576697
l 551 552
v 48.967903 60 1.310491
v 49.303219 60 1.416774
l 553 554
v 50 61.27726 1.1976237
v 50 61.496841 1.0628899
l 555 556
v 50 61.036236 1.3088576
v 50 61.27726 1.1976237
l 557 558
v 50 60.781109 1.3946096
v 50 61.036236 1.3088576
l 559 560
v 50 61.496841 1.0628899
v 50 61.688515 0.90799814
l 561 562
v 50 62.121319 0
v 50 62.117176 -0.094326638
l 563 564
v 10 97.878677 0
v 10 97.882828 -0.094326638
l 565 566
v 10 97.882828 -0.094326638
v 10 97.895386 -0.18785922
l 567 568
v 10 97.944244 -0.37005267
v 10 98.029938 -0.5562638
l 569 570
v 10 98.311485 -0.90799814
v 10 98.503159 -1.0628899
l 571 572
v 10 97.895386 -0.18785922
v 10 97.944244 -0.37005267
l 573 574
v 10 98.029938 0.5562638
v 10 97.944244 0.37005267
l 575 576
v 10 97.895386 0.18785922
v 10 97.882828 0.094326638
l 577 578
v 10 97.882828 0.094326638
v 10 97.878677 0
l 579 580
v 10 97.944244 0.37005267
v 10 97.895386 0.18785922
l 581 582
v 10 98.15271 -0.73739761
v 10 98.311485 -0.90799814
l 583 584
v 10 98.029938 -0.5562638
v 10 98.15271 -0.73739761
l 585 586
v 10 98.503159 -1.0628899
v 10 98.72274 -1.1976237
l 587 588
v 10 98.963768 -1.3088576
v 10 99.218895 -1.3946096
l 589 590
v 10 98.72274 -1.1976237
v 10 98.963768 -1.3088576
l 591 592
v 10 98.15271 0.73739761
v 10 98.029938 0.5562638
l 593 594
v 10 98.963768 1.3088576
v 10 98.72274 1.1976237
l 595 596
v 10 98.311485 0.90799814
v 10 98.15271 0.73739761
l 597 598
v 10 98.503159 1.0628899
v 10 98.311485 0.90799814
l 599 600
v 10 98.72274 1.1976237
v 10 98.503159 1.0628899
l 601 602
v 10 99.218895 1.3946096
v 10 98.963768 1.3088576
l 603 604
v -7.8953862 80 -0.18785922
v -7.9442458 80 -0.37005267
l 605 606
v -7.8828259 80 -0.094326638
v -7.8953862 80 -0.18785922
l 607 608
v -8.0299387 80 -0.5562638
v -8.1527071 80 -0.73739761
l 609 610
v -8.3114862 80 -0.90799814
v -8.5031605 80 -1.0628899
l 611 612
v -8.1527071 80 -0.73739761
v -8.3114862 80 -0.90799814
l 613 614
v -7.9442458 80 -0.37005267
v -8.0299387 80 -0.5562638
l 615 616
v -8.9637651 80 -1.3088576
v -9.2188931 80 -1.3946096
l 617 618
v -8.7227392 80 -1.1976237
v -8.9637651 80 -1.3088576
l 619 620
v -8.5031605 80 -1.0628899
v -8.7227392 80 -1.1976237
l 621 622
v -8.9637651 80 1.3088576
v -8.7227392 80 1.1976237
l 623 624
v -9.2188931 80 1.3946096
v -8.9637651 80 1.3088576
l 625 626
v -8.7227392 80 1.1976237
v -8.5031605 80 1.0628899
l 627 628
v -7.9442458 80 0.37005267
v -7.8953862 80 0.18785922
l 629 630
v -7.8828259 80 0.094326638
v -7.8786798 80 0
l 631 632
v -7.8953862 80 0.18785922
v -7.8828259 80 0.094326638
l 633 634
v -8.5031605 80 1.0628899
v -8.3114862 80 0.90799814
l 635 636
v -8.1527071 80 0.73739761
v -8.0299387 80 0.5562638
l 637 638
v -8.3114862 80 0.90799814
v -8.1527071 80 0.73739761
l 639 640
v -8.0299387 80 0.5562638
v -7.9442458 80 0.37005267
l 641 642
v -7.8786798 80 0
v -7.8828259 80 -0.094326638
l 643 644
v 10 62.121319 0
v 10 62.117176 -0.094326638
l 645 646
v 10 62.104614 -0.18785922
v 10 62.055756 -0.37005267
l 647 648
v 10 62.117176 -0.094326638
v 10 62.104614 -0.18785922
l 649 650
v 10 62.055756 -0.37005267
v 10 61.970062 -0.5562638
l 651 652
v 7.9404445 60 -0.35932636
v 7.8945971 60 -0.18351579
l 653 654
v 8.0133648 60 -0.52593219
v 7.9404445 60 -0.35932636
l 655 656
v 8.3559752 60 -0.94794017
v 8.2254906 60 -0.82194227
l 657 658
v 8.2254906 60 -0.82194227
v 8.1105013 60 -0.68183374
l 659 660
v 10 61.847294 -0.73739761
v 10 61.688515 -0.90799814
l 661 662
v 8.1105013 60 -0.68183374
v 8.0133648 60 -0.52593219
l 663 664
v 10 61.970062 -0.5562638
v 10 61.847294 -0.73739761
l 665 666
v 7.8945971 60 -0.18351579
v 7.8786798 60 -1.8369701e-16
l 667 668
v 10 61.27726 -1.1976237
v 10 61.036236 -1.3088576
l 669 670
v 10 61.496841 -1.0628899
v 10 61.27726 -1.1976237
l 671 672
v 10 61.036236 -1.3088576
v 10 60.781109 -1.3946096
l 673 674
v 8.4988651 60 -1.0598439
v 8.3559752 60 -0.94794017
l 675 676
v 8.6510735 60 -1.1576697
v 8.4988651 60 -1.0598439
l 677 678
v 9.3032198 60 -1.416774
v 8.9679022 60 -1.310491
l 679 680
v 8.9679022 60 -1.310491
v 8.6510735 60 -1.1576697
l 681 682
v 10 61.688515 -0.90799814
v 10 61.496841 -1.0628899
l 683 684
v 7.9404445 60 0.35932636
v 8.0133648 60 0.52593219
l 685 686
v 7.8945971 60 0.18351579
v 7.9404445 60 0.35932636
l 687 688
v 8.1105013 60 0.68183374
v 8.2254906 60 0.82194227
l 689 690
v 8.3559752 60 0.94794017
v 8.4988651 60 1.0598439
l 691 692
v 8.2254906 60 0.82194227
v 8.3559752 60 0.94794017
l 693 694
v 8.0133648 60 0.52593219
v 8.1105013 60 0.68183374
l 695 696
v 10 61.847294 0.73739761
v 10 61.970062 0.5562638
l 697 698
v 10 62.117176 0.094326638
v 10 62.121319 0
l 699 700
v 10 62.055756 0.37005267
v 10 62.104614 0.18785922
l 701 702
v 10 62.104614 0.18785922
v 10 62.117176 0.094326638
l 703 704
v 10 61.970062 0.5562638
v 10 62.055756 0.37005267
l 705 706
v 7.8786798 60 -1.8369701e-16
v 7.8945971 60 0.18351579
l 707 708
v 8.9679022 60 1.310491
v 9.3032198 60 1.416774
l 709 710
v 8.6510735 60 1.1576697
v 8.9679022 60 1.310491
l 711 712
v 10 61.688515 0.90799814
v 10 61.847294 0.73739761
l 713 714
v 10 61.496841 1.0628899
v 10 61.688515 0.90799814
l 715 716
v 10 60.781109 1.3946096
v 10 61.036236 1.3088576
l 717 718
v 10 61.036236 1.3088576
v 10 61.27726 1.1976237
l 719 720
v 10 61.27726 1.1976237
v 10 61.496841 1.0628899
l 721 722
v 8.4988651 60 1.0598439
v 8.6510735 60 1.1576697
l 723 724
v 71.496841 40 -1.0628899
v 71.688515 40 -0.90799814
l 725 726
v 71.036232 40 -1.3088576
v 71.27726 40 -1.1976237
l 727 728
v 71.27726 40 -1.1976237
v 71.496841 40 -1.0628899
l 729 730
v 70.781105 40 -1.3946096
v 71.036232 40 -1.3088576
l 731 732
v 70 38.967903 -1.310491
v 70 39.303219 -1.416774
l 733 734
v 70 38.498863 -1.0598439
v 70 38.651073 -1.1576697
l 735 736
v 70 38.225491 -0.82194227
v 70 38.355976 -0.94794017
l 737 738
v 70 38.355976 -0.94794017
v 70 38.498863 -1.0598439
l 739 740
v 70 38.651073 -1.1576697
v 70 38.967903 -1.310491
l 741 742
v 71.688515 40 -0.90799814
v 71.84729 40 -0.73739761
l 743 744
v 72.104614 40 -0.18785922
v 72.117172 40 -0.094326638
l 745 746
v 71.970062 40 -0.5562638
v 72.055756 40 -0.37005267
l 747 748
v 72.055756 40 -0.37005267
v 72.104614 40 -0.18785922
l 749 750
v 72.117172 40 -0.094326638
v 72.121323 40 0
l 751 752
v 71.84729 40 -0.73739761
v 71.970062 40 -0.5562638
l 753 754
v 70 39.303219 1.416774
v 70 38.967903 1.310491
l 755 756
v 70 38.355976 0.94794017
v 70 38.225491 0.82194227
l 757 758
v 70 38.651073 1.1576697
v 70 38.498863 1.0598439
l 759 760
v 70 38.498863 1.0598439
v 70 38.355976 0.94794017
l 761 762
v 70 38.967903 1.310491
v 70 38.651073 1.1576697
l 763 764
v 71.27726 40 1.1976237
v 71.036232 40 1.3088576
l 765 766
v 71.688515 40 0.90799814
v 71.496841 40 1.0628899
l 767 768
v 71.84729 40 0.73739761
v 71.688515 40 0.90799814
l 769 770
v 71.496841 40 1.0628899
v 71.27726 40 1.1976237
l 771 772
v 71.036232 40 1.3088576
v 70.781105 40 1.3946096
l 773 774
v 70 37.940445 -0.35932636
v 70 38.013367 -0.52593219
l 775 776
v 70 37.878681 -1.8369701e-16
v 70 37.894596 -0.18351579
l 777 778
v 70 37.894596 -0.18351579
v 70 37.940445 -0.35932636
l 779 780
v 70 38.013367 -0.52593219
v 70 38.1105 -0.68183374
l 781 782
v 70 37.894596 0.18351579
v 70 37.878681 -1.8369701e-16
l 783 784
v 70 38.1105 0.68183374
v 70 38.013367 0.52593219
l 785 786
v 71.970062 40 0.5562638
v 71.84729 40 0.73739761
l 787 788
v 70 38.013367 0.52593219
v 70 37.940445 0.35932636
l 789 790
v 70 38.225491 0.82194227
v 70 38.1105 0.68183374
l 791 792
v 70 37.940445 0.35932636
v 70 37.894596 0.18351579
l 793 794
v 72.104614 40 0.18785922
v 72.055756 40 0.37005267
l 795 796
v 72.117172 40 0.094326638
v 72.104614 40 0.18785922
l 797 798
v 72.121323 40 0
v 72.117172 40 0.094326638
l 799 800
v 72.055756 40 0.37005267
v 71.970062 40 0.5562638
l 801 802
v 70 38.1105 -0.68183374
v 70 38.225491 -0.82194227
l 803 804
v 90 22.117174 -0.094326638
v 90 22.104614 -0.18785922
l 805 806
v 87.940445 20 -0.35932636
v 87.8946 20 -0.18351579
l 807 808
v 90 22.104614 -0.18785922
v 90 22.055754 -0.37005267
l 809 810
v 87.8946 20 -0.18351579
v 87.878677 20 -1.8369701e-16
l 811 812
v 90 21.97006 -0.5562638
v 90 21.847292 -0.73739761
l 813 814
v 88.013367 20 -0.52593219
v 87.940445 20 -0.35932636
l 815 816
v 90 22.055754 -0.37005267
v 90 21.97006 -0.5562638
l 817 818
v 87.878677 20 -1.8369701e-16
v 87.8946 20 0.18351579
l 819 820
v 87.8946 20 0.18351579
v 87.940445 20 0.35932636
l 821 822
v 88.013367 20 0.52593219
v 88.110504 20 0.68183374
l 823 824
v 87.940445 20 0.35932636
v 88.013367 20 0.52593219
l 825 826
v 88.110504 20 0.68183374
v 88.225494 20 0.82194227
l 827 828
v 90 21.847292 -0.73739761
v 90 21.688515 -0.90799814
l 829 830
v 90 22.121321 0
v 90 22.117174 -0.094326638
l 831 832
v 90 21.49684 -1.0628899
v 90 21.27726 -1.1976237
l 833 834
v 90 21.036236 -1.3088576
v 90 20.781107 -1.3946096
l 835 836
v 90 21.27726 -1.1976237
v 90 21.036236 -1.3088576
l 837 838
v 88.355972 20 -0.94794017
v 88.225494 20 -0.82194227
l 839 840
v 88.110504 20 -0.68183374
v 88.013367 20 -0.52593219
l 841 842
v 88.225494 20 -0.82194227
v 88.110504 20 -0.68183374
l 843 844
v 89.303223 20 -1.416774
v 88.967903 20 -1.310491
l 845 846
v 88.651077 20 -1.1576697
v 88.498863 20 -1.0598439
l 847 848
v 88.967903 20 -1.310491
v 88.651077 20 -1.1576697
l 849 850
v 88.498863 20 -1.0598439
v 88.355972 20 -0.94794017
l 851 852
v 90 21.688515 -0.90799814
v 90 21.49684 -1.0628899
l 853 854
v 90 21.97006 0.5562638
v 90 22.055754 0.37005267
l 855 856
v 90 22.104614 0.18785922
v 90 22.117174 0.094326638
l 857 858
v 90 22.117174 0.094326638
v 90 22.121321 0
l 859 860
v 90 22.055754 0.37005267
v 90 22.104614 0.18785922
l 861 862
v 88.355972 20 0.94794017
v 88.498863 20 1.0598439
l 863 864
v 88.651077 20 1.1576697
v 88.967903 20 1.310491
l 865 866
v 88.498863 20 1.0598439
v 88.651077 20 1.1576697
l 867 868
v 88.967903 20 1.310491
v 89.303223 20 1.416774
l 869 870
v 90 21.49684 1.0628899
v 90 21.688515 0.90799814
l 871 872
v 90 21.847292 0.73739761
v 90 21.97006 0.5562638
l 873 874
v 90 21.688515 0.90799814
v 90 21.847292 0.73739761
l 875 876
v 90 21.036236 1.3088576
v 90 21.27726 1.1976237
l 877 878
v 90 20.781107 1.3946096
v 90 21.036236 1.3088576
l 879 880
v 90 21.27726 1.1976237
v 90 21.49684 1.0628899
l 881 882
v 88.225494 20 0.82194227
v 88.355972 20 0.94794017
l 883 884
v 91.332703 20 -1.1670355
v 91.155815 20 -1.2577939
l 885 886
v 91.155815 20 -1.2577939
v 90.783295 20 -1.3939967
l 887 888
v 91.625969 20 -0.96322507
v 91.5 20 -1.0606601
l 889 890
v 91.848534 20 -0.73548853
v 91.74295 20 -0.85465187
l 891 892
v 91.940323 20 -0.60628307
v 91.848534 20 -0.73548853
l 893 894
v 91.74295 20 -0.85465187
v 91.625969 20 -0.96322507
l 895 896
v 91.5 20 -1.0606601
v 91.332703 20 -1.1670355
l 897 898
v 90.783295 20 1.3939967
v 91.155815 20 1.2577939
l 899 900
v 91.74295 20 0.85465187
v 91.848534 20 0.73548853
l 901 902
v 91.5 20 1.0606601
v 91.625969 20 0.96322507
l 903 904
v 91.332703 20 1.1670355
v 91.5 20 1.0606601
l 905 906
v 91.625969 20 0.96322507
v 91.74295 20 0.85465187
l 907 908
v 91.155815 20 1.2577939
v 91.332703 20 1.1670355
l 909 910
v 91.848534 20 0.73548853
v 91.940323 20 0.60628307
l 911 912
v 92.072861 20 -0.31993777
v 92.0159 20 -0.46758348
l 913 914
v 92.108803 20 -0.16389392
v 92.072861 20 -0.31993777
l 915 916
v 92.121323 20 -1.8369701e-16
v 92.108803 20 -0.16389392
l 917 918
v 92.108803 20 0.16389392
v 92.121323 20 -1.8369701e-16
l 919 920
v 92.0159 20 -0.46758348
v 91.940323 20 -0.60628307
l 921 922
v 92.072861 20 0.31993777
v 92.108803 20 0.16389392
l 923 924
v 92.0159 20 0.46758348
v 92.072861 20 0.31993777
l 925 926
v 91.940323 20 0.60628307
v 92.0159 20 0.46758348
l 927 928
v 107.88283 40 -0.094326638
v 107.89539 40 -0.18785922
l 929 930
v 107.94424 40 -0.37005267
v 108.02994 40 -0.5562638
l 931 932
v 107.89539 40 -0.18785922
v 107.94424 40 -0.37005267
l 933 934
v 108.15271 40 -0.73739761
v 108.31149 40 -0.90799814
l 935 936
v 108.72274 40 -1.1976237
v 108.96377 40 -1.3088576
l 937 938
v 108.50316 40 -1.0628899
v 108.72274 40 -1.1976237
l 939 940
v 108.31149 40 -0.90799814
v 108.50316 40 -1.0628899
l 941 942
v 108.02994 40 -0.5562638
v 108.15271 40 -0.73739761
l 943 944
v 108.96377 40 -1.3088576
v 109.21889 40 -1.3946096
l 945 946
v 108.15271 40 0.73739761
v 108.02994 40 0.5562638
l 947 948
v 108.02994 40 0.5562638
v 107.94424 40 0.37005267
l 949 950
v 107.88283 40 0.094326638
v 107.87868 40 0
l 951 952
v 107.89539 40 0.18785922
v 107.88283 40 0.094326638
l 953 954
v 107.94424 40 0.37005267
v 107.89539 40 0.18785922
l 955 956
v 108.72274 40 1.1976237
v 108.50316 40 1.0628899
l 957 958
v 108.31149 40 0.90799814
v 108.15271 40 0.73739761
l 959 960
v 108.50316 40 1.0628899
v 108.31149 40 0.90799814
l 961 962
v 109.21889 40 1.3946096
v 108.96377 40 1.3088576
l 963 964
v 108.96377 40 1.3088576
v 108.72274 40 1.1976237
l 965 966
v 107.87868 40 0
v 107.88283 40 -0.094326638
l 967 968
v 31.49684 40 -1.0628899
v 31.688515 40 -0.90799814
l 969 970
v 31.036236 40 -1.3088576
v 31.27726 40 -1.1976237
l 971 972
v 31.27726 40 -1.1976237
v 31.49684 40 -1.0628899
l 973 974
v 30.781107 40 -1.3946096
v 31.036236 40 -1.3088576
l 975 976
v 30 38.967903 -1.310491
v 30 39.303219 -1.416774
l 977 978
v 30 38.498863 -1.0598439
v 30 38.651073 -1.1576697
l 979 980
v 30 38.225491 -0.82194227
v 30 38.355976 -0.94794017
l 981 982
v 30 38.355976 -0.94794017
v 30 38.498863 -1.0598439
l 983 984
v 30 38.651073 -1.1576697
v 30 38.967903 -1.310491
l 985 986
v 31.688515 40 -0.90799814
v 31.847292 40 -0.73739761
l 987 988
v 32.104614 40 -0.18785922
v 32.117176 40 -0.094326638
l 989 990
v 31.97006 40 -0.5562638
v 32.055756 40 -0.37005267
l 991 992
v 32.055756 40 -0.37005267
v 32.104614 40 -0.18785922
l 993 994
v 32.117176 40 -0.094326638
v 32.121319 40 0
l 995 996
v 31.847292 40 -0.73739761
v 31.97006 40 -0.5562638
l 997 998
v 30 39.303219 1.416774
v 30 38.967903 1.310491
l 999 1000
v 30 38.355976 0.94794017
v 30 38.225491 0.82194227
l 1001 1002
v 30 38.651073 1.1576697
v 30 38.498863 1.0598439
l 1003 1004
v 30 38.498863 1.0598439
v 30 38.355976 0.94794017
l 1005 1006
v 30 38.967903 1.310491
v 30 38.651073 1.1576697
l 1007 1008
v 31.27726 40 1.1976237
v 31.036236 40 1.3088576
l 1009 1010
v 31.688515 40 0.90799814
v 31.49684 40 1.0628899
l 1011 1012
v 31.847292 40 0.73739761
v 31.688515 40 0.90799814
l 1013 1014
v 31.49684 40 1.0628899
v 31.27726 40 1.1976237
l 1015 1016
v 31.036236 40 1.3088576
v 30.781107 40 1.3946096
l 1017 1018
v 30 37.940445 -0.35932636
v 30 38.013367 -0.52593219
l 1019 1020
v 30 37.878681 -1.8369701e-16
v 30 37.894596 -0.18351579
l 1021 1022
v 30 37.894596 -0.18351579
v 30 37.940445 -0.35932636
l 1023 1024
v 30 38.013367 -0.52593219
v 30 38.1105 -0.68183374
l 1025 1026
v 30 37.894596 0.18351579
v 30 37.878681 -1.8369701e-16
l 1027 1028
v 30 38.1105 0.68183374
v 30 38.013367 0.52593219
l 1029 1030
v 31.97006 40 0.5562638
v 31.847292 40 0.73739761
l 1031 1032
v 30 38.013367 0.52593219
v 30 37.940445 0.35932636
l 1033 1034
v 30 38.225491 0.82194227
v 30 38.1105 0.68183374
l 1035 1036
v 30 37.940445 0.35932636
v 30 37.894596 0.18351579
l 1037 1038
v 32.104614 40 0.18785922
v 32.055756 40 0.37005267
l 1039 1040
v 32.117176 40 0.094326638
v 32.104614 40 0.18785922
l 1041 1042
v 32.121319 40 0
v 32.117176 40 0.094326638
l 1043 1044
v 32.055756 40 0.37005267
v 31.97006 40 0.5562638
l 1045 1046
v 30 38.1105 -0.68183374
v 30 38.225491 -0.82194227
l 1047 1048
v 50 22.117174 -0.094326638
v 50 22.104614 -0.18785922
l 1049 1050
v 47.940445 20 -0.35932636
v 47.894596 20 -0.18351579
l 1051 1052
v 50 22.104614 -0.18785922
v 50 22.055754 -0.37005267
l 1053 1054
v 47.894596 20 -0.18351579
v 47.878681 20 -1.8369701e-16
l 1055 1056
v 50 21.97006 -0.5562638
v 50 21.847292 -0.73739761
l 1057 1058
v 48.013367 20 -0.52593219
v 47.940445 20 -0.35932636
l 1059 1060
v 50 22.055754 -0.37005267
v 50 21.97006 -0.5562638
l 1061 1062
v 47.878681 20 -1.8369701e-16
v 47.894596 20 0.18351579
l 1063 1064
v 47.894596 20 0.18351579
v 47.940445 20 0.35932636
l 1065 1066
v 48.013367 20 0.52593219
v 48.1105 20 0.68183374
l 1067 1068
v 47.940445 20 0.35932636
v 48.013367 20 0.52593219
l 1069 1070
v 48.1105 20 0.68183374
v 48.225491 20 0.82194227
l 1071 1072
v 50 21.847292 -0.73739761
v 50 21.688515 -0.90799814
l 1073 1074
v 50 22.121321 0
v 50 22.117174 -0.094326638
l 1075 1076
v 50 21.49684 -1.0628899
v 50 21.27726 -1.1976237
l 1077 1078
v 50 21.036236 -1.3088576
v 50 20.781107 -1.3946096
l 1079 1080
v 50 21.27726 -1.1976237
v 50 21.036236 -1.3088576
l 1081 1082
v 48.355976 20 -0.94794017
v 48.225491 20 -0.82194227
l 1083 1084
v 48.1105 20 -0.68183374
v 48.013367 20 -0.52593219
l 1085 1086
v 48.225491 20 -0.82194227
v 48.1105 20 -0.68183374
l 1087 1088
v 49.303219 20 -1.416774
v 48.967903 20 -1.310491
l 1089 1090
v 48.651073 20 -1.1576697
v 48.498863 20 -1.0598439
l 1091 1092
v 48.967903 20 -1.310491
v 48.651073 20 -1.1576697
l 1093 1094
v 48.498863 20 -1.0598439
v 48.355976 20 -0.94794017
l 1095 1096
v 50 21.688515 -0.90799814
v 50 21.49684 -1.0628899
l 1097 1098
v 50 21.97006 0.5562638
v 50 22.055754 0.37005267
l 1099 1100
v 50 22.104614 0.18785922
v 50 22.117174 0.094326638
l 1101 1102
v 50 22.117174 0.094326638
v 50 22.121321 0
l 1103 1104
v 50 22.055754 0.37005267
v 50 22.104614 0.18785922
l 1105 1106
v 48.355976 20 0.94794017
v 48.498863 20 1.0598439
l 1107 1108
v 48.651073 20 1.1576697
v 48.967903 20 1.310491
l 1109 1110
v 48.498863 20 1.0598439
v 48.651073 20 1.1576697
l 1111 1112
v 48.967903 20 1.310491
v 49.303219 20 1.416774
l 1113 1114
v 50 21.49684 1.0628899
v 50 21.688515 0.90799814
l 1115 1116
v 50 21.847292 0.73739761
v 50 21.97006 0.5562638
l 1117 1118
v 50 21.688515 0.90799814
v 50 21.847292 0.73739761
l 1119 1120
v 50 21.036236 1.3088576
v 50 21.27726 1.1976237
l 1121 1122
v 50 20.781107 1.3946096
v 50 21.036236 1.3088576
l 1123 1124
v 50 21.27726 1.1976237
v 50 21.49684 1.0628899
l 1125 1126
v 48.225491 20 0.82194227
v 48.355976 20 0.94794017
l 1127 1128
v -8.7227392 40 -1.1976237
v -8.5031605 40 -1.0628899
l 1129 1130
v -9.2188931 40 -1.3946096
v -8.9637651 40 -1.3088576
l 1131 1132
v -8.9637651 40 -1.3088576
v -8.7227392 40 -1.1976237
l 1133 1134
v -8.5031605 40 -1.0628899
v -8.3114862 40 -0.90799814
l 1135 1136
v -8.1527071 40 -0.73739761
v -8.0299387 40 -0.5562638
l 1137 1138
v -8.0299387 40 -0.5562638
v -7.9442458 40 -0.37005267
l 1139 1140
v -7.8828259 40 -0.094326638
v -7.8786798 40 0
l 1141 1142
v -7.9442458 40 -0.37005267
v -7.8953862 40 -0.18785922
l 1143 1144
v -7.8953862 40 -0.18785922
v -7.8828259 40 -0.094326638
l 1145 1146
v -8.3114862 40 -0.90799814
v -8.1527071 40 -0.73739761
l 1147 1148
v -8.9637651 40 1.3088576
v -9.2188931 40 1.3946096
l 1149 1150
v -8.3114862 40 0.90799814
v -8.5031605 40 1.0628899
l 1151 1152
v -8.7227392 40 1.1976237
v -8.9637651 40 1.3088576
l 1153 1154
v -8.0299387 40 0.5562638
v -8.1527071 40 0.73739761
l 1155 1156
v -7.8828259 40 0.094326638
v -7.8953862 40 0.18785922
l 1157 1158
v -7.8786798 40 0
v -7.8828259 40 0.094326638
l 1159 1160
v -7.8953862 40 0.18785922
v -7.9442458 40 0.37005267
l 1161 1162
v -8.1527071 40 0.73739761
v -8.3114862 40 0.90799814
l 1163 1164
v -8.5031605 40 1.0628899
v -8.7227392 40 1.1976237
l 1165 1166
v -7.9442458 40 0.37005267
v -8.0299387 40 0.5562638
l 1167 1168
v 10 22.117174 -0.094326638
v 10 22.104614 -0.18785922
l 1169 1170
v 8.1105013 20 -0.68183374
v 8.0133648 20 -0.52593219
l 1171 1172
v 10 22.104614 -0.18785922
v 10 22.055754 -0.37005267
l 1173 1174
v 10 22.121321 0
v 10 22.117174 -0.094326638
l 1175 1176
v 8.0133648 20 -0.52593219
v 7.9404445 20 -0.35932636
l 1177 1178
v 10 21.97006 -0.5562638
v 10 21.847292 -0.73739761
l 1179 1180
v 10 22.055754 -0.37005267
v 10 21.97006 -0.5562638
l 1181 1182
v 7.8945971 20 -0.18351579
v 7.8786798 20 -1.8369701e-16
l 1183 1184
v 7.9404445 20 0.35932636
v 8.0133648 20 0.52593219
l 1185 1186
v 7.8945971 20 0.18351579
v 7.9404445 20 0.35932636
l 1187 1188
v 7.8786798 20 -1.8369701e-16
v 7.8945971 20 0.18351579
l 1189 1190
v 7.9404445 20 -0.35932636
v 7.8945971 20 -0.18351579
l 1191 1192
v 8.0133648 20 0.52593219
v 8.1105013 20 0.68183374
l 1193 1194
v 10 21.688515 -0.90799814
v 10 21.49684 -1.0628899
l 1195 1196
v 10 21.27726 -1.1976237
v 10 21.036236 -1.3088576
l 1197 1198
v 10 21.49684 -1.0628899
v 10 21.27726 -1.1976237
l 1199 1200
v 10 21.036236 -1.3088576
v 10 20.781107 -1.3946096
l 1201 1202
v 8.2254906 20 -0.82194227
v 8.1105013 20 -0.68183374
l 1203 1204
v 8.3559752 20 -0.94794017
v 8.2254906 20 -0.82194227
l 1205 1206
v 9.3032198 20 -1.416774
v 8.9679022 20 -1.310491
l 1207 1208
v 8.6510735 20 -1.1576697
v 8.4988651 20 -1.0598439
l 1209 1210
v 8.9679022 20 -1.310491
v 8.6510735 20 -1.1576697
l 1211 1212
v 8.4988651 20 -1.0598439
v 8.3559752 20 -0.94794017
l 1213 1214
v 10 21.847292 -0.73739761
v 10 21.688515 -0.90799814
l 1215 1216
v 10 21.97006 0.5562638
v 10 22.055754 0.37005267
l 1217 1218
v 10 22.104614 0.18785922
v 10 22.117174 0.094326638
l 1219 1220
v 10 22.117174 0.094326638
v 10 22.121321 0
l 1221 1222
v 10 22.055754 0.37005267
v 10 22.104614 0.18785922
l 1223 1224
v 8.2254906 20 0.82194227
v 8.3559752 20 0.94794017
l 1225 1226
v 8.4988651 20 1.0598439
v 8.6510735 20 1.1576697
l 1227 1228
v 8.3559752 20 0.94794017
v 8.4988651 20 1.0598439
l 1229 1230
v 8.9679022 20 1.310491
v 9.3032198 20 1.416774
l 1231 1232
v 8.6510735 20 1.1576697
v 8.9679022 20 1.310491
l 1233 1234
v 10 21.49684 1.0628899
v 10 21.688515 0.90799814
l 1235 1236
v 10 21.847292 0.73739761
v 10 21.97006 0.5562638
l 1237 1238
v 10 21.688515 0.90799814
v 10 21.847292 0.73739761
l 1239 1240
v 10 21.036236 1.3088576
v 10 21.27726 1.1976237
l 1241 1242
v 10 20.781107 1.3946096
v 10 21.036236 1.3088576
l 1243 1244
v 10 21.27726 1.1976237
v 10 21.49684 1.0628899
l 1245 1246
v 8.1105013 20 0.68183374
v 8.2254906 20 0.82194227
l 1247 1248
v 71.496841 -8.0805969e-16 -1.0628899
v 71.688515 1.3749263e-15 -0.90799814
l 1249 1250
v 71.036232 2.5963881e-16 -1.3088576
v 71.27726 2.378315e-15 -1.1976237
l 1251 1252
v 71.27726 2.378315e-15 -1.1976237
v 71.496841 -8.0805969e-16 -1.0628899
l 1253 1254
v 70.781105 -4.1043443e-15 -1.3946096
v 71.036232 2.5963881e-16 -1.3088576
l 1255 1256
v 70 -1.0320983 -1.310491
v 70 -0.69678026 -1.416774
l 1257 1258
v 70 -1.501135 -1.0598439
v 70 -1.3489262 -1.1576697
l 1259 1260
v 70 -1.7745091 -0.82194227
v 70 -1.6440252 -0.94794017
l 1261 1262
v 70 -1.8894987 -0.68183374
v 70 -1.7745091 -0.82194227
l 1263 1264
v 70 -1.6440252 -0.94794017
v 70 -1.501135 -1.0598439
l 1265 1266
v 70 -1.3489262 -1.1576697
v 70 -1.0320983 -1.310491
l 1267 1268
v 71.688515 1.3749263e-15 -0.90799814
v 71.84729 -1.7080063e-15 -0.73739761
l 1269 1270
v 72.104614 1.9619085e-15 -0.18785922
v 72.117172 1.0340167e-15 -0.094326638
l 1271 1272
v 71.970062 -1.69061e-15 -0.5562638
v 72.055756 -5.2373614e-16 -0.37005267
l 1273 1274
v 72.055756 -5.2373614e-16 -0.37005267
v 72.104614 1.9619085e-15 -0.18785922
l 1275 1276
v 72.117172 1.0340167e-15 -0.094326638
v 72.121323 -3.3306691e-15 0
l 1277 1278
v 71.84729 -1.7080063e-15 -0.73739761
v 71.970062 -1.69061e-15 -0.5562638
l 1279 1280
v 70 -1.6440252 0.94794017
v 70 -1.7745091 0.82194227
l 1281 1282
v 70 -1.3489262 1.1576697
v 70 -1.501135 1.0598439
l 1283 1284
v 70 -1.0320983 1.310491
v 70 -1.3489262 1.1576697
l 1285 1286
v 70 -1.501135 1.0598439
v 70 -1.6440252 0.94794017
l 1287 1288
v 70 -0.69678026 1.416774
v 70 -1.0320983 1.310491
l 1289 1290
v 71.036232 -2.3601629e-15 1.3088576
v 70.781105 -2.8082719e-15 1.3946096
l 1291 1292
v 71.496841 -7.9112433e-16 1.0628899
v 71.27726 4.8418813e-15 1.1976237
l 1293 1294
v 71.84729 -1.7150437e-15 0.73739761
v 71.688515 1.2969902e-15 0.90799814
l 1295 1296
v 71.970062 -1.7106594e-15 0.5562638
v 71.84729 -1.7150437e-15 0.73739761
l 1297 1298
v 71.688515 1.2969902e-15 0.90799814
v 71.496841 -7.9112433e-16 1.0628899
l 1299 1300
v 71.27726 4.8418813e-15 1.1976237
v 71.036232 -2.3601629e-15 1.3088576
l 1301 1302
v 70 -1.7745091 0.82194227
v 70 -1.8894987 0.68183374
l 1303 1304
v 70 -2.0595555 -0.35932636
v 70 -1.9866351 -0.52593219
l 1305 1306
v 70 -2.1054029 -0.18351579
v 70 -2.0595555 -0.35932636
l 1307 1308
v 70 -2.1213202 -1.8369701e-16
v 70 -2.1054029 -0.18351579
l 1309 1310
v 70 -2.1054029 0.18351579
v 70 -2.1213202 -1.8369701e-16
l 1311 1312
v 70 -1.9866351 -0.52593219
v 70 -1.8894987 -0.68183374
l 1313 1314
v 70 -2.0595555 0.35932636
v 70 -2.1054029 0.18351579
l 1315 1316
v 72.055756 -3.0975745e-15 0.37005267
v 71.970062 -1.7106594e-15 0.5562638
l 1317 1318
v 72.104614 -1.8266293e-15 0.18785922
v 72.055756 -3.0975745e-15 0.37005267
l 1319 1320
v 70 -1.9866351 0.52593219
v 70 -2.0595555 0.35932636
l 1321 1322
v 70 -1.8894987 0.68183374
v 70 -1.9866351 0.52593219
l 1323 1324
v 72.121323 -3.3306691e-15 0
v 72.117172 -1.7099716e-15 0.094326638
l 1325 1326
v 72.117172 -1.7099716e-15 0.094326638
v 72.104614 -1.8266293e-15 0.18785922
l 1327 1328
v 90 -17.882826 -0.094326638
v 90 -17.895386 -0.18785922
l 1329 1330
v 90 -17.944246 -0.37005267
v 90 -18.02994 -0.5562638
l 1331 1332
v 90 -17.895386 -0.18785922
v 90 -17.944246 -0.37005267
l 1333 1334
v 90 -18.152708 -0.73739761
v 90 -18.311485 -0.90799814
l 1335 1336
v 90 -18.50316 -1.0628899
v 90 -18.72274 -1.1976237
l 1337 1338
v 90 -18.311485 -0.90799814
v 90 -18.50316 -1.0628899
l 1339 1340
v 90 -18.02994 -0.5562638
v 90 -18.152708 -0.73739761
l 1341 1342
v 90 -18.963764 -1.3088576
v 90 -19.218893 -1.3946096
l 1343 1344
v 90 -18.72274 -1.1976237
v 90 -18.963764 -1.3088576
l 1345 1346
v 90 -18.311485 0.90799814
v 90 -18.152708 0.73739761
l 1347 1348
v 90 -17.882826 0.094326638
v 90 -17.878679 0
l 1349 1350
v 90 -18.152708 0.73739761
v 90 -18.02994 0.5562638
l 1351 1352
v 90 -17.895386 0.18785922
v 90 -17.882826 0.094326638
l 1353 1354
v 90 -17.944246 0.37005267
v 90 -17.895386 0.18785922
l 1355 1356
v 90 -18.02994 0.5562638
v 90 -17.944246 0.37005267
l 1357 1358
v 90 -18.963764 1.3088576
v 90 -18.72274 1.1976237
l 1359 1360
v 90 -18.50316 1.0628899
v 90 -18.311485 0.90799814
l 1361 1362
v 90 -18.72274 1.1976237
v 90 -18.50316 1.0628899
l 1363 1364
v 90 -19.218893 1.3946096
v 90 -18.963764 1.3088576
l 1365 1366
v 90 -17.878679 0
v 90 -17.882826 -0.094326638
l 1367 1368
v 107.88283 9.0283361e-15 -0.094326638
v 107.89539 8.5567641e-15 -0.18785922
l 1369 1370
v 107.94424 7.9675646e-15 -0.37005267
v 108.02994 1.2412286e-14 -0.5562638
l 1371 1372
v 107.89539 8.5567641e-15 -0.18785922
v 107.94424 7.9675646e-15 -0.37005267
l 1373 1374
v 108.15271 1.3696883e-14 -0.73739761
v 108.31149 1.1572853e-14 -0.90799814
l 1375 1376
v 108.72274 2.5270709e-15 -1.1976237
v 108.96377 2.4684361e-15 -1.3088576
l 1377 1378
v 108.50316 2.7664306e-15 -1.0628899
v 108.72274 2.5270709e-15 -1.1976237
l 1379 1380
v 108.31149 1.1572853e-14 -0.90799814
v 108.50316 2.7664306e-15 -1.0628899
l 1381 1382
v 108.02994 1.2412286e-14 -0.5562638
v 108.15271 1.3696883e-14 -0.73739761
l 1383 1384
v 108.96377 2.4684361e-15 -1.3088576
v 109.21889 7.8955456e-15 -1.3946096
l 1385 1386
v 107.87868 7.9936058e-15 0
v 107.88283 9.0283361e-15 -0.094326638
l 1387 1388
v 108.15271 8.7403026e-15 0.73739761
v 108.02994 7.5627769e-15 0.5562638
l 1389 1390
v 108.02994 7.5627769e-15 0.5562638
v 107.94424 2.7011347e-15 0.37005267
l 1391 1392
v 107.88283 1.0315443e-14 0.094326638
v 107.87868 7.9936058e-15 0
l 1393 1394
v 107.89539 8.2747411e-15 0.18785922
v 107.88283 1.0315443e-14 0.094326638
l 1395 1396
v 107.94424 2.7011347e-15 0.37005267
v 107.89539 8.2747411e-15 0.18785922
l 1397 1398
v 108.96377 7.5283094e-15 1.3088576
v 108.72274 7.5282086e-15 1.1976237
l 1399 1400
v 108.31149 1.4952152e-15 0.90799814
v 108.15271 8.7403026e-15 0.73739761
l 1401 1402
v 108.50316 7.8678637e-15 1.0628899
v 108.31149 1.4952152e-15 0.90799814
l 1403 1404
v 108.72274 7.5282086e-15 1.1976237
v 108.50316 7.8678637e-15 1.0628899
l 1405 1406
v 109.21889 7.9559738e-15 1.3946096
v 108.96377 7.5283094e-15 1.3088576
l 1407 1408
v 31.036236 2.5963881e-16 -1.3088576
v 31.27726 2.378315e-15 -1.1976237
l 1409 1410
v 30.781107 -4.1043443e-15 -1.3946096
v 31.036236 2.5963881e-16 -1.3088576
l 1411 1412
v 30 -1.3489262 -1.1576697
v 30 -1.0320983 -1.310491
l 1413 1414
v 30 -1.6440252 -0.94794017
v 30 -1.501135 -1.0598439
l 1415 1416
v 30 -1.501135 -1.0598439
v 30 -1.3489262 -1.1576697
l 1417 1418
v 30 -1.0320983 -1.310491
v 30 -0.69678026 -1.416774
l 1419 1420
v 31.27726 2.378315e-15 -1.1976237
v 31.49684 -8.0805969e-16 -1.0628899
l 1421 1422
v 32.055756 -5.2373614e-16 -0.37005267
v 32.104614 1.9619085e-15 -0.18785922
l 1423 1424
v 31.97006 -1.69061e-15 -0.5562638
v 32.055756 -5.2373614e-16 -0.37005267
l 1425 1426
v 32.117176 1.0340167e-15 -0.094326638
v 32.121319 -3.3306691e-15 0
l 1427 1428
v 32.104614 1.9619085e-15 -0.18785922
v 32.117176 1.0340167e-15 -0.094326638
l 1429 1430
v 50 -17.878679 0
v 50 -17.882826 -0.094326638
l 1431 1432
v 31.847292 -1.7080063e-15 -0.73739761
v 31.97006 -1.69061e-15 -0.5562638
l 1433 1434
v 31.688515 1.3749263e-15 -0.90799814
v 31.847292 -1.7080063e-15 -0.73739761
l 1435 1436
v 30 -1.7745091 -0.82194227
v 30 -1.6440252 -0.94794017
l 1437 1438
v 31.49684 -8.0805969e-16 -1.0628899
v 31.688515 1.3749263e-15 -0.90799814
l 1439 1440
v 30 -1.8894987 -0.68183374
v 30 -1.7745091 -0.82194227
l 1441 1442
v 30 -2.0595555 -0.35932636
v 30 -1.9866351 -0.52593219
l 1443 1444
v 30 -1.9866351 -0.52593219
v 30 -1.8894987 -0.68183374
l 1445 1446
v 30 -2.1054029 -0.18351579
v 30 -2.0595555 -0.35932636
l 1447 1448
v 30 -2.1213202 -1.8369701e-16
v 30 -2.1054029 -0.18351579
l 1449 1450
v 30 -1.0320983 1.310491
v 30 -1.3489262 1.1576697
l 1451 1452
v 30 -0.69678026 1.416774
v 30 -1.0320983 1.310491
l 1453 1454
v 31.036236 -2.3601629e-15 1.3088576
v 30.781107 -2.8082719e-15 1.3946096
l 1455 1456
v 31.49684 -7.9112433e-16 1.0628899
v 31.27726 4.8418813e-15 1.1976237
l 1457 1458
v 31.847292 -1.7150437e-15 0.73739761
v 31.688515 1.2969902e-15 0.90799814
l 1459 1460
v 31.688515 1.2969902e-15 0.90799814
v 31.49684 -7.9112433e-16 1.0628899
l 1461 1462
v 31.27726 4.8418813e-15 1.1976237
v 31.036236 -2.3601629e-15 1.3088576
l 1463 1464
v 30 -1.3489262 1.1576697
v 30 -1.501135 1.0598439
l 1465 1466
v 31.97006 -1.7106594e-15 0.5562638
v 31.847292 -1.7150437e-15 0.73739761
l 1467 1468
v 30 -1.6440252 0.94794017
v 30 -1.7745091 0.82194227
l 1469 1470
v 30 -1.501135 1.0598439
v 30 -1.6440252 0.94794017
l 1471 1472
v 30 -1.9866351 0.52593219
v 30 -2.0595555 0.35932636
l 1473 1474
v 30 -1.7745091 0.82194227
v 30 -1.8894987 0.68183374
l 1475 1476
v 30 -1.8894987 0.68183374
v 30 -1.9866351 0.52593219
l 1477 1478
v 30 -2.0595555 0.35932636
v 30 -2.1054029 0.18351579
l 1479 1480
v 32.104614 -1.8266293e-15 0.18785922
v 32.055756 -3.0975745e-15 0.37005267
l 1481 1482
v 50 -17.895386 0.18785922
v 50 -17.882826 0.094326638
l 1483 1484
v 50 -17.882826 0.094326638
v 50 -17.878679 0
l 1485 1486
v 32.117176 -1.7099716e-15 0.094326638
v 32.104614 -1.8266293e-15 0.18785922
l 1487 1488
v 32.121319 -3.3306691e-15 0
v 32.117176 -1.7099716e-15 0.094326638
l 1489 1490
v 32.055756 -3.0975745e-15 0.37005267
v 31.97006 -1.7106594e-15 0.5562638
l 1491 1492
v 30 -2.1054029 0.18351579
v 30 -2.1213202 -1.8369701e-16
l 1493 1494
v 50 -17.882826 -0.094326638
v 50 -17.895386 -0.18785922
l 1495 1496
v 50 -18.02994 -0.5562638
v 50 -18.152708 -0.73739761
l 1497 1498
v 50 -17.944246 -0.37005267
v 50 -18.02994 -0.5562638
l 1499 1500
v 50 -18.50316 -1.0628899
v 50 -18.72274 -1.1976237
l 1501 1502
v 50 -18.311485 -0.90799814
v 50 -18.50316 -1.0628899
l 1503 1504
v 50 -18.152708 -0.73739761
v 50 -18.311485 -0.90799814
l 1505 1506
v 50 -18.963764 -1.3088576
v 50 -19.218893 -1.3946096
l 1507 1508
v 50 -18.72274 -1.1976237
v 50 -18.963764 -1.3088576
l 1509 1510
v 50 -19.218893 1.3946096
v 50 -18.963764 1.3088576
l 1511 1512
v 50 -18.963764 1.3088576
v 50 -18.72274 1.1976237
l 1513 1514
v 50 -17.944246 0.37005267
v 50 -17.895386 0.18785922
l 1515 1516
v 50 -18.02994 0.5562638
v 50 -17.944246 0.37005267
l 1517 1518
v 50 -18.72274 1.1976237
v 50 -18.50316 1.0628899
l 1519 1520
v 50 -18.311485 0.90799814
v 50 -18.152708 0.73739761
l 1521 1522
v 50 -18.50316 1.0628899
v 50 -18.311485 0.90799814
l 1523 1524
v 50 -18.152708 0.73739761
v 50 -18.02994 0.5562638
l 1525 1526
v 50 -17.895386 -0.18785922
v 50 -17.944246 -0.37005267
l 1527 1528
v -8.5031605 -8.0805969e-16 -1.0628899
v -8.3114862 1.3749263e-15 -0.90799814
l 1529 1530
v -7.8953862 1.9619085e-15 -0.18785922
v -7.8828259 1.0340167e-15 -0.094326638
l 1531 1532
v -8.0299387 -1.69061e-15 -0.5562638
v -7.9442458 -5.2373614e-16 -0.37005267
l 1533 1534
v -7.9442458 -5.2373614e-16 -0.37005267
v -7.8953862 1.9619085e-15 -0.18785922
l 1535 1536
v -8.1527071 -1.7080063e-15 -0.73739761
v -8.0299387 -1.69061e-15 -0.5562638
l 1537 1538
v -8.7227392 2.378315e-15 -1.1976237
v -8.5031605 -8.0805969e-16 -1.0628899
l 1539 1540
v -9.2188931 -4.1043443e-15 -1.3946096
v -8.9637651 2.5963881e-16 -1.3088576
l 1541 1542
v -8.9637651 2.5963881e-16 -1.3088576
v -8.7227392 2.378315e-15 -1.1976237
l 1543 1544
v -8.3114862 1.3749263e-15 -0.90799814
v -8.1527071 -1.7080063e-15 -0.73739761
l 1545 1546
v -8.9637651 -2.3601629e-15 1.3088576
v -9.2188931 -2.8082719e-15 1.3946096
l 1547 1548
v -8.7227392 4.8418813e-15 1.1976237
v -8.9637651 -2.3601629e-15 1.3088576
l 1549 1550
v -8.3114862 1.2969902e-15 0.90799814
v -8.5031605 -7.9112433e-16 1.0628899
l 1551 1552
v -8.1527071 -1.7150437e-15 0.73739761
v -8.3114862 1.2969902e-15 0.90799814
l 1553 1554
v -7.8953862 -1.8266293e-15 0.18785922
v -7.9442458 -3.0975745e-15 0.37005267
l 1555 1556
v -7.8786798 -3.3306691e-15 0
v -7.8828259 -1.7099716e-15 0.094326638
l 1557 1558
v -7.8828259 -1.7099716e-15 0.094326638
v -7.8953862 -1.8266293e-15 0.18785922
l 1559 1560
v -7.9442458 -3.0975745e-15 0.37005267
v -8.0299387 -1.7106594e-15 0.5562638
l 1561 1562
v -8.5031605 -7.9112433e-16 1.0628899
v -8.7227392 4.8418813e-15 1.1976237
l 1563 1564
v -8.0299387 -1.7106594e-15 0.5562638
v -8.1527071 -1.7150437e-15 0.73739761
l 1565 1566
v -7.8828259 1.0340167e-15 -0.094326638
v -7.8786798 -3.3306691e-15 0
l 1567 1568
v 10 -17.895386 -0.18785922
v 10 -17.944246 -0.37005267
l 1569 1570
v 10 -17.882826 -0.094326638
v 10 -17.895386 -0.18785922
l 1571 1572
v 10 -18.02994 -0.5562638
v 10 -18.152708 -0.73739761
l 1573 1574
v 10 -18.311485 -0.90799814
v 10 -18.50316 -1.0628899
l 1575 1576
v 10 -18.152708 -0.73739761
v 10 -18.311485 -0.90799814
l 1577 1578
v 10 -17.944246 -0.37005267
v 10 -18.02994 -0.5562638
l 1579 1580
v 10 -18.963764 -1.3088576
v 10 -19.218893 -1.3946096
l 1581 1582
v 10 -18.72274 -1.1976237
v 10 -18.963764 -1.3088576
l 1583 1584
v 10 -18.50316 -1.0628899
v 10 -18.72274 -1.1976237
l 1585 1586
v 10 -18.963764 1.3088576
v 10 -18.72274 1.1976237
l 1587 1588
v 10 -19.218893 1.3946096
v 10 -18.963764 1.3088576
l 1589 1590
v 10 -18.72274 1.1976237
v 10 -18.50316 1.0628899
l 1591 1592
v 10 -17.944246 0.37005267
v 10 -17.895386 0.18785922
l 1593 1594
v 10 -17.882826 0.094326638
v 10 -17.878679 0
l 1595 1596
v 10 -17.895386 0.18785922
v 10 -17.882826 0.094326638
l 1597 1598
v 10 -18.50316 1.0628899
v 10 -18.311485 0.90799814
l 1599 1600
v 10 -18.152708 0.73739761
v 10 -18.02994 0.5562638
l 1601 1602
v 10 -18.311485 0.90799814
v 10 -18.152708 0.73739761
l 1603 1604
v 10 -18.02994 0.5562638
v 10 -17.944246 0.37005267
l 1605 1606
v 10 -17.878679 0
v 10 -17.882826 -0.094326638
l 1607 1608
v 27.878679 -3.0253577e-15 -1.8369701e-16
v 27.882826 -1.9825941e-15 -0.094326638
l 1609 1610
v 27.895386 -2.4452416e-15 -0.18785922
v 27.944246 -3.0142919e-15 -0.37005267
l 1611 1612
v 27.882826 -1.9825941e-15 -0.094326638
v 27.895386 -2.4452416e-15 -0.18785922
l 1613 1614
v 27.944246 -3.0142919e-15 -0.37005267
v 28.02994 1.4550771e-15 -0.5562638
l 1615 1616
v 28.152708 2.7681189e-15 -0.73739761
v 28.311485 6.7577363e-16 -0.90799814
l 1617 1618
v 28.02994 1.4550771e-15 -0.5562638
v 28.152708 2.7681189e-15 -0.73739761
l 1619 1620
v 28.72274 -8.3001512e-15 -1.1976237
v 28.963764 -8.3225358e-15 -1.3088576
l 1621 1622
v 28.50316 -8.096494e-15 -1.0628899
v 28.72274 -8.3001512e-15 -1.1976237
l 1623 1624
v 28.963764 -8.3225358e-15 -1.3088576
v 29.218893 -2.8596197e-15 -1.3946096
l 1625 1626
v 28.311485 6.7577363e-16 -0.90799814
v 28.50316 -8.096494e-15 -1.0628899
l 1627 1628
v 28.152708 -2.1884606e-15 0.73739761
v 28.02994 -3.394432e-15 0.5562638
l 1629 1630
v 27.882826 -6.9548758e-16 0.094326638
v 27.878679 -3.0253577e-15 -1.8369701e-16
l 1631 1632
v 27.944246 -8.280722e-15 0.37005267
v 27.895386 -2.7272646e-15 0.18785922
l 1633 1634
v 27.895386 -2.7272646e-15 0.18785922
v 27.882826 -6.9548758e-16 0.094326638
l 1635 1636
v 28.02994 -3.394432e-15 0.5562638
v 27.944246 -8.280722e-15 0.37005267
l 1637 1638
v 28.311485 -9.4018641e-15 0.90799814
v 28.152708 -2.1884606e-15 0.73739761
l 1639 1640
v 28.50316 -2.9950613e-15 1.0628899
v 28.311485 -9.4018641e-15 0.90799814
l 1641 1642
v 29.218893 -2.7991921e-15 1.3946096
v 28.963764 -3.2626625e-15 1.3088576
l 1643 1644
v 28.963764 -3.2626625e-15 1.3088576
v 28.72274 -3.2990135e-15 1.1976237
l 1645 1646
v 28.72274 -3.2990135e-15 1.1976237
v 28.50316 -2.9950613e-15 1.0628899
l 1647 1648
v 30 1.3489262 -1.1576697
v 30 1.0320983 -1.310491
l 1649 1650
v 30 1.6440252 -0.94794017
v 30 1.501135 -1.0598439
l 1651 1652
v 30 1.501135 -1.0598439
v 30 1.3489262 -1.1576697
l 1653 1654
v 30 1.0320983 -1.310491
v 30 0.69678026 -1.416774
l 1655 1656
v 30 1.7745091 -0.82194227
v 30 1.6440252 -0.94794017
l 1657 1658
v 30 1.8894987 -0.68183374
v 30 1.7745091 -0.82194227
l 1659 1660
v 30 1.9866351 -0.52593219
v 30 1.8894987 -0.68183374
l 1661 1662
v 30 1.501135 1.0598439
v 30 1.6440252 0.94794017
l 1663 1664
v 30 1.0320983 1.310491
v 30 1.3489262 1.1576697
l 1665 1666
v 30 1.3489262 1.1576697
v 30 1.501135 1.0598439
l 1667 1668
v 30 0.69678026 1.416774
v 30 1.0320983 1.310491
l 1669 1670
v 30 1.6440252 0.94794017
v 30 1.7745091 0.82194227
l 1671 1672
v 30 1.9866351 0.52593219
v 30 2.0595555 0.35932636
l 1673 1674
v 30 2.1054029 -0.18351579
v 30 2.0595555 -0.35932636
l 1675 1676
v 30 2.1054029 0.18351579
v 30 2.1213202 -1.8369701e-16
l 1677 1678
v 30 2.1213202 -1.8369701e-16
v 30 2.1054029 -0.18351579
l 1679 1680
v 30 2.0595555 -0.35932636
v 30 1.9866351 -0.52593219
l 1681 1682
v 30 2.0595555 0.35932636
v 30 2.1054029 0.18351579
l 1683 1684
v 30 1.7745091 0.82194227
v 30 1.8894987 0.68183374
l 1685 1686
v 30 1.8894987 0.68183374
v 30 1.9866351 0.52593219
l 1687 1688
v 67.878677 -3.0253577e-15 -1.8369701e-16
v 67.882828 -1.9825941e-15 -0.094326638
l 1689 1690
v 67.895386 -2.4452416e-15 -0.18785922
v 67.944244 -3.0142919e-15 -0.37005267
l 1691 1692
v 67.882828 -1.9825941e-15 -0.094326638
v 67.895386 -2.4452416e-15 -0.18785922
l 1693 1694
v 67.944244 -3.0142919e-15 -0.37005267
v 68.029938 1.4550771e-15 -0.5562638
l 1695 1696
v 68.15271 2.7681189e-15 -0.73739761
v 68.311485 6.7577363e-16 -0.90799814
l 1697 1698
v 68.029938 1.4550771e-15 -0.5562638
v 68.15271 2.7681189e-15 -0.73739761
l 1699 1700
v 68.72274 -8.3001512e-15 -1.1976237
v 68.963768 -8.3225358e-15 -1.3088576
l 1701 1702
v 68.503159 -8.096494e-15 -1.0628899
v 68.72274 -8.3001512e-15 -1.1976237
l 1703 1704
v 68.963768 -8.3225358e-15 -1.3088576
v 69.218895 -2.8596197e-15 -1.3946096
l 1705 1706
v 68.311485 6.7577363e-16 -0.90799814
v 68.503159 -8.096494e-15 -1.0628899
l 1707 1708
v 68.15271 -2.1884606e-15 0.73739761
v 68.029938 -3.394432e-15 0.5562638
l 1709 1710
v 67.882828 -6.9548758e-16 0.094326638
v 67.878677 -3.0253577e-15 -1.8369701e-16
l 1711 1712
v 67.944244 -8.280722e-15 0.37005267
v 67.895386 -2.7272646e-15 0.18785922
l 1713 1714
v 67.895386 -2.7272646e-15 0.18785922
v 67.882828 -6.9548758e-16 0.094326638
l 1715 1716
v 68.029938 -3.394432e-15 0.5562638
v 67.944244 -8.280722e-15 0.37005267
l 1717 1718
v 68.311485 -9.4018641e-15 0.90799814
v 68.15271 -2.1884606e-15 0.73739761
l 1719 1720
v 68.503159 -2.9950613e-15 1.0628899
v 68.311485 -9.4018641e-15 0.90799814
l 1721 1722
v 69.218895 -2.7991921e-15 1.3946096
v 68.963768 -3.2626625e-15 1.3088576
l 1723 1724
v 68.963768 -3.2626625e-15 1.3088576
v 68.72274 -3.2990135e-15 1.1976237
l 1725 1726
v 68.72274 -3.2990135e-15 1.1976237
v 68.503159 -2.9950613e-15 1.0628899
l 1727 1728
v 70 1.0320983 -1.310491
v 70 0.69678026 -1.416774
l 1729 1730
v 70 1.501135 -1.0598439
v 70 1.3489262 -1.1576697
l 1731 1732
v 70 1.7745091 -0.82194227
v 70 1.6440252 -0.94794017
l 1733 1734
v 70 1.8894987 -0.68183374
v 70 1.7745091 -0.82194227
l 1735 1736
v 70 1.6440252 -0.94794017
v 70 1.501135 -1.0598439
l 1737 1738
v 70 1.3489262 -1.1576697
v 70 1.0320983 -1.310491
l 1739 1740
v 70 1.9866351 -0.52593219
v 70 1.8894987 -0.68183374
l 1741 1742
v 70 2.0595555 -0.35932636
v 70 1.9866351 -0.52593219
l 1743 1744
v 70 1.6440252 0.94794017
v 70 1.7745091 0.82194227
l 1745 1746
v 70 1.3489262 1.1576697
v 70 1.501135 1.0598439
l 1747 1748
v 70 1.0320983 1.310491
v 70 1.3489262 1.1576697
l 1749 1750
v 70 1.501135 1.0598439
v 70 1.6440252 0.94794017
l 1751 1752
v 70 0.69678026 1.416774
v 70 1.0320983 1.310491
l 1753 1754
v 70 1.7745091 0.82194227
v 70 1.8894987 0.68183374
l 1755 1756
v 70 1.9866351 0.52593219
v 70 2.0595555 0.35932636
l 1757 1758
v 70 2.0595555 0.35932636
v 70 2.1054029 0.18351579
l 1759 1760
v 70 2.1054029 -0.18351579
v 70 2.0595555 -0.35932636
l 1761 1762
v 70 2.1213202 -1.8369701e-16
v 70 2.1054029 -0.18351579
l 1763 1764
v 70 2.1054029 0.18351579
v 70 2.1213202 -1.8369701e-16
l 1765 1766
v 70 1.8894987 0.68183374
v 70 1.9866351 0.52593219
l 1767 1768
v 10 17.895386 -0.18785922
v 10 17.944246 -0.37005267
l 1769 1770
v 10 17.882826 -0.094326638
v 10 17.895386 -0.18785922
l 1771 1772
v 10 18.02994 -0.5562638
v 10 18.152708 -0.73739761
l 1773 1774
v 11.742949 20 -0.85465187
v 11.848535 20 -0.73548853
l 1775 1776
v 10 18.152708 -0.73739761
v 10 18.311485 -0.90799814
l 1777 1778
v 10 17.944246 -0.37005267
v 10 18.02994 -0.5562638
l 1779 1780
v 11.848535 20 -0.73548853
v 11.94032 20 -0.60628307
l 1781 1782
v 12.108805 20 -0.16389392
v 12.121321 20 -1.8369701e-16
l 1783 1784
v 12.108805 20 0.16389392
v 12.072862 20 0.31993777
l 1785 1786
v 11.94032 20 -0.60628307
v 12.015898 20 -0.46758348
l 1787 1788
v 12.015898 20 -0.46758348
v 12.072862 20 -0.31993777
l 1789 1790
v 12.072862 20 -0.31993777
v 12.108805 20 -0.16389392
l 1791 1792
v 12.072862 20 0.31993777
v 12.015898 20 0.46758348
l 1793 1794
v 12.121321 20 -1.8369701e-16
v 12.108805 20 0.16389392
l 1795 1796
v 10 18.72274 -1.1976237
v 10 18.963764 -1.3088576
l 1797 1798
v 10 18.50316 -1.0628899
v 10 18.72274 -1.1976237
l 1799 1800
v 10 18.963764 -1.3088576
v 10 19.218893 -1.3946096
l 1801 1802
v 11.332705 20 -1.1670355
v 11.5 20 -1.0606601
l 1803 1804
v 11.625968 20 -0.96322507
v 11.742949 20 -0.85465187
l 1805 1806
v 11.5 20 -1.0606601
v 11.625968 20 -0.96322507
l 1807 1808
v 10.783292 20 -1.3939967
v 11.155815 20 -1.2577939
l 1809 1810
v 11.155815 20 -1.2577939
v 11.332705 20 -1.1670355
l 1811 1812
v 10 18.311485 -0.90799814
v 10 18.50316 -1.0628899
l 1813 1814
v 12.015898 20 0.46758348
v 11.94032 20 0.60628307
l 1815 1816
v 11.94032 20 0.60628307
v 11.848535 20 0.73548853
l 1817 1818
v 10 18.152708 0.73739761
v 10 18.02994 0.5562638
l 1819 1820
v 11.742949 20 0.85465187
v 11.625968 20 0.96322507
l 1821 1822
v 11.848535 20 0.73548853
v 11.742949 20 0.85465187
l 1823 1824
v 10 17.944246 0.37005267
v 10 17.895386 0.18785922
l 1825 1826
v 10 17.882826 0.094326638
v 10 17.878679 -1.8369701e-16
l 1827 1828
v 10 17.895386 0.18785922
v 10 17.882826 0.094326638
l 1829 1830
v 10 18.02994 0.5562638
v 10 17.944246 0.37005267
l 1831 1832
v 11.332705 20 1.1670355
v 11.155815 20 1.2577939
l 1833 1834
v 11.5 20 1.0606601
v 11.332705 20 1.1670355
l 1835 1836
v 11.155815 20 1.2577939
v 10.783292 20 1.3939967
l 1837 1838
v 10 18.72274 1.1976237
v 10 18.50316 1.0628899
l 1839 1840
v 10 18.311485 0.90799814
v 10 18.152708 0.73739761
l 1841 1842
v 10 18.50316 1.0628899
v 10 18.311485 0.90799814
l 1843 1844
v 10 19.218893 1.3946096
v 10 18.963764 1.3088576
l 1845 1846
v 10 18.963764 1.3088576
v 10 18.72274 1.1976237
l 1847 1848
v 11.625968 20 0.96322507
v 11.5 20 1.0606601
l 1849 1850
v 10 17.878679 -1.8369701e-16
v 10 17.882826 -0.094326638
l 1851 1852
v 27.895386 40 -0.18785922
v 27.944246 40 -0.37005267
l 1853 1854
v 27.882826 40 -0.094326638
v 27.895386 40 -0.18785922
l 1855 1856
v 28.152708 40 -0.73739761
v 28.311485 40 -0.90799814
l 1857 1858
v 28.02994 40 -0.5562638
v 28.152708 40 -0.73739761
l 1859 1860
v 27.944246 40 -0.37005267
v 28.02994 40 -0.5562638
l 1861 1862
v 28.50316 40 -1.0628899
v 28.72274 40 -1.1976237
l 1863 1864
v 28.311485 40 -0.90799814
v 28.50316 40 -1.0628899
l 1865 1866
v 27.878679 40 -1.8369701e-16
v 27.882826 40 -0.094326638
l 1867 1868
v 28.963764 40 -1.3088576
v 29.218893 40 -1.3946096
l 1869 1870
v 28.72274 40 -1.1976237
v 28.963764 40 -1.3088576
l 1871 1872
v 27.882826 40 0.094326638
v 27.878679 40 -1.8369701e-16
l 1873 1874
v 27.895386 40 0.18785922
v 27.882826 40 0.094326638
l 1875 1876
v 28.311485 40 0.90799814
v 28.152708 40 0.73739761
l 1877 1878
v 28.02994 40 0.5562638
v 27.944246 40 0.37005267
l 1879 1880
v 28.152708 40 0.73739761
v 28.02994 40 0.5562638
l 1881 1882
v 27.944246 40 0.37005267
v 27.895386 40 0.18785922
l 1883 1884
v 28.72274 40 1.1976237
v 28.50316 40 1.0628899
l 1885 1886
v 28.963764 40 1.3088576
v 28.72274 40 1.1976237
l 1887 1888
v 29.218893 40 1.3946096
v 28.963764 40 1.3088576
l 1889 1890
v 28.50316 40 1.0628899
v 28.311485 40 0.90799814
l 1891 1892
v 30 41.348927 -1.1576697
v 30 41.032097 -1.310491
l 1893 1894
v 30 41.644024 -0.94794017
v 30 41.501137 -1.0598439
l 1895 1896
v 30 41.501137 -1.0598439
v 30 41.348927 -1.1576697
l 1897 1898
v 30 41.032097 -1.310491
v 30 40.696781 -1.416774
l 1899 1900
v 30 41.774509 -0.82194227
v 30 41.644024 -0.94794017
l 1901 1902
v 30 41.8895 -0.68183374
v 30 41.774509 -0.82194227
l 1903 1904
v 30 41.986633 -0.52593219
v 30 41.8895 -0.68183374
l 1905 1906
v 30 41.501137 1.0598439
v 30 41.644024 0.94794017
l 1907 1908
v 30 41.032097 1.310491
v 30 41.348927 1.1576697
l 1909 1910
v 30 41.348927 1.1576697
v 30 41.501137 1.0598439
l 1911 1912
v 30 40.696781 1.416774
v 30 41.032097 1.310491
l 1913 1914
v 30 41.644024 0.94794017
v 30 41.774509 0.82194227
l 1915 1916
v 30 42.059555 -0.35932636
v 30 41.986633 -0.52593219
l 1917 1918
v 30 42.121319 -1.8369701e-16
v 30 42.105404 -0.18351579
l 1919 1920
v 30 42.059555 0.35932636
v 30 42.105404 0.18351579
l 1921 1922
v 30 42.105404 0.18351579
v 30 42.121319 -1.8369701e-16
l 1923 1924
v 30 42.105404 -0.18351579
v 30 42.059555 -0.35932636
l 1925 1926
v 30 41.986633 0.52593219
v 30 42.059555 0.35932636
l 1927 1928
v 30 41.774509 0.82194227
v 30 41.8895 0.68183374
l 1929 1930
v 30 41.8895 0.68183374
v 30 41.986633 0.52593219
l 1931 1932
v 50 17.895386 -0.18785922
v 50 17.944246 -0.37005267
l 1933 1934
v 50 17.882826 -0.094326638
v 50 17.895386 -0.18785922
l 1935 1936
v 50 18.02994 -0.5562638
v 50 18.152708 -0.73739761
l 1937 1938
v 51.74295 20 -0.85465187
v 51.848534 20 -0.73548853
l 1939 1940
v 50 18.152708 -0.73739761
v 50 18.311485 -0.90799814
l 1941 1942
v 50 17.944246 -0.37005267
v 50 18.02994 -0.5562638
l 1943 1944
v 51.848534 20 -0.73548853
v 51.940319 20 -0.60628307
l 1945 1946
v 52.108803 20 -0.16389392
v 52.121319 20 -1.8369701e-16
l 1947 1948
v 52.108803 20 0.16389392
v 52.072861 20 0.31993777
l 1949 1950
v 51.940319 20 -0.60628307
v 52.0159 20 -0.46758348
l 1951 1952
v 52.0159 20 -0.46758348
v 52.072861 20 -0.31993777
l 1953 1954
v 52.072861 20 -0.31993777
v 52.108803 20 -0.16389392
l 1955 1956
v 52.072861 20 0.31993777
v 52.0159 20 0.46758348
l 1957 1958
v 52.121319 20 -1.8369701e-16
v 52.108803 20 0.16389392
l 1959 1960
v 50 18.72274 -1.1976237
v 50 18.963764 -1.3088576
l 1961 1962
v 50 18.50316 -1.0628899
v 50 18.72274 -1.1976237
l 1963 1964
v 50 18.963764 -1.3088576
v 50 19.218893 -1.3946096
l 1965 1966
v 51.332706 20 -1.1670355
v 51.5 20 -1.0606601
l 1967 1968
v 51.625969 20 -0.96322507
v 51.74295 20 -0.85465187
l 1969 1970
v 51.5 20 -1.0606601
v 51.625969 20 -0.96322507
l 1971 1972
v 50.783291 20 -1.3939967
v 51.155815 20 -1.2577939
l 1973 1974
v 51.155815 20 -1.2577939
v 51.332706 20 -1.1670355
l 1975 1976
v 50 18.311485 -0.90799814
v 50 18.50316 -1.0628899
l 1977 1978
v 52.0159 20 0.46758348
v 51.940319 20 0.60628307
l 1979 1980
v 51.940319 20 0.60628307
v 51.848534 20 0.73548853
l 1981 1982
v 50 18.152708 0.73739761
v 50 18.02994 0.5562638
l 1983 1984
v 51.74295 20 0.85465187
v 51.625969 20 0.96322507
l 1985 1986
v 51.848534 20 0.73548853
v 51.74295 20 0.85465187
l 1987 1988
v 50 17.944246 0.37005267
v 50 17.895386 0.18785922
l 1989 1990
v 50 17.882826 0.094326638
v 50 17.878679 -1.8369701e-16
l 1991 1992
v 50 17.895386 0.18785922
v 50 17.882826 0.094326638
l 1993 1994
v 50 18.02994 0.5562638
v 50 17.944246 0.37005267
l 1995 1996
v 51.332706 20 1.1670355
v 51.155815 20 1.2577939
l 1997 1998
v 51.5 20 1.0606601
v 51.332706 20 1.1670355
l 1999 2000
v 51.155815 20 1.2577939
v 50.783291 20 1.3939967
l 2001 2002
v 50 18.72274 1.1976237
v 50 18.50316 1.0628899
l 2003 2004
v 50 18.311485 0.90799814
v 50 18.152708 0.73739761
l 2005 2006
v 50 18.50316 1.0628899
v 50 18.311485 0.90799814
l 2007 2008
v 50 19.218893 1.3946096
v 50 18.963764 1.3088576
l 2009 2010
v 50 18.963764 1.3088576
v 50 18.72274 1.1976237
l 2011 2012
v 51.625969 20 0.96322507
v 51.5 20 1.0606601
l 2013 2014
v 50 17.878679 -1.8369701e-16
v 50 17.882826 -0.094326638
l 2015 2016
v 67.895386 40 -0.18785922
v 67.944244 40 -0.37005267
l 2017 2018
v 67.882828 40 -0.094326638
v 67.895386 40 -0.18785922
l 2019 2020
v 68.15271 40 -0.73739761
v 68.311485 40 -0.90799814
l 2021 2022
v 68.029938 40 -0.5562638
v 68.15271 40 -0.73739761
l 2023 2024
v 67.944244 40 -0.37005267
v 68.029938 40 -0.5562638
l 2025 2026
v 68.503159 40 -1.0628899
v 68.72274 40 -1.1976237
l 2027 2028
v 68.311485 40 -0.90799814
v 68.503159 40 -1.0628899
l 2029 2030
v 67.878677 40 -1.8369701e-16
v 67.882828 40 -0.094326638
l 2031 2032
v 68.963768 40 -1.3088576
v 69.218895 40 -1.3946096
l 2033 2034
v 68.72274 40 -1.1976237
v 68.963768 40 -1.3088576
l 2035 2036
v 67.882828 40 0.094326638
v 67.878677 40 -1.8369701e-16
l 2037 2038
v 67.895386 40 0.18785922
v 67.882828 40 0.094326638
l 2039 2040
v 68.311485 40 0.90799814
v 68.15271 40 0.73739761
l 2041 2042
v 68.029938 40 0.5562638
v 67.944244 40 0.37005267
l 2043 2044
v 68.15271 40 0.73739761
v 68.029938 40 0.5562638
l 2045 2046
v 67.944244 40 0.37005267
v 67.895386 40 0.18785922
l 2047 2048
v 68.72274 40 1.1976237
v 68.503159 40 1.0628899
l 2049 2050
v 68.963768 40 1.3088576
v 68.72274 40 1.1976237
l 2051 2052
v 69.218895 40 1.3946096
v 68.963768 40 1.3088576
l 2053 2054
v 68.503159 40 1.0628899
v 68.311485 40 0.90799814
l 2055 2056
v 70 41.348927 -1.1576697
v 70 41.032097 -1.310491
l 2057 2058
v 70 41.644024 -0.94794017
v 70 41.501137 -1.0598439
l 2059 2060
v 70 41.501137 -1.0598439
v 70 41.348927 -1.1576697
l 2061 2062
v 70 41.032097 -1.310491
v 70 40.696781 -1.416774
l 2063 2064
v 70 41.774509 -0.82194227
v 70 41.644024 -0.94794017
l 2065 2066
v 70 41.8895 -0.68183374
v 70 41.774509 -0.82194227
l 2067 2068
v 70 41.986633 -0.52593219
v 70 41.8895 -0.68183374
l 2069 2070
v 70 41.501137 1.0598439
v 70 41.644024 0.94794017
l 2071 2072
v 70 41.032097 1.310491
v 70 41.348927 1.1576697
l 2073 2074
v 70 41.348927 1.1576697
v 70 41.501137 1.0598439
l 2075 2076
v 70 40.696781 1.416774
v 70 41.032097 1.310491
l 2077 2078
v 70 41.644024 0.94794017
v 70 41.774509 0.82194227
l 2079 2080
v 70 41.986633 0.52593219
v 70 42.059555 0.35932636
l 2081 2082
v 70 42.105404 -0.18351579
v 70 42.059555 -0.35932636
l 2083 2084
v 70 42.105404 0.18351579
v 70 42.121319 -1.8369701e-16
l 2085 2086
v 70 42.121319 -1.8369701e-16
v 70 42.105404 -0.18351579
l 2087 2088
v 70 42.059555 -0.35932636
v 70 41.986633 -0.52593219
l 2089 2090
v 70 42.059555 0.35932636
v 70 42.105404 0.18351579
l 2091 2092
v 70 41.774509 0.82194227
v 70 41.8895 0.68183374
l 2093 2094
v 70 41.8895 0.68183374
v 70 41.986633 0.52593219
l 2095 2096
v 90 17.895386 -0.18785922
v 90 17.944246 -0.37005267
l 2097 2098
v 90 17.882826 -0.094326638
v 90 17.895386 -0.18785922
l 2099 2100
v 90 18.02994 -0.5562638
v 90 18.152708 -0.73739761
l 2101 2102
v 90 18.152708 -0.73739761
v 90 18.311485 -0.90799814
l 2103 2104
v 90 17.944246 -0.37005267
v 90 18.02994 -0.5562638
l 2105 2106
v 90 18.72274 -1.1976237
v 90 18.963764 -1.3088576
l 2107 2108
v 90 18.50316 -1.0628899
v 90 18.72274 -1.1976237
l 2109 2110
v 90 18.963764 -1.3088576
v 90 19.218893 -1.3946096
l 2111 2112
v 90 18.311485 -0.90799814
v 90 18.50316 -1.0628899
l 2113 2114
v 90 18.152708 0.73739761
v 90 18.02994 0.5562638
l 2115 2116
v 90 17.944246 0.37005267
v 90 17.895386 0.18785922
l 2117 2118
v 90 17.882826 0.094326638
v 90 17.878679 -1.8369701e-16
l 2119 2120
v 90 17.895386 0.18785922
v 90 17.882826 0.094326638
l 2121 2122
v 90 18.02994 0.5562638
v 90 17.944246 0.37005267
l 2123 2124
v 90 18.72274 1.1976237
v 90 18.50316 1.0628899
l 2125 2126
v 90 18.311485 0.90799814
v 90 18.152708 0.73739761
l 2127 2128
v 90 18.50316 1.0628899
v 90 18.311485 0.90799814
l 2129 2130
v 90 19.218893 1.3946096
v 90 18.963764 1.3088576
l 2131 2132
v 90 18.963764 1.3088576
v 90 18.72274 1.1976237
l 2133 2134
v 90 17.878679 -1.8369701e-16
v 90 17.882826 -0.094326638
l 2135 2136
v 10 57.895386 -0.18785922
v 10 57.944244 -0.37005267
l 2137 2138
v 10 57.882824 -0.094326638
v 10 57.895386 -0.18785922
l 2139 2140
v 10 58.029938 -0.5562638
v 10 58.152706 -0.73739761
l 2141 2142
v 11.742949 60 -0.85465187
v 11.848535 60 -0.73548853
l 2143 2144
v 10 58.152706 -0.73739761
v 10 58.311485 -0.90799814
l 2145 2146
v 10 57.944244 -0.37005267
v 10 58.029938 -0.5562638
l 2147 2148
v 11.848535 60 -0.73548853
v 11.94032 60 -0.60628307
l 2149 2150
v 12.108805 60 -0.16389392
v 12.121321 60 -1.8369701e-16
l 2151 2152
v 12.108805 60 0.16389392
v 12.072862 60 0.31993777
l 2153 2154
v 11.94032 60 -0.60628307
v 12.015898 60 -0.46758348
l 2155 2156
v 12.015898 60 -0.46758348
v 12.072862 60 -0.31993777
l 2157 2158
v 12.072862 60 -0.31993777
v 12.108805 60 -0.16389392
l 2159 2160
v 12.072862 60 0.31993777
v 12.015898 60 0.46758348
l 2161 2162
v 12.121321 60 -1.8369701e-16
v 12.108805 60 0.16389392
l 2163 2164
v 10 58.72274 -1.1976237
v 10 58.963764 -1.3088576
l 2165 2166
v 10 58.503159 -1.0628899
v 10 58.72274 -1.1976237
l 2167 2168
v 10 58.963764 -1.3088576
v 10 59.218891 -1.3946096
l 2169 2170
v 11.332705 60 -1.1670355
v 11.5 60 -1.0606601
l 2171 2172
v 11.625968 60 -0.96322507
v 11.742949 60 -0.85465187
l 2173 2174
v 11.5 60 -1.0606601
v 11.625968 60 -0.96322507
l 2175 2176
v 10.783292 60 -1.3939967
v 11.155815 60 -1.2577939
l 2177 2178
v 11.155815 60 -1.2577939
v 11.332705 60 -1.1670355
l 2179 2180
v 10 58.311485 -0.90799814
v 10 58.503159 -1.0628899
l 2181 2182
v 12.015898 60 0.46758348
v 11.94032 60 0.60628307
l 2183 2184
v 11.94032 60 0.60628307
v 11.848535 60 0.73548853
l 2185 2186
v 10 58.152706 0.73739761
v 10 58.029938 0.5562638
l 2187 2188
v 11.742949 60 0.85465187
v 11.625968 60 0.96322507
l 2189 2190
v 11.848535 60 0.73548853
v 11.742949 60 0.85465187
l 2191 2192
v 10 57.944244 0.37005267
v 10 57.895386 0.18785922
l 2193 2194
v 10 57.882824 0.094326638
v 10 57.878681 -1.8369701e-16
l 2195 2196
v 10 57.895386 0.18785922
v 10 57.882824 0.094326638
l 2197 2198
v 10 58.029938 0.5562638
v 10 57.944244 0.37005267
l 2199 2200
v 11.332705 60 1.1670355
v 11.155815 60 1.2577939
l 2201 2202
v 11.5 60 1.0606601
v 11.332705 60 1.1670355
l 2203 2204
v 11.155815 60 1.2577939
v 10.783292 60 1.3939967
l 2205 2206
v 10 58.72274 1.1976237
v 10 58.503159 1.0628899
l 2207 2208
v 10 58.311485 0.90799814
v 10 58.152706 0.73739761
l 2209 2210
v 10 58.503159 1.0628899
v 10 58.311485 0.90799814
l 2211 2212
v 10 59.218891 1.3946096
v 10 58.963764 1.3088576
l 2213 2214
v 10 58.963764 1.3088576
v 10 58.72274 1.1976237
l 2215 2216
v 11.625968 60 0.96322507
v 11.5 60 1.0606601
l 2217 2218
v 10 57.878681 -1.8369701e-16
v 10 57.882824 -0.094326638
l 2219 2220
v 27.895386 80 -0.18785922
v 27.944246 80 -0.37005267
l 2221 2222
v 27.882826 80 -0.094326638
v 27.895386 80 -0.18785922
l 2223 2224
v 28.152708 80 -0.73739761
v 28.311485 80 -0.90799814
l 2225 2226
v 28.02994 80 -0.5562638
v 28.152708 80 -0.73739761
l 2227 2228
v 27.944246 80 -0.37005267
v 28.02994 80 -0.5562638
l 2229 2230
v 28.50316 80 -1.0628899
v 28.72274 80 -1.1976237
l 2231 2232
v 28.311485 80 -0.90799814
v 28.50316 80 -1.0628899
l 2233 2234
v 27.878679 80 -1.8369701e-16
v 27.882826 80 -0.094326638
l 2235 2236
v 28.963764 80 -1.3088576
v 29.218893 80 -1.3946096
l 2237 2238
v 28.72274 80 -1.1976237
v 28.963764 80 -1.3088576
l 2239 2240
v 27.882826 80 0.094326638
v 27.878679 80 -1.8369701e-16
l 2241 2242
v 27.895386 80 0.18785922
v 27.882826 80 0.094326638
l 2243 2244
v 28.311485 80 0.90799814
v 28.152708 80 0.73739761
l 2245 2246
v 28.02994 80 0.5562638
v 27.944246 80 0.37005267
l 2247 2248
v 28.152708 80 0.73739761
v 28.02994 80 0.5562638
l 2249 2250
v 27.944246 80 0.37005267
v 27.895386 80 0.18785922
l 2251 2252
v 28.72274 80 1.1976237
v 28.50316 80 1.0628899
l 2253 2254
v 28.963764 80 1.3088576
v 28.72274 80 1.1976237
l 2255 2256
v 29.218893 80 1.3946096
v 28.963764 80 1.3088576
l 2257 2258
v 28.50316 80 1.0628899
v 28.311485 80 0.90799814
l 2259 2260
v 50 57.895386 -0.18785922
v 50 57.944244 -0.37005267
l 2261 2262
v 50 57.882824 -0.094326638
v 50 57.895386 -0.18785922
l 2263 2264
v 50 58.029938 -0.5562638
v 50 58.152706 -0.73739761
l 2265 2266
v 51.74295 60 -0.85465187
v 51.848534 60 -0.73548853
l 2267 2268
v 50 58.152706 -0.73739761
v 50 58.311485 -0.90799814
l 2269 2270
v 50 57.944244 -0.37005267
v 50 58.029938 -0.5562638
l 2271 2272
v 51.848534 60 -0.73548853
v 51.940319 60 -0.60628307
l 2273 2274
v 52.108803 60 -0.16389392
v 52.121319 60 -1.8369701e-16
l 2275 2276
v 52.108803 60 0.16389392
v 52.072861 60 0.31993777
l 2277 2278
v 51.940319 60 -0.60628307
v 52.0159 60 -0.46758348
l 2279 2280
v 52.0159 60 -0.46758348
v 52.072861 60 -0.31993777
l 2281 2282
v 52.072861 60 -0.31993777
v 52.108803 60 -0.16389392
l 2283 2284
v 52.072861 60 0.31993777
v 52.0159 60 0.46758348
l 2285 2286
v 52.121319 60 -1.8369701e-16
v 52.108803 60 0.16389392
l 2287 2288
v 50 58.72274 -1.1976237
v 50 58.963764 -1.3088576
l 2289 2290
v 50 58.503159 -1.0628899
v 50 58.72274 -1.1976237
l 2291 2292
v 50 58.963764 -1.3088576
v 50 59.218891 -1.3946096
l 2293 2294
v 51.332706 60 -1.1670355
v 51.5 60 -1.0606601
l 2295 2296
v 51.625969 60 -0.96322507
v 51.74295 60 -0.85465187
l 2297 2298
v 51.5 60 -1.0606601
v 51.625969 60 -0.96322507
l 2299 2300
v 50.783291 60 -1.3939967
v 51.155815 60 -1.2577939
l 2301 2302
v 51.155815 60 -1.2577939
v 51.332706 60 -1.1670355
l 2303 2304
v 50 58.311485 -0.90799814
v 50 58.503159 -1.0628899
l 2305 2306
v 52.0159 60 0.46758348
v 51.940319 60 0.60628307
l 2307 2308
v 51.940319 60 0.60628307
v 51.848534 60 0.73548853
l 2309 2310
v 50 58.152706 0.73739761
v 50 58.029938 0.5562638
l 2311 2312
v 51.74295 60 0.85465187
v 51.625969 60 0.96322507
l 2313 2314
v 51.848534 60 0.73548853
v 51.74295 60 0.85465187
l 2315 2316
v 50 57.944244 0.37005267
v 50 57.895386 0.18785922
l 2317 2318
v 50 57.882824 0.094326638
v 50 57.878681 -1.8369701e-16
l 2319 2320
v 50 57.895386 0.18785922
v 50 57.882824 0.094326638
l 2321 2322
v 50 58.029938 0.5562638
v 50 57.944244 0.37005267
l 2323 2324
v 51.332706 60 1.1670355
v 51.155815 60 1.2577939
l 2325 2326
v 51.5 60 1.0606601
v 51.332706 60 1.1670355
l 2327 2328
v 51.155815 60 1.2577939
v 50.783291 60 1.3939967
l 2329 2330
v 50 58.72274 1.1976237
v 50 58.503159 1.0628899
l 2331 2332
v 50 58.311485 0.90799814
v 50 58.152706 0.73739761
l 2333 2334
v 50 58.503159 1.0628899
v 50 58.311485 0.90799814
l 2335 2336
v 50 59.218891 1.3946096
v 50 58.963764 1.3088576
l 2337 2338
v 50 58.963764 1.3088576
v 50 58.72274 1.1976237
l 2339 2340
v 51.625969 60 0.96322507
v 51.5 60 1.0606601
l 2341 2342
v 50 57.878681 -1.8369701e-16
v 50 57.882824 -0.094326638
l 2343 2344
v 67.882828 80 -0.094326638
v 67.895386 80 -0.18785922
l 2345 2346
v 67.895386 80 -0.18785922
v 67.944244 80 -0.37005267
l 2347 2348
v 67.944244 80 -0.37005267
v 68.029938 80 -0.5562638
l 2349 2350
v 68.029938 80 -0.5562638
v 68.15271 80 -0.73739761
l 2351 2352
v 68.15271 80 -0.73739761
v 68.311485 80 -0.90799814
l 2353 2354
v 67.878677 80 -1.8369701e-16
v 67.882828 80 -0.094326638
l 2355 2356
v 68.503159 80 -1.0628899
v 68.72274 80 -1.1976237
l 2357 2358
v 68.963768 80 -1.3088576
v 69.218895 80 -1.3946096
l 2359 2360
v 68.72274 80 -1.1976237
v 68.963768 80 -1.3088576
l 2361 2362
v 68.311485 80 -0.90799814
v 68.503159 80 -1.0628899
l 2363 2364
v 68.029938 80 0.5562638
v 67.944244 80 0.37005267
l 2365 2366
v 67.895386 80 0.18785922
v 67.882828 80 0.094326638
l 2367 2368
v 67.882828 80 0.094326638
v 67.878677 80 -1.8369701e-16
l 2369 2370
v 67.944244 80 0.37005267
v 67.895386 80 0.18785922
l 2371 2372
v 68.503159 80 1.0628899
v 68.311485 80 0.90799814
l 2373 2374
v 68.15271 80 0.73739761
v 68.029938 80 0.5562638
l 2375 2376
v 68.311485 80 0.90799814
v 68.15271 80 0.73739761
l 2377 2378
v 68.963768 80 1.3088576
v 68.72274 80 1.1976237
l 2379 2380
v 69.218895 80 1.3946096
v 68.963768 80 1.3088576
l 2381 2382
v 68.72274 80 1.1976237
v 68.503159 80 1.0628899
l 2383 2384
v 90 57.895386 -0.18785922
v 90 57.944244 -0.37005267
l 2385 2386
v 90 57.882824 -0.094326638
v 90 57.895386 -0.18785922
l 2387 2388
v 90 58.029938 -0.5562638
v 90 58.152706 -0.73739761
l 2389 2390
v 90 58.152706 -0.73739761
v 90 58.311485 -0.90799814
l 2391 2392
v 90 57.944244 -0.37005267
v 90 58.029938 -0.5562638
l 2393 2394
v 90 58.72274 -1.1976237
v 90 58.963764 -1.3088576
l 2395 2396
v 90 58.503159 -1.0628899
v 90 58.72274 -1.1976237
l 2397 2398
v 90 58.963764 -1.3088576
v 90 59.218891 -1.3946096
l 2399 2400
v 90 58.311485 -0.90799814
v 90 58.503159 -1.0628899
l 2401 2402
v 90 58.152706 0.73739761
v 90 58.029938 0.5562638
l 2403 2404
v 90 57.944244 0.37005267
v 90 57.895386 0.18785922
l 2405 2406
v 90 57.882824 0.094326638
v 90 57.878681 -1.8369701e-16
l 2407 2408
v 90 57.895386 0.18785922
v 90 57.882824 0.094326638
l 2409 2410
v 90 58.029938 0.5562638
v 90 57.944244 0.37005267
l 2411 2412
v 90 58.72274 1.1976237
v 90 58.503159 1.0628899
l 2413 2414
v 90 58.311485 0.90799814
v 90 58.152706 0.73739761
l 2415 2416
v 90 58.503159 1.0628899
v 90 58.311485 0.90799814
l 2417 2418
v 90 59.218891 1.3946096
v 90 58.963764 1.3088576
l 2419 2420
v 90 58.963764 1.3088576
v 90 58.72274 1.1976237
l 2421 2422
v 90 57.878681 -1.8369701e-16
v 90 57.882824 -0.094326638
l 2423 2424
