v 90 101.68851 -0.90799814
v 90 100.91073 -1.5365286
l 1 2
v 90 101.49684 -1.0628899
v 90 100.6445 -1.5858795
l 3 4
v 90 102.05576 -0.37005267
v 90 101.6377 -1.278476
l 5 6
v 90 101.97006 -0.5562638
v 90 101.409 -1.3840367
l 7 8
v 90 101.84729 -0.73739761
v 90 101.16601 -1.4694192
l 9 10
v 90 101.27726 -1.1976237
v 90 100.36929 -1.6166515
l 11 12
v 90 101.03623 -1.3088576
v 90 100.08834 -1.6274574
l 13 14
v 90 102.10461 -0.18785922
v 90 101.8456 -1.1537319
l 15 16
v 90 102.11717 0.094326638
v 90 102.16113 -0.90470676
l 17 18
v 90 102.12132 -1.8369701e-16
v 90 102.07736 -0.99903339
l 19 20
v 90 102.05576 0.37005267
v 90 102.31477 -0.59582005
l 21 22
v 90 101.97006 0.5562638
v 90 102.38811 -0.35215952
l 23 24
v 90 102.10461 0.18785922
v 90 102.23768 -0.80324753
l 25 26
v 90 102.11717 -0.094326638
v 90 101.9841 -1.0854334
l 27 28
v 90 101.84729 0.73739761
v 90 102.40835 -0.090375333
l 29 30
v 90 101.68851 0.90799814
v 90 102.3698 0.17597653
l 31 32
v 90 101.49684 1.0628899
v 90 102.27463 0.43435944
l 33 34
v 90 101.27726 1.1976237
v 90 102.1296 0.67463419
l 35 36
v 90 101.03623 1.3088576
v 90 101.94421 0.88982977
l 37 38
v 90 100.78111 1.3946096
v 90 101.72899 1.0760097
l 39 40
v 111.68851 80 -0.90799814
v 110.91073 80 -1.5365286
l 41 42
v 111.49684 80 -1.0628899
v 110.6445 80 -1.5858795
l 43 44
v 112.05576 80 -0.37005267
v 111.6377 80 -1.278476
l 45 46
v 111.97006 80 -0.5562638
v 111.409 80 -1.3840367
l 47 48
v 111.84729 80 -0.73739761
v 111.16601 80 -1.4694192
l 49 50
v 111.27726 80 -1.1976237
v 110.36929 80 -1.6166515
l 51 52
v 111.03623 80 -1.3088576
v 110.08834 80 -1.6274574
l 53 54
v 112.10461 80 -0.18785922
v 111.8456 80 -1.1537319
l 55 56
v 112.11717 80 0.094326638
v 112.16113 80 -0.90470676
l 57 58
v 112.12132 80 -1.8369701e-16
v 112.07736 80 -0.99903339
l 59 60
v 112.05576 80 0.37005267
v 112.31477 80 -0.59582005
l 61 62
v 111.97006 80 0.5562638
v 112.38811 80 -0.35215952
l 63 64
v 112.10461 80 0.18785922
v 112.23768 80 -0.80324753
l 65 66
v 112.11717 80 -0.094326638
v 111.9841 80 -1.0854334
l 67 68
v 111.84729 80 0.73739761
v 112.40835 80 -0.090375333
l 69 70
v 111.68851 80 0.90799814
v 112.3698 80 0.17597653
l 71 72
v 111.49684 80 1.0628899
v 112.27463 80 0.43435944
l 73 74
v 111.27726 80 1.1976237
v 112.1296 80 0.67463419
l 75 76
v 111.03623 80 1.3088576
v 111.94421 80 0.88982977
l 77 78
v 110.78111 80 1.3946096
v 111.72899 80 1.0760097
l 79 80
v 50 101.68851 -0.90799814
v 50 100.91073 -1.5365286
l 81 82
v 50 101.49684 -1.0628899
v 50 100.6445 -1.5858795
l 83 84
v 50 102.05576 -0.37005267
v 50 101.6377 -1.278476
l 85 86
v 50 101.97006 -0.5562638
v 50 101.409 -1.3840367
l 87 88
v 50 101.84729 -0.73739761
v 50 101.16601 -1.4694192
l 89 90
v 50 101.27726 -1.1976237
v 50 100.36929 -1.6166515
l 91 92
v 50 101.03623 -1.3088576
v 50 100.08834 -1.6274574
l 93 94
v 50 102.10461 -0.18785922
v 50 101.8456 -1.1537319
l 95 96
v 50 102.11717 0.094326638
v 50 102.16113 -0.90470676
l 97 98
v 50 102.12132 -1.8369701e-16
v 50 102.07736 -0.99903339
l 99 100
v 50 102.05576 0.37005267
v 50 102.31477 -0.59582005
l 101 102
v 50 101.97006 0.5562638
v 50 102.38811 -0.35215952
l 103 104
v 50 102.10461 0.18785922
v 50 102.23768 -0.80324753
l 105 106
v 50 102.11717 -0.094326638
v 50 101.9841 -1.0854334
l 107 108
v 50 101.84729 0.73739761
v 50 102.40835 -0.090375333
l 109 110
v 50 101.68851 0.90799814
v 50 102.3698 0.17597653
l 111 112
v 50 101.49684 1.0628899
v 50 102.27463 0.43435944
l 113 114
v 50 101.27726 1.1976237
v 50 102.1296 0.67463419
l 115 116
v 50 101.03623 1.3088576
v 50 101.94421 0.88982977
l 117 118
v 50 100.78111 1.3946096
v 50 101.72899 1.0760097
l 119 120
v 10 102.05576 -0.37005267
v 10 101.6377 -1.278476
l 121 122
v 10 101.97006 -0.5562638
v 10 101.409 -1.3840367
l 123 124
v 10 101.84729 -0.73739761
v 10 101.16601 -1.4694192
l 125 126
v 10 102.11717 -0.094326638
v 10 101.9841 -1.0854334
l 127 128
v 10 102.10461 -0.18785922
v 10 101.8456 -1.1537319
l 129 130
v 10 102.12132 -1.8369701e-16
v 10 102.07736 -0.99903339
l 131 132
v 10 101.68851 -0.90799814
v 10 100.91073 -1.5365286
l 133 134
v 10 101.27726 -1.1976237
v 10 100.36929 -1.6166515
l 135 136
v 10 101.03623 -1.3088576
v 10 100.08834 -1.6274574
l 137 138
v 10 101.49684 -1.0628899
v 10 100.6445 -1.5858795
l 139 140
v 10 101.97006 0.5562638
v 10 102.38811 -0.35215952
l 141 142
v 10 101.84729 0.73739761
v 10 102.40835 -0.090375333
l 143 144
v 10 102.05576 0.37005267
v 10 102.31477 -0.59582005
l 145 146
v 10 101.68851 0.90799814
v 10 102.3698 0.17597653
l 147 148
v 10 101.49684 1.0628899
v 10 102.27463 0.43435944
l 149 150
v 10 101.27726 1.1976237
v 10 102.1296 0.67463419
l 151 152
v 10 102.10461 0.18785922
v 10 102.23768 -0.80324753
l 153 154
v 10 101.03623 1.3088576
v 10 101.94421 0.88982977
l 155 156
v 10 100.78111 1.3946096
v 10 101.72899 1.0760097
l 157 158
v 10 102.11717 0.094326638
v 10 102.16113 -0.90470676
l 159 160
v -11.688514 80 -0.90799814
v -10.910727 80 -1.5365267
l 161 162
v -11.49684 80 -1.0628899
v -10.644503 80 -1.5858844
l 163 164
v -12.055755 80 -0.37005267
v -11.637703 80 -1.278476
l 165 166
v -11.970061 80 -0.5562638
v -11.40901 80 -1.3840448
l 167 168
v -11.847293 80 -0.73739761
v -11.166003 80 -1.4694111
l 169 170
v -11.277261 80 -1.1976237
v -10.369289 80 -1.6166543
l 171 172
v -11.036235 80 -1.3088576
v -10.088345 80 -1.6274564
l 173 174
v -12.104614 80 -0.18785922
v -11.845592 80 -1.1537307
l 175 176
v -12.117174 80 0.094326638
v -12.161091 80 -0.90470853
l 177 178
v -12.121321 80 -1.8369701e-16
v -12.077403 80 -0.99903517
l 179 180
v -12.055755 80 0.37005267
v -12.314777 80 -0.59581879
l 181 182
v -11.970061 80 0.5562638
v -12.388113 80 -0.35215952
l 183 184
v -12.104614 80 0.18785922
v -12.237703 80 -0.80324487
l 185 186
v -12.117174 80 -0.094326638
v -11.984085 80 -1.0854307
l 187 188
v -11.847293 80 0.73739761
v -12.408344 80 -0.09038343
l 189 190
v -11.688514 80 0.90799814
v -12.369804 80 0.1759847
l 191 192
v -11.49684 80 1.0628899
v -12.274626 80 0.43436133
l 193 194
v -11.277261 80 1.1976237
v -12.129597 80 0.67462924
l 195 196
v -11.036235 80 1.3088576
v -11.944207 80 0.88982703
l 197 198
v -10.781107 80 1.3946096
v -11.728997 80 1.0760108
l 199 200
v 111.68851 40 -0.90799814
v 110.91073 40 -1.5365286
l 201 202
v 111.49684 40 -1.0628899
v 110.6445 40 -1.5858795
l 203 204
v 112.05576 40 -0.37005267
v 111.6377 40 -1.278476
l 205 206
v 111.97006 40 -0.5562638
v 111.409 40 -1.3840367
l 207 208
v 111.84729 40 -0.73739761
v 111.16601 40 -1.4694192
l 209 210
v 111.27726 40 -1.1976237
v 110.36929 40 -1.6166515
l 211 212
v 111.03623 40 -1.3088576
v 110.08834 40 -1.6274574
l 213 214
v 112.10461 40 -0.18785922
v 111.8456 40 -1.1537319
l 215 216
v 112.11717 40 0.094326638
v 112.16113 40 -0.90470676
l 217 218
v 112.12132 40 -1.8369701e-16
v 112.07736 40 -0.99903339
l 219 220
v 112.05576 40 0.37005267
v 112.31477 40 -0.59582005
l 221 222
v 111.97006 40 0.5562638
v 112.38811 40 -0.35215952
l 223 224
v 112.10461 40 0.18785922
v 112.23768 40 -0.80324753
l 225 226
v 112.11717 40 -0.094326638
v 111.9841 40 -1.0854334
l 227 228
v 111.84729 40 0.73739761
v 112.40835 40 -0.090375333
l 229 230
v 111.68851 40 0.90799814
v 112.3698 40 0.17597653
l 231 232
v 111.49684 40 1.0628899
v 112.27463 40 0.43435944
l 233 234
v 111.27726 40 1.1976237
v 112.1296 40 0.67463419
l 235 236
v 111.03623 40 1.3088576
v 111.94421 40 0.88982977
l 237 238
v 110.78111 40 1.3946096
v 111.72899 40 1.0760097
l 239 240
v -11.688514 40 -0.90799814
v -10.910727 40 -1.5365267
l 241 242
v -11.49684 40 -1.0628899
v -10.644503 40 -1.5858844
l 243 244
v -12.055755 40 -0.37005267
v -11.637703 40 -1.278476
l 245 246
v -11.970061 40 -0.5562638
v -11.40901 40 -1.3840448
l 247 248
v -11.847293 40 -0.73739761
v -11.166003 40 -1.4694111
l 249 250
v -11.277261 40 -1.1976237
v -10.369289 40 -1.6166543
l 251 252
v -11.036235 40 -1.3088576
v -10.088345 40 -1.6274564
l 253 254
v -12.104614 40 -0.18785922
v -11.845592 40 -1.1537307
l 255 256
v -12.117174 40 0.094326638
v -12.161091 40 -0.90470853
l 257 258
v -12.121321 40 -1.8369701e-16
v -12.077403 40 -0.99903517
l 259 260
v -12.055755 40 0.37005267
v -12.314777 40 -0.59581879
l 261 262
v -11.970061 40 0.5562638
v -12.388113 40 -0.35215952
l 263 264
v -12.104614 40 0.18785922
v -12.237703 40 -0.80324487
l 265 266
v -12.117174 40 -0.094326638
v -11.984085 40 -1.0854307
l 267 268
v -11.847293 40 0.73739761
v -12.408344 40 -0.09038343
l 269 270
v -11.688514 40 0.90799814
v -12.369804 40 0.1759847
l 271 272
v -11.49684 40 1.0628899
v -12.274626 40 0.43436133
l 273 274
v -11.277261 40 1.1976237
v -12.129597 40 0.67462924
l 275 276
v -11.036235 40 1.3088576
v -11.944207 40 0.88982703
l 277 278
v -10.781107 40 1.3946096
v -11.728997 40 1.0760108
l 279 280
v 90 -22.055754 -0.37005267
v 90 -21.637702 -1.278476
l 281 282
v 90 -21.97006 -0.5562638
v 90 -21.409009 -1.3840448
l 283 284
v 90 -21.847292 -0.73739761
v 90 -21.166006 -1.4694151
l 285 286
v 90 -22.117174 -0.094326638
v 90 -21.984085 -1.0854307
l 287 288
v 90 -22.104614 -0.18785922
v 90 -21.845588 -1.1537294
l 289 290
v 90 -22.121321 -1.8369701e-16
v 90 -22.077403 -0.99903517
l 291 292
v 90 -21.688515 -0.90799814
v 90 -20.910727 -1.5365249
l 293 294
v 90 -21.27726 -1.1976237
v 90 -20.369289 -1.616657
l 295 296
v 90 -21.036236 -1.3088576
v 90 -20.088346 -1.6274553
l 297 298
v 90 -21.49684 -1.0628899
v 90 -20.644502 -1.5858828
l 299 300
v 90 -21.97006 0.5562638
v 90 -22.388112 -0.35215952
l 301 302
v 90 -21.847292 0.73739761
v 90 -22.408343 -0.09038343
l 303 304
v 90 -22.055754 0.37005267
v 90 -22.31478 -0.59581752
l 305 306
v 90 -21.688515 0.90799814
v 90 -22.369801 0.17598062
l 307 308
v 90 -21.49684 1.0628899
v 90 -22.274628 0.43436322
l 309 310
v 90 -21.27726 1.1976237
v 90 -22.129597 0.67463089
l 311 312
v 90 -22.104614 0.18785922
v 90 -22.237703 -0.80324487
l 313 314
v 90 -21.036236 1.3088576
v 90 -21.944207 0.8898243
l 315 316
v 90 -20.781107 1.3946096
v 90 -21.728997 1.0760118
l 317 318
v 90 -22.117174 0.094326638
v 90 -22.161091 -0.90470853
l 319 320
v 112.05576 1.8906423e-15 -0.37005267
v 111.6377 1.659207e-14 -1.278476
l 321 322
v 111.97006 4.9041819e-15 -0.5562638
v 111.409 -1.9295311e-14 -1.3840367
l 323 324
v 111.84729 -3.9116659e-16 -0.73739761
v 111.16601 -1.2109237e-14 -1.4694192
l 325 326
v 112.11717 -1.8991914e-15 -0.094326638
v 111.9841 1.7116497e-15 -1.0854334
l 327 328
v 112.10461 -1.5584297e-15 -0.18785922
v 111.8456 1.6726337e-14 -1.1537319
l 329 330
v 112.12132 -7.4940054e-16 -1.8369701e-16
v 112.07736 -1.2927079e-14 -0.99903339
l 331 332
v 111.68851 -3.1221092e-15 -0.90799814
v 110.91073 1.2885225e-14 -1.5365286
l 333 334
v 111.27726 -1.03053e-15 -1.1976237
v 110.36929 2.5327719e-14 -1.6166515
l 335 336
v 111.03623 5.9664497e-15 -1.3088576
v 110.08834 -1.9690546e-14 -1.6274574
l 337 338
v 111.49684 8.2265502e-16 -1.0628899
v 110.6445 -6.3707622e-15 -1.5858795
l 339 340
v 111.97006 -6.0209339e-17 0.5562638
v 112.38811 8.9073923e-15 -0.35215952
l 341 342
v 111.84729 4.8186934e-15 0.73739761
v 112.40835 -1.7477662e-14 -0.090375333
l 343 344
v 112.05576 1.7779946e-15 0.37005267
v 112.31477 1.0720387e-14 -0.59582005
l 345 346
v 111.68851 1.8423589e-15 0.90799814
v 112.3698 1.4613369e-14 0.17597653
l 347 348
v 111.49684 5.848245e-15 1.0628899
v 112.27463 -1.0407113e-14 0.43435944
l 349 350
v 111.27726 3.9551119e-15 1.1976237
v 112.1296 1.1303593e-14 0.67463419
l 351 352
v 112.10461 3.4648061e-15 0.18785922
v 112.23768 -8.2780264e-15 -0.80324753
l 353 354
v 111.03623 5.9276789e-15 1.3088576
v 111.94421 -1.5031573e-15 0.88982977
l 355 356
v 110.78111 4.0373703e-15 1.3946096
v 111.72899 1.1060553e-14 1.0760097
l 357 358
v 112.11717 2.3566132e-15 0.094326638
v 112.16113 -3.0539836e-14 -0.90470676
l 359 360
v 50 -22.055754 -0.37005267
v 50 -21.637702 -1.278476
l 361 362
v 50 -21.97006 -0.5562638
v 50 -21.409009 -1.3840448
l 363 364
v 50 -21.847292 -0.73739761
v 50 -21.166006 -1.4694151
l 365 366
v 50 -22.117174 -0.094326638
v 50 -21.984085 -1.0854307
l 367 368
v 50 -22.104614 -0.18785922
v 50 -21.845588 -1.1537294
l 369 370
v 50 -22.121321 -1.8369701e-16
v 50 -22.077403 -0.99903517
l 371 372
v 50 -21.688515 -0.90799814
v 50 -20.910727 -1.5365249
l 373 374
v 50 -21.27726 -1.1976237
v 50 -20.369289 -1.616657
l 375 376
v 50 -21.036236 -1.3088576
v 50 -20.088346 -1.6274553
l 377 378
v 50 -21.49684 -1.0628899
v 50 -20.644502 -1.5858828
l 379 380
v 50 -21.97006 0.5562638
v 50 -22.388112 -0.35215952
l 381 382
v 50 -21.847292 0.73739761
v 50 -22.408343 -0.09038343
l 383 384
v 50 -22.055754 0.37005267
v 50 -22.31478 -0.59581752
l 385 386
v 50 -21.688515 0.90799814
v 50 -22.369801 0.17598062
l 387 388
v 50 -21.49684 1.0628899
v 50 -22.274628 0.43436322
l 389 390
v 50 -21.27726 1.1976237
v 50 -22.129597 0.67463089
l 391 392
v 50 -22.104614 0.18785922
v 50 -22.237703 -0.80324487
l 393 394
v 50 -21.036236 1.3088576
v 50 -21.944207 0.8898243
l 395 396
v 50 -20.781107 1.3946096
v 50 -21.728997 1.0760118
l 397 398
v 50 -22.117174 0.094326638
v 50 -22.161091 -0.90470853
l 399 400
v -11.688514 -3.7308705e-15 -0.90799814
v -10.910727 1.1868348e-14 -1.5365267
l 401 402
v -11.49684 1.1333145e-16 -1.0628899
v -10.644503 -1.0824399e-14 -1.5858844
l 403 404
v -12.055755 -3.6430972e-15 -0.37005267
v -11.637703 2.1796061e-15 -1.278476
l 405 406
v -11.970061 -2.4495433e-15 -0.5562638
v -11.40901 4.8250992e-15 -1.3840448
l 407 408
v -11.847293 -8.5771689e-16 -0.73739761
v -11.166003 -1.3185856e-14 -1.4694111
l 409 410
v -11.277261 -2.7044458e-15 -1.1976237
v -10.369289 3.232006e-16 -1.6166543
l 411 412
v -11.036235 -1.9007413e-15 -1.3088576
v -10.088345 -3.0691772e-15 -1.6274564
l 413 414
v -12.104614 -5.9309596e-16 -0.18785922
v -11.845592 -1.6762224e-14 -1.1537307
l 415 416
v -12.117174 -3.6152933e-16 0.094326638
v -12.161091 -2.857475e-14 -0.90470853
l 417 418
v -12.121321 -3.0253577e-15 -1.8369701e-16
v -12.077403 2.5460181e-14 -0.99903517
l 419 420
v -12.055755 -3.6783583e-15 0.37005267
v -12.314777 1.2515616e-14 -0.59581879
l 421 422
v -11.970061 -2.5114984e-15 0.5562638
v -12.388113 -8.203976e-15 -0.35215952
l 423 424
v -12.104614 -6.2367025e-16 0.18785922
v -12.237703 2.1540669e-15 -0.80324487
l 425 426
v -12.117174 -3.3581767e-16 -0.094326638
v -11.984085 -3.0620287e-15 -1.0854307
l 427 428
v -11.847293 -8.3167095e-16 0.73739761
v -12.408344 -8.5084783e-15 -0.09038343
l 429 430
v -11.688514 -3.7240659e-15 0.90799814
v -12.369804 8.6866339e-15 0.1759847
l 431 432
v -11.49684 1.5929938e-16 1.0628899
v -12.274626 -1.5598838e-14 0.43436133
l 433 434
v -11.277261 -2.6733021e-15 1.1976237
v -12.129597 8.3219715e-15 0.67462924
l 435 436
v -11.036235 -1.8819677e-15 1.3088576
v -11.944207 -4.8630146e-15 0.88982703
l 437 438
v -10.781107 -3.4574201e-15 1.3946096
v -11.728997 2.3959384e-15 1.0760108
l 439 440
v 10 -21.688515 -0.90799814
v 10 -20.910727 -1.5365249
l 441 442
v 10 -21.49684 -1.0628899
v 10 -20.644502 -1.5858828
l 443 444
v 10 -22.055754 -0.37005267
v 10 -21.637702 -1.278476
l 445 446
v 10 -21.97006 -0.5562638
v 10 -21.409009 -1.3840448
l 447 448
v 10 -21.847292 -0.73739761
v 10 -21.166006 -1.4694151
l 449 450
v 10 -21.27726 -1.1976237
v 10 -20.369289 -1.616657
l 451 452
v 10 -21.036236 -1.3088576
v 10 -20.088346 -1.6274553
l 453 454
v 10 -22.104614 -0.18785922
v 10 -21.845588 -1.1537294
l 455 456
v 10 -22.117174 0.094326638
v 10 -22.161091 -0.90470853
l 457 458
v 10 -22.121321 -1.8369701e-16
v 10 -22.077403 -0.99903517
l 459 460
v 10 -22.055754 0.37005267
v 10 -22.31478 -0.59581752
l 461 462
v 10 -21.97006 0.5562638
v 10 -22.388112 -0.35215952
l 463 464
v 10 -22.104614 0.18785922
v 10 -22.237703 -0.80324487
l 465 466
v 10 -22.117174 -0.094326638
v 10 -21.984085 -1.0854307
l 467 468
v 10 -21.847292 0.73739761
v 10 -22.408343 -0.09038343
l 469 470
v 10 -21.688515 0.90799814
v 10 -22.369801 0.17598062
l 471 472
v 10 -21.49684 1.0628899
v 10 -22.274628 0.43436322
l 473 474
v 10 -21.27726 1.1976237
v 10 -22.129597 0.67463089
l 475 476
v 10 -21.036236 1.3088576
v 10 -21.944207 0.8898243
l 477 478
v 10 -20.781107 1.3946096
v 10 -21.728997 1.0760118
l 479 480
v 90 97.895386 -0.18785922
v 90 98.154403 -1.1537319
l 481 482
v 90 97.882828 -0.094326638
v 90 98.015897 -1.0854334
l 483 484
v 90 98.029938 -0.5562638
v 90 98.591001 -1.3840367
l 485 486
v 90 98.311485 -0.90799814
v 90 99.08927 -1.5365286
l 487 488
v 90 98.15271 -0.73739761
v 90 98.833991 -1.4694192
l 489 490
v 90 97.944244 -0.37005267
v 90 98.362296 -1.278476
l 491 492
v 90 98.72274 -1.1976237
v 90 99.630714 -1.6166515
l 493 494
v 90 98.963768 -1.3088576
v 90 99.911657 -1.6274574
l 495 496
v 90 98.503159 -1.0628899
v 90 99.355498 -1.5858795
l 497 498
v 90 98.15271 0.73739761
v 90 97.591647 -0.090375333
l 499 500
v 90 98.311485 0.90799814
v 90 97.630204 0.17597653
l 501 502
v 90 98.72274 1.1976237
v 90 97.870401 0.67463419
l 503 504
v 90 98.963768 1.3088576
v 90 98.055795 0.88982977
l 505 506
v 90 98.503159 1.0628899
v 90 97.725374 0.43435944
l 507 508
v 90 97.882828 0.094326638
v 90 97.83887 -0.90470676
l 509 510
v 90 97.895386 0.18785922
v 90 97.762317 -0.80324753
l 511 512
v 90 97.944244 0.37005267
v 90 97.685227 -0.59582005
l 513 514
v 90 98.029938 0.5562638
v 90 97.611886 -0.35215952
l 515 516
v 90 99.218895 1.3946096
v 90 98.271006 1.0760097
l 517 518
v 90 97.878677 0
v 90 97.922635 -0.99903339
l 519 520
v 72.117172 80 -0.094326638
v 71.984103 80 -1.0854334
l 521 522
v 70 81.889496 -0.68183374
v 70 82.418316 0.16690026
l 523 524
v 72.104614 80 -0.18785922
v 71.845597 80 -1.1537319
l 525 526
v 72.121323 80 0
v 72.077365 80 -0.99903339
l 527 528
v 70 81.986633 -0.52593219
v 70 82.387598 0.39016112
l 529 530
v 71.970062 80 -0.5562638
v 71.408999 80 -1.3840367
l 531 532
v 72.055756 80 -0.37005267
v 71.637704 80 -1.278476
l 533 534
v 70 82.1054 -0.18351579
v 70 82.191839 0.81274134
l 535 536
v 70 82.059555 0.35932636
v 70 81.65859 1.2754197
l 537 538
v 70 82.1054 0.18351579
v 70 81.853074 1.1511581
l 539 540
v 70 82.121323 -1.8369701e-16
v 70 82.034883 0.99625713
l 541 542
v 70 82.059555 -0.35932636
v 70 82.311881 0.6083159
l 543 544
v 70 81.986633 0.52593219
v 70 81.457813 1.3746662
l 545 546
v 71.688515 80 -0.90799814
v 70.91073 80 -1.5365286
l 547 548
v 71.27726 80 -1.1976237
v 70.369286 80 -1.6166515
l 549 550
v 71.496841 80 -1.0628899
v 70.644502 80 -1.5858795
l 551 552
v 71.036232 80 -1.3088576
v 70.088343 80 -1.6274574
l 553 554
v 70 81.774506 -0.82194227
v 70 82.408919 -0.048948426
l 555 556
v 70 81.644028 -0.94794017
v 70 82.363376 -0.25329078
l 557 558
v 70 80.696777 -1.416774
v 70 81.650039 -1.1146277
l 559 560
v 70 81.348923 -1.1576697
v 70 82.190167 -0.61701424
l 561 562
v 70 81.032097 -1.310491
v 70 81.932792 -0.87603961
l 563 564
v 70 81.501137 -1.0598439
v 70 82.288438 -0.44327583
l 565 566
v 71.84729 80 -0.73739761
v 71.166009 80 -1.4694192
l 567 568
v 71.970062 80 0.5562638
v 72.388114 80 -0.35215952
l 569 570
v 72.104614 80 0.18785922
v 72.237683 80 -0.80324753
l 571 572
v 72.117172 80 0.094326638
v 72.16113 80 -0.90470676
l 573 574
v 72.055756 80 0.37005267
v 72.314773 80 -0.59582005
l 575 576
v 70 81.774506 0.82194227
v 70 81.055157 1.5165917
l 577 578
v 70 81.501137 1.0598439
v 70 80.659893 1.6004993
l 579 580
v 70 81.644028 0.94794017
v 70 80.856726 1.5645082
l 581 582
v 70 81.032097 1.310491
v 70 80.078835 1.6126373
l 583 584
v 70 81.348923 1.1576697
v 70 80.448227 1.592121
l 585 586
v 71.496841 80 1.0628899
v 72.274626 80 0.43435944
l 587 588
v 71.84729 80 0.73739761
v 72.408353 80 -0.090375333
l 589 590
v 71.688515 80 0.90799814
v 72.369796 80 0.17597653
l 591 592
v 71.036232 80 1.3088576
v 71.944205 80 0.88982977
l 593 594
v 70.781105 80 1.3946096
v 71.728994 80 1.0760097
l 595 596
v 71.27726 80 1.1976237
v 72.129599 80 0.67463419
l 597 598
v 70 81.889496 0.68183374
v 70 81.255082 1.4548276
l 599 600
v 70 78.967903 -1.310491
v 70 79.921165 -1.6126373
l 601 602
v 70 78.498863 -1.0598439
v 70 79.340107 -1.6004993
l 603 604
v 70 78.225494 -0.82194227
v 70 78.944843 -1.5165917
l 605 606
v 70 78.355972 -0.94794017
v 70 79.143274 -1.5645082
l 607 608
v 70 78.651077 -1.1576697
v 70 79.551773 -1.592121
l 609 610
v 70 79.303223 1.416774
v 70 78.349961 1.1146277
l 611 612
v 70 78.355972 0.94794017
v 70 77.636624 0.25329078
l 613 614
v 70 78.651077 1.1576697
v 70 77.809833 0.61701424
l 615 616
v 70 78.498863 1.0598439
v 70 77.711562 0.44327583
l 617 618
v 70 78.967903 1.310491
v 70 78.067208 0.87603961
l 619 620
v 70 77.940445 -0.35932636
v 70 78.34141 -1.2754197
l 621 622
v 70 77.878677 -1.8369701e-16
v 70 77.965117 -0.99625713
l 623 624
v 70 77.8946 -0.18351579
v 70 78.146926 -1.1511581
l 625 626
v 70 78.013367 -0.52593219
v 70 78.542187 -1.3746662
l 627 628
v 70 77.8946 0.18351579
v 70 77.808161 -0.81274134
l 629 630
v 70 78.110504 0.68183374
v 70 77.581684 -0.16690026
l 631 632
v 70 78.013367 0.52593219
v 70 77.612402 -0.39016112
l 633 634
v 70 78.225494 0.82194227
v 70 77.591081 0.048948426
l 635 636
v 70 77.940445 0.35932636
v 70 77.688119 -0.6083159
l 637 638
v 70 78.110504 -0.68183374
v 70 78.744918 -1.4548276
l 639 640
v 90 62.117176 -0.094326638
v 90 61.984067 -1.0854281
l 641 642
v 90 62.104614 -0.18785922
v 90 61.845597 -1.1537319
l 643 644
v 90 62.055756 -0.37005267
v 90 61.637704 -1.278476
l 645 646
v 87.940445 60 -0.35932636
v 87.688119 60 0.6083159
l 647 648
v 90 61.970062 -0.5562638
v 90 61.409011 -1.3840448
l 649 650
v 88.110504 60 -0.68183374
v 87.581684 60 0.16690026
l 651 652
v 90 61.847294 -0.73739761
v 90 61.166004 -1.4694111
l 653 654
v 88.013367 60 -0.52593219
v 87.612402 60 0.39016112
l 655 656
v 87.878677 60 -1.8369701e-16
v 87.965117 60 0.99625713
l 657 658
v 87.940445 60 0.35932636
v 88.34141 60 1.2754197
l 659 660
v 87.8946 60 0.18351579
v 88.146926 60 1.1511581
l 661 662
v 87.8946 60 -0.18351579
v 87.808161 60 0.81274134
l 663 664
v 88.013367 60 0.52593219
v 88.542187 60 1.3746662
l 665 666
v 90 62.121319 0
v 90 62.077442 -0.99903694
l 667 668
v 90 61.496841 -1.0628899
v 90 60.644502 -1.5858795
l 669 670
v 90 61.036236 -1.3088576
v 90 60.088347 -1.6274574
l 671 672
v 90 61.27726 -1.1976237
v 90 60.369289 -1.616657
l 673 674
v 88.355972 60 -0.94794017
v 87.636624 60 -0.25329078
l 675 676
v 88.225494 60 -0.82194227
v 87.591081 60 -0.048948426
l 677 678
v 89.303223 60 -1.416774
v 88.349961 60 -1.1146277
l 679 680
v 88.651077 60 -1.1576697
v 87.809833 60 -0.61701424
l 681 682
v 88.967903 60 -1.310491
v 88.067208 60 -0.87603961
l 683 684
v 88.498863 60 -1.0598439
v 87.711562 60 -0.44327583
l 685 686
v 90 61.688515 -0.90799814
v 90 60.91073 -1.5365286
l 687 688
v 88.110504 60 0.68183374
v 88.744918 60 1.4548276
l 689 690
v 90 61.970062 0.5562638
v 90 62.388114 -0.35215952
l 691 692
v 90 62.104614 0.18785922
v 90 62.237723 -0.8032422
l 693 694
v 90 62.117176 0.094326638
v 90 62.161053 -0.9047103
l 695 696
v 90 62.055756 0.37005267
v 90 62.314773 -0.59582005
l 697 698
v 88.355972 60 0.94794017
v 89.143274 60 1.5645082
l 699 700
v 88.651077 60 1.1576697
v 89.551773 60 1.592121
l 701 702
v 88.498863 60 1.0598439
v 89.340107 60 1.6004993
l 703 704
v 88.967903 60 1.310491
v 89.921165 60 1.6126373
l 705 706
v 90 61.496841 1.0628899
v 90 62.274626 0.43435944
l 707 708
v 90 61.847294 0.73739761
v 90 62.408345 -0.09038343
l 709 710
v 90 61.688515 0.90799814
v 90 62.369805 0.1759847
l 711 712
v 90 61.036236 1.3088576
v 90 61.944207 0.8898243
l 713 714
v 90 60.781109 1.3946096
v 90 61.728998 1.0760097
l 715 716
v 90 61.27726 1.1976237
v 90 62.129599 0.67463419
l 717 718
v 88.225494 60 0.82194227
v 88.944843 60 1.5165917
l 719 720
v 91.332703 60 -1.1670355
v 90.442981 60 -1.6235389
l 721 722
v 91.625969 60 -0.96322507
v 90.834974 60 -1.5750477
l 723 724
v 91.5 60 -1.0606601
v 90.656141 60 -1.5972246
l 725 726
v 91.155815 60 -1.2577939
v 90.216623 60 -1.6011861
l 727 728
v 91.74295 60 -0.85465187
v 91.009993 60 -1.5349264
l 729 730
v 91.848534 60 -0.73548853
v 91.185363 60 -1.4839566
l 731 732
v 91.940323 60 -0.60628307
v 91.361177 60 -1.4215071
l 733 734
v 92.072861 60 -0.31993777
v 91.712923 60 -1.252914
l 735 736
v 92.121323 60 -1.8369701e-16
v 92.045155 60 -0.997095
l 737 738
v 92.108803 60 -0.16389392
v 91.884347 60 -1.1383781
l 739 740
v 92.0159 60 -0.46758348
v 91.537426 60 -1.3456853
l 741 742
v 92.108803 60 0.16389392
v 92.184971 60 -0.83320108
l 743 744
v 91.155815 60 1.2577939
v 92.045537 60 0.80129049
l 745 746
v 90.783295 60 1.3939967
v 91.722487 60 1.0506045
l 747 748
v 91.332703 60 1.1670355
v 92.176562 60 0.63047099
l 749 750
v 91.625969 60 0.96322507
v 92.358926 60 0.28295058
l 751 752
v 91.5 60 1.0606601
v 92.290995 60 0.4488375
l 753 754
v 91.940323 60 0.60628307
v 92.418797 60 -0.27181879
l 755 756
v 91.74295 60 0.85465187
v 92.406121 60 0.1061838
l 757 758
v 91.848534 60 0.73548853
v 92.427679 60 -0.079735479
l 759 760
v 92.0159 60 0.46758348
v 92.375838 60 -0.46539272
l 761 762
v 107.89539 80 0.18785922
v 107.76232 80 -0.80324753
l 763 764
v 107.88283 80 0.094326638
v 107.83887 80 -0.90470676
l 765 766
v 92.072861 60 0.31993777
v 92.297317 60 -0.65454644
l 767 768
v 107.87868 80 0
v 107.92264 80 -0.99903339
l 769 770
v 107.94424 80 -0.37005267
v 108.3623 80 -1.278476
l 771 772
v 107.89539 80 -0.18785922
v 108.1544 80 -1.1537319
l 773 774
v 108.15271 80 -0.73739761
v 108.83399 80 -1.4694192
l 775 776
v 108.50316 80 -1.0628899
v 109.3555 80 -1.5858795
l 777 778
v 108.31149 80 -0.90799814
v 109.08927 80 -1.5365286
l 779 780
v 108.02994 80 -0.5562638
v 108.591 80 -1.3840367
l 781 782
v 108.96377 80 -1.3088576
v 109.91166 80 -1.6274574
l 783 784
v 108.72274 80 -1.1976237
v 109.63071 80 -1.6166515
l 785 786
v 109.21889 80 1.3946096
v 108.27101 80 1.0760097
l 787 788
v 108.96377 80 1.3088576
v 108.05579 80 0.88982977
l 789 790
v 107.94424 80 0.37005267
v 107.68523 80 -0.59582005
l 791 792
v 108.02994 80 0.5562638
v 107.61189 80 -0.35215952
l 793 794
v 108.72274 80 1.1976237
v 107.8704 80 0.67463419
l 795 796
v 108.31149 80 0.90799814
v 107.6302 80 0.17597653
l 797 798
v 108.50316 80 1.0628899
v 107.72537 80 0.43435944
l 799 800
v 108.15271 80 0.73739761
v 107.59165 80 -0.090375333
l 801 802
v 107.88283 80 -0.094326638
v 108.0159 80 -1.0854334
l 803 804
v 50 97.895386 -0.18785922
v 50 98.154403 -1.1537319
l 805 806
v 50 97.882828 -0.094326638
v 50 98.015897 -1.0854334
l 807 808
v 50 98.029938 -0.5562638
v 50 98.591001 -1.3840367
l 809 810
v 50 98.311485 -0.90799814
v 50 99.08927 -1.5365286
l 811 812
v 50 98.15271 -0.73739761
v 50 98.833991 -1.4694192
l 813 814
v 50 97.944244 -0.37005267
v 50 98.362296 -1.278476
l 815 816
v 50 98.72274 -1.1976237
v 50 99.630714 -1.6166515
l 817 818
v 50 98.963768 -1.3088576
v 50 99.911657 -1.6274574
l 819 820
v 50 98.503159 -1.0628899
v 50 99.355498 -1.5858795
l 821 822
v 50 98.15271 0.73739761
v 50 97.591647 -0.090375333
l 823 824
v 50 98.311485 0.90799814
v 50 97.630204 0.17597653
l 825 826
v 50 98.72274 1.1976237
v 50 97.870401 0.67463419
l 827 828
v 50 98.963768 1.3088576
v 50 98.055795 0.88982977
l 829 830
v 50 98.503159 1.0628899
v 50 97.725374 0.43435944
l 831 832
v 50 97.882828 0.094326638
v 50 97.83887 -0.90470676
l 833 834
v 50 97.895386 0.18785922
v 50 97.762317 -0.80324753
l 835 836
v 50 97.944244 0.37005267
v 50 97.685227 -0.59582005
l 837 838
v 50 98.029938 0.5562638
v 50 97.611886 -0.35215952
l 839 840
v 50 99.218895 1.3946096
v 50 98.271006 1.0760097
l 841 842
v 50 97.878677 0
v 50 97.922635 -0.99903339
l 843 844
v 32.121319 80 0
v 32.077442 80 -0.99903694
l 845 846
v 32.104614 80 -0.18785922
v 31.845597 80 -1.1537319
l 847 848
v 32.117176 80 -0.094326638
v 31.984067 80 -1.0854281
l 849 850
v 32.055756 80 -0.37005267
v 31.637696 80 -1.2784725
l 851 852
v 30 82.059555 -0.35932636
v 30 82.311881 0.6083159
l 853 854
v 30 81.986633 -0.52593219
v 30 82.387598 0.39016112
l 855 856
v 30 81.644028 -0.94794017
v 30 82.363376 -0.25329078
l 857 858
v 30 81.774506 -0.82194227
v 30 82.408919 -0.048948426
l 859 860
v 31.847292 80 -0.73739761
v 31.166006 80 -1.4694151
l 861 862
v 30 81.889496 -0.68183374
v 30 82.418316 0.16690026
l 863 864
v 31.97006 80 -0.5562638
v 31.409009 80 -1.3840448
l 865 866
v 30 82.1054 -0.18351579
v 30 82.191839 0.81274134
l 867 868
v 31.27726 80 -1.1976237
v 30.369289 80 -1.616657
l 869 870
v 31.49684 80 -1.0628899
v 30.644502 80 -1.5858828
l 871 872
v 31.036236 80 -1.3088576
v 30.088346 80 -1.6274553
l 873 874
v 30 81.501137 -1.0598439
v 30 82.288438 -0.44327583
l 875 876
v 30 81.348923 -1.1576697
v 30 82.190167 -0.61701424
l 877 878
v 30 80.696777 -1.416774
v 30 81.650039 -1.1146277
l 879 880
v 30 81.032097 -1.310491
v 30 81.932792 -0.87603961
l 881 882
v 31.688515 80 -0.90799814
v 30.910727 80 -1.5365249
l 883 884
v 30 82.059555 0.35932636
v 30 81.65859 1.2754197
l 885 886
v 30 82.1054 0.18351579
v 30 81.853074 1.1511581
l 887 888
v 30 81.889496 0.68183374
v 30 81.255082 1.4548276
l 889 890
v 30 81.644028 0.94794017
v 30 80.856726 1.5645082
l 891 892
v 30 81.774506 0.82194227
v 30 81.055157 1.5165917
l 893 894
v 30 81.986633 0.52593219
v 30 81.457813 1.3746662
l 895 896
v 31.847292 80 0.73739761
v 32.408343 80 -0.09038343
l 897 898
v 32.117176 80 0.094326638
v 32.161053 80 -0.9047103
l 899 900
v 32.055756 80 0.37005267
v 32.314773 80 -0.59582005
l 901 902
v 32.104614 80 0.18785922
v 32.237723 80 -0.8032422
l 903 904
v 31.97006 80 0.5562638
v 32.38812 80 -0.35215599
l 905 906
v 30 82.121323 -1.8369701e-16
v 30 82.034883 0.99625713
l 907 908
v 30 81.032097 1.310491
v 30 80.078835 1.6126373
l 909 910
v 30 81.348923 1.1576697
v 30 80.448227 1.592121
l 911 912
v 31.688515 80 0.90799814
v 32.369801 80 0.17598062
l 913 914
v 31.49684 80 1.0628899
v 32.274628 80 0.43436322
l 915 916
v 30.781107 80 1.3946096
v 31.728997 80 1.0760118
l 917 918
v 31.036236 80 1.3088576
v 31.944207 80 0.8898243
l 919 920
v 31.27726 80 1.1976237
v 32.129597 80 0.67463089
l 921 922
v 30 81.501137 1.0598439
v 30 80.659893 1.6004993
l 923 924
v 30 78.651077 -1.1576697
v 30 79.551773 -1.592121
l 925 926
v 30 78.498863 -1.0598439
v 30 79.340107 -1.6004993
l 927 928
v 30 78.967903 -1.310491
v 30 79.921165 -1.6126373
l 929 930
v 30 78.355972 -0.94794017
v 30 79.143274 -1.5645082
l 931 932
v 30 77.878677 -1.8369701e-16
v 30 77.965117 -0.99625713
l 933 934
v 30 78.225494 -0.82194227
v 30 78.944843 -1.5165917
l 935 936
v 30 78.110504 -0.68183374
v 30 78.744918 -1.4548276
l 937 938
v 30 77.940445 -0.35932636
v 30 78.34141 -1.2754197
l 939 940
v 30 78.013367 -0.52593219
v 30 78.542187 -1.3746662
l 941 942
v 30 77.8946 -0.18351579
v 30 78.146926 -1.1511581
l 943 944
v 30 78.651077 1.1576697
v 30 77.809833 0.61701424
l 945 946
v 30 78.967903 1.310491
v 30 78.067208 0.87603961
l 947 948
v 30 79.303223 1.416774
v 30 78.349961 1.1146277
l 949 950
v 30 78.225494 0.82194227
v 30 77.591081 0.048948426
l 951 952
v 30 78.355972 0.94794017
v 30 77.636624 0.25329078
l 953 954
v 30 77.940445 0.35932636
v 30 77.688119 -0.6083159
l 955 956
v 30 78.013367 0.52593219
v 30 77.612402 -0.39016112
l 957 958
v 30 78.110504 0.68183374
v 30 77.581684 -0.16690026
l 959 960
v 30 77.8946 0.18351579
v 30 77.808161 -0.81274134
l 961 962
v 30 78.498863 1.0598439
v 30 77.711562 0.44327583
l 963 964
v 50 62.104614 -0.18785922
v 50 61.845597 -1.1537319
l 965 966
v 50 62.117176 -0.094326638
v 50 61.984067 -1.0854281
l 967 968
v 50 61.847294 -0.73739761
v 50 61.166004 -1.4694111
l 969 970
v 50 61.970062 -0.5562638
v 50 61.409011 -1.3840448
l 971 972
v 50 62.055756 -0.37005267
v 50 61.637704 -1.278476
l 973 974
v 47.940445 60 -0.35932636
v 47.688099 60 0.60831078
l 975 976
v 48.013367 60 -0.52593219
v 47.612402 60 0.39016112
l 977 978
v 48.225491 60 -0.82194227
v 47.591077 60 -0.048948426
l 979 980
v 48.1105 60 -0.68183374
v 47.581695 60 0.16690958
l 981 982
v 48.355976 60 -0.94794017
v 47.636607 60 -0.2533118
l 983 984
v 50 61.688515 -0.90799814
v 50 60.91073 -1.5365286
l 985 986
v 47.894596 60 -0.18351579
v 47.808198 60 0.81274491
l 987 988
v 50 61.036236 -1.3088576
v 50 60.088347 -1.6274574
l 989 990
v 50 61.27726 -1.1976237
v 50 60.369289 -1.616657
l 991 992
v 48.498863 60 -1.0598439
v 47.71157 60 -0.44326563
l 993 994
v 48.651073 60 -1.1576697
v 47.809835 60 -0.61700465
l 995 996
v 49.303219 60 -1.416774
v 48.349958 60 -1.1146246
l 997 998
v 48.967903 60 -1.310491
v 48.067206 60 -0.87604385
l 999 1000
v 50 61.496841 -1.0628899
v 50 60.644502 -1.5858795
l 1001 1002
v 47.940445 60 0.35932636
v 48.34141 60 1.2754197
l 1003 1004
v 47.894596 60 0.18351579
v 48.146942 60 1.1511529
l 1005 1006
v 48.225491 60 0.82194227
v 48.944859 60 1.5165706
l 1007 1008
v 48.1105 60 0.68183374
v 48.744914 60 1.4548276
l 1009 1010
v 48.013367 60 0.52593219
v 48.542172 60 1.3746755
l 1011 1012
v 50 62.117176 0.094326638
v 50 62.161053 -0.9047103
l 1013 1014
v 50 62.104614 0.18785922
v 50 62.237723 -0.8032422
l 1015 1016
v 50 61.688515 0.90799814
v 50 62.369805 0.1759847
l 1017 1018
v 50 61.970062 0.5562638
v 50 62.388114 -0.35215952
l 1019 1020
v 50 61.847294 0.73739761
v 50 62.408345 -0.09038343
l 1021 1022
v 50 62.055756 0.37005267
v 50 62.314773 -0.59582005
l 1023 1024
v 48.355976 60 0.94794017
v 49.14327 60 1.5645184
l 1025 1026
v 47.878681 60 -1.8369701e-16
v 47.965079 60 0.9962607
l 1027 1028
v 48.651073 60 1.1576697
v 49.551771 60 1.5921168
l 1029 1030
v 48.498863 60 1.0598439
v 49.340101 60 1.6005089
l 1031 1032
v 48.967903 60 1.310491
v 49.921164 60 1.6126404
l 1033 1034
v 50 61.27726 1.1976237
v 50 62.129599 0.67463419
l 1035 1036
v 50 61.036236 1.3088576
v 50 61.944207 0.8898243
l 1037 1038
v 50 60.781109 1.3946096
v 50 61.728998 1.0760097
l 1039 1040
v 50 61.496841 1.0628899
v 50 62.274626 0.43435944
l 1041 1042
v 50 62.121319 0
v 50 62.077442 -0.99903694
l 1043 1044
v 10 97.878677 0
v 10 97.922635 -0.99903339
l 1045 1046
v 10 97.882828 -0.094326638
v 10 98.015897 -1.0854334
l 1047 1048
v 10 97.944244 -0.37005267
v 10 98.362296 -1.278476
l 1049 1050
v 10 98.311485 -0.90799814
v 10 99.08927 -1.5365286
l 1051 1052
v 10 97.895386 -0.18785922
v 10 98.154403 -1.1537319
l 1053 1054
v 10 98.029938 0.5562638
v 10 97.611886 -0.35215952
l 1055 1056
v 10 97.895386 0.18785922
v 10 97.762317 -0.80324753
l 1057 1058
v 10 97.882828 0.094326638
v 10 97.83887 -0.90470676
l 1059 1060
v 10 97.944244 0.37005267
v 10 97.685227 -0.59582005
l 1061 1062
v 10 98.15271 -0.73739761
v 10 98.833991 -1.4694192
l 1063 1064
v 10 98.029938 -0.5562638
v 10 98.591001 -1.3840367
l 1065 1066
v 10 98.503159 -1.0628899
v 10 99.355498 -1.5858795
l 1067 1068
v 10 98.963768 -1.3088576
v 10 99.911657 -1.6274574
l 1069 1070
v 10 98.72274 -1.1976237
v 10 99.630714 -1.6166515
l 1071 1072
v 10 98.15271 0.73739761
v 10 97.591647 -0.090375333
l 1073 1074
v 10 98.963768 1.3088576
v 10 98.055795 0.88982977
l 1075 1076
v 10 98.311485 0.90799814
v 10 97.630204 0.17597653
l 1077 1078
v 10 98.503159 1.0628899
v 10 97.725374 0.43435944
l 1079 1080
v 10 98.72274 1.1976237
v 10 97.870401 0.67463419
l 1081 1082
v 10 99.218895 1.3946096
v 10 98.271006 1.0760097
l 1083 1084
v -7.8953862 80 -0.18785922
v -8.1544081 80 -1.1537307
l 1085 1086
v -7.8828259 80 -0.094326638
v -8.0159198 80 -1.0854301
l 1087 1088
v -8.0299387 80 -0.5562638
v -8.59099 80 -1.3840448
l 1089 1090
v -8.3114862 80 -0.90799814
v -9.0892727 80 -1.5365267
l 1091 1092
v -8.1527071 80 -0.73739761
v -8.8339973 80 -1.4694111
l 1093 1094
v -7.9442458 80 -0.37005267
v -8.3622954 80 -1.2784769
l 1095 1096
v -8.9637651 80 -1.3088576
v -9.9116548 80 -1.6274564
l 1097 1098
v -8.7227392 80 -1.1976237
v -9.6307114 80 -1.6166543
l 1099 1100
v -8.5031605 80 -1.0628899
v -9.3554965 80 -1.5858844
l 1101 1102
v -8.9637651 80 1.3088576
v -8.055793 80 0.88982703
l 1103 1104
v -9.2188931 80 1.3946096
v -8.2710034 80 1.0760108
l 1105 1106
v -8.7227392 80 1.1976237
v -7.8704032 80 0.67462924
l 1107 1108
v -7.9442458 80 0.37005267
v -7.6852239 80 -0.59581879
l 1109 1110
v -7.8828259 80 0.094326638
v -7.8389136 80 -0.90470875
l 1111 1112
v -7.8953862 80 0.18785922
v -7.7622922 80 -0.8032442
l 1113 1114
v -8.5031605 80 1.0628899
v -7.725374 80 0.43436133
l 1115 1116
v -8.1527071 80 0.73739761
v -7.5916558 80 -0.09038343
l 1117 1118
v -8.3114862 80 0.90799814
v -7.6301961 80 0.1759847
l 1119 1120
v -8.0299387 80 0.5562638
v -7.6118891 80 -0.35216041
l 1121 1122
v -7.8786798 80 0
v -7.9225921 80 -0.99903539
l 1123 1124
v 10 62.121319 0
v 10 62.077442 -0.99903694
l 1125 1126
v 10 62.104614 -0.18785922
v 10 61.845597 -1.1537319
l 1127 1128
v 10 62.117176 -0.094326638
v 10 61.984067 -1.0854281
l 1129 1130
v 10 62.055756 -0.37005267
v 10 61.637704 -1.278476
l 1131 1132
v 7.9404445 60 -0.35932636
v 7.6881061 60 0.6083127
l 1133 1134
v 8.0133648 60 -0.52593219
v 7.6124063 60 0.39016401
l 1135 1136
v 8.3559752 60 -0.94794017
v 7.6366089 60 -0.25330917
l 1137 1138
v 8.2254906 60 -0.82194227
v 7.5910802 60 -0.048945845
l 1139 1140
v 10 61.847294 -0.73739761
v 10 61.166004 -1.4694111
l 1141 1142
v 8.1105013 60 -0.68183374
v 7.581685 60 0.16690259
l 1143 1144
v 10 61.970062 -0.5562638
v 10 61.409011 -1.3840448
l 1145 1146
v 7.8945971 60 -0.18351579
v 7.8081862 60 0.8127438
l 1147 1148
v 10 61.27726 -1.1976237
v 10 60.369289 -1.616657
l 1149 1150
v 10 61.496841 -1.0628899
v 10 60.644502 -1.5858795
l 1151 1152
v 10 61.036236 -1.3088576
v 10 60.088347 -1.6274574
l 1153 1154
v 8.4988651 60 -1.0598439
v 7.7115655 60 -0.44327328
l 1155 1156
v 8.6510735 60 -1.1576697
v 7.8098386 60 -0.61699985
l 1157 1158
v 9.3032198 60 -1.416774
v 8.3499587 60 -1.1146261
l 1159 1160
v 8.9679022 60 -1.310491
v 8.0672054 60 -0.87604279
l 1161 1162
v 10 61.688515 -0.90799814
v 10 60.91073 -1.5365286
l 1163 1164
v 7.9404445 60 0.35932636
v 8.341403 60 1.2754226
l 1165 1166
v 7.8945971 60 0.18351579
v 8.1469354 60 1.1511549
l 1167 1168
v 8.1105013 60 0.68183374
v 8.7449117 60 1.4548302
l 1169 1170
v 8.3559752 60 0.94794017
v 9.1432748 60 1.5645108
l 1171 1172
v 8.2254906 60 0.82194227
v 8.9448568 60 1.5165733
l 1173 1174
v 8.0133648 60 0.52593219
v 8.542181 60 1.3746685
l 1175 1176
v 10 61.847294 0.73739761
v 10 62.408345 -0.09038343
l 1177 1178
v 10 62.117176 0.094326638
v 10 62.161053 -0.9047103
l 1179 1180
v 10 62.055756 0.37005267
v 10 62.314773 -0.59582005
l 1181 1182
v 10 62.104614 0.18785922
v 10 62.237723 -0.8032422
l 1183 1184
v 10 61.970062 0.5562638
v 10 62.388114 -0.35215952
l 1185 1186
v 7.8786798 60 -1.8369701e-16
v 7.9650906 60 0.99625958
l 1187 1188
v 8.9679022 60 1.310491
v 9.9211632 60 1.6126389
l 1189 1190
v 8.6510735 60 1.1576697
v 9.5517703 60 1.5921178
l 1191 1192
v 10 61.688515 0.90799814
v 10 62.369805 0.1759847
l 1193 1194
v 10 61.496841 1.0628899
v 10 62.274626 0.43435944
l 1195 1196
v 10 60.781109 1.3946096
v 10 61.728998 1.0760097
l 1197 1198
v 10 61.036236 1.3088576
v 10 61.944207 0.8898243
l 1199 1200
v 10 61.27726 1.1976237
v 10 62.129599 0.67463419
l 1201 1202
v 8.4988651 60 1.0598439
v 9.3401 60 1.6005137
l 1203 1204
v 71.496841 40 -1.0628899
v 72.274626 40 -0.43435944
l 1205 1206
v 71.036232 40 -1.3088576
v 71.944205 40 -0.88982977
l 1207 1208
v 71.27726 40 -1.1976237
v 72.129599 40 -0.67463419
l 1209 1210
v 70.781105 40 -1.3946096
v 71.728994 40 -1.0760097
l 1211 1212
v 70 38.967903 -1.310491
v 70 39.921164 -1.6126404
l 1213 1214
v 70 38.498863 -1.0598439
v 70 39.340101 -1.6005089
l 1215 1216
v 70 38.225491 -0.82194227
v 70 38.944859 -1.5165706
l 1217 1218
v 70 38.355976 -0.94794017
v 70 39.14327 -1.5645184
l 1219 1220
v 70 38.651073 -1.1576697
v 70 39.551771 -1.5921168
l 1221 1222
v 71.688515 40 -0.90799814
v 72.369796 40 -0.17597653
l 1223 1224
v 72.104614 40 -0.18785922
v 72.237683 40 0.80324753
l 1225 1226
v 71.970062 40 -0.5562638
v 72.388114 40 0.35215952
l 1227 1228
v 72.055756 40 -0.37005267
v 72.314773 40 0.59582005
l 1229 1230
v 72.117172 40 -0.094326638
v 72.16113 40 0.90470676
l 1231 1232
v 71.84729 40 -0.73739761
v 72.408353 40 0.090375333
l 1233 1234
v 70 39.303219 1.416774
v 70 38.349958 1.1146246
l 1235 1236
v 70 38.355976 0.94794017
v 70 37.636607 0.2533118
l 1237 1238
v 70 38.651073 1.1576697
v 70 37.809835 0.61700465
l 1239 1240
v 70 38.498863 1.0598439
v 70 37.71157 0.44326563
l 1241 1242
v 70 38.967903 1.310491
v 70 38.067206 0.87604385
l 1243 1244
v 71.27726 40 1.1976237
v 70.369286 40 1.6166515
l 1245 1246
v 71.688515 40 0.90799814
v 70.91073 40 1.5365286
l 1247 1248
v 71.84729 40 0.73739761
v 71.166009 40 1.4694192
l 1249 1250
v 71.496841 40 1.0628899
v 70.644502 40 1.5858795
l 1251 1252
v 71.036232 40 1.3088576
v 70.088343 40 1.6274574
l 1253 1254
v 70 37.940445 -0.35932636
v 70 38.34141 -1.2754197
l 1255 1256
v 70 37.878681 -1.8369701e-16
v 70 37.965079 -0.9962607
l 1257 1258
v 70 37.894596 -0.18351579
v 70 38.146942 -1.1511529
l 1259 1260
v 70 38.013367 -0.52593219
v 70 38.542172 -1.3746755
l 1261 1262
v 70 37.894596 0.18351579
v 70 37.808198 -0.81274491
l 1263 1264
v 70 38.1105 0.68183374
v 70 37.581695 -0.16690958
l 1265 1266
v 71.970062 40 0.5562638
v 71.408999 40 1.3840367
l 1267 1268
v 70 38.013367 0.52593219
v 70 37.612402 -0.39016112
l 1269 1270
v 70 38.225491 0.82194227
v 70 37.591077 0.048948426
l 1271 1272
v 70 37.940445 0.35932636
v 70 37.688099 -0.60831078
l 1273 1274
v 72.104614 40 0.18785922
v 71.845597 40 1.1537319
l 1275 1276
v 72.117172 40 0.094326638
v 71.984103 40 1.0854334
l 1277 1278
v 72.121323 40 0
v 72.077365 40 0.99903339
l 1279 1280
v 72.055756 40 0.37005267
v 71.637704 40 1.278476
l 1281 1282
v 70 38.1105 -0.68183374
v 70 38.744914 -1.4548276
l 1283 1284
v 90 22.117174 -0.094326638
v 90 21.984085 -1.0854307
l 1285 1286
v 87.940445 20 -0.35932636
v 87.688119 20 0.6083159
l 1287 1288
v 90 22.104614 -0.18785922
v 90 21.845588 -1.1537294
l 1289 1290
v 87.8946 20 -0.18351579
v 87.808161 20 0.81274134
l 1291 1292
v 90 21.97006 -0.5562638
v 90 21.409009 -1.3840448
l 1293 1294
v 88.013367 20 -0.52593219
v 87.612402 20 0.39016112
l 1295 1296
v 90 22.055754 -0.37005267
v 90 21.637702 -1.278476
l 1297 1298
v 87.878677 20 -1.8369701e-16
v 87.965117 20 0.99625713
l 1299 1300
v 87.8946 20 0.18351579
v 88.146926 20 1.1511581
l 1301 1302
v 88.013367 20 0.52593219
v 88.542187 20 1.3746662
l 1303 1304
v 87.940445 20 0.35932636
v 88.34141 20 1.2754197
l 1305 1306
v 88.110504 20 0.68183374
v 88.744918 20 1.4548276
l 1307 1308
v 90 21.847292 -0.73739761
v 90 21.166006 -1.4694151
l 1309 1310
v 90 22.121321 0
v 90 22.077403 -0.99903517
l 1311 1312
v 90 21.49684 -1.0628899
v 90 20.644502 -1.5858828
l 1313 1314
v 90 21.036236 -1.3088576
v 90 20.088346 -1.6274553
l 1315 1316
v 90 21.27726 -1.1976237
v 90 20.369289 -1.616657
l 1317 1318
v 88.355972 20 -0.94794017
v 87.636624 20 -0.25329078
l 1319 1320
v 88.110504 20 -0.68183374
v 87.581684 20 0.16690026
l 1321 1322
v 88.225494 20 -0.82194227
v 87.591081 20 -0.048948426
l 1323 1324
v 89.303223 20 -1.416774
v 88.349961 20 -1.1146277
l 1325 1326
v 88.651077 20 -1.1576697
v 87.809833 20 -0.61701424
l 1327 1328
v 88.967903 20 -1.310491
v 88.067208 20 -0.87603961
l 1329 1330
v 88.498863 20 -1.0598439
v 87.711562 20 -0.44327583
l 1331 1332
v 90 21.688515 -0.90799814
v 90 20.910727 -1.5365249
l 1333 1334
v 90 21.97006 0.5562638
v 90 22.388112 -0.35215952
l 1335 1336
v 90 22.104614 0.18785922
v 90 22.237703 -0.80324487
l 1337 1338
v 90 22.117174 0.094326638
v 90 22.161091 -0.90470853
l 1339 1340
v 90 22.055754 0.37005267
v 90 22.31478 -0.59581752
l 1341 1342
v 88.355972 20 0.94794017
v 89.143274 20 1.5645082
l 1343 1344
v 88.651077 20 1.1576697
v 89.551773 20 1.592121
l 1345 1346
v 88.498863 20 1.0598439
v 89.340107 20 1.6004993
l 1347 1348
v 88.967903 20 1.310491
v 89.921165 20 1.6126373
l 1349 1350
v 90 21.49684 1.0628899
v 90 22.274628 0.43436322
l 1351 1352
v 90 21.847292 0.73739761
v 90 22.408343 -0.09038343
l 1353 1354
v 90 21.688515 0.90799814
v 90 22.369801 0.17598062
l 1355 1356
v 90 21.036236 1.3088576
v 90 21.944207 0.8898243
l 1357 1358
v 90 20.781107 1.3946096
v 90 21.728997 1.0760118
l 1359 1360
v 90 21.27726 1.1976237
v 90 22.129597 0.67463089
l 1361 1362
v 88.225494 20 0.82194227
v 88.944843 20 1.5165917
l 1363 1364
v 91.332703 20 -1.1670355
v 90.442981 20 -1.6235389
l 1365 1366
v 91.155815 20 -1.2577939
v 90.216623 20 -1.6011861
l 1367 1368
v 91.625969 20 -0.96322507
v 90.834974 20 -1.5750477
l 1369 1370
v 91.848534 20 -0.73548853
v 91.185363 20 -1.4839566
l 1371 1372
v 91.940323 20 -0.60628307
v 91.361177 20 -1.4215071
l 1373 1374
v 91.74295 20 -0.85465187
v 91.009993 20 -1.5349264
l 1375 1376
v 91.5 20 -1.0606601
v 90.656141 20 -1.5972246
l 1377 1378
v 90.783295 20 1.3939967
v 91.722487 20 1.0506045
l 1379 1380
v 91.74295 20 0.85465187
v 92.406121 20 0.1061838
l 1381 1382
v 91.5 20 1.0606601
v 92.290995 20 0.4488375
l 1383 1384
v 91.332703 20 1.1670355
v 92.176562 20 0.63047099
l 1385 1386
v 91.625969 20 0.96322507
v 92.358926 20 0.28295058
l 1387 1388
v 91.155815 20 1.2577939
v 92.045537 20 0.80129049
l 1389 1390
v 91.848534 20 0.73548853
v 92.427679 20 -0.079735479
l 1391 1392
v 92.072861 20 -0.31993777
v 91.712923 20 -1.252914
l 1393 1394
v 92.108803 20 -0.16389392
v 91.884347 20 -1.1383781
l 1395 1396
v 92.121323 20 -1.8369701e-16
v 92.045155 20 -0.997095
l 1397 1398
v 92.108803 20 0.16389392
v 92.184971 20 -0.83320108
l 1399 1400
v 92.0159 20 -0.46758348
v 91.537426 20 -1.3456853
l 1401 1402
v 92.072861 20 0.31993777
v 92.297317 20 -0.65454644
l 1403 1404
v 92.0159 20 0.46758348
v 92.375838 20 -0.46539272
l 1405 1406
v 91.940323 20 0.60628307
v 92.418797 20 -0.27181879
l 1407 1408
v 107.88283 40 -0.094326638
v 108.0159 40 -1.0854334
l 1409 1410
v 107.94424 40 -0.37005267
v 108.3623 40 -1.278476
l 1411 1412
v 107.89539 40 -0.18785922
v 108.1544 40 -1.1537319
l 1413 1414
v 108.15271 40 -0.73739761
v 108.83399 40 -1.4694192
l 1415 1416
v 108.72274 40 -1.1976237
v 109.63071 40 -1.6166515
l 1417 1418
v 108.50316 40 -1.0628899
v 109.3555 40 -1.5858795
l 1419 1420
v 108.31149 40 -0.90799814
v 109.08927 40 -1.5365286
l 1421 1422
v 108.02994 40 -0.5562638
v 108.591 40 -1.3840367
l 1423 1424
v 108.96377 40 -1.3088576
v 109.91166 40 -1.6274574
l 1425 1426
v 108.15271 40 0.73739761
v 107.59165 40 -0.090375333
l 1427 1428
v 108.02994 40 0.5562638
v 107.61189 40 -0.35215952
l 1429 1430
v 107.88283 40 0.094326638
v 107.83887 40 -0.90470676
l 1431 1432
v 107.89539 40 0.18785922
v 107.76232 40 -0.80324753
l 1433 1434
v 107.94424 40 0.37005267
v 107.68523 40 -0.59582005
l 1435 1436
v 108.72274 40 1.1976237
v 107.8704 40 0.67463419
l 1437 1438
v 108.31149 40 0.90799814
v 107.6302 40 0.17597653
l 1439 1440
v 108.50316 40 1.0628899
v 107.72537 40 0.43435944
l 1441 1442
v 109.21889 40 1.3946096
v 108.27101 40 1.0760097
l 1443 1444
v 108.96377 40 1.3088576
v 108.05579 40 0.88982977
l 1445 1446
v 107.87868 40 0
v 107.92264 40 -0.99903339
l 1447 1448
v 31.49684 40 -1.0628899
v 32.274628 40 -0.43436322
l 1449 1450
v 31.036236 40 -1.3088576
v 31.944207 40 -0.8898243
l 1451 1452
v 31.27726 40 -1.1976237
v 32.129597 40 -0.67463089
l 1453 1454
v 30.781107 40 -1.3946096
v 31.728997 40 -1.0760118
l 1455 1456
v 30 38.967903 -1.310491
v 30 39.921164 -1.6126404
l 1457 1458
v 30 38.498863 -1.0598439
v 30 39.340101 -1.6005089
l 1459 1460
v 30 38.225491 -0.82194227
v 30 38.944859 -1.5165706
l 1461 1462
v 30 38.355976 -0.94794017
v 30 39.14327 -1.5645184
l 1463 1464
v 30 38.651073 -1.1576697
v 30 39.551771 -1.5921168
l 1465 1466
v 31.688515 40 -0.90799814
v 32.369801 40 -0.17598062
l 1467 1468
v 32.104614 40 -0.18785922
v 32.237723 40 0.8032422
l 1469 1470
v 31.97006 40 -0.5562638
v 32.38812 40 0.35215599
l 1471 1472
v 32.055756 40 -0.37005267
v 32.314773 40 0.59582005
l 1473 1474
v 32.117176 40 -0.094326638
v 32.161053 40 0.9047103
l 1475 1476
v 31.847292 40 -0.73739761
v 32.408343 40 0.09038343
l 1477 1478
v 30 39.303219 1.416774
v 30 38.349958 1.1146246
l 1479 1480
v 30 38.355976 0.94794017
v 30 37.636607 0.2533118
l 1481 1482
v 30 38.651073 1.1576697
v 30 37.809835 0.61700465
l 1483 1484
v 30 38.498863 1.0598439
v 30 37.71157 0.44326563
l 1485 1486
v 30 38.967903 1.310491
v 30 38.067206 0.87604385
l 1487 1488
v 31.27726 40 1.1976237
v 30.369289 40 1.616657
l 1489 1490
v 31.688515 40 0.90799814
v 30.910727 40 1.5365249
l 1491 1492
v 31.847292 40 0.73739761
v 31.166006 40 1.4694151
l 1493 1494
v 31.49684 40 1.0628899
v 30.644502 40 1.5858828
l 1495 1496
v 31.036236 40 1.3088576
v 30.088346 40 1.6274553
l 1497 1498
v 30 37.940445 -0.35932636
v 30 38.34141 -1.2754197
l 1499 1500
v 30 37.878681 -1.8369701e-16
v 30 37.965079 -0.9962607
l 1501 1502
v 30 37.894596 -0.18351579
v 30 38.146942 -1.1511529
l 1503 1504
v 30 38.013367 -0.52593219
v 30 38.542172 -1.3746755
l 1505 1506
v 30 37.894596 0.18351579
v 30 37.808198 -0.81274491
l 1507 1508
v 30 38.1105 0.68183374
v 30 37.581695 -0.16690958
l 1509 1510
v 31.97006 40 0.5562638
v 31.409009 40 1.3840448
l 1511 1512
v 30 38.013367 0.52593219
v 30 37.612402 -0.39016112
l 1513 1514
v 30 38.225491 0.82194227
v 30 37.591077 0.048948426
l 1515 1516
v 30 37.940445 0.35932636
v 30 37.688099 -0.60831078
l 1517 1518
v 32.104614 40 0.18785922
v 31.845597 40 1.1537319
l 1519 1520
v 32.117176 40 0.094326638
v 31.984067 40 1.0854281
l 1521 1522
v 32.121319 40 0
v 32.077442 40 0.99903694
l 1523 1524
v 32.055756 40 0.37005267
v 31.637696 40 1.2784725
l 1525 1526
v 30 38.1105 -0.68183374
v 30 38.744914 -1.4548276
l 1527 1528
v 50 22.117174 -0.094326638
v 50 21.984085 -1.0854307
l 1529 1530
v 47.940445 20 -0.35932636
v 47.688099 20 0.60831078
l 1531 1532
v 50 22.104614 -0.18785922
v 50 21.845588 -1.1537294
l 1533 1534
v 47.894596 20 -0.18351579
v 47.808198 20 0.81274491
l 1535 1536
v 50 21.97006 -0.5562638
v 50 21.409009 -1.3840448
l 1537 1538
v 48.013367 20 -0.52593219
v 47.612402 20 0.39016112
l 1539 1540
v 50 22.055754 -0.37005267
v 50 21.637702 -1.278476
l 1541 1542
v 47.878681 20 -1.8369701e-16
v 47.965079 20 0.9962607
l 1543 1544
v 47.894596 20 0.18351579
v 48.146942 20 1.1511529
l 1545 1546
v 48.013367 20 0.52593219
v 48.542172 20 1.3746755
l 1547 1548
v 47.940445 20 0.35932636
v 48.34141 20 1.2754197
l 1549 1550
v 48.1105 20 0.68183374
v 48.744914 20 1.4548276
l 1551 1552
v 50 21.847292 -0.73739761
v 50 21.166006 -1.4694151
l 1553 1554
v 50 22.121321 0
v 50 22.077403 -0.99903517
l 1555 1556
v 50 21.49684 -1.0628899
v 50 20.644502 -1.5858828
l 1557 1558
v 50 21.036236 -1.3088576
v 50 20.088346 -1.6274553
l 1559 1560
v 50 21.27726 -1.1976237
v 50 20.369289 -1.616657
l 1561 1562
v 48.355976 20 -0.94794017
v 47.636607 20 -0.2533118
l 1563 1564
v 48.1105 20 -0.68183374
v 47.581695 20 0.16690958
l 1565 1566
v 48.225491 20 -0.82194227
v 47.591077 20 -0.048948426
l 1567 1568
v 49.303219 20 -1.416774
v 48.349958 20 -1.1146246
l 1569 1570
v 48.651073 20 -1.1576697
v 47.809835 20 -0.61700465
l 1571 1572
v 48.967903 20 -1.310491
v 48.067206 20 -0.87604385
l 1573 1574
v 48.498863 20 -1.0598439
v 47.71157 20 -0.44326563
l 1575 1576
v 50 21.688515 -0.90799814
v 50 20.910727 -1.5365249
l 1577 1578
v 50 21.97006 0.5562638
v 50 22.388112 -0.35215952
l 1579 1580
v 50 22.104614 0.18785922
v 50 22.237703 -0.80324487
l 1581 1582
v 50 22.117174 0.094326638
v 50 22.161091 -0.90470853
l 1583 1584
v 50 22.055754 0.37005267
v 50 22.31478 -0.59581752
l 1585 1586
v 48.355976 20 0.94794017
v 49.14327 20 1.5645184
l 1587 1588
v 48.651073 20 1.1576697
v 49.551771 20 1.5921168
l 1589 1590
v 48.498863 20 1.0598439
v 49.340101 20 1.6005089
l 1591 1592
v 48.967903 20 1.310491
v 49.921164 20 1.6126404
l 1593 1594
v 50 21.49684 1.0628899
v 50 22.274628 0.43436322
l 1595 1596
v 50 21.847292 0.73739761
v 50 22.408343 -0.09038343
l 1597 1598
v 50 21.688515 0.90799814
v 50 22.369801 0.17598062
l 1599 1600
v 50 21.036236 1.3088576
v 50 21.944207 0.8898243
l 1601 1602
v 50 20.781107 1.3946096
v 50 21.728997 1.0760118
l 1603 1604
v 50 21.27726 1.1976237
v 50 22.129597 0.67463089
l 1605 1606
v 48.225491 20 0.82194227
v 48.944859 20 1.5165706
l 1607 1608
v -8.7227392 40 -1.1976237
v -7.8704032 40 -0.67462924
l 1609 1610
v -9.2188931 40 -1.3946096
v -8.2710034 40 -1.0760108
l 1611 1612
v -8.9637651 40 -1.3088576
v -8.055793 40 -0.88982703
l 1613 1614
v -8.5031605 40 -1.0628899
v -7.725374 40 -0.43436133
l 1615 1616
v -8.1527071 40 -0.73739761
v -7.5916558 40 0.09038343
l 1617 1618
v -8.0299387 40 -0.5562638
v -7.6118891 40 0.35216041
l 1619 1620
v -7.8828259 40 -0.094326638
v -7.8389136 40 0.90470875
l 1621 1622
v -7.9442458 40 -0.37005267
v -7.6852239 40 0.59581879
l 1623 1624
v -7.8953862 40 -0.18785922
v -7.7622922 40 0.8032442
l 1625 1626
v -8.3114862 40 -0.90799814
v -7.6301961 40 -0.1759847
l 1627 1628
v -8.9637651 40 1.3088576
v -9.9116548 40 1.6274564
l 1629 1630
v -8.3114862 40 0.90799814
v -9.0892727 40 1.5365267
l 1631 1632
v -8.7227392 40 1.1976237
v -9.6307114 40 1.6166543
l 1633 1634
v -8.0299387 40 0.5562638
v -8.59099 40 1.3840448
l 1635 1636
v -7.8828259 40 0.094326638
v -8.0159198 40 1.0854301
l 1637 1638
v -7.8786798 40 0
v -7.9225921 40 0.99903539
l 1639 1640
v -7.8953862 40 0.18785922
v -8.1544081 40 1.1537307
l 1641 1642
v -8.1527071 40 0.73739761
v -8.8339973 40 1.4694111
l 1643 1644
v -8.5031605 40 1.0628899
v -9.3554965 40 1.5858844
l 1645 1646
v -7.9442458 40 0.37005267
v -8.3622954 40 1.2784769
l 1647 1648
v 10 22.117174 -0.094326638
v 10 21.984085 -1.0854307
l 1649 1650
v 8.1105013 20 -0.68183374
v 7.581685 20 0.16690259
l 1651 1652
v 10 22.104614 -0.18785922
v 10 21.845588 -1.1537294
l 1653 1654
v 10 22.121321 0
v 10 22.077403 -0.99903517
l 1655 1656
v 8.0133648 20 -0.52593219
v 7.6124063 20 0.39016401
l 1657 1658
v 10 21.97006 -0.5562638
v 10 21.409009 -1.3840448
l 1659 1660
v 10 22.055754 -0.37005267
v 10 21.637702 -1.278476
l 1661 1662
v 7.8945971 20 -0.18351579
v 7.8081862 20 0.8127438
l 1663 1664
v 7.9404445 20 0.35932636
v 8.341403 20 1.2754226
l 1665 1666
v 7.8945971 20 0.18351579
v 8.1469354 20 1.1511549
l 1667 1668
v 7.8786798 20 -1.8369701e-16
v 7.9650906 20 0.99625958
l 1669 1670
v 7.9404445 20 -0.35932636
v 7.6881061 20 0.6083127
l 1671 1672
v 8.0133648 20 0.52593219
v 8.542181 20 1.3746685
l 1673 1674
v 10 21.688515 -0.90799814
v 10 20.910727 -1.5365249
l 1675 1676
v 10 21.27726 -1.1976237
v 10 20.369289 -1.616657
l 1677 1678
v 10 21.49684 -1.0628899
v 10 20.644502 -1.5858828
l 1679 1680
v 10 21.036236 -1.3088576
v 10 20.088346 -1.6274553
l 1681 1682
v 8.2254906 20 -0.82194227
v 7.5910802 20 -0.048945845
l 1683 1684
v 8.3559752 20 -0.94794017
v 7.6366089 20 -0.25330917
l 1685 1686
v 9.3032198 20 -1.416774
v 8.3499587 20 -1.1146261
l 1687 1688
v 8.6510735 20 -1.1576697
v 7.8098386 20 -0.61699985
l 1689 1690
v 8.9679022 20 -1.310491
v 8.0672054 20 -0.87604279
l 1691 1692
v 8.4988651 20 -1.0598439
v 7.7115655 20 -0.44327328
l 1693 1694
v 10 21.847292 -0.73739761
v 10 21.166006 -1.4694151
l 1695 1696
v 10 21.97006 0.5562638
v 10 22.388112 -0.35215952
l 1697 1698
v 10 22.104614 0.18785922
v 10 22.237703 -0.80324487
l 1699 1700
v 10 22.117174 0.094326638
v 10 22.161091 -0.90470853
l 1701 1702
v 10 22.055754 0.37005267
v 10 22.31478 -0.59581752
l 1703 1704
v 8.2254906 20 0.82194227
v 8.9448568 20 1.5165733
l 1705 1706
v 8.4988651 20 1.0598439
v 9.3401 20 1.6005137
l 1707 1708
v 8.3559752 20 0.94794017
v 9.1432748 20 1.5645108
l 1709 1710
v 8.9679022 20 1.310491
v 9.9211632 20 1.6126389
l 1711 1712
v 8.6510735 20 1.1576697
v 9.5517703 20 1.5921178
l 1713 1714
v 10 21.49684 1.0628899
v 10 22.274628 0.43436322
l 1715 1716
v 10 21.847292 0.73739761
v 10 22.408343 -0.09038343
l 1717 1718
v 10 21.688515 0.90799814
v 10 22.369801 0.17598062
l 1719 1720
v 10 21.036236 1.3088576
v 10 21.944207 0.8898243
l 1721 1722
v 10 20.781107 1.3946096
v 10 21.728997 1.0760118
l 1723 1724
v 10 21.27726 1.1976237
v 10 22.129597 0.67463089
l 1725 1726
v 8.1105013 20 0.68183374
v 8.7449117 20 1.4548302
l 1727 1728
v 71.496841 -8.0805969e-16 -1.0628899
v 72.274626 8.0502103e-15 -0.43435944
l 1729 1730
v 71.036232 2.5963881e-16 -1.3088576
v 71.944205 8.2408815e-15 -0.88982977
l 1731 1732
v 71.27726 2.378315e-15 -1.1976237
v 72.129599 -9.9900787e-15 -0.67463419
l 1733 1734
v 70.781105 -4.1043443e-15 -1.3946096
v 71.728994 1.2109438e-14 -1.0760097
l 1735 1736
v 70 -1.0320983 -1.310491
v 70 -0.078837125 -1.6126385
l 1737 1738
v 70 -1.501135 -1.0598439
v 70 -0.65989932 -1.6005125
l 1739 1740
v 70 -1.7745091 -0.82194227
v 70 -1.0551447 -1.5165752
l 1741 1742
v 70 -1.8894987 -0.68183374
v 70 -1.2550872 -1.4548292
l 1743 1744
v 70 -1.6440252 -0.94794017
v 70 -0.8567251 -1.5645101
l 1745 1746
v 70 -1.3489262 -1.1576697
v 70 -0.4482298 -1.5921188
l 1747 1748
v 71.688515 1.3749263e-15 -0.90799814
v 72.369796 -1.1853481e-14 -0.17597653
l 1749 1750
v 72.104614 1.9619085e-15 -0.18785922
v 72.237683 -7.8703848e-15 0.80324753
l 1751 1752
v 71.970062 -1.69061e-15 -0.5562638
v 72.388114 4.0019358e-15 0.35215952
l 1753 1754
v 72.055756 -5.2373614e-16 -0.37005267
v 72.314773 1.2653557e-14 0.59582005
l 1755 1756
v 72.117172 1.0340167e-15 -0.094326638
v 72.16113 -4.5193295e-14 0.90470676
l 1757 1758
v 71.84729 -1.7080063e-15 -0.73739761
v 72.408353 -1.6285062e-15 0.090375333
l 1759 1760
v 70 -1.6440252 0.94794017
v 70 -2.3633895 0.2533072
l 1761 1762
v 70 -1.3489262 1.1576697
v 70 -2.1901619 0.61700105
l 1763 1764
v 70 -1.0320983 1.310491
v 70 -1.9327947 0.87604186
l 1765 1766
v 70 -1.501135 1.0598439
v 70 -2.2884351 0.44327392
l 1767 1768
v 70 -0.69678026 1.416774
v 70 -1.6500414 1.1146265
l 1769 1770
v 71.036232 -2.3601629e-15 1.3088576
v 70.088343 -4.0250506e-15 1.6274574
l 1771 1772
v 71.496841 -7.9112433e-16 1.0628899
v 70.644502 2.1074236e-14 1.5858795
l 1773 1774
v 71.84729 -1.7150437e-15 0.73739761
v 71.166009 1.1209147e-14 1.4694192
l 1775 1776
v 71.970062 -1.7106594e-15 0.5562638
v 71.408999 -1.7306956e-15 1.3840367
l 1777 1778
v 71.688515 1.2969902e-15 0.90799814
v 70.91073 -7.1763037e-15 1.5365286
l 1779 1780
v 71.27726 4.8418813e-15 1.1976237
v 70.369286 -2.2288863e-14 1.6166515
l 1781 1782
v 70 -1.7745091 0.82194227
v 70 -2.4089206 0.048946813
l 1783 1784
v 70 -2.0595555 -0.35932636
v 70 -1.6585964 -1.2754223
l 1785 1786
v 70 -2.1054029 -0.18351579
v 70 -1.8530646 -1.1511549
l 1787 1788
v 70 -2.1213202 -1.8369701e-16
v 70 -2.0349094 -0.99625958
l 1789 1790
v 70 -2.1054029 0.18351579
v 70 -2.1918138 -0.8127438
l 1791 1792
v 70 -1.9866351 -0.52593219
v 70 -1.4578193 -1.3746688
l 1793 1794
v 70 -2.0595555 0.35932636
v 70 -2.3118939 -0.6083127
l 1795 1796
v 72.055756 -3.0975745e-15 0.37005267
v 71.637704 3.6684335e-15 1.278476
l 1797 1798
v 72.104614 -1.8266293e-15 0.18785922
v 71.845597 -8.5643651e-15 1.1537319
l 1799 1800
v 70 -1.9866351 0.52593219
v 70 -2.3875942 -0.39016377
l 1801 1802
v 70 -1.8894987 0.68183374
v 70 -2.4183145 -0.16690288
l 1803 1804
v 72.121323 -3.3306691e-15 0
v 72.077365 1.3834481e-14 0.99903339
l 1805 1806
v 72.117172 -1.7099716e-15 0.094326638
v 71.984103 -2.946121e-15 1.0854334
l 1807 1808
v 90 -17.882826 -0.094326638
v 90 -18.015915 -1.0854307
l 1809 1810
v 90 -17.944246 -0.37005267
v 90 -18.362298 -1.278476
l 1811 1812
v 90 -17.895386 -0.18785922
v 90 -18.154412 -1.1537294
l 1813 1814
v 90 -18.152708 -0.73739761
v 90 -18.833994 -1.4694151
l 1815 1816
v 90 -18.50316 -1.0628899
v 90 -19.355498 -1.5858828
l 1817 1818
v 90 -18.311485 -0.90799814
v 90 -19.089273 -1.5365249
l 1819 1820
v 90 -18.02994 -0.5562638
v 90 -18.590991 -1.3840448
l 1821 1822
v 90 -18.963764 -1.3088576
v 90 -19.911654 -1.6274553
l 1823 1824
v 90 -18.72274 -1.1976237
v 90 -19.630711 -1.616657
l 1825 1826
v 90 -18.311485 0.90799814
v 90 -17.630199 0.17598062
l 1827 1828
v 90 -17.882826 0.094326638
v 90 -17.838909 -0.90470853
l 1829 1830
v 90 -18.152708 0.73739761
v 90 -17.591657 -0.09038343
l 1831 1832
v 90 -17.895386 0.18785922
v 90 -17.762297 -0.80324487
l 1833 1834
v 90 -17.944246 0.37005267
v 90 -17.68522 -0.59581752
l 1835 1836
v 90 -18.02994 0.5562638
v 90 -17.611888 -0.35215952
l 1837 1838
v 90 -18.963764 1.3088576
v 90 -18.055793 0.8898243
l 1839 1840
v 90 -18.50316 1.0628899
v 90 -17.725372 0.43436322
l 1841 1842
v 90 -18.72274 1.1976237
v 90 -17.870403 0.67463089
l 1843 1844
v 90 -19.218893 1.3946096
v 90 -18.271003 1.0760118
l 1845 1846
v 90 -17.878679 0
v 90 -17.922597 -0.99903517
l 1847 1848
v 107.88283 9.0283361e-15 -0.094326638
v 108.0159 4.0313799e-15 -1.0854334
l 1849 1850
v 107.94424 7.9675646e-15 -0.37005267
v 108.3623 2.9650954e-14 -1.278476
l 1851 1852
v 107.89539 8.5567641e-15 -0.18785922
v 108.1544 5.4332064e-15 -1.1537319
l 1853 1854
v 108.15271 1.3696883e-14 -0.73739761
v 108.83399 4.5829848e-15 -1.4694192
l 1855 1856
v 108.72274 2.5270709e-15 -1.1976237
v 109.63071 2.3061884e-15 -1.6166515
l 1857 1858
v 108.50316 2.7664306e-15 -1.0628899
v 109.3555 1.83732e-15 -1.5858795
l 1859 1860
v 108.31149 1.1572853e-14 -0.90799814
v 109.08927 -2.416245e-14 -1.5365286
l 1861 1862
v 108.02994 1.2412286e-14 -0.5562638
v 108.591 1.8282832e-14 -1.3840367
l 1863 1864
v 108.96377 2.4684361e-15 -1.3088576
v 109.91166 2.2632119e-14 -1.6274574
l 1865 1866
v 107.87868 7.9936058e-15 0
v 107.92264 1.8952654e-14 -0.99903339
l 1867 1868
v 108.15271 8.7403026e-15 0.73739761
v 107.59165 3.3590656e-15 -0.090375333
l 1869 1870
v 108.02994 7.5627769e-15 0.5562638
v 107.61189 -1.6154543e-14 -0.35215952
l 1871 1872
v 107.88283 1.0315443e-14 0.094326638
v 107.83887 -1.4275622e-14 -0.90470676
l 1873 1874
v 107.89539 8.2747411e-15 0.18785922
v 107.76232 2.9898788e-14 -0.80324753
l 1875 1876
v 107.94424 2.7011347e-15 0.37005267
v 107.68523 3.2248819e-14 -0.59582005
l 1877 1878
v 108.96377 7.5283094e-15 1.3088576
v 108.05579 7.5279297e-15 0.88982977
l 1879 1880
v 108.31149 1.4952152e-15 0.90799814
v 107.6302 3.2582812e-14 0.17597653
l 1881 1882
v 108.50316 7.8678637e-15 1.0628899
v 107.72537 -1.7991506e-14 0.43435944
l 1883 1884
v 108.72274 7.5282086e-15 1.1976237
v 107.8704 8.8466312e-15 0.67463419
l 1885 1886
v 109.21889 7.9559738e-15 1.3946096
v 108.27101 6.3670452e-15 1.0760097
l 1887 1888
v 31.036236 2.5963881e-16 -1.3088576
v 31.944207 8.2409857e-15 -0.8898243
l 1889 1890
v 30.781107 -4.1043443e-15 -1.3946096
v 31.728997 1.2109329e-14 -1.0760118
l 1891 1892
v 30 -1.3489262 -1.1576697
v 30 -0.4482298 -1.5921188
l 1893 1894
v 30 -1.6440252 -0.94794017
v 30 -0.8567251 -1.5645101
l 1895 1896
v 30 -1.501135 -1.0598439
v 30 -0.65989932 -1.6005125
l 1897 1898
v 30 -1.0320983 -1.310491
v 30 -0.078837125 -1.6126385
l 1899 1900
v 31.27726 2.378315e-15 -1.1976237
v 32.129597 -9.9901567e-15 -0.67463089
l 1901 1902
v 32.055756 -5.2373614e-16 -0.37005267
v 32.314773 1.2653557e-14 0.59582005
l 1903 1904
v 31.97006 -1.69061e-15 -0.5562638
v 32.38812 4.0019136e-15 0.35215599
l 1905 1906
v 32.117176 1.0340167e-15 -0.094326638
v 32.161053 -4.5193459e-14 0.9047103
l 1907 1908
v 32.104614 1.9619085e-15 -0.18785922
v 32.237723 -7.8703319e-15 0.8032422
l 1909 1910
v 50 -17.878679 0
v 50 -17.922597 -0.99903517
l 1911 1912
v 31.847292 -1.7080063e-15 -0.73739761
v 32.408343 -1.6285054e-15 0.09038343
l 1913 1914
v 31.688515 1.3749263e-15 -0.90799814
v 32.369801 -1.1853407e-14 -0.17598062
l 1915 1916
v 30 -1.7745091 -0.82194227
v 30 -1.0551447 -1.5165752
l 1917 1918
v 31.49684 -8.0805969e-16 -1.0628899
v 32.274628 8.050157e-15 -0.43436322
l 1919 1920
v 30 -1.8894987 -0.68183374
v 30 -1.2550872 -1.4548292
l 1921 1922
v 30 -2.0595555 -0.35932636
v 30 -1.6585964 -1.2754223
l 1923 1924
v 30 -1.9866351 -0.52593219
v 30 -1.4578193 -1.3746688
l 1925 1926
v 30 -2.1054029 -0.18351579
v 30 -1.8530646 -1.1511549
l 1927 1928
v 30 -2.1213202 -1.8369701e-16
v 30 -2.0349094 -0.99625958
l 1929 1930
v 30 -1.0320983 1.310491
v 30 -1.9327947 0.87604186
l 1931 1932
v 30 -0.69678026 1.416774
v 30 -1.6500414 1.1146265
l 1933 1934
v 31.036236 -2.3601629e-15 1.3088576
v 30.088346 -4.0250394e-15 1.6274553
l 1935 1936
v 31.49684 -7.9112433e-16 1.0628899
v 30.644502 2.1074374e-14 1.5858828
l 1937 1938
v 31.847292 -1.7150437e-15 0.73739761
v 31.166006 1.1209075e-14 1.4694151
l 1939 1940
v 31.688515 1.2969902e-15 0.90799814
v 30.910727 -7.1762527e-15 1.5365249
l 1941 1942
v 31.27726 4.8418813e-15 1.1976237
v 30.369289 -2.2289217e-14 1.616657
l 1943 1944
v 30 -1.3489262 1.1576697
v 30 -2.1901619 0.61700105
l 1945 1946
v 31.97006 -1.7106594e-15 0.5562638
v 31.409009 -1.7306958e-15 1.3840448
l 1947 1948
v 30 -1.6440252 0.94794017
v 30 -2.3633895 0.2533072
l 1949 1950
v 30 -1.501135 1.0598439
v 30 -2.2884351 0.44327392
l 1951 1952
v 30 -1.9866351 0.52593219
v 30 -2.3875942 -0.39016377
l 1953 1954
v 30 -1.7745091 0.82194227
v 30 -2.4089206 0.048946813
l 1955 1956
v 30 -1.8894987 0.68183374
v 30 -2.4183145 -0.16690288
l 1957 1958
v 30 -2.0595555 0.35932636
v 30 -2.3118939 -0.6083127
l 1959 1960
v 32.104614 -1.8266293e-15 0.18785922
v 31.845597 -8.5643651e-15 1.1537319
l 1961 1962
v 50 -17.895386 0.18785922
v 50 -17.762297 -0.80324487
l 1963 1964
v 50 -17.882826 0.094326638
v 50 -17.838909 -0.90470853
l 1965 1966
v 32.117176 -1.7099716e-15 0.094326638
v 31.984067 -2.9461144e-15 1.0854281
l 1967 1968
v 32.121319 -3.3306691e-15 0
v 32.077442 1.3834542e-14 0.99903694
l 1969 1970
v 32.055756 -3.0975745e-15 0.37005267
v 31.637696 3.6684072e-15 1.2784725
l 1971 1972
v 30 -2.1054029 0.18351579
v 30 -2.1918138 -0.8127438
l 1973 1974
v 50 -17.882826 -0.094326638
v 50 -18.015915 -1.0854307
l 1975 1976
v 50 -18.02994 -0.5562638
v 50 -18.590991 -1.3840448
l 1977 1978
v 50 -17.944246 -0.37005267
v 50 -18.362298 -1.278476
l 1979 1980
v 50 -18.50316 -1.0628899
v 50 -19.355498 -1.5858828
l 1981 1982
v 50 -18.311485 -0.90799814
v 50 -19.089273 -1.5365249
l 1983 1984
v 50 -18.152708 -0.73739761
v 50 -18.833994 -1.4694151
l 1985 1986
v 50 -18.963764 -1.3088576
v 50 -19.911654 -1.6274553
l 1987 1988
v 50 -18.72274 -1.1976237
v 50 -19.630711 -1.616657
l 1989 1990
v 50 -19.218893 1.3946096
v 50 -18.271003 1.0760118
l 1991 1992
v 50 -18.963764 1.3088576
v 50 -18.055793 0.8898243
l 1993 1994
v 50 -17.944246 0.37005267
v 50 -17.68522 -0.59581752
l 1995 1996
v 50 -18.02994 0.5562638
v 50 -17.611888 -0.35215952
l 1997 1998
v 50 -18.72274 1.1976237
v 50 -17.870403 0.67463089
l 1999 2000
v 50 -18.311485 0.90799814
v 50 -17.630199 0.17598062
l 2001 2002
v 50 -18.50316 1.0628899
v 50 -17.725372 0.43436322
l 2003 2004
v 50 -18.152708 0.73739761
v 50 -17.591657 -0.09038343
l 2005 2006
v 50 -17.895386 -0.18785922
v 50 -18.154412 -1.1537294
l 2007 2008
v -8.5031605 -8.0805969e-16 -1.0628899
v -7.725374 8.0501836e-15 -0.43436133
l 2009 2010
v -7.8953862 1.9619085e-15 -0.18785922
v -7.7622922 -7.8703517e-15 0.8032442
l 2011 2012
v -8.0299387 -1.69061e-15 -0.5562638
v -7.6118891 4.0019413e-15 0.35216041
l 2013 2014
v -7.9442458 -5.2373614e-16 -0.37005267
v -7.6852239 1.2653539e-14 0.59581879
l 2015 2016
v -8.1527071 -1.7080063e-15 -0.73739761
v -7.5916558 -1.6285054e-15 0.09038343
l 2017 2018
v -8.7227392 2.378315e-15 -1.1976237
v -7.8704032 -9.9901958e-15 -0.67462924
l 2019 2020
v -9.2188931 -4.1043443e-15 -1.3946096
v -8.2710034 1.2109384e-14 -1.0760108
l 2021 2022
v -8.9637651 2.5963881e-16 -1.3088576
v -8.055793 8.2409336e-15 -0.88982703
l 2023 2024
v -8.3114862 1.3749263e-15 -0.90799814
v -7.6301961 -1.1853333e-14 -0.1759847
l 2025 2026
v -8.9637651 -2.3601629e-15 1.3088576
v -9.9116548 -4.025045e-15 1.6274564
l 2027 2028
v -8.7227392 4.8418813e-15 1.1976237
v -9.6307114 -2.228904e-14 1.6166543
l 2029 2030
v -8.3114862 1.2969902e-15 0.90799814
v -9.0892727 -7.1762782e-15 1.5365267
l 2031 2032
v -8.1527071 -1.7150437e-15 0.73739761
v -8.8339973 1.1209003e-14 1.4694111
l 2033 2034
v -7.8953862 -1.8266293e-15 0.18785922
v -8.1544081 -8.5643563e-15 1.1537307
l 2035 2036
v -7.8786798 -3.3306691e-15 0
v -7.9225921 1.3834516e-14 0.99903539
l 2037 2038
v -7.8828259 -1.7099716e-15 0.094326638
v -8.0159198 -2.9461169e-15 1.0854301
l 2039 2040
v -7.9442458 -3.0975745e-15 0.37005267
v -8.3622954 3.6684401e-15 1.2784769
l 2041 2042
v -8.5031605 -7.9112433e-16 1.0628899
v -9.3554965 2.1074443e-14 1.5858844
l 2043 2044
v -8.0299387 -1.7106594e-15 0.5562638
v -8.59099 -1.7306958e-15 1.3840448
l 2045 2046
v -7.8828259 1.0340167e-15 -0.094326638
v -7.8389136 -4.5193387e-14 0.90470875
l 2047 2048
v 10 -17.895386 -0.18785922
v 10 -18.154412 -1.1537294
l 2049 2050
v 10 -17.882826 -0.094326638
v 10 -18.015915 -1.0854307
l 2051 2052
v 10 -18.02994 -0.5562638
v 10 -18.590991 -1.3840448
l 2053 2054
v 10 -18.311485 -0.90799814
v 10 -19.089273 -1.5365249
l 2055 2056
v 10 -18.152708 -0.73739761
v 10 -18.833994 -1.4694151
l 2057 2058
v 10 -17.944246 -0.37005267
v 10 -18.362298 -1.278476
l 2059 2060
v 10 -18.963764 -1.3088576
v 10 -19.911654 -1.6274553
l 2061 2062
v 10 -18.72274 -1.1976237
v 10 -19.630711 -1.616657
l 2063 2064
v 10 -18.50316 -1.0628899
v 10 -19.355498 -1.5858828
l 2065 2066
v 10 -18.963764 1.3088576
v 10 -18.055793 0.8898243
l 2067 2068
v 10 -19.218893 1.3946096
v 10 -18.271003 1.0760118
l 2069 2070
v 10 -18.72274 1.1976237
v 10 -17.870403 0.67463089
l 2071 2072
v 10 -17.944246 0.37005267
v 10 -17.68522 -0.59581752
l 2073 2074
v 10 -17.882826 0.094326638
v 10 -17.838909 -0.90470853
l 2075 2076
v 10 -17.895386 0.18785922
v 10 -17.762297 -0.80324487
l 2077 2078
v 10 -18.50316 1.0628899
v 10 -17.725372 0.43436322
l 2079 2080
v 10 -18.152708 0.73739761
v 10 -17.591657 -0.09038343
l 2081 2082
v 10 -18.311485 0.90799814
v 10 -17.630199 0.17598062
l 2083 2084
v 10 -18.02994 0.5562638
v 10 -17.611888 -0.35215952
l 2085 2086
v 10 -17.878679 0
v 10 -17.922597 -0.99903517
l 2087 2088
v 27.878679 -3.0253577e-15 -1.8369701e-16
v 27.922597 8.0187923e-15 -0.99903517
l 2089 2090
v 27.895386 -2.4452416e-15 -0.18785922
v 28.154412 -5.4619731e-15 -1.1537294
l 2091 2092
v 27.882826 -1.9825941e-15 -0.094326638
v 28.015915 -6.8849693e-15 -1.0854307
l 2093 2094
v 27.944246 -3.0142919e-15 -0.37005267
v 28.362298 1.878934e-14 -1.278476
l 2095 2096
v 28.152708 2.7681189e-15 -0.73739761
v 28.833994 -6.2097746e-15 -1.4694151
l 2097 2098
v 28.02994 1.4550771e-15 -0.5562638
v 28.590991 7.4556748e-15 -1.3840448
l 2099 2100
v 28.72274 -8.3001512e-15 -1.1976237
v 29.630711 -8.3844769e-15 -1.616657
l 2101 2102
v 28.50316 -8.096494e-15 -1.0628899
v 29.355498 -8.8870252e-15 -1.5858828
l 2103 2104
v 28.963764 -8.3225358e-15 -1.3088576
v 29.911654 1.1974046e-14 -1.6274553
l 2105 2106
v 28.311485 6.7577363e-16 -0.90799814
v 29.089273 -3.492072e-14 -1.5365249
l 2107 2108
v 28.152708 -2.1884606e-15 0.73739761
v 27.591657 -7.6997469e-15 -0.09038343
l 2109 2110
v 27.882826 -6.9548758e-16 0.094326638
v 27.838909 -2.537168e-14 -0.90470853
l 2111 2112
v 27.944246 -8.280722e-15 0.37005267
v 27.68522 2.1160068e-14 -0.59581752
l 2113 2114
v 27.895386 -2.7272646e-15 0.18785922
v 27.762297 1.8802158e-14 -0.80324487
l 2115 2116
v 28.02994 -3.394432e-15 0.5562638
v 27.611888 -2.7231995e-14 -0.35215952
l 2117 2118
v 28.311485 -9.4018641e-15 0.90799814
v 27.630199 2.1549609e-14 0.17598062
l 2119 2120
v 28.50316 -2.9950613e-15 1.0628899
v 27.725372 -2.8992868e-14 0.43436322
l 2121 2122
v 29.218893 -2.7991921e-15 1.3946096
v 28.271003 -4.5211414e-15 1.0760118
l 2123 2124
v 28.963764 -3.2626625e-15 1.3088576
v 28.055793 -3.399602e-15 0.8898243
l 2125 2126
v 28.72274 -3.2990135e-15 1.1976237
v 27.870403 -2.1191696e-15 0.67463089
l 2127 2128
v 30 1.3489262 -1.1576697
v 30 0.4482298 -1.5921188
l 2129 2130
v 30 1.6440252 -0.94794017
v 30 0.8567251 -1.5645101
l 2131 2132
v 30 1.501135 -1.0598439
v 30 0.65989932 -1.6005125
l 2133 2134
v 30 1.0320983 -1.310491
v 30 0.078837125 -1.6126385
l 2135 2136
v 30 1.7745091 -0.82194227
v 30 1.0551447 -1.5165752
l 2137 2138
v 30 1.8894987 -0.68183374
v 30 1.2550872 -1.4548292
l 2139 2140
v 30 1.9866351 -0.52593219
v 30 1.4578193 -1.3746688
l 2141 2142
v 30 1.501135 1.0598439
v 30 2.2884351 0.44327392
l 2143 2144
v 30 1.0320983 1.310491
v 30 1.9327947 0.87604186
l 2145 2146
v 30 1.3489262 1.1576697
v 30 2.1901619 0.61700105
l 2147 2148
v 30 0.69678026 1.416774
v 30 1.6500414 1.1146265
l 2149 2150
v 30 1.6440252 0.94794017
v 30 2.3633895 0.2533072
l 2151 2152
v 30 1.9866351 0.52593219
v 30 2.3875942 -0.39016377
l 2153 2154
v 30 2.1054029 -0.18351579
v 30 1.8530646 -1.1511549
l 2155 2156
v 30 2.1054029 0.18351579
v 30 2.1918138 -0.8127438
l 2157 2158
v 30 2.1213202 -1.8369701e-16
v 30 2.0349094 -0.99625958
l 2159 2160
v 30 2.0595555 -0.35932636
v 30 1.6585964 -1.2754223
l 2161 2162
v 30 2.0595555 0.35932636
v 30 2.3118939 -0.6083127
l 2163 2164
v 30 1.7745091 0.82194227
v 30 2.4089206 0.048946813
l 2165 2166
v 30 1.8894987 0.68183374
v 30 2.4183145 -0.16690288
l 2167 2168
v 67.878677 -3.0253577e-15 -1.8369701e-16
v 67.922635 8.0187726e-15 -0.99903339
l 2169 2170
v 67.895386 -2.4452416e-15 -0.18785922
v 68.154403 -5.461981e-15 -1.1537319
l 2171 2172
v 67.882828 -1.9825941e-15 -0.094326638
v 68.015897 -6.8849825e-15 -1.0854334
l 2173 2174
v 67.944244 -3.0142919e-15 -0.37005267
v 68.362296 1.878934e-14 -1.278476
l 2175 2176
v 68.15271 2.7681189e-15 -0.73739761
v 68.833991 -6.2098247e-15 -1.4694192
l 2177 2178
v 68.029938 1.4550771e-15 -0.5562638
v 68.591001 7.4556161e-15 -1.3840367
l 2179 2180
v 68.72274 -8.3001512e-15 -1.1976237
v 69.630714 -8.3844758e-15 -1.6166515
l 2181 2182
v 68.503159 -8.096494e-15 -1.0628899
v 69.355498 -8.8870202e-15 -1.5858795
l 2183 2184
v 68.963768 -8.3225358e-15 -1.3088576
v 69.911657 1.1974182e-14 -1.6274574
l 2185 2186
v 68.311485 6.7577363e-16 -0.90799814
v 69.08927 -3.4920934e-14 -1.5365286
l 2187 2188
v 68.15271 -2.1884606e-15 0.73739761
v 67.591647 -7.699693e-15 -0.090375333
l 2189 2190
v 67.882828 -6.9548758e-16 0.094326638
v 67.83887 -2.5371636e-14 -0.90470676
l 2191 2192
v 67.944244 -8.280722e-15 0.37005267
v 67.685227 2.1160145e-14 -0.59582005
l 2193 2194
v 67.895386 -2.7272646e-15 0.18785922
v 67.762317 1.8802216e-14 -0.80324753
l 2195 2196
v 68.029938 -3.394432e-15 0.5562638
v 67.611886 -2.7231995e-14 -0.35215952
l 2197 2198
v 68.311485 -9.4018641e-15 0.90799814
v 67.630204 2.1549782e-14 0.17597653
l 2199 2200
v 68.503159 -2.9950613e-15 1.0628899
v 67.725374 -2.8993024e-14 0.43435944
l 2201 2202
v 69.218895 -2.7991921e-15 1.3946096
v 68.271006 -4.5211529e-15 1.0760097
l 2203 2204
v 68.963768 -3.2626625e-15 1.3088576
v 68.055795 -3.3996002e-15 0.88982977
l 2205 2206
v 68.72274 -3.2990135e-15 1.1976237
v 67.870401 -2.119177e-15 0.67463419
l 2207 2208
v 70 1.0320983 -1.310491
v 70 0.078837125 -1.6126385
l 2209 2210
v 70 1.501135 -1.0598439
v 70 0.65989932 -1.6005125
l 2211 2212
v 70 1.7745091 -0.82194227
v 70 1.0551447 -1.5165752
l 2213 2214
v 70 1.8894987 -0.68183374
v 70 1.2550872 -1.4548292
l 2215 2216
v 70 1.6440252 -0.94794017
v 70 0.8567251 -1.5645101
l 2217 2218
v 70 1.3489262 -1.1576697
v 70 0.4482298 -1.5921188
l 2219 2220
v 70 1.9866351 -0.52593219
v 70 1.4578193 -1.3746688
l 2221 2222
v 70 2.0595555 -0.35932636
v 70 1.6585964 -1.2754223
l 2223 2224
v 70 1.6440252 0.94794017
v 70 2.3633895 0.2533072
l 2225 2226
v 70 1.3489262 1.1576697
v 70 2.1901619 0.61700105
l 2227 2228
v 70 1.0320983 1.310491
v 70 1.9327947 0.87604186
l 2229 2230
v 70 1.501135 1.0598439
v 70 2.2884351 0.44327392
l 2231 2232
v 70 0.69678026 1.416774
v 70 1.6500414 1.1146265
l 2233 2234
v 70 1.7745091 0.82194227
v 70 2.4089206 0.048946813
l 2235 2236
v 70 1.9866351 0.52593219
v 70 2.3875942 -0.39016377
l 2237 2238
v 70 2.0595555 0.35932636
v 70 2.3118939 -0.6083127
l 2239 2240
v 70 2.1054029 -0.18351579
v 70 1.8530646 -1.1511549
l 2241 2242
v 70 2.1213202 -1.8369701e-16
v 70 2.0349094 -0.99625958
l 2243 2244
v 70 2.1054029 0.18351579
v 70 2.1918138 -0.8127438
l 2245 2246
v 70 1.8894987 0.68183374
v 70 2.4183145 -0.16690288
l 2247 2248
v 10 17.895386 -0.18785922
v 10 18.154412 -1.1537294
l 2249 2250
v 10 17.882826 -0.094326638
v 10 18.015915 -1.0854307
l 2251 2252
v 10 18.02994 -0.5562638
v 10 18.590991 -1.3840448
l 2253 2254
v 11.742949 20 -0.85465187
v 12.406129 20 -0.10619272
l 2255 2256
v 10 18.152708 -0.73739761
v 10 18.833994 -1.4694151
l 2257 2258
v 10 17.944246 -0.37005267
v 10 18.362298 -1.278476
l 2259 2260
v 11.848535 20 -0.73548853
v 12.427664 20 0.079746843
l 2261 2262
v 12.108805 20 -0.16389392
v 12.18495 20 0.83320284
l 2263 2264
v 12.108805 20 0.16389392
v 11.884343 20 1.1383768
l 2265 2266
v 11.94032 20 -0.60628307
v 12.418798 20 0.27181625
l 2267 2268
v 12.015898 20 -0.46758348
v 12.375852 20 0.46538665
l 2269 2270
v 12.072862 20 -0.31993777
v 12.297323 20 0.65454514
l 2271 2272
v 12.072862 20 0.31993777
v 11.712908 20 1.2529079
l 2273 2274
v 12.121321 20 -1.8369701e-16
v 12.045176 20 0.99709676
l 2275 2276
v 10 18.72274 -1.1976237
v 10 19.630711 -1.616657
l 2277 2278
v 10 18.50316 -1.0628899
v 10 19.355498 -1.5858828
l 2279 2280
v 10 18.963764 -1.3088576
v 10 19.911654 -1.6274553
l 2281 2282
v 11.332705 20 -1.1670355
v 12.176561 20 -0.63046664
l 2283 2284
v 11.625968 20 -0.96322507
v 12.358923 20 -0.2829476
l 2285 2286
v 11.5 20 -1.0606601
v 12.290993 20 -0.44883461
l 2287 2288
v 10.783292 20 -1.3939967
v 11.722485 20 -1.0506069
l 2289 2290
v 11.155815 20 -1.2577939
v 12.045539 20 -0.80129439
l 2291 2292
v 10 18.311485 -0.90799814
v 10 19.089273 -1.5365249
l 2293 2294
v 12.015898 20 0.46758348
v 11.537419 20 1.3456828
l 2295 2296
v 11.94032 20 0.60628307
v 11.36119 20 1.4215184
l 2297 2298
v 10 18.152708 0.73739761
v 10 17.591657 -0.09038343
l 2299 2300
v 11.742949 20 0.85465187
v 11.009994 20 1.5349293
l 2301 2302
v 11.848535 20 0.73548853
v 11.185354 20 1.4839477
l 2303 2304
v 10 17.944246 0.37005267
v 10 17.68522 -0.59581752
l 2305 2306
v 10 17.882826 0.094326638
v 10 17.838909 -0.90470853
l 2307 2308
v 10 17.895386 0.18785922
v 10 17.762297 -0.80324487
l 2309 2310
v 10 18.02994 0.5562638
v 10 17.611888 -0.35215952
l 2311 2312
v 11.332705 20 1.1670355
v 10.442981 20 1.623535
l 2313 2314
v 11.5 20 1.0606601
v 10.656143 20 1.5972289
l 2315 2316
v 11.155815 20 1.2577939
v 10.216622 20 1.6011838
l 2317 2318
v 10 18.72274 1.1976237
v 10 17.870403 0.67463089
l 2319 2320
v 10 18.311485 0.90799814
v 10 17.630199 0.17598062
l 2321 2322
v 10 18.50316 1.0628899
v 10 17.725372 0.43436322
l 2323 2324
v 10 19.218893 1.3946096
v 10 18.271003 1.0760118
l 2325 2326
v 10 18.963764 1.3088576
v 10 18.055793 0.8898243
l 2327 2328
v 11.625968 20 0.96322507
v 10.834975 20 1.5750506
l 2329 2330
v 10 17.878679 -1.8369701e-16
v 10 17.922597 -0.99903517
l 2331 2332
v 27.895386 40 -0.18785922
v 28.154412 40 -1.1537294
l 2333 2334
v 27.882826 40 -0.094326638
v 28.015915 40 -1.0854307
l 2335 2336
v 28.152708 40 -0.73739761
v 28.833994 40 -1.4694151
l 2337 2338
v 28.02994 40 -0.5562638
v 28.590991 40 -1.3840448
l 2339 2340
v 27.944246 40 -0.37005267
v 28.362298 40 -1.278476
l 2341 2342
v 28.50316 40 -1.0628899
v 29.355498 40 -1.5858828
l 2343 2344
v 28.311485 40 -0.90799814
v 29.089273 40 -1.5365249
l 2345 2346
v 27.878679 40 -1.8369701e-16
v 27.922597 40 -0.99903517
l 2347 2348
v 28.963764 40 -1.3088576
v 29.911654 40 -1.6274553
l 2349 2350
v 28.72274 40 -1.1976237
v 29.630711 40 -1.616657
l 2351 2352
v 27.882826 40 0.094326638
v 27.838909 40 -0.90470853
l 2353 2354
v 27.895386 40 0.18785922
v 27.762297 40 -0.80324487
l 2355 2356
v 28.311485 40 0.90799814
v 27.630199 40 0.17598062
l 2357 2358
v 28.02994 40 0.5562638
v 27.611888 40 -0.35215952
l 2359 2360
v 28.152708 40 0.73739761
v 27.591657 40 -0.09038343
l 2361 2362
v 27.944246 40 0.37005267
v 27.68522 40 -0.59581752
l 2363 2364
v 28.72274 40 1.1976237
v 27.870403 40 0.67463089
l 2365 2366
v 28.963764 40 1.3088576
v 28.055793 40 0.8898243
l 2367 2368
v 29.218893 40 1.3946096
v 28.271003 40 1.0760118
l 2369 2370
v 28.50316 40 1.0628899
v 27.725372 40 0.43436322
l 2371 2372
v 30 41.348927 -1.1576697
v 30 40.448229 -1.5921168
l 2373 2374
v 30 41.644024 -0.94794017
v 30 40.85673 -1.5645184
l 2375 2376
v 30 41.501137 -1.0598439
v 30 40.659899 -1.6005089
l 2377 2378
v 30 41.032097 -1.310491
v 30 40.078836 -1.6126404
l 2379 2380
v 30 41.774509 -0.82194227
v 30 41.055141 -1.5165706
l 2381 2382
v 30 41.8895 -0.68183374
v 30 41.255086 -1.4548276
l 2383 2384
v 30 41.986633 -0.52593219
v 30 41.457828 -1.3746755
l 2385 2386
v 30 41.501137 1.0598439
v 30 42.28843 0.44326563
l 2387 2388
v 30 41.032097 1.310491
v 30 41.932794 0.87604385
l 2389 2390
v 30 41.348927 1.1576697
v 30 42.190165 0.61700465
l 2391 2392
v 30 40.696781 1.416774
v 30 41.650042 1.1146246
l 2393 2394
v 30 41.644024 0.94794017
v 30 42.363393 0.2533118
l 2395 2396
v 30 42.059555 -0.35932636
v 30 41.65859 -1.2754197
l 2397 2398
v 30 42.121319 -1.8369701e-16
v 30 42.034921 -0.9962607
l 2399 2400
v 30 42.059555 0.35932636
v 30 42.311901 -0.60831078
l 2401 2402
v 30 42.105404 0.18351579
v 30 42.191802 -0.81274491
l 2403 2404
v 30 42.105404 -0.18351579
v 30 41.853058 -1.1511529
l 2405 2406
v 30 41.986633 0.52593219
v 30 42.387598 -0.39016112
l 2407 2408
v 30 41.774509 0.82194227
v 30 42.408923 0.048948426
l 2409 2410
v 30 41.8895 0.68183374
v 30 42.418305 -0.16690958
l 2411 2412
v 50 17.895386 -0.18785922
v 50 18.154412 -1.1537294
l 2413 2414
v 50 17.882826 -0.094326638
v 50 18.015915 -1.0854307
l 2415 2416
v 50 18.02994 -0.5562638
v 50 18.590991 -1.3840448
l 2417 2418
v 51.74295 20 -0.85465187
v 52.406121 20 -0.1061838
l 2419 2420
v 50 18.152708 -0.73739761
v 50 18.833994 -1.4694151
l 2421 2422
v 50 17.944246 -0.37005267
v 50 18.362298 -1.278476
l 2423 2424
v 51.848534 20 -0.73548853
v 52.427663 20 0.079746843
l 2425 2426
v 52.108803 20 -0.16389392
v 52.184948 20 0.83320284
l 2427 2428
v 52.108803 20 0.16389392
v 51.884347 20 1.1383781
l 2429 2430
v 51.940319 20 -0.60628307
v 52.418811 20 0.27180864
l 2431 2432
v 52.0159 20 -0.46758348
v 52.375838 20 0.46539272
l 2433 2434
v 52.072861 20 -0.31993777
v 52.297317 20 0.65454644
l 2435 2436
v 52.072861 20 0.31993777
v 51.712923 20 1.252914
l 2437 2438
v 52.121319 20 -1.8369701e-16
v 52.045174 20 0.99709676
l 2439 2440
v 50 18.72274 -1.1976237
v 50 19.630711 -1.616657
l 2441 2442
v 50 18.50316 -1.0628899
v 50 19.355498 -1.5858828
l 2443 2444
v 50 18.963764 -1.3088576
v 50 19.911654 -1.6274553
l 2445 2446
v 51.332706 20 -1.1670355
v 52.17656 20 -0.63046228
l 2447 2448
v 51.625969 20 -0.96322507
v 52.358926 20 -0.28295058
l 2449 2450
v 51.5 20 -1.0606601
v 52.290995 20 -0.4488375
l 2451 2452
v 50.783291 20 -1.3939967
v 51.722484 20 -1.0506076
l 2453 2454
v 51.155815 20 -1.2577939
v 52.045541 20 -0.80129829
l 2455 2456
v 50 18.311485 -0.90799814
v 50 19.089273 -1.5365249
l 2457 2458
v 52.0159 20 0.46758348
v 51.537407 20 1.3456752
l 2459 2460
v 51.940319 20 0.60628307
v 51.361189 20 1.4215184
l 2461 2462
v 50 18.152708 0.73739761
v 50 17.591657 -0.09038343
l 2463 2464
v 51.74295 20 0.85465187
v 51.009993 20 1.5349264
l 2465 2466
v 51.848534 20 0.73548853
v 51.185363 20 1.4839566
l 2467 2468
v 50 17.944246 0.37005267
v 50 17.68522 -0.59581752
l 2469 2470
v 50 17.882826 0.094326638
v 50 17.838909 -0.90470853
l 2471 2472
v 50 17.895386 0.18785922
v 50 17.762297 -0.80324487
l 2473 2474
v 50 18.02994 0.5562638
v 50 17.611888 -0.35215952
l 2475 2476
v 51.332706 20 1.1670355
v 50.442981 20 1.6235311
l 2477 2478
v 51.5 20 1.0606601
v 50.656146 20 1.5972333
l 2479 2480
v 51.155815 20 1.2577939
v 50.216622 20 1.601183
l 2481 2482
v 50 18.72274 1.1976237
v 50 17.870403 0.67463089
l 2483 2484
v 50 18.311485 0.90799814
v 50 17.630199 0.17598062
l 2485 2486
v 50 18.50316 1.0628899
v 50 17.725372 0.43436322
l 2487 2488
v 50 19.218893 1.3946096
v 50 18.271003 1.0760118
l 2489 2490
v 50 18.963764 1.3088576
v 50 18.055793 0.8898243
l 2491 2492
v 51.625969 20 0.96322507
v 50.834974 20 1.5750477
l 2493 2494
v 50 17.878679 -1.8369701e-16
v 50 17.922597 -0.99903517
l 2495 2496
v 67.895386 40 -0.18785922
v 68.154403 40 -1.1537319
l 2497 2498
v 67.882828 40 -0.094326638
v 68.015897 40 -1.0854334
l 2499 2500
v 68.15271 40 -0.73739761
v 68.833991 40 -1.4694192
l 2501 2502
v 68.029938 40 -0.5562638
v 68.591001 40 -1.3840367
l 2503 2504
v 67.944244 40 -0.37005267
v 68.362296 40 -1.278476
l 2505 2506
v 68.503159 40 -1.0628899
v 69.355498 40 -1.5858795
l 2507 2508
v 68.311485 40 -0.90799814
v 69.08927 40 -1.5365286
l 2509 2510
v 67.878677 40 -1.8369701e-16
v 67.922635 40 -0.99903339
l 2511 2512
v 68.963768 40 -1.3088576
v 69.911657 40 -1.6274574
l 2513 2514
v 68.72274 40 -1.1976237
v 69.630714 40 -1.6166515
l 2515 2516
v 67.882828 40 0.094326638
v 67.83887 40 -0.90470676
l 2517 2518
v 67.895386 40 0.18785922
v 67.762317 40 -0.80324753
l 2519 2520
v 68.311485 40 0.90799814
v 67.630204 40 0.17597653
l 2521 2522
v 68.029938 40 0.5562638
v 67.611886 40 -0.35215952
l 2523 2524
v 68.15271 40 0.73739761
v 67.591647 40 -0.090375333
l 2525 2526
v 67.944244 40 0.37005267
v 67.685227 40 -0.59582005
l 2527 2528
v 68.72274 40 1.1976237
v 67.870401 40 0.67463419
l 2529 2530
v 68.963768 40 1.3088576
v 68.055795 40 0.88982977
l 2531 2532
v 69.218895 40 1.3946096
v 68.271006 40 1.0760097
l 2533 2534
v 68.503159 40 1.0628899
v 67.725374 40 0.43435944
l 2535 2536
v 70 41.348927 -1.1576697
v 70 40.448229 -1.5921168
l 2537 2538
v 70 41.644024 -0.94794017
v 70 40.85673 -1.5645184
l 2539 2540
v 70 41.501137 -1.0598439
v 70 40.659899 -1.6005089
l 2541 2542
v 70 41.032097 -1.310491
v 70 40.078836 -1.6126404
l 2543 2544
v 70 41.774509 -0.82194227
v 70 41.055141 -1.5165706
l 2545 2546
v 70 41.8895 -0.68183374
v 70 41.255086 -1.4548276
l 2547 2548
v 70 41.986633 -0.52593219
v 70 41.457828 -1.3746755
l 2549 2550
v 70 41.501137 1.0598439
v 70 42.28843 0.44326563
l 2551 2552
v 70 41.032097 1.310491
v 70 41.932794 0.87604385
l 2553 2554
v 70 41.348927 1.1576697
v 70 42.190165 0.61700465
l 2555 2556
v 70 40.696781 1.416774
v 70 41.650042 1.1146246
l 2557 2558
v 70 41.644024 0.94794017
v 70 42.363393 0.2533118
l 2559 2560
v 70 41.986633 0.52593219
v 70 42.387598 -0.39016112
l 2561 2562
v 70 42.105404 -0.18351579
v 70 41.853058 -1.1511529
l 2563 2564
v 70 42.105404 0.18351579
v 70 42.191802 -0.81274491
l 2565 2566
v 70 42.121319 -1.8369701e-16
v 70 42.034921 -0.9962607
l 2567 2568
v 70 42.059555 -0.35932636
v 70 41.65859 -1.2754197
l 2569 2570
v 70 42.059555 0.35932636
v 70 42.311901 -0.60831078
l 2571 2572
v 70 41.774509 0.82194227
v 70 42.408923 0.048948426
l 2573 2574
v 70 41.8895 0.68183374
v 70 42.418305 -0.16690958
l 2575 2576
v 90 17.895386 -0.18785922
v 90 18.154412 -1.1537294
l 2577 2578
v 90 17.882826 -0.094326638
v 90 18.015915 -1.0854307
l 2579 2580
v 90 18.02994 -0.5562638
v 90 18.590991 -1.3840448
l 2581 2582
v 90 18.152708 -0.73739761
v 90 18.833994 -1.4694151
l 2583 2584
v 90 17.944246 -0.37005267
v 90 18.362298 -1.278476
l 2585 2586
v 90 18.72274 -1.1976237
v 90 19.630711 -1.616657
l 2587 2588
v 90 18.50316 -1.0628899
v 90 19.355498 -1.5858828
l 2589 2590
v 90 18.963764 -1.3088576
v 90 19.911654 -1.6274553
l 2591 2592
v 90 18.311485 -0.90799814
v 90 19.089273 -1.5365249
l 2593 2594
v 90 18.152708 0.73739761
v 90 17.591657 -0.09038343
l 2595 2596
v 90 17.944246 0.37005267
v 90 17.68522 -0.59581752
l 2597 2598
v 90 17.882826 0.094326638
v 90 17.838909 -0.90470853
l 2599 2600
v 90 17.895386 0.18785922
v 90 17.762297 -0.80324487
l 2601 2602
v 90 18.02994 0.5562638
v 90 17.611888 -0.35215952
l 2603 2604
v 90 18.72274 1.1976237
v 90 17.870403 0.67463089
l 2605 2606
v 90 18.311485 0.90799814
v 90 17.630199 0.17598062
l 2607 2608
v 90 18.50316 1.0628899
v 90 17.725372 0.43436322
l 2609 2610
v 90 19.218893 1.3946096
v 90 18.271003 1.0760118
l 2611 2612
v 90 18.963764 1.3088576
v 90 18.055793 0.8898243
l 2613 2614
v 90 17.878679 -1.8369701e-16
v 90 17.922597 -0.99903517
l 2615 2616
v 10 57.895386 -0.18785922
v 10 58.154403 -1.1537319
l 2617 2618
v 10 57.882824 -0.094326638
v 10 58.015933 -1.0854281
l 2619 2620
v 10 58.029938 -0.5562638
v 10 58.590989 -1.3840448
l 2621 2622
v 11.742949 60 -0.85465187
v 12.406129 60 -0.10619272
l 2623 2624
v 10 58.152706 -0.73739761
v 10 58.833996 -1.4694111
l 2625 2626
v 10 57.944244 -0.37005267
v 10 58.362296 -1.278476
l 2627 2628
v 11.848535 60 -0.73548853
v 12.427664 60 0.079746843
l 2629 2630
v 12.108805 60 -0.16389392
v 12.18495 60 0.83320284
l 2631 2632
v 12.108805 60 0.16389392
v 11.884343 60 1.1383768
l 2633 2634
v 11.94032 60 -0.60628307
v 12.418798 60 0.27181625
l 2635 2636
v 12.015898 60 -0.46758348
v 12.375852 60 0.46538665
l 2637 2638
v 12.072862 60 -0.31993777
v 12.297323 60 0.65454514
l 2639 2640
v 12.072862 60 0.31993777
v 11.712908 60 1.2529079
l 2641 2642
v 12.121321 60 -1.8369701e-16
v 12.045176 60 0.99709676
l 2643 2644
v 10 58.72274 -1.1976237
v 10 59.630711 -1.616657
l 2645 2646
v 10 58.503159 -1.0628899
v 10 59.355498 -1.5858795
l 2647 2648
v 10 58.963764 -1.3088576
v 10 59.911653 -1.6274574
l 2649 2650
v 11.332705 60 -1.1670355
v 12.176561 60 -0.63046664
l 2651 2652
v 11.625968 60 -0.96322507
v 12.358923 60 -0.2829476
l 2653 2654
v 11.5 60 -1.0606601
v 12.290993 60 -0.44883461
l 2655 2656
v 10.783292 60 -1.3939967
v 11.722485 60 -1.0506069
l 2657 2658
v 11.155815 60 -1.2577939
v 12.045539 60 -0.80129439
l 2659 2660
v 10 58.311485 -0.90799814
v 10 59.08927 -1.5365286
l 2661 2662
v 12.015898 60 0.46758348
v 11.537419 60 1.3456828
l 2663 2664
v 11.94032 60 0.60628307
v 11.36119 60 1.4215184
l 2665 2666
v 10 58.152706 0.73739761
v 10 57.591655 -0.09038343
l 2667 2668
v 11.742949 60 0.85465187
v 11.009994 60 1.5349293
l 2669 2670
v 11.848535 60 0.73548853
v 11.185354 60 1.4839477
l 2671 2672
v 10 57.944244 0.37005267
v 10 57.685227 -0.59582005
l 2673 2674
v 10 57.882824 0.094326638
v 10 57.838947 -0.9047103
l 2675 2676
v 10 57.895386 0.18785922
v 10 57.762277 -0.8032422
l 2677 2678
v 10 58.029938 0.5562638
v 10 57.611886 -0.35215952
l 2679 2680
v 11.332705 60 1.1670355
v 10.442981 60 1.623535
l 2681 2682
v 11.5 60 1.0606601
v 10.656143 60 1.5972289
l 2683 2684
v 11.155815 60 1.2577939
v 10.216622 60 1.6011838
l 2685 2686
v 10 58.72274 1.1976237
v 10 57.870401 0.67463419
l 2687 2688
v 10 58.311485 0.90799814
v 10 57.630195 0.1759847
l 2689 2690
v 10 58.503159 1.0628899
v 10 57.725374 0.43435944
l 2691 2692
v 10 59.218891 1.3946096
v 10 58.271002 1.0760097
l 2693 2694
v 10 58.963764 1.3088576
v 10 58.055793 0.8898243
l 2695 2696
v 11.625968 60 0.96322507
v 10.834975 60 1.5750506
l 2697 2698
v 10 57.878681 -1.8369701e-16
v 10 57.922558 -0.99903694
l 2699 2700
v 27.895386 80 -0.18785922
v 28.154412 80 -1.1537294
l 2701 2702
v 27.882826 80 -0.094326638
v 28.015915 80 -1.0854307
l 2703 2704
v 28.152708 80 -0.73739761
v 28.833994 80 -1.4694151
l 2705 2706
v 28.02994 80 -0.5562638
v 28.590991 80 -1.3840448
l 2707 2708
v 27.944246 80 -0.37005267
v 28.362298 80 -1.278476
l 2709 2710
v 28.50316 80 -1.0628899
v 29.355498 80 -1.5858828
l 2711 2712
v 28.311485 80 -0.90799814
v 29.089273 80 -1.5365249
l 2713 2714
v 27.878679 80 -1.8369701e-16
v 27.922597 80 -0.99903517
l 2715 2716
v 28.963764 80 -1.3088576
v 29.911654 80 -1.6274553
l 2717 2718
v 28.72274 80 -1.1976237
v 29.630711 80 -1.616657
l 2719 2720
v 27.882826 80 0.094326638
v 27.838909 80 -0.90470853
l 2721 2722
v 27.895386 80 0.18785922
v 27.762297 80 -0.80324487
l 2723 2724
v 28.311485 80 0.90799814
v 27.630199 80 0.17598062
l 2725 2726
v 28.02994 80 0.5562638
v 27.611888 80 -0.35215952
l 2727 2728
v 28.152708 80 0.73739761
v 27.591657 80 -0.09038343
l 2729 2730
v 27.944246 80 0.37005267
v 27.68522 80 -0.59581752
l 2731 2732
v 28.72274 80 1.1976237
v 27.870403 80 0.67463089
l 2733 2734
v 28.963764 80 1.3088576
v 28.055793 80 0.8898243
l 2735 2736
v 29.218893 80 1.3946096
v 28.271003 80 1.0760118
l 2737 2738
v 28.50316 80 1.0628899
v 27.725372 80 0.43436322
l 2739 2740
v 50 57.895386 -0.18785922
v 50 58.154403 -1.1537319
l 2741 2742
v 50 57.882824 -0.094326638
v 50 58.015933 -1.0854281
l 2743 2744
v 50 58.029938 -0.5562638
v 50 58.590989 -1.3840448
l 2745 2746
v 51.74295 60 -0.85465187
v 52.406121 60 -0.1061838
l 2747 2748
v 50 58.152706 -0.73739761
v 50 58.833996 -1.4694111
l 2749 2750
v 50 57.944244 -0.37005267
v 50 58.362296 -1.278476
l 2751 2752
v 51.848534 60 -0.73548853
v 52.427663 60 0.079746843
l 2753 2754
v 52.108803 60 -0.16389392
v 52.184948 60 0.83320284
l 2755 2756
v 52.108803 60 0.16389392
v 51.884347 60 1.1383781
l 2757 2758
v 51.940319 60 -0.60628307
v 52.418811 60 0.27180864
l 2759 2760
v 52.0159 60 -0.46758348
v 52.375838 60 0.46539272
l 2761 2762
v 52.072861 60 -0.31993777
v 52.297317 60 0.65454644
l 2763 2764
v 52.072861 60 0.31993777
v 51.712923 60 1.252914
l 2765 2766
v 52.121319 60 -1.8369701e-16
v 52.045174 60 0.99709676
l 2767 2768
v 50 58.72274 -1.1976237
v 50 59.630711 -1.616657
l 2769 2770
v 50 58.503159 -1.0628899
v 50 59.355498 -1.5858795
l 2771 2772
v 50 58.963764 -1.3088576
v 50 59.911653 -1.6274574
l 2773 2774
v 51.332706 60 -1.1670355
v 52.17656 60 -0.63046228
l 2775 2776
v 51.625969 60 -0.96322507
v 52.358926 60 -0.28295058
l 2777 2778
v 51.5 60 -1.0606601
v 52.290995 60 -0.4488375
l 2779 2780
v 50.783291 60 -1.3939967
v 51.722484 60 -1.0506076
l 2781 2782
v 51.155815 60 -1.2577939
v 52.045541 60 -0.80129829
l 2783 2784
v 50 58.311485 -0.90799814
v 50 59.08927 -1.5365286
l 2785 2786
v 52.0159 60 0.46758348
v 51.537407 60 1.3456752
l 2787 2788
v 51.940319 60 0.60628307
v 51.361189 60 1.4215184
l 2789 2790
v 50 58.152706 0.73739761
v 50 57.591655 -0.09038343
l 2791 2792
v 51.74295 60 0.85465187
v 51.009993 60 1.5349264
l 2793 2794
v 51.848534 60 0.73548853
v 51.185363 60 1.4839566
l 2795 2796
v 50 57.944244 0.37005267
v 50 57.685227 -0.59582005
l 2797 2798
v 50 57.882824 0.094326638
v 50 57.838947 -0.9047103
l 2799 2800
v 50 57.895386 0.18785922
v 50 57.762277 -0.8032422
l 2801 2802
v 50 58.029938 0.5562638
v 50 57.611886 -0.35215952
l 2803 2804
v 51.332706 60 1.1670355
v 50.442981 60 1.6235311
l 2805 2806
v 51.5 60 1.0606601
v 50.656146 60 1.5972333
l 2807 2808
v 51.155815 60 1.2577939
v 50.216622 60 1.601183
l 2809 2810
v 50 58.72274 1.1976237
v 50 57.870401 0.67463419
l 2811 2812
v 50 58.311485 0.90799814
v 50 57.630195 0.1759847
l 2813 2814
v 50 58.503159 1.0628899
v 50 57.725374 0.43435944
l 2815 2816
v 50 59.218891 1.3946096
v 50 58.271002 1.0760097
l 2817 2818
v 50 58.963764 1.3088576
v 50 58.055793 0.8898243
l 2819 2820
v 51.625969 60 0.96322507
v 50.834974 60 1.5750477
l 2821 2822
v 50 57.878681 -1.8369701e-16
v 50 57.922558 -0.99903694
l 2823 2824
v 67.882828 80 -0.094326638
v 68.015897 80 -1.0854334
l 2825 2826
v 67.895386 80 -0.18785922
v 68.154403 80 -1.1537319
l 2827 2828
v 67.944244 80 -0.37005267
v 68.362296 80 -1.278476
l 2829 2830
v 68.029938 80 -0.5562638
v 68.591001 80 -1.3840367
l 2831 2832
v 68.15271 80 -0.73739761
v 68.833991 80 -1.4694192
l 2833 2834
v 67.878677 80 -1.8369701e-16
v 67.922635 80 -0.99903339
l 2835 2836
v 68.503159 80 -1.0628899
v 69.355498 80 -1.5858795
l 2837 2838
v 68.963768 80 -1.3088576
v 69.911657 80 -1.6274574
l 2839 2840
v 68.72274 80 -1.1976237
v 69.630714 80 -1.6166515
l 2841 2842
v 68.311485 80 -0.90799814
v 69.08927 80 -1.5365286
l 2843 2844
v 68.029938 80 0.5562638
v 67.611886 80 -0.35215952
l 2845 2846
v 67.895386 80 0.18785922
v 67.762317 80 -0.80324753
l 2847 2848
v 67.882828 80 0.094326638
v 67.83887 80 -0.90470676
l 2849 2850
v 67.944244 80 0.37005267
v 67.685227 80 -0.59582005
l 2851 2852
v 68.503159 80 1.0628899
v 67.725374 80 0.43435944
l 2853 2854
v 68.15271 80 0.73739761
v 67.591647 80 -0.090375333
l 2855 2856
v 68.311485 80 0.90799814
v 67.630204 80 0.17597653
l 2857 2858
v 68.963768 80 1.3088576
v 68.055795 80 0.88982977
l 2859 2860
v 69.218895 80 1.3946096
v 68.271006 80 1.0760097
l 2861 2862
v 68.72274 80 1.1976237
v 67.870401 80 0.67463419
l 2863 2864
v 90 57.895386 -0.18785922
v 90 58.154403 -1.1537319
l 2865 2866
v 90 57.882824 -0.094326638
v 90 58.015933 -1.0854281
l 2867 2868
v 90 58.029938 -0.5562638
v 90 58.590989 -1.3840448
l 2869 2870
v 90 58.152706 -0.73739761
v 90 58.833996 -1.4694111
l 2871 2872
v 90 57.944244 -0.37005267
v 90 58.362296 -1.278476
l 2873 2874
v 90 58.72274 -1.1976237
v 90 59.630711 -1.616657
l 2875 2876
v 90 58.503159 -1.0628899
v 90 59.355498 -1.5858795
l 2877 2878
v 90 58.963764 -1.3088576
v 90 59.911653 -1.6274574
l 2879 2880
v 90 58.311485 -0.90799814
v 90 59.08927 -1.5365286
l 2881 2882
v 90 58.152706 0.73739761
v 90 57.591655 -0.09038343
l 2883 2884
v 90 57.944244 0.37005267
v 90 57.685227 -0.59582005
l 2885 2886
v 90 57.882824 0.094326638
v 90 57.838947 -0.9047103
l 2887 2888
v 90 57.895386 0.18785922
v 90 57.762277 -0.8032422
l 2889 2890
v 90 58.029938 0.5562638
v 90 57.611886 -0.35215952
l 2891 2892
v 90 58.72274 1.1976237
v 90 57.870401 0.67463419
l 2893 2894
v 90 58.311485 0.90799814
v 90 57.630195 0.1759847
l 2895 2896
v 90 58.503159 1.0628899
v 90 57.725374 0.43435944
l 2897 2898
v 90 59.218891 1.3946096
v 90 58.271002 1.0760097
l 2899 2900
v 90 58.963764 1.3088576
v 90 58.055793 0.8898243
l 2901 2902
v 90 57.878681 -1.8369701e-16
v 90 57.922558 -0.99903694
l 2903 2904
