v 90 101.68851 -0.90799814
v 90 101.49684 -1.0628899
l 1 2
v 90 101.49684 -1.0628899
v 90 101.27726 -1.1976237
l 3 4
v 90 102.05576 -0.37005267
v 90 101.97006 -0.5562638
l 5 6
v 90 101.97006 -0.5562638
v 90 101.84729 -0.73739761
l 7 8
v 90 101.84729 -0.73739761
v 90 101.68851 -0.90799814
l 9 10
v 90 101.27726 -1.1976237
v 90 101.03623 -1.3088576
l 11 12
v 90 101.03623 -1.3088576
v 90 100.78111 -1.3946096
l 13 14
v 90 102.10461 -0.18785922
v 90 102.05576 -0.37005267
l 15 16
v 90 102.11717 0.094326638
v 90 102.12132 -1.8369701e-16
l 17 18
v 90 102.12132 -1.8369701e-16
v 90 102.11717 -0.094326638
l 19 20
v 90 102.05576 0.37005267
v 90 102.10461 0.18785922
l 21 22
v 90 101.97006 0.5562638
v 90 102.05576 0.37005267
l 23 24
v 90 102.10461 0.18785922
v 90 102.11717 0.094326638
l 25 26
v 90 102.11717 -0.094326638
v 90 102.10461 -0.18785922
l 27 28
v 90 101.84729 0.73739761
v 90 101.97006 0.5562638
l 29 30
v 90 101.68851 0.90799814
v 90 101.84729 0.73739761
l 31 32
v 90 101.49684 1.0628899
v 90 101.68851 0.90799814
l 33 34
v 90 101.27726 1.1976237
v 90 101.49684 1.0628899
l 35 36
v 90 101.03623 1.3088576
v 90 101.27726 1.1976237
l 37 38
v 90 100.78111 1.3946096
v 90 101.03623 1.3088576
l 39 40
v 111.68851 80 -0.90799814
v 111.49684 80 -1.0628899
l 41 42
v 111.49684 80 -1.0628899
v 111.27726 80 -1.1976237
l 43 44
v 112.05576 80 -0.37005267
v 111.97006 80 -0.5562638
l 45 46
v 111.97006 80 -0.5562638
v 111.84729 80 -0.73739761
l 47 48
v 111.84729 80 -0.73739761
v 111.68851 80 -0.90799814
l 49 50
v 111.27726 80 -1.1976237
v 111.03623 80 -1.3088576
l 51 52
v 111.03623 80 -1.3088576
v 110.78111 80 -1.3946096
l 53 54
v 112.10461 80 -0.18785922
v 112.05576 80 -0.37005267
l 55 56
v 112.11717 80 0.094326638
v 112.12132 80 -1.8369701e-16
l 57 58
v 112.12132 80 -1.8369701e-16
v 112.11717 80 -0.094326638
l 59 60
v 112.05576 80 0.37005267
v 112.10461 80 0.18785922
l 61 62
v 111.97006 80 0.5562638
v 112.05576 80 0.37005267
l 63 64
v 112.10461 80 0.18785922
v 112.11717 80 0.094326638
l 65 66
v 112.11717 80 -0.094326638
v 112.10461 80 -0.18785922
l 67 68
v 111.84729 80 0.73739761
v 111.97006 80 0.5562638
l 69 70
v 111.68851 80 0.90799814
v 111.84729 80 0.73739761
l 71 72
v 111.49684 80 1.0628899
v 111.68851 80 0.90799814
l 73 74
v 111.27726 80 1.1976237
v 111.49684 80 1.0628899
l 75 76
v 111.03623 80 1.3088576
v 111.27726 80 1.1976237
l 77 78
v 110.78111 80 1.3946096
v 111.03623 80 1.3088576
l 79 80
v 50 101.68851 -0.90799814
v 50 101.49684 -1.0628899
l 81 82
v 50 101.49684 -1.0628899
v 50 101.27726 -1.1976237
l 83 84
v 50 102.05576 -0.37005267
v 50 101.97006 -0.5562638
l 85 86
v 50 101.97006 -0.5562638
v 50 101.84729 -0.73739761
l 87 88
v 50 101.84729 -0.73739761
v 50 101.68851 -0.90799814
l 89 90
v 50 101.27726 -1.1976237
v 50 101.03623 -1.3088576
l 91 92
v 50 101.03623 -1.3088576
v 50 100.78111 -1.3946096
l 93 94
v 50 102.10461 -0.18785922
v 50 102.05576 -0.37005267
l 95 96
v 50 102.11717 0.094326638
v 50 102.12132 -1.8369701e-16
l 97 98
v 50 102.12132 -1.8369701e-16
v 50 102.11717 -0.094326638
l 99 100
v 50 102.05576 0.37005267
v 50 102.10461 0.18785922
l 101 102
v 50 101.97006 0.5562638
v 50 102.05576 0.37005267
l 103 104
v 50 102.10461 0.18785922
v 50 102.11717 0.094326638
l 105 106
v 50 102.11717 -0.094326638
v 50 102.10461 -0.18785922
l 107 108
v 50 101.84729 0.73739761
v 50 101.97006 0.5562638
l 109 110
v 50 101.68851 0.90799814
v 50 101.84729 0.73739761
l 111 112
v 50 101.49684 1.0628899
v 50 101.68851 0.90799814
l 113 114
v 50 101.27726 1.1976237
v 50 101.49684 1.0628899
l 115 116
v 50 101.03623 1.3088576
v 50 101.27726 1.1976237
l 117 118
v 50 100.78111 1.3946096
v 50 101.03623 1.3088576
l 119 120
v 10 102.05576 -0.37005267
v 10 101.97006 -0.5562638
l 121 122
v 10 101.97006 -0.5562638
v 10 101.84729 -0.73739761
l 123 124
v 10 101.84729 -0.73739761
v 10 101.68851 -0.90799814
l 125 126
v 10 102.11717 -0.094326638
v 10 102.10461 -0.18785922
l 127 128
v 10 102.10461 -0.18785922
v 10 102.05576 -0.37005267
l 129 130
v 10 102.12132 -1.8369701e-16
v 10 102.11717 -0.094326638
l 131 132
v 10 101.68851 -0.90799814
v 10 101.49684 -1.0628899
l 133 134
v 10 101.27726 -1.1976237
v 10 101.03623 -1.3088576
l 135 136
v 10 101.03623 -1.3088576
v 10 100.78111 -1.3946096
l 137 138
v 10 101.49684 -1.0628899
v 10 101.27726 -1.1976237
l 139 140
v 10 101.97006 0.5562638
v 10 102.05576 0.37005267
l 141 142
v 10 101.84729 0.73739761
v 10 101.97006 0.5562638
l 143 144
v 10 102.05576 0.37005267
v 10 102.10461 0.18785922
l 145 146
v 10 101.68851 0.90799814
v 10 101.84729 0.73739761
l 147 148
v 10 101.49684 1.0628899
v 10 101.68851 0.90799814
l 149 150
v 10 101.27726 1.1976237
v 10 101.49684 1.0628899
l 151 152
v 10 102.10461 0.18785922
v 10 102.11717 0.094326638
l 153 154
v 10 101.03623 1.3088576
v 10 101.27726 1.1976237
l 155 156
v 10 100.78111 1.3946096
v 10 101.03623 1.3088576
l 157 158
v 10 102.11717 0.094326638
v 10 102.12132 -1.8369701e-16
l 159 160
v -11.688514 80 -0.90799814
v -11.49684 80 -1.0628899
l 161 162
v -11.49684 80 -1.0628899
v -11.277261 80 -1.1976237
l 163 164
v -12.055755 80 -0.37005267
v -11.970061 80 -0.5562638
l 165 166
v -11.970061 80 -0.5562638
v -11.847293 80 -0.73739761
l 167 168
v -11.847293 80 -0.73739761
v -11.688514 80 -0.90799814
l 169 170
v -11.277261 80 -1.1976237
v -11.036235 80 -1.3088576
l 171 172
v -11.036235 80 -1.3088576
v -10.781107 80 -1.3946096
l 173 174
v -12.104614 80 -0.18785922
v -12.055755 80 -0.37005267
l 175 176
v -12.117174 80 0.094326638
v -12.121321 80 -1.8369701e-16
l 177 178
v -12.121321 80 -1.8369701e-16
v -12.117174 80 -0.094326638
l 179 180
v -12.055755 80 0.37005267
v -12.104614 80 0.18785922
l 181 182
v -11.970061 80 0.5562638
v -12.055755 80 0.37005267
l 183 184
v -12.104614 80 0.18785922
v -12.117174 80 0.094326638
l 185 186
v -12.117174 80 -0.094326638
v -12.104614 80 -0.18785922
l 187 188
v -11.847293 80 0.73739761
v -11.970061 80 0.5562638
l 189 190
v -11.688514 80 0.90799814
v -11.847293 80 0.73739761
l 191 192
v -11.49684 80 1.0628899
v -11.688514 80 0.90799814
l 193 194
v -11.277261 80 1.1976237
v -11.49684 80 1.0628899
l 195 196
v -11.036235 80 1.3088576
v -11.277261 80 1.1976237
l 197 198
v -10.781107 80 1.3946096
v -11.036235 80 1.3088576
l 199 200
v 111.68851 40 -0.90799814
v 111.49684 40 -1.0628899
l 201 202
v 111.49684 40 -1.0628899
v 111.27726 40 -1.1976237
l 203 204
v 112.05576 40 -0.37005267
v 111.97006 40 -0.5562638
l 205 206
v 111.97006 40 -0.5562638
v 111.84729 40 -0.73739761
l 207 208
v 111.84729 40 -0.73739761
v 111.68851 40 -0.90799814
l 209 210
v 111.27726 40 -1.1976237
v 111.03623 40 -1.3088576
l 211 212
v 111.03623 40 -1.3088576
v 110.78111 40 -1.3946096
l 213 214
v 112.10461 40 -0.18785922
v 112.05576 40 -0.37005267
l 215 216
v 112.11717 40 0.094326638
v 112.12132 40 -1.8369701e-16
l 217 218
v 112.12132 40 -1.8369701e-16
v 112.11717 40 -0.094326638
l 219 220
v 112.05576 40 0.37005267
v 112.10461 40 0.18785922
l 221 222
v 111.97006 40 0.5562638
v 112.05576 40 0.37005267
l 223 224
v 112.10461 40 0.18785922
v 112.11717 40 0.094326638
l 225 226
v 112.11717 40 -0.094326638
v 112.10461 40 -0.18785922
l 227 228
v 111.84729 40 0.73739761
v 111.97006 40 0.5562638
l 229 230
v 111.68851 40 0.90799814
v 111.84729 40 0.73739761
l 231 232
v 111.49684 40 1.0628899
v 111.68851 40 0.90799814
l 233 234
v 111.27726 40 1.1976237
v 111.49684 40 1.0628899
l 235 236
v 111.03623 40 1.3088576
v 111.27726 40 1.1976237
l 237 238
v 110.78111 40 1.3946096
v 111.03623 40 1.3088576
l 239 240
v -11.688514 40 -0.90799814
v -11.49684 40 -1.0628899
l 241 242
v -11.49684 40 -1.0628899
v -11.277261 40 -1.1976237
l 243 244
v -12.055755 40 -0.37005267
v -11.970061 40 -0.5562638
l 245 246
v -11.970061 40 -0.5562638
v -11.847293 40 -0.73739761
l 247 248
v -11.847293 40 -0.73739761
v -11.688514 40 -0.90799814
l 249 250
v -11.277261 40 -1.1976237
v -11.036235 40 -1.3088576
l 251 252
v -11.036235 40 -1.3088576
v -10.781107 40 -1.3946096
l 253 254
v -12.104614 40 -0.18785922
v -12.055755 40 -0.37005267
l 255 256
v -12.117174 40 0.094326638
v -12.121321 40 -1.8369701e-16
l 257 258
v -12.121321 40 -1.8369701e-16
v -12.117174 40 -0.094326638
l 259 260
v -12.055755 40 0.37005267
v -12.104614 40 0.18785922
l 261 262
v -11.970061 40 0.5562638
v -12.055755 40 0.37005267
l 263 264
v -12.104614 40 0.18785922
v -12.117174 40 0.094326638
l 265 266
v -12.117174 40 -0.094326638
v -12.104614 40 -0.18785922
l 267 268
v -11.847293 40 0.73739761
v -11.970061 40 0.5562638
l 269 270
v -11.688514 40 0.90799814
v -11.847293 40 0.73739761
l 271 272
v -11.49684 40 1.0628899
v -11.688514 40 0.90799814
l 273 274
v -11.277261 40 1.1976237
v -11.49684 40 1.0628899
l 275 276
v -11.036235 40 1.3088576
v -11.277261 40 1.1976237
l 277 278
v -10.781107 40 1.3946096
v -11.036235 40 1.3088576
l 279 280
v 90 -22.055754 -0.37005267
v 90 -21.97006 -0.5562638
l 281 282
v 90 -21.97006 -0.5562638
v 90 -21.847292 -0.73739761
l 283 284
v 90 -21.847292 -0.73739761
v 90 -21.688515 -0.90799814
l 285 286
v 90 -22.117174 -0.094326638
v 90 -22.104614 -0.18785922
l 287 288
v 90 -22.104614 -0.18785922
v 90 -22.055754 -0.37005267
l 289 290
v 90 -22.121321 -1.8369701e-16
v 90 -22.117174 -0.094326638
l 291 292
v 90 -21.688515 -0.90799814
v 90 -21.49684 -1.0628899
l 293 294
v 90 -21.27726 -1.1976237
v 90 -21.036236 -1.3088576
l 295 296
v 90 -21.036236 -1.3088576
v 90 -20.781107 -1.3946096
l 297 298
v 90 -21.49684 -1.0628899
v 90 -21.27726 -1.1976237
l 299 300
v 90 -21.97006 0.5562638
v 90 -22.055754 0.37005267
l 301 302
v 90 -21.847292 0.73739761
v 90 -21.97006 0.5562638
l 303 304
v 90 -22.055754 0.37005267
v 90 -22.104614 0.18785922
l 305 306
v 90 -21.688515 0.90799814
v 90 -21.847292 0.73739761
l 307 308
v 90 -21.49684 1.0628899
v 90 -21.688515 0.90799814
l 309 310
v 90 -21.27726 1.1976237
v 90 -21.49684 1.0628899
l 311 312
v 90 -22.104614 0.18785922
v 90 -22.117174 0.094326638
l 313 314
v 90 -21.036236 1.3088576
v 90 -21.27726 1.1976237
l 315 316
v 90 -20.781107 1.3946096
v 90 -21.036236 1.3088576
l 317 318
v 90 -22.117174 0.094326638
v 90 -22.121321 -1.8369701e-16
l 319 320
v 112.05576 1.8906423e-15 -0.37005267
v 111.97006 4.9041819e-15 -0.5562638
l 321 322
v 111.97006 4.9041819e-15 -0.5562638
v 111.84729 -3.9116659e-16 -0.73739761
l 323 324
v 111.84729 -3.9116659e-16 -0.73739761
v 111.68851 -3.1221092e-15 -0.90799814
l 325 326
v 112.11717 -1.8991914e-15 -0.094326638
v 112.10461 -1.5584297e-15 -0.18785922
l 327 328
v 112.10461 -1.5584297e-15 -0.18785922
v 112.05576 1.8906423e-15 -0.37005267
l 329 330
v 112.12132 -7.4940054e-16 -1.8369701e-16
v 112.11717 -1.8991914e-15 -0.094326638
l 331 332
v 111.68851 -3.1221092e-15 -0.90799814
v 111.49684 8.2265502e-16 -1.0628899
l 333 334
v 111.27726 -1.03053e-15 -1.1976237
v 111.03623 5.9664497e-15 -1.3088576
l 335 336
v 111.03623 5.9664497e-15 -1.3088576
v 110.78111 -9.3919977e-16 -1.3946096
l 337 338
v 111.49684 8.2265502e-16 -1.0628899
v 111.27726 -1.03053e-15 -1.1976237
l 339 340
v 111.97006 -6.0209339e-17 0.5562638
v 112.05576 1.7779946e-15 0.37005267
l 341 342
v 111.84729 4.8186934e-15 0.73739761
v 111.97006 -6.0209339e-17 0.5562638
l 343 344
v 112.05576 1.7779946e-15 0.37005267
v 112.10461 3.4648061e-15 0.18785922
l 345 346
v 111.68851 1.8423589e-15 0.90799814
v 111.84729 4.8186934e-15 0.73739761
l 347 348
v 111.49684 5.848245e-15 1.0628899
v 111.68851 1.8423589e-15 0.90799814
l 349 350
v 111.27726 3.9551119e-15 1.1976237
v 111.49684 5.848245e-15 1.0628899
l 351 352
v 112.10461 3.4648061e-15 0.18785922
v 112.11717 2.3566132e-15 0.094326638
l 353 354
v 111.03623 5.9276789e-15 1.3088576
v 111.27726 3.9551119e-15 1.1976237
l 355 356
v 110.78111 4.0373703e-15 1.3946096
v 111.03623 5.9276789e-15 1.3088576
l 357 358
v 112.11717 2.3566132e-15 0.094326638
v 112.12132 -7.4940054e-16 -1.8369701e-16
l 359 360
v 50 -22.055754 -0.37005267
v 50 -21.97006 -0.5562638
l 361 362
v 50 -21.97006 -0.5562638
v 50 -21.847292 -0.73739761
l 363 364
v 50 -21.847292 -0.73739761
v 50 -21.688515 -0.90799814
l 365 366
v 50 -22.117174 -0.094326638
v 50 -22.104614 -0.18785922
l 367 368
v 50 -22.104614 -0.18785922
v 50 -22.055754 -0.37005267
l 369 370
v 50 -22.121321 -1.8369701e-16
v 50 -22.117174 -0.094326638
l 371 372
v 50 -21.688515 -0.90799814
v 50 -21.49684 -1.0628899
l 373 374
v 50 -21.27726 -1.1976237
v 50 -21.036236 -1.3088576
l 375 376
v 50 -21.036236 -1.3088576
v 50 -20.781107 -1.3946096
l 377 378
v 50 -21.49684 -1.0628899
v 50 -21.27726 -1.1976237
l 379 380
v 50 -21.97006 0.5562638
v 50 -22.055754 0.37005267
l 381 382
v 50 -21.847292 0.73739761
v 50 -21.97006 0.5562638
l 383 384
v 50 -22.055754 0.37005267
v 50 -22.104614 0.18785922
l 385 386
v 50 -21.688515 0.90799814
v 50 -21.847292 0.73739761
l 387 388
v 50 -21.49684 1.0628899
v 50 -21.688515 0.90799814
l 389 390
v 50 -21.27726 1.1976237
v 50 -21.49684 1.0628899
l 391 392
v 50 -22.104614 0.18785922
v 50 -22.117174 0.094326638
l 393 394
v 50 -21.036236 1.3088576
v 50 -21.27726 1.1976237
l 395 396
v 50 -20.781107 1.3946096
v 50 -21.036236 1.3088576
l 397 398
v 50 -22.117174 0.094326638
v 50 -22.121321 -1.8369701e-16
l 399 400
v -11.688514 -3.7308705e-15 -0.90799814
v -11.49684 1.1333145e-16 -1.0628899
l 401 402
v -11.49684 1.1333145e-16 -1.0628899
v -11.277261 -2.7044458e-15 -1.1976237
l 403 404
v -12.055755 -3.6430972e-15 -0.37005267
v -11.970061 -2.4495433e-15 -0.5562638
l 405 406
v -11.970061 -2.4495433e-15 -0.5562638
v -11.847293 -8.5771689e-16 -0.73739761
l 407 408
v -11.847293 -8.5771689e-16 -0.73739761
v -11.688514 -3.7308705e-15 -0.90799814
l 409 410
v -11.277261 -2.7044458e-15 -1.1976237
v -11.036235 -1.9007413e-15 -1.3088576
l 411 412
v -11.036235 -1.9007413e-15 -1.3088576
v -10.781107 -2.21523e-15 -1.3946096
l 413 414
v -12.104614 -5.9309596e-16 -0.18785922
v -12.055755 -3.6430972e-15 -0.37005267
l 415 416
v -12.117174 -3.6152933e-16 0.094326638
v -12.121321 -3.0253577e-15 -1.8369701e-16
l 417 418
v -12.121321 -3.0253577e-15 -1.8369701e-16
v -12.117174 -3.3581767e-16 -0.094326638
l 419 420
v -12.055755 -3.6783583e-15 0.37005267
v -12.104614 -6.2367025e-16 0.18785922
l 421 422
v -11.970061 -2.5114984e-15 0.5562638
v -12.055755 -3.6783583e-15 0.37005267
l 423 424
v -12.104614 -6.2367025e-16 0.18785922
v -12.117174 -3.6152933e-16 0.094326638
l 425 426
v -12.117174 -3.3581767e-16 -0.094326638
v -12.104614 -5.9309596e-16 -0.18785922
l 427 428
v -11.847293 -8.3167095e-16 0.73739761
v -11.970061 -2.5114984e-15 0.5562638
l 429 430
v -11.688514 -3.7240659e-15 0.90799814
v -11.847293 -8.3167095e-16 0.73739761
l 431 432
v -11.49684 1.5929938e-16 1.0628899
v -11.688514 -3.7240659e-15 0.90799814
l 433 434
v -11.277261 -2.6733021e-15 1.1976237
v -11.49684 1.5929938e-16 1.0628899
l 435 436
v -11.036235 -1.8819677e-15 1.3088576
v -11.277261 -2.6733021e-15 1.1976237
l 437 438
v -10.781107 -3.4574201e-15 1.3946096
v -11.036235 -1.8819677e-15 1.3088576
l 439 440
v 10 -21.688515 -0.90799814
v 10 -21.49684 -1.0628899
l 441 442
v 10 -21.49684 -1.0628899
v 10 -21.27726 -1.1976237
l 443 444
v 10 -22.055754 -0.37005267
v 10 -21.97006 -0.5562638
l 445 446
v 10 -21.97006 -0.5562638
v 10 -21.847292 -0.73739761
l 447 448
v 10 -21.847292 -0.73739761
v 10 -21.688515 -0.90799814
l 449 450
v 10 -21.27726 -1.1976237
v 10 -21.036236 -1.3088576
l 451 452
v 10 -21.036236 -1.3088576
v 10 -20.781107 -1.3946096
l 453 454
v 10 -22.104614 -0.18785922
v 10 -22.055754 -0.37005267
l 455 456
v 10 -22.117174 0.094326638
v 10 -22.121321 -1.8369701e-16
l 457 458
v 10 -22.121321 -1.8369701e-16
v 10 -22.117174 -0.094326638
l 459 460
v 10 -22.055754 0.37005267
v 10 -22.104614 0.18785922
l 461 462
v 10 -21.97006 0.5562638
v 10 -22.055754 0.37005267
l 463 464
v 10 -22.104614 0.18785922
v 10 -22.117174 0.094326638
l 465 466
v 10 -22.117174 -0.094326638
v 10 -22.104614 -0.18785922
l 467 468
v 10 -21.847292 0.73739761
v 10 -21.97006 0.5562638
l 469 470
v 10 -21.688515 0.90799814
v 10 -21.847292 0.73739761
l 471 472
v 10 -21.49684 1.0628899
v 10 -21.688515 0.90799814
l 473 474
v 10 -21.27726 1.1976237
v 10 -21.49684 1.0628899
l 475 476
v 10 -21.036236 1.3088576
v 10 -21.27726 1.1976237
l 477 478
v 10 -20.781107 1.3946096
v 10 -21.036236 1.3088576
l 479 480
