# Wavefront OBJ file written 2026-06-17T22:30:43
o netSurface_edgeMesh

# points : 1524
# lines  : 1452

# <points count="1524">
v 90 101.68851 -0.90799814
v 90 101.49684 -1.0628899
v 90 101.27726 -1.1976237
v 90 102.05576 -0.37005267
v 90 101.97006 -0.5562638
v 90 101.84729 -0.73739761
v 90 101.03623 -1.3088576
v 90 100.78111 -1.3946096
v 90 102.10461 -0.18785922
v 90 102.11717 0.094326638
v 90 102.12132 -1.8369701e-16
v 90 102.11717 -0.094326638
v 90 102.05576 0.37005267
v 90 102.10461 0.18785922
v 90 101.97006 0.5562638
v 90 101.84729 0.73739761
v 90 101.68851 0.90799814
v 90 101.49684 1.0628899
v 90 101.27726 1.1976237
v 90 101.03623 1.3088576
v 90 100.78111 1.3946096
v 111.68851 80 -0.90799814
v 111.49684 80 -1.0628899
v 111.27726 80 -1.1976237
v 112.05576 80 -0.37005267
v 111.97006 80 -0.5562638
v 111.84729 80 -0.73739761
v 111.03623 80 -1.3088576
v 110.78111 80 -1.3946096
v 112.10461 80 -0.18785922
v 112.11717 80 0.094326638
v 112.12132 80 -1.8369701e-16
v 112.11717 80 -0.094326638
v 112.05576 80 0.37005267
v 112.10461 80 0.18785922
v 111.97006 80 0.5562638
v 111.84729 80 0.73739761
v 111.68851 80 0.90799814
v 111.49684 80 1.0628899
v 111.27726 80 1.1976237
v 111.03623 80 1.3088576
v 110.78111 80 1.3946096
v 50 101.68851 -0.90799814
v 50 101.49684 -1.0628899
v 50 101.27726 -1.1976237
v 50 102.05576 -0.37005267
v 50 101.97006 -0.5562638
v 50 101.84729 -0.73739761
v 50 101.03623 -1.3088576
v 50 100.78111 -1.3946096
v 50 102.10461 -0.18785922
v 50 102.11717 0.094326638
v 50 102.12132 -1.8369701e-16
v 50 102.11717 -0.094326638
v 50 102.05576 0.37005267
v 50 102.10461 0.18785922
v 50 101.97006 0.5562638
v 50 101.84729 0.73739761
v 50 101.68851 0.90799814
v 50 101.49684 1.0628899
v 50 101.27726 1.1976237
v 50 101.03623 1.3088576
v 50 100.78111 1.3946096
v 10 102.05576 -0.37005267
v 10 101.97006 -0.5562638
v 10 101.84729 -0.73739761
v 10 101.68851 -0.90799814
v 10 102.11717 -0.094326638
v 10 102.10461 -0.18785922
v 10 102.12132 -1.8369701e-16
v 10 101.49684 -1.0628899
v 10 101.27726 -1.1976237
v 10 101.03623 -1.3088576
v 10 100.78111 -1.3946096
v 10 101.97006 0.5562638
v 10 102.05576 0.37005267
v 10 101.84729 0.73739761
v 10 102.10461 0.18785922
v 10 101.68851 0.90799814
v 10 101.49684 1.0628899
v 10 101.27726 1.1976237
v 10 102.11717 0.094326638
v 10 101.03623 1.3088576
v 10 100.78111 1.3946096
v -11.688514 80 -0.90799814
v -11.49684 80 -1.0628899
v -11.277261 80 -1.1976237
v -12.055755 80 -0.37005267
v -11.970061 80 -0.5562638
v -11.847293 80 -0.73739761
v -11.036235 80 -1.3088576
v -10.781107 80 -1.3946096
v -12.104614 80 -0.18785922
v -12.117174 80 0.094326638
v -12.121321 80 -1.8369701e-16
v -12.117174 80 -0.094326638
v -12.055755 80 0.37005267
v -12.104614 80 0.18785922
v -11.970061 80 0.5562638
v -11.847293 80 0.73739761
v -11.688514 80 0.90799814
v -11.49684 80 1.0628899
v -11.277261 80 1.1976237
v -11.036235 80 1.3088576
v -10.781107 80 1.3946096
v 111.68851 40 -0.90799814
v 111.49684 40 -1.0628899
v 111.27726 40 -1.1976237
v 112.05576 40 -0.37005267
v 111.97006 40 -0.5562638
v 111.84729 40 -0.73739761
v 111.03623 40 -1.3088576
v 110.78111 40 -1.3946096
v 112.10461 40 -0.18785922
v 112.11717 40 0.094326638
v 112.12132 40 -1.8369701e-16
v 112.11717 40 -0.094326638
v 112.05576 40 0.37005267
v 112.10461 40 0.18785922
v 111.97006 40 0.5562638
v 111.84729 40 0.73739761
v 111.68851 40 0.90799814
v 111.49684 40 1.0628899
v 111.27726 40 1.1976237
v 111.03623 40 1.3088576
v 110.78111 40 1.3946096
v -11.688514 40 -0.90799814
v -11.49684 40 -1.0628899
v -11.277261 40 -1.1976237
v -12.055755 40 -0.37005267
v -11.970061 40 -0.5562638
v -11.847293 40 -0.73739761
v -11.036235 40 -1.3088576
v -10.781107 40 -1.3946096
v -12.104614 40 -0.18785922
v -12.117174 40 0.094326638
v -12.121321 40 -1.8369701e-16
v -12.117174 40 -0.094326638
v -12.055755 40 0.37005267
v -12.104614 40 0.18785922
v -11.970061 40 0.5562638
v -11.847293 40 0.73739761
v -11.688514 40 0.90799814
v -11.49684 40 1.0628899
v -11.277261 40 1.1976237
v -11.036235 40 1.3088576
v -10.781107 40 1.3946096
v 90 -22.055754 -0.37005267
v 90 -21.97006 -0.5562638
v 90 -21.847292 -0.73739761
v 90 -21.688515 -0.90799814
v 90 -22.117174 -0.094326638
v 90 -22.104614 -0.18785922
v 90 -22.121321 -1.8369701e-16
v 90 -21.49684 -1.0628899
v 90 -21.27726 -1.1976237
v 90 -21.036236 -1.3088576
v 90 -20.781107 -1.3946096
v 90 -21.97006 0.5562638
v 90 -22.055754 0.37005267
v 90 -21.847292 0.73739761
v 90 -22.104614 0.18785922
v 90 -21.688515 0.90799814
v 90 -21.49684 1.0628899
v 90 -21.27726 1.1976237
v 90 -22.117174 0.094326638
v 90 -21.036236 1.3088576
v 90 -20.781107 1.3946096
v 112.05576 1.8906423e-15 -0.37005267
v 111.97006 4.9041819e-15 -0.5562638
v 111.84729 -3.9116659e-16 -0.73739761
v 111.68851 -3.1221092e-15 -0.90799814
v 112.11717 -1.8991914e-15 -0.094326638
v 112.10461 -1.5584297e-15 -0.18785922
v 112.12132 -7.4940054e-16 -1.8369701e-16
v 111.49684 8.2265502e-16 -1.0628899
v 111.27726 -1.03053e-15 -1.1976237
v 111.03623 5.9664497e-15 -1.3088576
v 110.78111 -9.3919977e-16 -1.3946096
v 111.97006 -6.0209339e-17 0.5562638
v 112.05576 1.7779946e-15 0.37005267
v 111.84729 4.8186934e-15 0.73739761
v 112.10461 3.4648061e-15 0.18785922
v 111.68851 1.8423589e-15 0.90799814
v 111.49684 5.848245e-15 1.0628899
v 111.27726 3.9551119e-15 1.1976237
v 112.11717 2.3566132e-15 0.094326638
v 111.03623 5.9276789e-15 1.3088576
v 110.78111 4.0373703e-15 1.3946096
v 50 -22.055754 -0.37005267
v 50 -21.97006 -0.5562638
v 50 -21.847292 -0.73739761
v 50 -21.688515 -0.90799814
v 50 -22.117174 -0.094326638
v 50 -22.104614 -0.18785922
v 50 -22.121321 -1.8369701e-16
v 50 -21.49684 -1.0628899
v 50 -21.27726 -1.1976237
v 50 -21.036236 -1.3088576
v 50 -20.781107 -1.3946096
v 50 -21.97006 0.5562638
v 50 -22.055754 0.37005267
v 50 -21.847292 0.73739761
v 50 -22.104614 0.18785922
v 50 -21.688515 0.90799814
v 50 -21.49684 1.0628899
v 50 -21.27726 1.1976237
v 50 -22.117174 0.094326638
v 50 -21.036236 1.3088576
v 50 -20.781107 1.3946096
v -11.688514 -3.7308705e-15 -0.90799814
v -11.49684 1.1333145e-16 -1.0628899
v -11.277261 -2.7044458e-15 -1.1976237
v -12.055755 -3.6430972e-15 -0.37005267
v -11.970061 -2.4495433e-15 -0.5562638
v -11.847293 -8.5771689e-16 -0.73739761
v -11.036235 -1.9007413e-15 -1.3088576
v -10.781107 -2.21523e-15 -1.3946096
v -12.104614 -5.9309596e-16 -0.18785922
v -12.117174 -3.6152933e-16 0.094326638
v -12.121321 -3.0253577e-15 -1.8369701e-16
v -12.117174 -3.3581767e-16 -0.094326638
v -12.055755 -3.6783583e-15 0.37005267
v -12.104614 -6.2367025e-16 0.18785922
v -11.970061 -2.5114984e-15 0.5562638
v -11.847293 -8.3167095e-16 0.73739761
v -11.688514 -3.7240659e-15 0.90799814
v -11.49684 1.5929938e-16 1.0628899
v -11.277261 -2.6733021e-15 1.1976237
v -11.036235 -1.8819677e-15 1.3088576
v -10.781107 -3.4574201e-15 1.3946096
v 10 -21.688515 -0.90799814
v 10 -21.49684 -1.0628899
v 10 -21.27726 -1.1976237
v 10 -22.055754 -0.37005267
v 10 -21.97006 -0.5562638
v 10 -21.847292 -0.73739761
v 10 -21.036236 -1.3088576
v 10 -20.781107 -1.3946096
v 10 -22.104614 -0.18785922
v 10 -22.117174 0.094326638
v 10 -22.121321 -1.8369701e-16
v 10 -22.117174 -0.094326638
v 10 -22.055754 0.37005267
v 10 -22.104614 0.18785922
v 10 -21.97006 0.5562638
v 10 -21.847292 0.73739761
v 10 -21.688515 0.90799814
v 10 -21.49684 1.0628899
v 10 -21.27726 1.1976237
v 10 -21.036236 1.3088576
v 10 -20.781107 1.3946096
v 90 97.895386 -0.18785922
v 90 97.944244 -0.37005267
v 90 97.882828 -0.094326638
v 90 98.029938 -0.5562638
v 90 98.15271 -0.73739761
v 90 98.311485 -0.90799814
v 90 98.503159 -1.0628899
v 90 98.72274 -1.1976237
v 90 98.963768 -1.3088576
v 90 99.218895 -1.3946096
v 90 98.15271 0.73739761
v 90 98.029938 0.5562638
v 90 98.311485 0.90799814
v 90 98.72274 1.1976237
v 90 98.503159 1.0628899
v 90 98.963768 1.3088576
v 90 97.882828 0.094326638
v 90 97.878677 0
v 90 97.895386 0.18785922
v 90 97.944244 0.37005267
v 90 99.218895 1.3946096
v 72.117172 80 -0.094326638
v 72.104614 80 -0.18785922
v 70 81.889496 -0.68183374
v 70 81.986633 -0.52593219
v 72.055756 80 -0.37005267
v 72.121323 80 0
v 70 82.059555 -0.35932636
v 71.970062 80 -0.5562638
v 71.84729 80 -0.73739761
v 70 82.1054 -0.18351579
v 70 82.121323 -1.8369701e-16
v 70 82.059555 0.35932636
v 70 81.986633 0.52593219
v 70 82.1054 0.18351579
v 70 81.889496 0.68183374
v 71.688515 80 -0.90799814
v 71.496841 80 -1.0628899
v 71.27726 80 -1.1976237
v 71.036232 80 -1.3088576
v 70.781105 80 -1.3946096
v 70 81.774506 -0.82194227
v 70 81.644028 -0.94794017
v 70 80.696777 -1.416774
v 70 81.032097 -1.310491
v 70 81.348923 -1.1576697
v 70 81.501137 -1.0598439
v 71.970062 80 0.5562638
v 72.055756 80 0.37005267
v 72.104614 80 0.18785922
v 72.117172 80 0.094326638
v 70 81.774506 0.82194227
v 70 81.644028 0.94794017
v 70 81.501137 1.0598439
v 70 81.348923 1.1576697
v 70 81.032097 1.310491
v 70 80.696777 1.416774
v 71.496841 80 1.0628899
v 71.688515 80 0.90799814
v 71.84729 80 0.73739761
v 71.036232 80 1.3088576
v 71.27726 80 1.1976237
v 70.781105 80 1.3946096
v 70 78.967903 -1.310491
v 70 79.303223 -1.416774
v 70 78.498863 -1.0598439
v 70 78.651077 -1.1576697
v 70 78.225494 -0.82194227
v 70 78.355972 -0.94794017
v 70 79.303223 1.416774
v 70 78.967903 1.310491
v 70 78.355972 0.94794017
v 70 78.225494 0.82194227
v 70 78.651077 1.1576697
v 70 78.498863 1.0598439
v 70 77.940445 -0.35932636
v 70 78.013367 -0.52593219
v 70 77.878677 -1.8369701e-16
v 70 77.8946 -0.18351579
v 70 78.110504 -0.68183374
v 70 77.8946 0.18351579
v 70 78.110504 0.68183374
v 70 78.013367 0.52593219
v 70 77.940445 0.35932636
v 90 62.117176 -0.094326638
v 90 62.104614 -0.18785922
v 90 62.055756 -0.37005267
v 90 61.970062 -0.5562638
v 87.940445 60 -0.35932636
v 87.8946 60 -0.18351579
v 90 61.847294 -0.73739761
v 88.110504 60 -0.68183374
v 88.013367 60 -0.52593219
v 90 61.688515 -0.90799814
v 87.878677 60 -1.8369701e-16
v 87.8946 60 0.18351579
v 87.940445 60 0.35932636
v 88.013367 60 0.52593219
v 88.110504 60 0.68183374
v 90 62.121319 0
v 90 61.496841 -1.0628899
v 90 61.27726 -1.1976237
v 90 61.036236 -1.3088576
v 90 60.781109 -1.3946096
v 88.355972 60 -0.94794017
v 88.225494 60 -0.82194227
v 89.303223 60 -1.416774
v 88.967903 60 -1.310491
v 88.651077 60 -1.1576697
v 88.498863 60 -1.0598439
v 88.225494 60 0.82194227
v 90 61.970062 0.5562638
v 90 62.055756 0.37005267
v 90 62.104614 0.18785922
v 90 62.117176 0.094326638
v 88.355972 60 0.94794017
v 88.498863 60 1.0598439
v 88.651077 60 1.1576697
v 88.967903 60 1.310491
v 89.303223 60 1.416774
v 90 61.496841 1.0628899
v 90 61.688515 0.90799814
v 90 61.847294 0.73739761
v 90 61.036236 1.3088576
v 90 61.27726 1.1976237
v 90 60.781109 1.3946096
v 91.332703 60 -1.1670355
v 91.155815 60 -1.2577939
v 91.625969 60 -0.96322507
v 91.5 60 -1.0606601
v 90.783295 60 -1.3939967
v 91.74295 60 -0.85465187
v 91.848534 60 -0.73548853
v 91.940323 60 -0.60628307
v 92.072861 60 -0.31993777
v 92.0159 60 -0.46758348
v 92.121323 60 -1.8369701e-16
v 92.108803 60 -0.16389392
v 92.108803 60 0.16389392
v 91.155815 60 1.2577939
v 91.332703 60 1.1670355
v 90.783295 60 1.3939967
v 91.5 60 1.0606601
v 91.625969 60 0.96322507
v 91.74295 60 0.85465187
v 91.940323 60 0.60628307
v 92.0159 60 0.46758348
v 91.848534 60 0.73548853
v 92.072861 60 0.31993777
v 107.89539 80 0.18785922
v 107.88283 80 0.094326638
v 107.87868 80 0
v 107.88283 80 -0.094326638
v 107.94424 80 -0.37005267
v 108.02994 80 -0.5562638
v 107.89539 80 -0.18785922
v 108.15271 80 -0.73739761
v 108.31149 80 -0.90799814
v 108.50316 80 -1.0628899
v 108.72274 80 -1.1976237
v 108.96377 80 -1.3088576
v 109.21889 80 -1.3946096
v 109.21889 80 1.3946096
v 108.96377 80 1.3088576
v 108.72274 80 1.1976237
v 107.94424 80 0.37005267
v 108.02994 80 0.5562638
v 108.50316 80 1.0628899
v 108.31149 80 0.90799814
v 108.15271 80 0.73739761
v 50 97.895386 -0.18785922
v 50 97.944244 -0.37005267
v 50 97.882828 -0.094326638
v 50 98.029938 -0.5562638
v 50 98.15271 -0.73739761
v 50 98.311485 -0.90799814
v 50 98.503159 -1.0628899
v 50 98.72274 -1.1976237
v 50 98.963768 -1.3088576
v 50 99.218895 -1.3946096
v 50 98.15271 0.73739761
v 50 98.029938 0.5562638
v 50 98.311485 0.90799814
v 50 98.72274 1.1976237
v 50 98.503159 1.0628899
v 50 98.963768 1.3088576
v 50 97.882828 0.094326638
v 50 97.878677 0
v 50 97.895386 0.18785922
v 50 97.944244 0.37005267
v 50 99.218895 1.3946096
v 32.121319 80 0
v 32.117176 80 -0.094326638
v 32.104614 80 -0.18785922
v 32.055756 80 -0.37005267
v 31.97006 80 -0.5562638
v 30 82.059555 -0.35932636
v 30 82.1054 -0.18351579
v 30 81.986633 -0.52593219
v 30 81.644028 -0.94794017
v 30 81.774506 -0.82194227
v 30 81.889496 -0.68183374
v 31.847292 80 -0.73739761
v 31.688515 80 -0.90799814
v 30 82.121323 -1.8369701e-16
v 31.27726 80 -1.1976237
v 31.036236 80 -1.3088576
v 31.49684 80 -1.0628899
v 30.781107 80 -1.3946096
v 30 81.501137 -1.0598439
v 30 81.348923 -1.1576697
v 30 80.696777 -1.416774
v 30 81.032097 -1.310491
v 30 82.059555 0.35932636
v 30 81.986633 0.52593219
v 30 82.1054 0.18351579
v 30 81.889496 0.68183374
v 30 81.774506 0.82194227
v 30 81.644028 0.94794017
v 30 81.501137 1.0598439
v 31.847292 80 0.73739761
v 31.97006 80 0.5562638
v 32.117176 80 0.094326638
v 32.055756 80 0.37005267
v 32.104614 80 0.18785922
v 30 81.032097 1.310491
v 30 80.696777 1.416774
v 30 81.348923 1.1576697
v 31.688515 80 0.90799814
v 31.49684 80 1.0628899
v 30.781107 80 1.3946096
v 31.036236 80 1.3088576
v 31.27726 80 1.1976237
v 30 78.651077 -1.1576697
v 30 78.967903 -1.310491
v 30 78.498863 -1.0598439
v 30 79.303223 -1.416774
v 30 78.355972 -0.94794017
v 30 77.878677 -1.8369701e-16
v 30 77.8946 -0.18351579
v 30 78.225494 -0.82194227
v 30 78.110504 -0.68183374
v 30 77.940445 -0.35932636
v 30 78.013367 -0.52593219
v 30 78.651077 1.1576697
v 30 78.498863 1.0598439
v 30 78.967903 1.310491
v 30 79.303223 1.416774
v 30 78.225494 0.82194227
v 30 78.110504 0.68183374
v 30 78.355972 0.94794017
v 30 77.940445 0.35932636
v 30 77.8946 0.18351579
v 30 78.013367 0.52593219
v 50 62.104614 -0.18785922
v 50 62.055756 -0.37005267
v 50 62.117176 -0.094326638
v 50 61.847294 -0.73739761
v 50 61.688515 -0.90799814
v 50 61.970062 -0.5562638
v 47.940445 60 -0.35932636
v 47.894596 60 -0.18351579
v 48.013367 60 -0.52593219
v 48.225491 60 -0.82194227
v 48.1105 60 -0.68183374
v 48.355976 60 -0.94794017
v 50 61.496841 -1.0628899
v 47.878681 60 -1.8369701e-16
v 50 61.036236 -1.3088576
v 50 60.781109 -1.3946096
v 50 61.27726 -1.1976237
v 48.498863 60 -1.0598439
v 48.651073 60 -1.1576697
v 49.303219 60 -1.416774
v 48.967903 60 -1.310491
v 47.940445 60 0.35932636
v 48.013367 60 0.52593219
v 47.894596 60 0.18351579
v 48.225491 60 0.82194227
v 48.355976 60 0.94794017
v 48.1105 60 0.68183374
v 50 62.117176 0.094326638
v 50 62.121319 0
v 50 62.104614 0.18785922
v 50 61.688515 0.90799814
v 50 61.847294 0.73739761
v 50 61.970062 0.5562638
v 50 62.055756 0.37005267
v 48.498863 60 1.0598439
v 48.651073 60 1.1576697
v 48.967903 60 1.310491
v 49.303219 60 1.416774
v 50 61.27726 1.1976237
v 50 61.496841 1.0628899
v 50 61.036236 1.3088576
v 50 60.781109 1.3946096
v 10 97.878677 0
v 10 97.882828 -0.094326638
v 10 97.895386 -0.18785922
v 10 97.944244 -0.37005267
v 10 98.029938 -0.5562638
v 10 98.311485 -0.90799814
v 10 98.503159 -1.0628899
v 10 98.029938 0.5562638
v 10 97.944244 0.37005267
v 10 97.895386 0.18785922
v 10 97.882828 0.094326638
v 10 98.15271 -0.73739761
v 10 98.72274 -1.1976237
v 10 98.963768 -1.3088576
v 10 99.218895 -1.3946096
v 10 98.15271 0.73739761
v 10 98.963768 1.3088576
v 10 98.72274 1.1976237
v 10 98.311485 0.90799814
v 10 98.503159 1.0628899
v 10 99.218895 1.3946096
v -7.8953862 80 -0.18785922
v -7.9442458 80 -0.37005267
v -7.8828259 80 -0.094326638
v -8.0299387 80 -0.5562638
v -8.1527071 80 -0.73739761
v -8.3114862 80 -0.90799814
v -8.5031605 80 -1.0628899
v -8.9637651 80 -1.3088576
v -9.2188931 80 -1.3946096
v -8.7227392 80 -1.1976237
v -8.9637651 80 1.3088576
v -8.7227392 80 1.1976237
v -9.2188931 80 1.3946096
v -8.5031605 80 1.0628899
v -7.9442458 80 0.37005267
v -7.8953862 80 0.18785922
v -7.8828259 80 0.094326638
v -7.8786798 80 0
v -8.3114862 80 0.90799814
v -8.1527071 80 0.73739761
v -8.0299387 80 0.5562638
v 10 62.121319 0
v 10 62.117176 -0.094326638
v 10 62.104614 -0.18785922
v 10 62.055756 -0.37005267
v 10 61.970062 -0.5562638
v 7.9404445 60 -0.35932636
v 7.8945971 60 -0.18351579
v 8.0133648 60 -0.52593219
v 8.3559752 60 -0.94794017
v 8.2254906 60 -0.82194227
v 8.1105013 60 -0.68183374
v 10 61.847294 -0.73739761
v 10 61.688515 -0.90799814
v 7.8786798 60 -1.8369701e-16
v 10 61.27726 -1.1976237
v 10 61.036236 -1.3088576
v 10 61.496841 -1.0628899
v 10 60.781109 -1.3946096
v 8.4988651 60 -1.0598439
v 8.6510735 60 -1.1576697
v 9.3032198 60 -1.416774
v 8.9679022 60 -1.310491
v 7.9404445 60 0.35932636
v 8.0133648 60 0.52593219
v 7.8945971 60 0.18351579
v 8.1105013 60 0.68183374
v 8.2254906 60 0.82194227
v 8.3559752 60 0.94794017
v 8.4988651 60 1.0598439
v 10 61.847294 0.73739761
v 10 61.970062 0.5562638
v 10 62.117176 0.094326638
v 10 62.055756 0.37005267
v 10 62.104614 0.18785922
v 8.9679022 60 1.310491
v 9.3032198 60 1.416774
v 8.6510735 60 1.1576697
v 10 61.688515 0.90799814
v 10 61.496841 1.0628899
v 10 60.781109 1.3946096
v 10 61.036236 1.3088576
v 10 61.27726 1.1976237
v 71.496841 40 -1.0628899
v 71.688515 40 -0.90799814
v 71.036232 40 -1.3088576
v 71.27726 40 -1.1976237
v 70.781105 40 -1.3946096
v 70 38.967903 -1.310491
v 70 39.303219 -1.416774
v 70 38.498863 -1.0598439
v 70 38.651073 -1.1576697
v 70 38.225491 -0.82194227
v 70 38.355976 -0.94794017
v 71.84729 40 -0.73739761
v 72.104614 40 -0.18785922
v 72.117172 40 -0.094326638
v 71.970062 40 -0.5562638
v 72.055756 40 -0.37005267
v 72.121323 40 0
v 70 39.303219 1.416774
v 70 38.967903 1.310491
v 70 38.355976 0.94794017
v 70 38.225491 0.82194227
v 70 38.651073 1.1576697
v 70 38.498863 1.0598439
v 71.27726 40 1.1976237
v 71.036232 40 1.3088576
v 71.688515 40 0.90799814
v 71.496841 40 1.0628899
v 71.84729 40 0.73739761
v 70.781105 40 1.3946096
v 70 37.940445 -0.35932636
v 70 38.013367 -0.52593219
v 70 37.878681 -1.8369701e-16
v 70 37.894596 -0.18351579
v 70 38.1105 -0.68183374
v 70 37.894596 0.18351579
v 70 38.1105 0.68183374
v 70 38.013367 0.52593219
v 71.970062 40 0.5562638
v 70 37.940445 0.35932636
v 72.104614 40 0.18785922
v 72.055756 40 0.37005267
v 72.117172 40 0.094326638
v 90 22.117174 -0.094326638
v 90 22.104614 -0.18785922
v 87.940445 20 -0.35932636
v 87.8946 20 -0.18351579
v 90 22.055754 -0.37005267
v 87.878677 20 -1.8369701e-16
v 90 21.97006 -0.5562638
v 90 21.847292 -0.73739761
v 88.013367 20 -0.52593219
v 87.8946 20 0.18351579
v 87.940445 20 0.35932636
v 88.013367 20 0.52593219
v 88.110504 20 0.68183374
v 88.225494 20 0.82194227
v 90 21.688515 -0.90799814
v 90 22.121321 0
v 90 21.49684 -1.0628899
v 90 21.27726 -1.1976237
v 90 21.036236 -1.3088576
v 90 20.781107 -1.3946096
v 88.355972 20 -0.94794017
v 88.225494 20 -0.82194227
v 88.110504 20 -0.68183374
v 89.303223 20 -1.416774
v 88.967903 20 -1.310491
v 88.651077 20 -1.1576697
v 88.498863 20 -1.0598439
v 90 21.97006 0.5562638
v 90 22.055754 0.37005267
v 90 22.104614 0.18785922
v 90 22.117174 0.094326638
v 88.355972 20 0.94794017
v 88.498863 20 1.0598439
v 88.651077 20 1.1576697
v 88.967903 20 1.310491
v 89.303223 20 1.416774
v 90 21.49684 1.0628899
v 90 21.688515 0.90799814
v 90 21.847292 0.73739761
v 90 21.036236 1.3088576
v 90 21.27726 1.1976237
v 90 20.781107 1.3946096
v 91.332703 20 -1.1670355
v 91.155815 20 -1.2577939
v 90.783295 20 -1.3939967
v 91.625969 20 -0.96322507
v 91.5 20 -1.0606601
v 91.848534 20 -0.73548853
v 91.74295 20 -0.85465187
v 91.940323 20 -0.60628307
v 90.783295 20 1.3939967
v 91.155815 20 1.2577939
v 91.74295 20 0.85465187
v 91.848534 20 0.73548853
v 91.5 20 1.0606601
v 91.625969 20 0.96322507
v 91.332703 20 1.1670355
v 91.940323 20 0.60628307
v 92.072861 20 -0.31993777
v 92.0159 20 -0.46758348
v 92.108803 20 -0.16389392
v 92.121323 20 -1.8369701e-16
v 92.108803 20 0.16389392
v 92.072861 20 0.31993777
v 92.0159 20 0.46758348
v 107.88283 40 -0.094326638
v 107.89539 40 -0.18785922
v 107.94424 40 -0.37005267
v 108.02994 40 -0.5562638
v 108.15271 40 -0.73739761
v 108.31149 40 -0.90799814
v 108.72274 40 -1.1976237
v 108.96377 40 -1.3088576
v 108.50316 40 -1.0628899
v 109.21889 40 -1.3946096
v 108.15271 40 0.73739761
v 108.02994 40 0.5562638
v 107.94424 40 0.37005267
v 107.88283 40 0.094326638
v 107.87868 40 0
v 107.89539 40 0.18785922
v 108.72274 40 1.1976237
v 108.50316 40 1.0628899
v 108.31149 40 0.90799814
v 109.21889 40 1.3946096
v 108.96377 40 1.3088576
v 31.49684 40 -1.0628899
v 31.688515 40 -0.90799814
v 31.036236 40 -1.3088576
v 31.27726 40 -1.1976237
v 30.781107 40 -1.3946096
v 30 38.967903 -1.310491
v 30 39.303219 -1.416774
v 30 38.498863 -1.0598439
v 30 38.651073 -1.1576697
v 30 38.225491 -0.82194227
v 30 38.355976 -0.94794017
v 31.847292 40 -0.73739761
v 32.104614 40 -0.18785922
v 32.117176 40 -0.094326638
v 31.97006 40 -0.5562638
v 32.055756 40 -0.37005267
v 32.121319 40 0
v 30 39.303219 1.416774
v 30 38.967903 1.310491
v 30 38.355976 0.94794017
v 30 38.225491 0.82194227
v 30 38.651073 1.1576697
v 30 38.498863 1.0598439
v 31.27726 40 1.1976237
v 31.036236 40 1.3088576
v 31.688515 40 0.90799814
v 31.49684 40 1.0628899
v 31.847292 40 0.73739761
v 30.781107 40 1.3946096
v 30 37.940445 -0.35932636
v 30 38.013367 -0.52593219
v 30 37.878681 -1.8369701e-16
v 30 37.894596 -0.18351579
v 30 38.1105 -0.68183374
v 30 37.894596 0.18351579
v 30 38.1105 0.68183374
v 30 38.013367 0.52593219
v 31.97006 40 0.5562638
v 30 37.940445 0.35932636
v 32.104614 40 0.18785922
v 32.055756 40 0.37005267
v 32.117176 40 0.094326638
v 50 22.117174 -0.094326638
v 50 22.104614 -0.18785922
v 47.940445 20 -0.35932636
v 47.894596 20 -0.18351579
v 50 22.055754 -0.37005267
v 47.878681 20 -1.8369701e-16
v 50 21.97006 -0.5562638
v 50 21.847292 -0.73739761
v 48.013367 20 -0.52593219
v 47.894596 20 0.18351579
v 47.940445 20 0.35932636
v 48.013367 20 0.52593219
v 48.1105 20 0.68183374
v 48.225491 20 0.82194227
v 50 21.688515 -0.90799814
v 50 22.121321 0
v 50 21.49684 -1.0628899
v 50 21.27726 -1.1976237
v 50 21.036236 -1.3088576
v 50 20.781107 -1.3946096
v 48.355976 20 -0.94794017
v 48.225491 20 -0.82194227
v 48.1105 20 -0.68183374
v 49.303219 20 -1.416774
v 48.967903 20 -1.310491
v 48.651073 20 -1.1576697
v 48.498863 20 -1.0598439
v 50 21.97006 0.5562638
v 50 22.055754 0.37005267
v 50 22.104614 0.18785922
v 50 22.117174 0.094326638
v 48.355976 20 0.94794017
v 48.498863 20 1.0598439
v 48.651073 20 1.1576697
v 48.967903 20 1.310491
v 49.303219 20 1.416774
v 50 21.49684 1.0628899
v 50 21.688515 0.90799814
v 50 21.847292 0.73739761
v 50 21.036236 1.3088576
v 50 21.27726 1.1976237
v 50 20.781107 1.3946096
v -8.7227392 40 -1.1976237
v -8.5031605 40 -1.0628899
v -9.2188931 40 -1.3946096
v -8.9637651 40 -1.3088576
v -8.3114862 40 -0.90799814
v -8.1527071 40 -0.73739761
v -8.0299387 40 -0.5562638
v -7.9442458 40 -0.37005267
v -7.8828259 40 -0.094326638
v -7.8786798 40 0
v -7.8953862 40 -0.18785922
v -8.9637651 40 1.3088576
v -9.2188931 40 1.3946096
v -8.3114862 40 0.90799814
v -8.5031605 40 1.0628899
v -8.7227392 40 1.1976237
v -8.0299387 40 0.5562638
v -8.1527071 40 0.73739761
v -7.8828259 40 0.094326638
v -7.8953862 40 0.18785922
v -7.9442458 40 0.37005267
v 10 22.117174 -0.094326638
v 10 22.104614 -0.18785922
v 8.1105013 20 -0.68183374
v 8.0133648 20 -0.52593219
v 10 22.055754 -0.37005267
v 10 22.121321 0
v 7.9404445 20 -0.35932636
v 10 21.97006 -0.5562638
v 10 21.847292 -0.73739761
v 7.8945971 20 -0.18351579
v 7.8786798 20 -1.8369701e-16
v 7.9404445 20 0.35932636
v 8.0133648 20 0.52593219
v 7.8945971 20 0.18351579
v 8.1105013 20 0.68183374
v 10 21.688515 -0.90799814
v 10 21.49684 -1.0628899
v 10 21.27726 -1.1976237
v 10 21.036236 -1.3088576
v 10 20.781107 -1.3946096
v 8.2254906 20 -0.82194227
v 8.3559752 20 -0.94794017
v 9.3032198 20 -1.416774
v 8.9679022 20 -1.310491
v 8.6510735 20 -1.1576697
v 8.4988651 20 -1.0598439
v 10 21.97006 0.5562638
v 10 22.055754 0.37005267
v 10 22.104614 0.18785922
v 10 22.117174 0.094326638
v 8.2254906 20 0.82194227
v 8.3559752 20 0.94794017
v 8.4988651 20 1.0598439
v 8.6510735 20 1.1576697
v 8.9679022 20 1.310491
v 9.3032198 20 1.416774
v 10 21.49684 1.0628899
v 10 21.688515 0.90799814
v 10 21.847292 0.73739761
v 10 21.036236 1.3088576
v 10 21.27726 1.1976237
v 10 20.781107 1.3946096
v 71.496841 -8.0805969e-16 -1.0628899
v 71.688515 1.3749263e-15 -0.90799814
v 71.036232 2.5963881e-16 -1.3088576
v 71.27726 2.378315e-15 -1.1976237
v 70.781105 -4.1043443e-15 -1.3946096
v 70 -1.0320983 -1.310491
v 70 -0.69678026 -1.416774
v 70 -1.501135 -1.0598439
v 70 -1.3489262 -1.1576697
v 70 -1.7745091 -0.82194227
v 70 -1.6440252 -0.94794017
v 70 -1.8894987 -0.68183374
v 71.84729 -1.7080063e-15 -0.73739761
v 72.104614 1.9619085e-15 -0.18785922
v 72.117172 1.0340167e-15 -0.094326638
v 71.970062 -1.69061e-15 -0.5562638
v 72.055756 -5.2373614e-16 -0.37005267
v 72.121323 -3.3306691e-15 0
v 70 -1.6440252 0.94794017
v 70 -1.7745091 0.82194227
v 70 -1.3489262 1.1576697
v 70 -1.501135 1.0598439
v 70 -1.0320983 1.310491
v 70 -0.69678026 1.416774
v 71.036232 -2.3601629e-15 1.3088576
v 70.781105 -2.8082719e-15 1.3946096
v 71.496841 -7.9112433e-16 1.0628899
v 71.27726 4.8418813e-15 1.1976237
v 71.84729 -1.7150437e-15 0.73739761
v 71.688515 1.2969902e-15 0.90799814
v 71.970062 -1.7106594e-15 0.5562638
v 70 -1.8894987 0.68183374
v 70 -2.0595555 -0.35932636
v 70 -1.9866351 -0.52593219
v 70 -2.1054029 -0.18351579
v 70 -2.1213202 -1.8369701e-16
v 70 -2.1054029 0.18351579
v 70 -2.0595555 0.35932636
v 72.055756 -3.0975745e-15 0.37005267
v 72.104614 -1.8266293e-15 0.18785922
v 70 -1.9866351 0.52593219
v 72.117172 -1.7099716e-15 0.094326638
v 90 -17.882826 -0.094326638
v 90 -17.895386 -0.18785922
v 90 -17.944246 -0.37005267
v 90 -18.02994 -0.5562638
v 90 -18.152708 -0.73739761
v 90 -18.311485 -0.90799814
v 90 -18.50316 -1.0628899
v 90 -18.72274 -1.1976237
v 90 -18.963764 -1.3088576
v 90 -19.218893 -1.3946096
v 90 -18.311485 0.90799814
v 90 -18.152708 0.73739761
v 90 -17.882826 0.094326638
v 90 -17.878679 0
v 90 -18.02994 0.5562638
v 90 -17.895386 0.18785922
v 90 -17.944246 0.37005267
v 90 -18.963764 1.3088576
v 90 -18.72274 1.1976237
v 90 -18.50316 1.0628899
v 90 -19.218893 1.3946096
v 107.88283 9.0283361e-15 -0.094326638
v 107.89539 8.5567641e-15 -0.18785922
v 107.94424 7.9675646e-15 -0.37005267
v 108.02994 1.2412286e-14 -0.5562638
v 108.15271 1.3696883e-14 -0.73739761
v 108.31149 1.1572853e-14 -0.90799814
v 108.72274 2.5270709e-15 -1.1976237
v 108.96377 2.4684361e-15 -1.3088576
v 108.50316 2.7664306e-15 -1.0628899
v 109.21889 7.8955456e-15 -1.3946096
v 107.87868 7.9936058e-15 0
v 108.15271 8.7403026e-15 0.73739761
v 108.02994 7.5627769e-15 0.5562638
v 107.94424 2.7011347e-15 0.37005267
v 107.88283 1.0315443e-14 0.094326638
v 107.89539 8.2747411e-15 0.18785922
v 108.96377 7.5283094e-15 1.3088576
v 108.72274 7.5282086e-15 1.1976237
v 108.31149 1.4952152e-15 0.90799814
v 108.50316 7.8678637e-15 1.0628899
v 109.21889 7.9559738e-15 1.3946096
v 31.036236 2.5963881e-16 -1.3088576
v 31.27726 2.378315e-15 -1.1976237
v 30.781107 -4.1043443e-15 -1.3946096
v 30 -1.3489262 -1.1576697
v 30 -1.0320983 -1.310491
v 30 -1.6440252 -0.94794017
v 30 -1.501135 -1.0598439
v 30 -0.69678026 -1.416774
v 31.49684 -8.0805969e-16 -1.0628899
v 32.055756 -5.2373614e-16 -0.37005267
v 32.104614 1.9619085e-15 -0.18785922
v 31.97006 -1.69061e-15 -0.5562638
v 32.117176 1.0340167e-15 -0.094326638
v 32.121319 -3.3306691e-15 0
v 50 -17.878679 0
v 50 -17.882826 -0.094326638
v 31.847292 -1.7080063e-15 -0.73739761
v 31.688515 1.3749263e-15 -0.90799814
v 30 -1.7745091 -0.82194227
v 30 -1.8894987 -0.68183374
v 30 -2.0595555 -0.35932636
v 30 -1.9866351 -0.52593219
v 30 -2.1054029 -0.18351579
v 30 -2.1213202 -1.8369701e-16
v 30 -1.0320983 1.310491
v 30 -1.3489262 1.1576697
v 30 -0.69678026 1.416774
v 31.036236 -2.3601629e-15 1.3088576
v 30.781107 -2.8082719e-15 1.3946096
v 31.49684 -7.9112433e-16 1.0628899
v 31.27726 4.8418813e-15 1.1976237
v 31.847292 -1.7150437e-15 0.73739761
v 31.688515 1.2969902e-15 0.90799814
v 30 -1.501135 1.0598439
v 31.97006 -1.7106594e-15 0.5562638
v 30 -1.6440252 0.94794017
v 30 -1.7745091 0.82194227
v 30 -1.9866351 0.52593219
v 30 -2.0595555 0.35932636
v 30 -1.8894987 0.68183374
v 30 -2.1054029 0.18351579
v 32.104614 -1.8266293e-15 0.18785922
v 32.055756 -3.0975745e-15 0.37005267
v 50 -17.895386 0.18785922
v 50 -17.882826 0.094326638
v 32.117176 -1.7099716e-15 0.094326638
v 50 -17.895386 -0.18785922
v 50 -18.02994 -0.5562638
v 50 -18.152708 -0.73739761
v 50 -17.944246 -0.37005267
v 50 -18.50316 -1.0628899
v 50 -18.72274 -1.1976237
v 50 -18.311485 -0.90799814
v 50 -18.963764 -1.3088576
v 50 -19.218893 -1.3946096
v 50 -19.218893 1.3946096
v 50 -18.963764 1.3088576
v 50 -18.72274 1.1976237
v 50 -17.944246 0.37005267
v 50 -18.02994 0.5562638
v 50 -18.50316 1.0628899
v 50 -18.311485 0.90799814
v 50 -18.152708 0.73739761
v -8.5031605 -8.0805969e-16 -1.0628899
v -8.3114862 1.3749263e-15 -0.90799814
v -7.8953862 1.9619085e-15 -0.18785922
v -7.8828259 1.0340167e-15 -0.094326638
v -8.0299387 -1.69061e-15 -0.5562638
v -7.9442458 -5.2373614e-16 -0.37005267
v -8.1527071 -1.7080063e-15 -0.73739761
v -8.7227392 2.378315e-15 -1.1976237
v -9.2188931 -4.1043443e-15 -1.3946096
v -8.9637651 2.5963881e-16 -1.3088576
v -8.9637651 -2.3601629e-15 1.3088576
v -9.2188931 -2.8082719e-15 1.3946096
v -8.7227392 4.8418813e-15 1.1976237
v -8.3114862 1.2969902e-15 0.90799814
v -8.5031605 -7.9112433e-16 1.0628899
v -8.1527071 -1.7150437e-15 0.73739761
v -7.8953862 -1.8266293e-15 0.18785922
v -7.9442458 -3.0975745e-15 0.37005267
v -7.8786798 -3.3306691e-15 0
v -7.8828259 -1.7099716e-15 0.094326638
v -8.0299387 -1.7106594e-15 0.5562638
v 10 -17.895386 -0.18785922
v 10 -17.944246 -0.37005267
v 10 -17.882826 -0.094326638
v 10 -18.02994 -0.5562638
v 10 -18.152708 -0.73739761
v 10 -18.311485 -0.90799814
v 10 -18.50316 -1.0628899
v 10 -18.963764 -1.3088576
v 10 -19.218893 -1.3946096
v 10 -18.72274 -1.1976237
v 10 -18.963764 1.3088576
v 10 -18.72274 1.1976237
v 10 -19.218893 1.3946096
v 10 -18.50316 1.0628899
v 10 -17.944246 0.37005267
v 10 -17.895386 0.18785922
v 10 -17.882826 0.094326638
v 10 -17.878679 0
v 10 -18.311485 0.90799814
v 10 -18.152708 0.73739761
v 10 -18.02994 0.5562638
v 27.878679 -3.0253577e-15 -1.8369701e-16
v 27.882826 -1.9825941e-15 -0.094326638
v 27.895386 -2.4452416e-15 -0.18785922
v 27.944246 -3.0142919e-15 -0.37005267
v 28.02994 1.4550771e-15 -0.5562638
v 28.152708 2.7681189e-15 -0.73739761
v 28.311485 6.7577363e-16 -0.90799814
v 28.72274 -8.3001512e-15 -1.1976237
v 28.963764 -8.3225358e-15 -1.3088576
v 28.50316 -8.096494e-15 -1.0628899
v 29.218893 -2.8596197e-15 -1.3946096
v 28.152708 -2.1884606e-15 0.73739761
v 28.02994 -3.394432e-15 0.5562638
v 27.882826 -6.9548758e-16 0.094326638
v 27.944246 -8.280722e-15 0.37005267
v 27.895386 -2.7272646e-15 0.18785922
v 28.311485 -9.4018641e-15 0.90799814
v 28.50316 -2.9950613e-15 1.0628899
v 29.218893 -2.7991921e-15 1.3946096
v 28.963764 -3.2626625e-15 1.3088576
v 28.72274 -3.2990135e-15 1.1976237
v 30 1.3489262 -1.1576697
v 30 1.0320983 -1.310491
v 30 1.6440252 -0.94794017
v 30 1.501135 -1.0598439
v 30 0.69678026 -1.416774
v 30 1.7745091 -0.82194227
v 30 1.8894987 -0.68183374
v 30 1.9866351 -0.52593219
v 30 1.501135 1.0598439
v 30 1.6440252 0.94794017
v 30 1.0320983 1.310491
v 30 1.3489262 1.1576697
v 30 0.69678026 1.416774
v 30 1.7745091 0.82194227
v 30 1.9866351 0.52593219
v 30 2.0595555 0.35932636
v 30 2.1054029 -0.18351579
v 30 2.0595555 -0.35932636
v 30 2.1054029 0.18351579
v 30 2.1213202 -1.8369701e-16
v 30 1.8894987 0.68183374
v 67.878677 -3.0253577e-15 -1.8369701e-16
v 67.882828 -1.9825941e-15 -0.094326638
v 67.895386 -2.4452416e-15 -0.18785922
v 67.944244 -3.0142919e-15 -0.37005267
v 68.029938 1.4550771e-15 -0.5562638
v 68.15271 2.7681189e-15 -0.73739761
v 68.311485 6.7577363e-16 -0.90799814
v 68.72274 -8.3001512e-15 -1.1976237
v 68.963768 -8.3225358e-15 -1.3088576
v 68.503159 -8.096494e-15 -1.0628899
v 69.218895 -2.8596197e-15 -1.3946096
v 68.15271 -2.1884606e-15 0.73739761
v 68.029938 -3.394432e-15 0.5562638
v 67.882828 -6.9548758e-16 0.094326638
v 67.944244 -8.280722e-15 0.37005267
v 67.895386 -2.7272646e-15 0.18785922
v 68.311485 -9.4018641e-15 0.90799814
v 68.503159 -2.9950613e-15 1.0628899
v 69.218895 -2.7991921e-15 1.3946096
v 68.963768 -3.2626625e-15 1.3088576
v 68.72274 -3.2990135e-15 1.1976237
v 70 1.0320983 -1.310491
v 70 0.69678026 -1.416774
v 70 1.501135 -1.0598439
v 70 1.3489262 -1.1576697
v 70 1.7745091 -0.82194227
v 70 1.6440252 -0.94794017
v 70 1.8894987 -0.68183374
v 70 1.9866351 -0.52593219
v 70 2.0595555 -0.35932636
v 70 1.6440252 0.94794017
v 70 1.7745091 0.82194227
v 70 1.3489262 1.1576697
v 70 1.501135 1.0598439
v 70 1.0320983 1.310491
v 70 0.69678026 1.416774
v 70 1.8894987 0.68183374
v 70 1.9866351 0.52593219
v 70 2.0595555 0.35932636
v 70 2.1054029 0.18351579
v 70 2.1054029 -0.18351579
v 70 2.1213202 -1.8369701e-16
v 10 17.895386 -0.18785922
v 10 17.944246 -0.37005267
v 10 17.882826 -0.094326638
v 10 18.02994 -0.5562638
v 10 18.152708 -0.73739761
v 11.742949 20 -0.85465187
v 11.848535 20 -0.73548853
v 10 18.311485 -0.90799814
v 11.94032 20 -0.60628307
v 12.108805 20 -0.16389392
v 12.121321 20 -1.8369701e-16
v 12.108805 20 0.16389392
v 12.072862 20 0.31993777
v 12.015898 20 -0.46758348
v 12.072862 20 -0.31993777
v 12.015898 20 0.46758348
v 10 18.72274 -1.1976237
v 10 18.963764 -1.3088576
v 10 18.50316 -1.0628899
v 10 19.218893 -1.3946096
v 11.332705 20 -1.1670355
v 11.5 20 -1.0606601
v 11.625968 20 -0.96322507
v 10.783292 20 -1.3939967
v 11.155815 20 -1.2577939
v 11.94032 20 0.60628307
v 11.848535 20 0.73548853
v 10 18.152708 0.73739761
v 10 18.02994 0.5562638
v 11.742949 20 0.85465187
v 11.625968 20 0.96322507
v 10 17.944246 0.37005267
v 10 17.895386 0.18785922
v 10 17.882826 0.094326638
v 10 17.878679 -1.8369701e-16
v 11.332705 20 1.1670355
v 11.155815 20 1.2577939
v 11.5 20 1.0606601
v 10.783292 20 1.3939967
v 10 18.72274 1.1976237
v 10 18.50316 1.0628899
v 10 18.311485 0.90799814
v 10 19.218893 1.3946096
v 10 18.963764 1.3088576
v 27.895386 40 -0.18785922
v 27.944246 40 -0.37005267
v 27.882826 40 -0.094326638
v 28.152708 40 -0.73739761
v 28.311485 40 -0.90799814
v 28.02994 40 -0.5562638
v 28.50316 40 -1.0628899
v 28.72274 40 -1.1976237
v 27.878679 40 -1.8369701e-16
v 28.963764 40 -1.3088576
v 29.218893 40 -1.3946096
v 27.882826 40 0.094326638
v 27.895386 40 0.18785922
v 28.311485 40 0.90799814
v 28.152708 40 0.73739761
v 28.02994 40 0.5562638
v 27.944246 40 0.37005267
v 28.72274 40 1.1976237
v 28.50316 40 1.0628899
v 28.963764 40 1.3088576
v 29.218893 40 1.3946096
v 30 41.348927 -1.1576697
v 30 41.032097 -1.310491
v 30 41.644024 -0.94794017
v 30 41.501137 -1.0598439
v 30 40.696781 -1.416774
v 30 41.774509 -0.82194227
v 30 41.8895 -0.68183374
v 30 41.986633 -0.52593219
v 30 41.501137 1.0598439
v 30 41.644024 0.94794017
v 30 41.032097 1.310491
v 30 41.348927 1.1576697
v 30 40.696781 1.416774
v 30 41.774509 0.82194227
v 30 42.059555 -0.35932636
v 30 42.121319 -1.8369701e-16
v 30 42.105404 -0.18351579
v 30 42.059555 0.35932636
v 30 42.105404 0.18351579
v 30 41.986633 0.52593219
v 30 41.8895 0.68183374
v 50 17.895386 -0.18785922
v 50 17.944246 -0.37005267
v 50 17.882826 -0.094326638
v 50 18.02994 -0.5562638
v 50 18.152708 -0.73739761
v 51.74295 20 -0.85465187
v 51.848534 20 -0.73548853
v 50 18.311485 -0.90799814
v 51.940319 20 -0.60628307
v 52.108803 20 -0.16389392
v 52.121319 20 -1.8369701e-16
v 52.108803 20 0.16389392
v 52.072861 20 0.31993777
v 52.0159 20 -0.46758348
v 52.072861 20 -0.31993777
v 52.0159 20 0.46758348
v 50 18.72274 -1.1976237
v 50 18.963764 -1.3088576
v 50 18.50316 -1.0628899
v 50 19.218893 -1.3946096
v 51.332706 20 -1.1670355
v 51.5 20 -1.0606601
v 51.625969 20 -0.96322507
v 50.783291 20 -1.3939967
v 51.155815 20 -1.2577939
v 51.940319 20 0.60628307
v 51.848534 20 0.73548853
v 50 18.152708 0.73739761
v 50 18.02994 0.5562638
v 51.74295 20 0.85465187
v 51.625969 20 0.96322507
v 50 17.944246 0.37005267
v 50 17.895386 0.18785922
v 50 17.882826 0.094326638
v 50 17.878679 -1.8369701e-16
v 51.332706 20 1.1670355
v 51.155815 20 1.2577939
v 51.5 20 1.0606601
v 50.783291 20 1.3939967
v 50 18.72274 1.1976237
v 50 18.50316 1.0628899
v 50 18.311485 0.90799814
v 50 19.218893 1.3946096
v 50 18.963764 1.3088576
v 67.895386 40 -0.18785922
v 67.944244 40 -0.37005267
v 67.882828 40 -0.094326638
v 68.15271 40 -0.73739761
v 68.311485 40 -0.90799814
v 68.029938 40 -0.5562638
v 68.503159 40 -1.0628899
v 68.72274 40 -1.1976237
v 67.878677 40 -1.8369701e-16
v 68.963768 40 -1.3088576
v 69.218895 40 -1.3946096
v 67.882828 40 0.094326638
v 67.895386 40 0.18785922
v 68.311485 40 0.90799814
v 68.15271 40 0.73739761
v 68.029938 40 0.5562638
v 67.944244 40 0.37005267
v 68.72274 40 1.1976237
v 68.503159 40 1.0628899
v 68.963768 40 1.3088576
v 69.218895 40 1.3946096
v 70 41.348927 -1.1576697
v 70 41.032097 -1.310491
v 70 41.644024 -0.94794017
v 70 41.501137 -1.0598439
v 70 40.696781 -1.416774
v 70 41.774509 -0.82194227
v 70 41.8895 -0.68183374
v 70 41.986633 -0.52593219
v 70 41.501137 1.0598439
v 70 41.644024 0.94794017
v 70 41.032097 1.310491
v 70 41.348927 1.1576697
v 70 40.696781 1.416774
v 70 41.774509 0.82194227
v 70 41.986633 0.52593219
v 70 42.059555 0.35932636
v 70 42.105404 -0.18351579
v 70 42.059555 -0.35932636
v 70 42.105404 0.18351579
v 70 42.121319 -1.8369701e-16
v 70 41.8895 0.68183374
v 90 17.895386 -0.18785922
v 90 17.944246 -0.37005267
v 90 17.882826 -0.094326638
v 90 18.02994 -0.5562638
v 90 18.152708 -0.73739761
v 90 18.311485 -0.90799814
v 90 18.72274 -1.1976237
v 90 18.963764 -1.3088576
v 90 18.50316 -1.0628899
v 90 19.218893 -1.3946096
v 90 18.152708 0.73739761
v 90 18.02994 0.5562638
v 90 17.944246 0.37005267
v 90 17.895386 0.18785922
v 90 17.882826 0.094326638
v 90 17.878679 -1.8369701e-16
v 90 18.72274 1.1976237
v 90 18.50316 1.0628899
v 90 18.311485 0.90799814
v 90 19.218893 1.3946096
v 90 18.963764 1.3088576
v 10 57.895386 -0.18785922
v 10 57.944244 -0.37005267
v 10 57.882824 -0.094326638
v 10 58.029938 -0.5562638
v 10 58.152706 -0.73739761
v 11.742949 60 -0.85465187
v 11.848535 60 -0.73548853
v 10 58.311485 -0.90799814
v 11.94032 60 -0.60628307
v 12.108805 60 -0.16389392
v 12.121321 60 -1.8369701e-16
v 12.108805 60 0.16389392
v 12.072862 60 0.31993777
v 12.015898 60 -0.46758348
v 12.072862 60 -0.31993777
v 12.015898 60 0.46758348
v 10 58.72274 -1.1976237
v 10 58.963764 -1.3088576
v 10 58.503159 -1.0628899
v 10 59.218891 -1.3946096
v 11.332705 60 -1.1670355
v 11.5 60 -1.0606601
v 11.625968 60 -0.96322507
v 10.783292 60 -1.3939967
v 11.155815 60 -1.2577939
v 11.94032 60 0.60628307
v 11.848535 60 0.73548853
v 10 58.152706 0.73739761
v 10 58.029938 0.5562638
v 11.742949 60 0.85465187
v 11.625968 60 0.96322507
v 10 57.944244 0.37005267
v 10 57.895386 0.18785922
v 10 57.882824 0.094326638
v 10 57.878681 -1.8369701e-16
v 11.332705 60 1.1670355
v 11.155815 60 1.2577939
v 11.5 60 1.0606601
v 10.783292 60 1.3939967
v 10 58.72274 1.1976237
v 10 58.503159 1.0628899
v 10 58.311485 0.90799814
v 10 59.218891 1.3946096
v 10 58.963764 1.3088576
v 27.895386 80 -0.18785922
v 27.944246 80 -0.37005267
v 27.882826 80 -0.094326638
v 28.152708 80 -0.73739761
v 28.311485 80 -0.90799814
v 28.02994 80 -0.5562638
v 28.50316 80 -1.0628899
v 28.72274 80 -1.1976237
v 27.878679 80 -1.8369701e-16
v 28.963764 80 -1.3088576
v 29.218893 80 -1.3946096
v 27.882826 80 0.094326638
v 27.895386 80 0.18785922
v 28.311485 80 0.90799814
v 28.152708 80 0.73739761
v 28.02994 80 0.5562638
v 27.944246 80 0.37005267
v 28.72274 80 1.1976237
v 28.50316 80 1.0628899
v 28.963764 80 1.3088576
v 29.218893 80 1.3946096
v 50 57.895386 -0.18785922
v 50 57.944244 -0.37005267
v 50 57.882824 -0.094326638
v 50 58.029938 -0.5562638
v 50 58.152706 -0.73739761
v 51.74295 60 -0.85465187
v 51.848534 60 -0.73548853
v 50 58.311485 -0.90799814
v 51.940319 60 -0.60628307
v 52.108803 60 -0.16389392
v 52.121319 60 -1.8369701e-16
v 52.108803 60 0.16389392
v 52.072861 60 0.31993777
v 52.0159 60 -0.46758348
v 52.072861 60 -0.31993777
v 52.0159 60 0.46758348
v 50 58.72274 -1.1976237
v 50 58.963764 -1.3088576
v 50 58.503159 -1.0628899
v 50 59.218891 -1.3946096
v 51.332706 60 -1.1670355
v 51.5 60 -1.0606601
v 51.625969 60 -0.96322507
v 50.783291 60 -1.3939967
v 51.155815 60 -1.2577939
v 51.940319 60 0.60628307
v 51.848534 60 0.73548853
v 50 58.152706 0.73739761
v 50 58.029938 0.5562638
v 51.74295 60 0.85465187
v 51.625969 60 0.96322507
v 50 57.944244 0.37005267
v 50 57.895386 0.18785922
v 50 57.882824 0.094326638
v 50 57.878681 -1.8369701e-16
v 51.332706 60 1.1670355
v 51.155815 60 1.2577939
v 51.5 60 1.0606601
v 50.783291 60 1.3939967
v 50 58.72274 1.1976237
v 50 58.503159 1.0628899
v 50 58.311485 0.90799814
v 50 59.218891 1.3946096
v 50 58.963764 1.3088576
v 67.882828 80 -0.094326638
v 67.895386 80 -0.18785922
v 67.944244 80 -0.37005267
v 68.029938 80 -0.5562638
v 68.15271 80 -0.73739761
v 68.311485 80 -0.90799814
v 67.878677 80 -1.8369701e-16
v 68.503159 80 -1.0628899
v 68.72274 80 -1.1976237
v 68.963768 80 -1.3088576
v 69.218895 80 -1.3946096
v 68.029938 80 0.5562638
v 67.944244 80 0.37005267
v 67.895386 80 0.18785922
v 67.882828 80 0.094326638
v 68.503159 80 1.0628899
v 68.311485 80 0.90799814
v 68.15271 80 0.73739761
v 68.963768 80 1.3088576
v 68.72274 80 1.1976237
v 69.218895 80 1.3946096
v 90 57.895386 -0.18785922
v 90 57.944244 -0.37005267
v 90 57.882824 -0.094326638
v 90 58.029938 -0.5562638
v 90 58.152706 -0.73739761
v 90 58.311485 -0.90799814
v 90 58.72274 -1.1976237
v 90 58.963764 -1.3088576
v 90 58.503159 -1.0628899
v 90 59.218891 -1.3946096
v 90 58.152706 0.73739761
v 90 58.029938 0.5562638
v 90 57.944244 0.37005267
v 90 57.895386 0.18785922
v 90 57.882824 0.094326638
v 90 57.878681 -1.8369701e-16
v 90 58.72274 1.1976237
v 90 58.503159 1.0628899
v 90 58.311485 0.90799814
v 90 59.218891 1.3946096
v 90 58.963764 1.3088576
# </points>

# <edges count="1452">
l 1 2
l 2 3
l 4 5
l 5 6
l 6 1
l 3 7
l 7 8
l 9 4
l 10 11
l 11 12
l 13 14
l 15 13
l 14 10
l 12 9
l 16 15
l 17 16
l 18 17
l 19 18
l 20 19
l 21 20
l 22 23
l 23 24
l 25 26
l 26 27
l 27 22
l 24 28
l 28 29
l 30 25
l 31 32
l 32 33
l 34 35
l 36 34
l 35 31
l 33 30
l 37 36
l 38 37
l 39 38
l 40 39
l 41 40
l 42 41
l 43 44
l 44 45
l 46 47
l 47 48
l 48 43
l 45 49
l 49 50
l 51 46
l 52 53
l 53 54
l 55 56
l 57 55
l 56 52
l 54 51
l 58 57
l 59 58
l 60 59
l 61 60
l 62 61
l 63 62
l 64 65
l 65 66
l 66 67
l 68 69
l 69 64
l 70 68
l 67 71
l 72 73
l 73 74
l 71 72
l 75 76
l 77 75
l 76 78
l 79 77
l 80 79
l 81 80
l 78 82
l 83 81
l 84 83
l 82 70
l 85 86
l 86 87
l 88 89
l 89 90
l 90 85
l 87 91
l 91 92
l 93 88
l 94 95
l 95 96
l 97 98
l 99 97
l 98 94
l 96 93
l 100 99
l 101 100
l 102 101
l 103 102
l 104 103
l 105 104
l 106 107
l 107 108
l 109 110
l 110 111
l 111 106
l 108 112
l 112 113
l 114 109
l 115 116
l 116 117
l 118 119
l 120 118
l 119 115
l 117 114
l 121 120
l 122 121
l 123 122
l 124 123
l 125 124
l 126 125
l 127 128
l 128 129
l 130 131
l 131 132
l 132 127
l 129 133
l 133 134
l 135 130
l 136 137
l 137 138
l 139 140
l 141 139
l 140 136
l 138 135
l 142 141
l 143 142
l 144 143
l 145 144
l 146 145
l 147 146
l 148 149
l 149 150
l 150 151
l 152 153
l 153 148
l 154 152
l 151 155
l 156 157
l 157 158
l 155 156
l 159 160
l 161 159
l 160 162
l 163 161
l 164 163
l 165 164
l 162 166
l 167 165
l 168 167
l 166 154
l 169 170
l 170 171
l 171 172
l 173 174
l 174 169
l 175 173
l 172 176
l 177 178
l 178 179
l 176 177
l 180 181
l 182 180
l 181 183
l 184 182
l 185 184
l 186 185
l 183 187
l 188 186
l 189 188
l 187 175
l 190 191
l 191 192
l 192 193
l 194 195
l 195 190
l 196 194
l 193 197
l 198 199
l 199 200
l 197 198
l 201 202
l 203 201
l 202 204
l 205 203
l 206 205
l 207 206
l 204 208
l 209 207
l 210 209
l 208 196
l 211 212
l 212 213
l 214 215
l 215 216
l 216 211
l 213 217
l 217 218
l 219 214
l 220 221
l 221 222
l 223 224
l 225 223
l 224 220
l 222 219
l 226 225
l 227 226
l 228 227
l 229 228
l 230 229
l 231 230
l 232 233
l 233 234
l 235 236
l 236 237
l 237 232
l 234 238
l 238 239
l 240 235
l 241 242
l 242 243
l 244 245
l 246 244
l 245 241
l 243 240
l 247 246
l 248 247
l 249 248
l 250 249
l 251 250
l 252 251
l 253 254
l 255 253
l 256 257
l 258 259
l 257 258
l 254 256
l 260 261
l 261 262
l 259 260
l 263 264
l 265 263
l 266 267
l 268 266
l 267 265
l 269 270
l 271 269
l 272 271
l 264 272
l 273 268
l 270 255
l 274 275
l 276 277
l 275 278
l 279 274
l 277 280
l 281 282
l 278 281
l 283 284
l 285 286
l 287 285
l 284 287
l 280 283
l 286 288
l 289 290
l 291 292
l 290 291
l 292 293
l 294 276
l 295 294
l 296 297
l 298 299
l 297 298
l 299 295
l 282 289
l 300 301
l 302 303
l 303 279
l 301 302
l 304 305
l 306 307
l 305 306
l 308 309
l 307 308
l 310 311
l 312 300
l 311 312
l 313 314
l 315 313
l 314 310
l 288 304
l 316 317
l 318 319
l 320 321
l 321 318
l 319 316
l 322 323
l 324 325
l 326 327
l 327 324
l 323 326
l 328 329
l 330 331
l 331 328
l 329 332
l 333 330
l 334 335
l 335 336
l 325 334
l 336 333
l 332 320
l 337 338
l 338 339
l 339 340
l 341 342
l 340 343
l 344 345
l 343 346
l 345 341
l 347 348
l 349 350
l 348 349
l 342 347
l 350 351
l 352 337
l 353 354
l 355 356
l 354 355
l 357 358
l 358 344
l 359 360
l 361 362
l 360 361
l 362 357
l 346 353
l 351 363
l 364 365
l 366 367
l 367 352
l 365 366
l 368 369
l 370 371
l 369 370
l 371 372
l 373 374
l 375 364
l 374 375
l 376 377
l 378 376
l 377 373
l 363 368
l 379 380
l 381 382
l 382 379
l 380 383
l 384 381
l 385 384
l 386 385
l 387 388
l 389 390
l 390 387
l 388 386
l 391 389
l 392 393
l 394 392
l 393 395
l 396 397
l 395 396
l 398 399
l 397 400
l 400 398
l 399 401
l 402 403
l 403 404
l 401 391
l 404 405
l 406 407
l 408 406
l 409 410
l 411 412
l 410 411
l 407 409
l 413 414
l 412 413
l 415 416
l 416 417
l 418 402
l 419 418
l 417 420
l 421 422
l 420 421
l 422 419
l 405 408
l 423 424
l 425 423
l 426 427
l 428 429
l 427 428
l 424 426
l 430 431
l 431 432
l 429 430
l 433 434
l 435 433
l 436 437
l 438 436
l 437 435
l 439 440
l 441 439
l 442 441
l 434 442
l 443 438
l 440 425
l 444 445
l 446 447
l 445 446
l 447 448
l 449 450
l 451 449
l 452 453
l 453 454
l 455 456
l 454 451
l 448 455
l 450 457
l 458 459
l 460 458
l 459 461
l 462 452
l 463 462
l 464 465
l 465 463
l 456 460
l 466 467
l 468 466
l 469 470
l 471 472
l 470 471
l 467 469
l 473 474
l 475 444
l 476 477
l 477 475
l 474 476
l 457 468
l 478 479
l 480 478
l 481 473
l 482 481
l 483 484
l 484 485
l 485 482
l 472 480
l 486 487
l 488 486
l 487 489
l 490 488
l 491 492
l 493 490
l 494 493
l 495 496
l 496 494
l 492 495
l 497 498
l 499 497
l 500 499
l 501 502
l 503 501
l 504 505
l 506 504
l 502 506
l 505 491
l 498 503
l 507 508
l 509 507
l 510 511
l 512 510
l 508 512
l 513 514
l 515 513
l 516 517
l 517 515
l 518 516
l 511 519
l 514 520
l 521 522
l 523 521
l 524 518
l 525 524
l 526 527
l 527 525
l 519 523
l 528 529
l 530 528
l 531 532
l 533 531
l 529 533
l 534 535
l 536 534
l 537 538
l 539 540
l 538 539
l 540 536
l 532 541
l 520 530
l 542 543
l 541 542
l 543 544
l 545 546
l 547 545
l 548 547
l 546 537
l 535 509
l 549 550
l 550 551
l 552 553
l 554 555
l 551 552
l 556 557
l 558 559
l 559 549
l 557 558
l 560 554
l 553 560
l 555 561
l 562 563
l 561 562
l 564 556
l 565 566
l 567 564
l 568 567
l 566 568
l 569 565
l 570 571
l 572 570
l 573 574
l 575 576
l 574 575
l 571 573
l 577 578
l 579 577
l 576 579
l 580 581
l 582 580
l 581 583
l 584 585
l 586 587
l 585 586
l 583 588
l 589 590
l 588 589
l 590 584
l 587 572
l 591 592
l 593 594
l 592 593
l 594 595
l 596 597
l 598 596
l 599 600
l 600 601
l 602 603
l 601 598
l 595 602
l 597 604
l 605 606
l 607 605
l 606 608
l 609 599
l 610 609
l 611 612
l 612 610
l 603 607
l 613 614
l 615 613
l 616 617
l 618 619
l 617 618
l 614 616
l 620 621
l 622 591
l 623 624
l 624 622
l 621 623
l 604 615
l 625 626
l 627 625
l 628 620
l 629 628
l 630 631
l 631 632
l 632 629
l 619 627
l 633 634
l 635 636
l 636 633
l 637 635
l 638 639
l 640 641
l 642 643
l 643 640
l 641 638
l 634 644
l 645 646
l 647 648
l 648 645
l 646 649
l 644 647
l 650 651
l 652 653
l 654 655
l 655 652
l 651 654
l 656 657
l 658 659
l 660 658
l 659 656
l 657 661
l 662 663
l 664 665
l 665 662
l 663 666
l 667 664
l 668 669
l 670 660
l 669 671
l 653 668
l 671 667
l 672 673
l 674 672
l 649 674
l 673 670
l 666 642
l 675 676
l 677 678
l 676 679
l 678 680
l 681 682
l 683 677
l 679 681
l 680 684
l 684 685
l 686 687
l 685 686
l 687 688
l 682 689
l 690 675
l 691 692
l 693 694
l 692 693
l 695 696
l 697 683
l 696 697
l 698 699
l 700 701
l 699 700
l 701 695
l 689 691
l 702 703
l 704 705
l 705 690
l 703 704
l 706 707
l 708 709
l 707 708
l 709 710
l 711 712
l 713 702
l 712 713
l 714 715
l 716 714
l 715 711
l 688 706
l 717 718
l 718 719
l 720 721
l 722 723
l 724 722
l 723 720
l 721 717
l 725 726
l 727 728
l 729 730
l 731 729
l 730 727
l 726 731
l 728 732
l 733 734
l 735 733
l 736 735
l 737 736
l 734 724
l 738 737
l 739 738
l 732 739
l 740 741
l 742 743
l 741 742
l 744 745
l 746 747
l 748 746
l 745 748
l 743 744
l 747 749
l 750 751
l 751 752
l 753 754
l 755 753
l 752 755
l 756 757
l 758 750
l 757 758
l 759 760
l 760 756
l 754 740
l 761 762
l 763 764
l 764 761
l 765 763
l 766 767
l 768 769
l 770 771
l 771 768
l 769 766
l 762 772
l 773 774
l 775 776
l 776 773
l 774 777
l 772 775
l 778 779
l 780 781
l 782 783
l 783 780
l 779 782
l 784 785
l 786 787
l 788 786
l 787 784
l 785 789
l 790 791
l 792 793
l 793 790
l 791 794
l 795 792
l 796 797
l 798 788
l 797 799
l 781 796
l 799 795
l 800 801
l 802 800
l 777 802
l 801 798
l 794 770
l 803 804
l 805 806
l 804 807
l 806 808
l 809 810
l 811 805
l 807 809
l 808 812
l 812 813
l 814 815
l 813 814
l 815 816
l 810 817
l 818 803
l 819 820
l 821 822
l 820 821
l 823 824
l 825 811
l 824 825
l 826 827
l 828 829
l 827 828
l 829 823
l 817 819
l 830 831
l 832 833
l 833 818
l 831 832
l 834 835
l 836 837
l 835 836
l 837 838
l 839 840
l 841 830
l 840 841
l 842 843
l 844 842
l 843 839
l 816 834
l 845 846
l 847 848
l 848 845
l 846 849
l 850 851
l 851 852
l 853 854
l 852 855
l 855 853
l 849 850
l 856 857
l 858 859
l 860 856
l 861 862
l 863 864
l 854 863
l 864 865
l 862 858
l 859 860
l 865 861
l 866 867
l 868 869
l 867 870
l 871 866
l 869 872
l 873 874
l 870 873
l 875 876
l 877 878
l 879 877
l 876 879
l 872 875
l 878 880
l 881 882
l 883 884
l 882 883
l 884 885
l 886 868
l 887 886
l 888 889
l 890 891
l 889 890
l 891 887
l 874 881
l 892 893
l 894 895
l 895 871
l 893 894
l 896 897
l 898 899
l 897 898
l 900 901
l 899 900
l 902 903
l 904 892
l 903 904
l 905 906
l 907 905
l 906 902
l 880 896
l 908 909
l 910 911
l 911 908
l 912 910
l 913 914
l 915 916
l 917 918
l 919 917
l 918 915
l 916 913
l 909 920
l 921 922
l 923 924
l 924 921
l 922 925
l 920 923
l 926 927
l 928 929
l 930 928
l 929 926
l 931 930
l 932 933
l 934 935
l 936 937
l 938 936
l 937 934
l 935 932
l 927 939
l 940 941
l 942 940
l 943 942
l 944 943
l 941 919
l 945 944
l 946 938
l 947 946
l 948 945
l 939 948
l 925 949
l 949 947
l 950 951
l 952 953
l 951 952
l 954 955
l 956 957
l 955 956
l 953 954
l 958 959
l 957 958
l 960 961
l 962 963
l 961 964
l 965 962
l 966 965
l 964 966
l 967 968
l 969 960
l 968 969
l 970 967
l 963 950
l 971 972
l 973 974
l 972 973
l 975 976
l 977 978
l 979 977
l 976 979
l 974 975
l 978 980
l 981 971
l 982 983
l 983 984
l 985 981
l 986 985
l 984 986
l 987 988
l 989 982
l 990 989
l 988 990
l 991 987
l 992 993
l 994 992
l 995 996
l 997 998
l 998 995
l 996 999
l 993 1000
l 1001 1002
l 1003 1001
l 1004 1005
l 1002 1004
l 1006 1007
l 1008 1003
l 1009 1008
l 1010 997
l 1000 1009
l 1011 1010
l 1012 1013
l 1013 1011
l 1014 1012
l 1015 1014
l 1016 1017
l 1018 1016
l 1019 1020
l 1021 1022
l 1023 1024
l 1024 1021
l 1022 1019
l 1017 1025
l 1026 1023
l 1027 1028
l 1025 1027
l 1029 1030
l 1028 1031
l 1031 1029
l 1030 1032
l 1033 1034
l 1035 1036
l 1036 1006
l 1037 1033
l 1005 1037
l 1034 1026
l 1032 1015
l 1007 1038
l 1039 1040
l 1041 1039
l 1042 1043
l 1044 1042
l 1040 1044
l 1045 1046
l 1043 1045
l 1047 1048
l 1048 1049
l 1050 1035
l 1051 1050
l 1049 1052
l 1053 1054
l 1052 1053
l 1054 1051
l 1038 1041
l 1055 1056
l 1057 1058
l 1059 1060
l 1060 1057
l 1061 1059
l 1062 1055
l 1063 1064
l 1064 1062
l 1056 1061
l 1065 1066
l 1067 1065
l 1068 1069
l 1070 1068
l 1071 1072
l 1073 1074
l 1074 1071
l 1072 1075
l 1069 1067
l 1075 1070
l 1058 1073
l 1076 1077
l 1078 1076
l 1079 1080
l 1081 1082
l 1080 1081
l 1077 1079
l 1083 1084
l 1085 1083
l 1082 1085
l 1086 1087
l 1088 1086
l 1087 1089
l 1090 1091
l 1092 1093
l 1091 1092
l 1089 1094
l 1095 1096
l 1094 1095
l 1096 1090
l 1093 1078
l 1097 1098
l 1099 1100
l 1098 1099
l 1100 1101
l 1102 1103
l 1101 1102
l 1104 1105
l 1106 1104
l 1105 1107
l 1103 1106
l 1108 1109
l 1110 1097
l 1111 1112
l 1112 1110
l 1109 1111
l 1113 1108
l 1114 1113
l 1115 1116
l 1116 1117
l 1117 1114
l 1118 1119
l 1120 1121
l 1121 1118
l 1119 1122
l 1123 1120
l 1124 1123
l 1125 1124
l 1126 1127
l 1128 1129
l 1129 1126
l 1130 1128
l 1127 1131
l 1132 1133
l 1134 1135
l 1136 1137
l 1137 1134
l 1135 1125
l 1133 1136
l 1131 1138
l 1138 1132
l 1139 1140
l 1141 1142
l 1140 1141
l 1142 1143
l 1144 1145
l 1143 1144
l 1146 1147
l 1148 1146
l 1147 1149
l 1145 1148
l 1150 1151
l 1152 1139
l 1153 1154
l 1154 1152
l 1151 1153
l 1155 1150
l 1156 1155
l 1157 1158
l 1158 1159
l 1159 1156
l 1160 1161
l 1162 1163
l 1164 1165
l 1166 1164
l 1165 1162
l 1163 1160
l 1167 1166
l 1168 1167
l 1169 1170
l 1171 1172
l 1173 1171
l 1172 1169
l 1174 1173
l 1170 1175
l 1176 1177
l 1177 1178
l 1179 1168
l 1180 1179
l 1178 1180
l 1175 1176
l 1181 1182
l 1183 1181
l 1184 1185
l 1186 1187
l 1185 1188
l 1182 1184
l 1187 1189
l 1190 1191
l 1192 1193
l 1189 1194
l 1194 1195
l 1195 1190
l 1193 1196
l 1191 1192
l 1197 1198
l 1199 1197
l 1198 1200
l 1201 1202
l 1203 1186
l 1202 1203
l 1204 1205
l 1205 1201
l 1188 1199
l 1196 1206
l 1206 1207
l 1208 1209
l 1210 1211
l 1207 1210
l 1212 1213
l 1214 1215
l 1213 1214
l 1209 1212
l 1216 1217
l 1218 1216
l 1217 1219
l 1220 1221
l 1222 1208
l 1221 1222
l 1223 1224
l 1224 1220
l 1211 1218
l 1215 1183
l 1225 1226
l 1227 1225
l 1228 1229
l 1230 1228
l 1226 1230
l 1231 1232
l 1229 1231
l 1233 1227
l 1234 1235
l 1232 1234
l 1236 1233
l 1237 1236
l 1238 1239
l 1240 1241
l 1239 1240
l 1241 1237
l 1242 1243
l 1244 1242
l 1245 1244
l 1243 1238
l 1246 1247
l 1248 1249
l 1249 1246
l 1247 1250
l 1251 1248
l 1252 1251
l 1253 1252
l 1254 1255
l 1256 1257
l 1257 1254
l 1258 1256
l 1255 1259
l 1260 1253
l 1261 1262
l 1263 1264
l 1264 1261
l 1262 1260
l 1265 1263
l 1259 1266
l 1266 1265
l 1267 1268
l 1269 1267
l 1270 1271
l 1272 1273
l 1271 1274
l 1268 1270
l 1273 1275
l 1276 1277
l 1278 1279
l 1275 1280
l 1280 1281
l 1281 1276
l 1279 1282
l 1277 1278
l 1283 1284
l 1285 1283
l 1284 1286
l 1287 1288
l 1289 1272
l 1288 1289
l 1290 1291
l 1291 1287
l 1274 1285
l 1282 1292
l 1292 1293
l 1294 1295
l 1296 1297
l 1293 1296
l 1298 1299
l 1300 1301
l 1299 1300
l 1295 1298
l 1302 1303
l 1304 1302
l 1303 1305
l 1306 1307
l 1308 1294
l 1307 1308
l 1309 1310
l 1310 1306
l 1297 1304
l 1301 1269
l 1311 1312
l 1313 1311
l 1314 1315
l 1316 1314
l 1312 1316
l 1317 1318
l 1315 1317
l 1319 1313
l 1320 1321
l 1318 1320
l 1322 1319
l 1323 1322
l 1324 1325
l 1326 1327
l 1325 1326
l 1327 1323
l 1328 1329
l 1330 1328
l 1331 1330
l 1329 1324
l 1332 1333
l 1334 1335
l 1335 1332
l 1333 1336
l 1337 1334
l 1338 1337
l 1339 1338
l 1340 1341
l 1342 1343
l 1343 1340
l 1344 1342
l 1341 1345
l 1346 1347
l 1348 1349
l 1350 1351
l 1351 1348
l 1349 1339
l 1347 1350
l 1345 1352
l 1352 1346
l 1353 1354
l 1355 1353
l 1356 1357
l 1357 1358
l 1354 1356
l 1359 1360
l 1361 1359
l 1360 1362
l 1358 1361
l 1363 1364
l 1365 1366
l 1367 1368
l 1366 1367
l 1364 1365
l 1369 1370
l 1371 1363
l 1370 1371
l 1372 1373
l 1373 1369
l 1368 1355
l 1374 1375
l 1376 1374
l 1377 1378
l 1379 1380
l 1378 1381
l 1375 1377
l 1380 1382
l 1383 1384
l 1385 1386
l 1382 1387
l 1387 1388
l 1388 1383
l 1386 1389
l 1384 1385
l 1390 1391
l 1392 1390
l 1391 1393
l 1394 1395
l 1396 1379
l 1395 1396
l 1397 1398
l 1398 1394
l 1381 1392
l 1389 1399
l 1399 1400
l 1401 1402
l 1403 1404
l 1400 1403
l 1405 1406
l 1407 1408
l 1406 1407
l 1402 1405
l 1409 1410
l 1411 1409
l 1410 1412
l 1413 1414
l 1415 1401
l 1414 1415
l 1416 1417
l 1417 1413
l 1404 1411
l 1408 1376
l 1418 1419
l 1420 1418
l 1421 1422
l 1423 1421
l 1419 1423
l 1424 1425
l 1422 1424
l 1426 1420
l 1427 1428
l 1425 1427
l 1429 1426
l 1430 1429
l 1431 1432
l 1433 1434
l 1432 1433
l 1434 1430
l 1435 1436
l 1437 1435
l 1438 1437
l 1436 1431
l 1439 1440
l 1441 1439
l 1442 1443
l 1444 1445
l 1443 1446
l 1440 1442
l 1445 1447
l 1448 1449
l 1450 1451
l 1447 1452
l 1452 1453
l 1453 1448
l 1451 1454
l 1449 1450
l 1455 1456
l 1457 1455
l 1456 1458
l 1459 1460
l 1461 1444
l 1460 1461
l 1462 1463
l 1463 1459
l 1446 1457
l 1454 1464
l 1464 1465
l 1466 1467
l 1468 1469
l 1465 1468
l 1470 1471
l 1472 1473
l 1471 1472
l 1467 1470
l 1474 1475
l 1476 1474
l 1475 1477
l 1478 1479
l 1480 1466
l 1479 1480
l 1481 1482
l 1482 1478
l 1469 1476
l 1473 1441
l 1483 1484
l 1484 1485
l 1485 1486
l 1486 1487
l 1487 1488
l 1489 1483
l 1490 1491
l 1492 1493
l 1491 1492
l 1488 1490
l 1494 1495
l 1496 1497
l 1497 1489
l 1495 1496
l 1498 1499
l 1500 1494
l 1499 1500
l 1501 1502
l 1503 1501
l 1502 1498
l 1504 1505
l 1506 1504
l 1507 1508
l 1508 1509
l 1505 1507
l 1510 1511
l 1512 1510
l 1511 1513
l 1509 1512
l 1514 1515
l 1516 1517
l 1518 1519
l 1517 1518
l 1515 1516
l 1520 1521
l 1522 1514
l 1521 1522
l 1523 1524
l 1524 1520
l 1519 1506
# </edges>
