v -2.1075094 20.002136 -0.18369444
v -1.8549904 20.002136 -1.1512864
l 1 2
v -2.123456 20.002136 -2.0287081e-16
v -2.0369707 20.002136 -0.99625312
l 3 4
v -2.0616133 20.002136 -0.35955703
v -1.6604818 20.002136 -1.2755775
l 5 6
v -1.776657 20.002136 -0.82192796
v -1.0572998 20.002136 -1.5165683
l 7 8
v -1.6461778 20.002136 -0.94792396
v -0.85888593 20.002136 -1.5645045
l 9 10
v -1.9886832 20.002136 -0.52609956
v -1.4598016 20.002136 -1.3747951
l 11 12
v -1.8916343 20.002136 -0.68183374
v -1.2572246 20.002136 -1.4548307
l 13 14
v -2.0616913 20.002136 0.35932636
v -2.3140296 20.002136 -0.6083127
l 15 16
v -2.1075387 20.002136 0.18351579
v -2.1939496 20.002136 -0.8127438
l 17 18
v -1.9887707 20.002136 0.52593219
v -2.3897304 20.002136 -0.39016353
l 19 20
v -1.7766447 20.002136 0.82194227
v -2.4110563 20.002136 0.048946813
l 21 22
v -1.8916343 20.002136 0.68183374
v -2.4204501 20.002136 -0.16690288
l 23 24
v -1.6461608 20.002136 0.94794017
v -2.3655252 20.002136 0.2533072
l 25 26
v -1.5032706 20.002136 1.0598439
v -2.2905707 20.002136 0.44327392
l 27 28
v -1.3510618 20.002136 -1.1576697
v -0.45036563 20.002136 -1.5921192
l 29 30
v -1.034234 20.002136 -1.3104911
v -0.08097275 20.002136 -1.6126382
l 31 32
v -1.5032837 20.002136 -1.0598338
v -0.66205236 20.002136 -1.600509
l 33 34
v -0.0021356237 20.002136 -1.5
v 0.99786422 20.002136 -1.4994418
l 35 36
v -0.6989159 20.002136 -1.416774
v 0.28511684 20.002136 -1.5947616
l 37 38
v -0.353028 20.002136 -1.4793367
v 0.64524261 20.002136 -1.5381226
l 39 40
v -1.3510618 20.002136 1.1576697
v -2.1922975 20.002136 0.61700105
l 41 42
v -1.0342339 20.002136 1.310491
v -1.9349303 20.002136 0.87604186
l 43 44
v -0.6989159 20.002136 1.416774
v -1.6521771 20.002136 1.1146265
l 45 46
v -0.35302809 20.002136 1.4793367
v -1.3370608 20.002136 1.3013491
l 47 48
v -0.0021356237 20.002136 1.5
v -1.0004062 20.002136 1.4412141
l 49 50
v 3.5527137e-15 20.002136 1.4999988
v -0.99999984 20.002136 1.500557
l 51 52
v 20.002136 -1.7631065e-15 -1.4999988
v 20.002136 -0.99999984 -1.500557
l 53 54
v 20.002136 -0.0021356237 -1.5
v 20.002136 -1.0004062 -1.4412141
l 55 56
v 20.002136 -0.35302809 -1.4793367
v 20.002136 -1.3370608 -1.3013491
l 57 58
v 20.002136 -0.6989159 -1.416774
v 20.002136 -1.6521771 -1.1146265
l 59 60
v 20.002136 -1.0342339 -1.310491
v 20.002136 -1.9349303 -0.87604186
l 61 62
v 20.002136 -1.3510618 -1.1576697
v 20.002136 -2.1922975 -0.61700105
l 63 64
v 20.002136 -0.35302809 1.4793367
v 20.002136 0.64524253 1.5381226
l 65 66
v 20.002136 -0.0021356237 1.5
v 20.002136 0.99786422 1.4994418
l 67 68
v 20.002136 -0.6989159 1.416774
v 20.002136 0.28511683 1.5947617
l 69 70
v 20.002136 -1.5032706 1.0598439
v 20.002136 -0.66203496 1.6005125
l 71 72
v 20.002136 -1.0342339 1.310491
v 20.002136 -0.080972759 1.6126385
l 73 74
v 20.002136 -1.3510618 1.1576697
v 20.002136 -0.45036544 1.5921188
l 75 76
v 20.002136 -1.5032706 -1.0598439
v 20.002136 -2.2905707 -0.44327392
l 77 78
v 20.002136 -1.6461608 -0.94794017
v 20.002136 -2.3655252 -0.2533072
l 79 80
v 20.002136 -1.7766447 -0.82194227
v 20.002136 -2.4110563 -0.048946813
l 81 82
v 20.002136 -1.8916343 -0.68183374
v 20.002136 -2.4204501 0.16690288
l 83 84
v 20.002136 -1.9887707 -0.52593219
v 20.002136 -2.3897304 0.39016353
l 85 86
v 20.002136 -2.0616913 -0.35932636
v 20.002136 -2.3140296 0.6083127
l 87 88
v 20.002136 -2.1075387 -0.18351579
v 20.002136 -2.1939496 0.8127438
l 89 90
v 20.002136 -1.8916343 0.68183374
v 20.002136 -1.2572228 1.4548292
l 91 92
v 20.002136 -1.7766447 0.82194227
v 20.002136 -1.0572804 1.5165752
l 93 94
v 20.002136 -1.6461608 0.94794017
v 20.002136 -0.85886073 1.5645101
l 95 96
v 20.002136 -2.1075387 0.18351579
v 20.002136 -1.8552003 1.1511549
l 97 98
v 20.002136 -1.9887707 0.52593219
v 20.002136 -1.4599549 1.3746688
l 99 100
v 20.002136 -2.0616913 0.35932636
v 20.002136 -1.6607316 1.2754221
l 101 102
v 20.002136 -2.123456 -9.1848507e-17
v 20.002136 -2.0370451 0.99625958
l 103 104
v 0.00053390634 -20.002136 -1.4999986
v -0.99946599 -20.002136 -1.5004451
l 105 106
v 0.0010678124 -20.002136 -1.4999982
v -0.99893196 -20.002136 -1.500668
l 107 108
v 0.0016017182 -20.002136 -1.4999976
v -0.99839766 -20.002136 -1.501114
l 109 110
v 0.0021356237 -20.002136 -1.4999969
v -0.99786348 -20.002136 -1.5013366
l 111 112
v 0.00053390622 -20.002136 1.4999986
v 1.0005337 -20.002136 1.4993287
l 113 114
v 0.0010678123 -20.002136 1.4999982
v 1.0010672 -20.002136 1.4988818
l 115 116
v 0 -20.002136 1.4999988
v 0.9999999 -20.002136 1.4995523
l 117 118
v 0.0016017181 -20.002136 1.4999976
v 1.0016008 -20.002136 1.4986579
l 119 120
v -2.0576067 -20.002136 -0.35879093
v -2.3095745 -20.002136 0.60894468
l 121 122
v -2.1033168 -20.002136 -0.18323168
v -2.1895943 -20.002136 0.81303946
l 123 124
v -2.1191847 -20.002136 -9.1848507e-17
v -2.0329072 -20.002136 0.99627114
l 125 126
v -1.0325092 -20.002136 -1.3094865
v -1.9327394 -20.002136 -0.8740723
l 127 128
v -1.9848956 -20.002136 -0.5251838
v -2.3853179 -20.002136 0.3911469
l 129 130
v -1.8880247 -20.002136 -0.68091631
v -2.4162113 -20.002136 0.16821202
l 131 132
v -1.3487135 -20.002136 -1.156548
v -2.1893953 -20.002136 -0.61501862
l 133 134
v -1.6431576 -20.002136 -0.94683951
v -2.3618775 -20.002136 -0.25153983
l 135 136
v -1.500594 -20.002136 -1.0587134
v -2.2872884 -20.002136 -0.44137075
l 137 138
v -1.7733269 -20.002136 -0.82091194
v -2.4070806 -20.002136 -0.047377079
l 139 140
v -0.35249025 -20.002136 -1.4788916
v -1.336304 -20.002136 -1.2996979
l 141 142
v -0.69779885 -20.002136 -1.4159964
v -1.6507154 -20.002136 -1.1127639
l 143 144
v -0.0021356237 -20.002136 -1.4999969
v -1.0003261 -20.002136 -1.4398661
l 145 146
v -1.9848956 -20.002136 0.5251838
v -1.456709 -20.002136 1.3743121
l 147 148
v -2.0576067 -20.002136 0.35879093
v -1.6571843 -20.002136 1.2751216
l 149 150
v -1.7733269 -20.002136 0.82091194
v -1.0546069 -20.002136 1.5162116
l 151 152
v -1.500594 -20.002136 1.0587134
v -0.65991221 -20.002136 1.6002428
l 153 154
v -1.6431576 -20.002136 0.94683951
v -0.85646325 -20.002136 1.5641822
l 155 156
v -1.8880247 -20.002136 0.68091631
v -1.2542709 -20.002136 1.4544512
l 157 158
v -1.0325092 -20.002136 1.3094865
v -0.079592619 -20.002136 1.6127191
l 159 160
v -1.3487135 -20.002136 1.156548
v -0.44848329 -20.002136 1.5919622
l 161 162
v -2.1033168 -20.002136 0.18323168
v -1.851349 -20.002136 1.1509673
l 163 164
v -0.35249025 -20.002136 1.4788916
v 0.64570026 -20.002136 1.5390224
l 165 166
v -0.69779885 -20.002136 1.4159964
v 0.28601495 -20.002136 1.5951902
l 167 168
v -0.0021356237 -20.002136 1.4999969
v 0.99786348 -20.002136 1.5013366
l 169 170
v -0.0010678124 -20.002136 1.4999982
v 0.99893196 -20.002136 1.500668
l 171 172
v -0.00053390634 -20.002136 1.4999986
v 0.99946599 -20.002136 1.5004451
l 173 174
v -0.0016017182 -20.002136 1.4999976
v 0.99839766 -20.002136 1.501114
l 175 176
v -1.7763568e-15 -20.002136 -1.4999988
v -0.9999999 -20.002136 -1.4995523
l 177 178
v -0.0016017181 -20.002136 -1.4999976
v -1.0016008 -20.002136 -1.4986579
l 179 180
v -0.0010678123 -20.002136 -1.4999982
v -1.0010672 -20.002136 -1.4988818
l 181 182
v -0.00053390622 -20.002136 -1.4999986
v -1.0005337 -20.002136 -1.4993287
l 183 184
v -20.002136 -2.0616913 -0.35932636
v -20.002136 -1.6607316 -1.2754221
l 185 186
v -20.002136 -2.123456 -3.1389313e-16
v -20.002136 -2.0370451 -0.99625958
l 187 188
v -20.002136 -2.1075387 -0.18351579
v -20.002136 -1.8552003 -1.1511549
l 189 190
v -20.002136 -1.7766447 -0.82194227
v -20.002136 -1.0572804 -1.5165752
l 191 192
v -20.002136 -1.6461608 -0.94794017
v -20.002136 -0.85886073 -1.5645101
l 193 194
v -20.002136 -1.9887707 -0.52593219
v -20.002136 -1.4599549 -1.3746688
l 195 196
v -20.002136 -1.8916343 -0.68183374
v -20.002136 -1.2572228 -1.4548292
l 197 198
v -20.002136 -2.0616913 0.35932636
v -20.002136 -2.3140296 -0.6083127
l 199 200
v -20.002136 -2.1075387 0.18351579
v -20.002136 -2.1939496 -0.8127438
l 201 202
v -20.002136 -1.9887707 0.52593219
v -20.002136 -2.3897304 -0.39016353
l 203 204
v -20.002136 -1.7766447 0.82194227
v -20.002136 -2.4110563 0.048946813
l 205 206
v -20.002136 -1.8916343 0.68183374
v -20.002136 -2.4204501 -0.16690288
l 207 208
v -20.002136 -1.6461608 0.94794017
v -20.002136 -2.3655252 0.2533072
l 209 210
v -20.002136 -1.5032706 1.0598439
v -20.002136 -2.2905707 0.44327392
l 211 212
v -20.002136 -1.3510618 -1.1576697
v -20.002136 -0.45036544 -1.5921188
l 213 214
v -20.002136 -1.0342339 -1.310491
v -20.002136 -0.080972759 -1.6126385
l 215 216
v -20.002136 -1.5032706 -1.0598439
v -20.002136 -0.66203496 -1.6005125
l 217 218
v -20.002136 -0.0021356237 -1.5
v -20.002136 0.99786422 -1.4994418
l 219 220
v -20.002136 -0.6989159 -1.416774
v -20.002136 0.28511683 -1.5947617
l 221 222
v -20.002136 -0.35302809 -1.4793367
v -20.002136 0.64524253 -1.5381226
l 223 224
v -20.002136 -1.3510618 1.1576697
v -20.002136 -2.1922975 0.61700105
l 225 226
v -20.002136 -1.0342339 1.310491
v -20.002136 -1.9349303 0.87604186
l 227 228
v -20.002136 -0.6989159 1.416774
v -20.002136 -1.6521771 1.1146265
l 229 230
v -20.002136 -0.35302809 1.4793367
v -20.002136 -1.3370608 1.3013491
l 231 232
v -20.002136 -5.3296639e-15 1.4999988
v -20.002136 -0.99999984 1.500557
l 233 234
v -20.002136 -0.0021356237 1.5
v -20.002136 -1.0004062 1.4412141
l 235 236
v 1.0325092 -20.002136 -1.3094865
v 0.079592619 -20.002136 -1.6127191
l 237 238
v 1.3487135 -20.002136 -1.156548
v 0.44848329 -20.002136 -1.5919622
l 239 240
v 0.35249025 -20.002136 -1.4788916
v -0.64570026 -20.002136 -1.5390224
l 241 242
v 0.69779885 -20.002136 -1.4159964
v -0.28601495 -20.002136 -1.5951902
l 243 244
v 1.500594 -20.002136 -1.0587134
v 0.65991221 -20.002136 -1.6002428
l 245 246
v 1.6431576 -20.002136 -0.94683951
v 0.85646325 -20.002136 -1.5641822
l 247 248
v 1.7733269 -20.002136 -0.82091194
v 1.0546069 -20.002136 -1.5162116
l 249 250
v 1.8880247 -20.002136 -0.68091631
v 1.2542709 -20.002136 -1.4544512
l 251 252
v 1.0325092 -20.002136 1.3094865
v 1.9327394 -20.002136 0.8740723
l 253 254
v 0.0021356237 -20.002136 1.4999969
v 1.0003261 -20.002136 1.4398661
l 255 256
v 0.35249025 -20.002136 1.4788916
v 1.336304 -20.002136 1.2996979
l 257 258
v 0.69779885 -20.002136 1.4159964
v 1.6507154 -20.002136 1.1127639
l 259 260
v 1.3487135 -20.002136 1.156548
v 2.1893953 -20.002136 0.61501862
l 261 262
v 1.9848956 -20.002136 -0.5251838
v 1.456709 -20.002136 -1.3743121
l 263 264
v 1.8880247 -20.002136 0.68091631
v 2.4162113 -20.002136 -0.16821202
l 265 266
v 2.1033168 -20.002136 -0.18323168
v 1.851349 -20.002136 -1.1509673
l 267 268
v 2.1033168 -20.002136 0.18323168
v 2.1895943 -20.002136 -0.81303946
l 269 270
v 2.0576067 -20.002136 0.35879093
v 2.3095745 -20.002136 -0.60894468
l 271 272
v 2.1191847 -20.002136 -2.0287081e-16
v 2.0329072 -20.002136 -0.99627114
l 273 274
v 2.0576067 -20.002136 -0.35879093
v 1.6571843 -20.002136 -1.2751216
l 275 276
v 1.9848956 -20.002136 0.5251838
v 2.3853179 -20.002136 -0.3911469
l 277 278
v 1.6431576 -20.002136 0.94683951
v 2.3618775 -20.002136 0.25153983
l 279 280
v 1.500594 -20.002136 1.0587134
v 2.2872884 -20.002136 0.44137075
l 281 282
v 1.7733269 -20.002136 0.82091194
v 2.4070806 -20.002136 0.047377079
l 283 284
v 3.5527137e-15 20.002136 -1.4999988
v 0.99999984 20.002136 -1.500557
l 285 286
v 0.35302809 20.002136 -1.4793367
v -0.64524512 19.996096 -1.5377672
l 287 288
v 0.0021356237 20.002136 -1.5
v 1.0004062 20.002136 -1.4412141
l 289 290
v 0.39526385 20 -1.473731
v -0.59479932 20.050076 -1.6051361
l 291 292
v 0.6989159 20.002136 -1.416774
v -0.28391975 19.995222 -1.6011277
l 293 294
v 0.35302809 20.002136 -1.4793367
v 1.3370608 20.002136 -1.3013491
l 295 296
v 0.78329217 20 -1.3939967
v 1.7321049 20.008077 -1.0782608
l 297 298
v 1.0342339 20.002136 -1.310491
v 1.9516379 19.986017 -0.91286039
l 299 300
v 0.78329217 20 -1.3939967
v -0.18186094 20.024436 -1.6545392
l 301 302
v 1.3510618 20.002136 -1.1576697
v 0.46128255 19.992401 -1.6139569
l 303 304
v 1.3327049 20 -1.1670355
v 2.2187188 20.103107 -0.71498649
l 305 306
v 1.3510618 20.002136 -1.1576697
v 2.1922975 20.002136 -0.61700105
l 307 308
v 0.78329217 20 1.3939967
v -0.18186094 20.024436 1.6545392
l 309 310
v 0.6989159 20.002136 1.416774
v -0.28391975 19.995222 1.6011277
l 311 312
v 0.78329217 20 1.3939967
v 1.7321049 20.008077 1.0782608
l 313 314
v 0.35302809 20.002136 1.4793367
v 1.3430913 19.95206 1.3479316
l 315 316
v 0.6989159 20.002136 1.416774
v -0.28511683 20.002136 1.5947617
l 317 318
v 0.0021356237 20.002136 1.5
v -0.99786422 20.002136 1.4994418
l 319 320
v 0 20 1.5
v 0.99827321 20.006041 1.4415696
l 321 322
v 0.35302809 20.002136 1.4793367
v -0.64524253 20.002136 1.5381226
l 323 324
v 1.6259682 20 0.96322507
v 2.4204772 20.084053 0.36181795
l 325 326
v 1.6461608 20.002136 0.94794017
v 0.85886073 20.002136 1.5645101
l 327 328
v 1.5032706 20.002136 1.0598439
v 0.66203496 20.002136 1.6005125
l 329 330
v 1.1558154 20 1.2577939
v 2.0455946 20.009735 0.80150663
l 331 332
v 1.0342339 20.002136 1.310491
v 1.9516379 19.986017 0.91286039
l 333 334
v 1.3327049 20 1.1670355
v 2.2187188 20.103107 0.71498649
l 335 336
v 1.6259682 20 -0.96322507
v 2.4204772 20.084053 -0.36181795
l 337 338
v 1.6461608 20.002136 -0.94794017
v 2.3660733 19.986247 -0.25405721
l 339 340
v 1.5032706 20.002136 -1.0598439
v 2.2905707 20.002136 -0.44327392
l 341 342
v 1.7766447 20.002136 -0.82194227
v 1.0598542 19.956694 -1.5177486
l 343 344
v 1.6461608 20.002136 -0.94794017
v 2.3655252 20.002136 -0.2533072
l 345 346
v 1.8485347 20 -0.73548853
v 1.2092784 20.018996 -1.5042477
l 347 348
v 1.8916343 20.002136 -0.68183374
v 1.2656843 19.971111 -1.4610796
l 349 350
v 1.7766447 20.002136 -0.82194227
v 2.4110563 20.002136 -0.048946813
l 351 352
v 1.8916343 20.002136 -0.68183374
v 2.4331627 19.978375 0.15851285
l 353 354
v 1.94032 20 -0.60628307
v 2.456563 20.022762 0.2498566
l 355 356
v 1.9887707 20.002136 -0.52593219
v 2.4101172 19.968956 0.38036038
l 357 358
v 1.8916343 20.002136 -0.68183374
v 2.4204501 20.002136 0.16690288
l 359 360
v 2.0616913 20.002136 -0.35932636
v 1.6721701 19.983965 -1.2801646
l 361 362
v 1.9887707 20.002136 -0.52593219
v 2.3897304 20.002136 0.39016353
l 363 364
v 2.0616913 20.002136 -0.35932636
v 2.3341504 19.95003 0.60142906
l 365 366
v 2.1075387 20.002136 -0.18351579
v 1.8612102 19.986962 -1.1525834
l 367 368
v 2.0616913 20.002136 -0.35932636
v 2.3140296 20.002136 0.6083127
l 369 370
v 2.1088045 20 -0.16389392
v 2.044807 20.108009 -1.1559819
l 371 372
v 2.123456 20.002136 -6.4696001e-16
v 2.0344221 19.989155 -0.995944
l 373 374
v 2.1075387 20.002136 -0.18351579
v 2.1939496 20.002136 0.8127438
l 375 376
v 1.8916343 20.002136 0.68183374
v 2.4331627 19.978375 -0.15851285
l 377 378
v 1.94032 20 0.60628307
v 2.456563 20.022762 -0.2498566
l 379 380
v 1.9887707 20.002136 0.52593219
v 1.4599549 20.002136 1.3746688
l 381 382
v 1.8916343 20.002136 0.68183374
v 1.2656843 19.971111 1.4610796
l 383 384
v 2.0158978 20 0.46758348
v 1.5945513 20.033181 1.373876
l 385 386
v 1.7429487 20 0.85465187
v 2.4597391 20.045442 0.15884555
l 387 388
v 1.6461608 20.002136 0.94794017
v 2.3660733 19.986247 0.25405721
l 389 390
v 1.7766447 20.002136 0.82194227
v 1.0572804 20.002136 1.5165752
l 391 392
v 1.7766447 20.002136 0.82194227
v 2.415901 19.983141 0.053183137
l 393 394
v 1.8916343 20.002136 0.68183374
v 1.2572228 20.002136 1.4548292
l 395 396
v 2.123456 20.002136 -6.4696001e-16
v 2.0344221 19.989155 0.995944
l 397 398
v 2.1075387 20.002136 0.18351579
v 2.1715362 19.894128 -0.80857215
l 399 400
v 2.123456 20.002136 -6.4696001e-16
v 2.0370451 20.002136 0.99625958
l 401 402
v 2.0158978 20 0.46758348
v 2.4054189 20.018171 -0.45325477
l 403 404
v 2.0616913 20.002136 0.35932636
v 1.6607316 20.002136 1.2754221
l 405 406
v 2.0728614 20 0.31993777
v 1.8004023 20.052106 1.2806932
l 407 408
v 2.0728614 20 0.31993777
v 2.3191899 20.015175 -0.64912984
l 409 410
v 2.1075387 20.002136 0.18351579
v 1.8552003 20.002136 1.1511549
l 411 412
v 20.002136 2.1075094 -0.18369444
v 20.002136 1.8549904 -1.1512864
l 413 414
v 20.002136 2.123456 -2.0287081e-16
v 20.002136 2.0369707 -0.99625312
l 415 416
v 20.002136 2.0616133 -0.35955703
v 20.002136 1.6604818 -1.2755775
l 417 418
v 20.002136 1.776657 -0.82192796
v 20.002136 1.0572998 -1.5165683
l 419 420
v 20.002136 1.6461778 -0.94792396
v 20.002136 0.85888593 -1.5645045
l 421 422
v 20.002136 1.9886832 -0.52609956
v 20.002136 1.4598016 -1.3747951
l 423 424
v 20.002136 1.8916343 -0.68183374
v 20.002136 1.2572246 -1.4548307
l 425 426
v 20.002136 2.0616913 0.35932636
v 20.002136 2.3140296 -0.6083127
l 427 428
v 20.002136 2.1075387 0.18351579
v 20.002136 2.1939496 -0.8127438
l 429 430
v 20.002136 1.9887707 0.52593219
v 20.002136 2.3897304 -0.39016353
l 431 432
v 20.002136 1.7766447 0.82194227
v 20.002136 2.4110563 0.048946813
l 433 434
v 20.002136 1.8916343 0.68183374
v 20.002136 2.4204501 -0.16690288
l 435 436
v 20.002136 1.6461608 0.94794017
v 20.002136 2.3655252 0.2533072
l 437 438
v 20.002136 1.5032706 1.0598439
v 20.002136 2.2905707 0.44327392
l 439 440
v 20.002136 1.3510618 -1.1576697
v 20.002136 0.45036563 -1.5921192
l 441 442
v 20.002136 1.034234 -1.3104911
v 20.002136 0.08097275 -1.6126382
l 443 444
v 20.002136 1.5032837 -1.0598338
v 20.002136 0.66205236 -1.600509
l 445 446
v 20.002136 0.0021356237 -1.5
v 20.002136 -0.99786422 -1.4994418
l 447 448
v 20.002136 0.6989159 -1.416774
v 20.002136 -0.28511684 -1.5947616
l 449 450
v 20.002136 0.353028 -1.4793367
v 20.002136 -0.64524261 -1.5381226
l 451 452
v 20.002136 1.3510618 1.1576697
v 20.002136 2.1922975 0.61700105
l 453 454
v 20.002136 1.0342339 1.310491
v 20.002136 1.9349303 0.87604186
l 455 456
v 20.002136 0.6989159 1.416774
v 20.002136 1.6521771 1.1146265
l 457 458
v 20.002136 0.35302809 1.4793367
v 20.002136 1.3370608 1.3013491
l 459 460
v 20.002136 -1.7769426e-15 1.4999988
v 20.002136 0.99999984 1.500557
l 461 462
v 20.002136 0.0021356237 1.5
v 20.002136 1.0004062 1.4412141
l 463 464
v -20.002136 -5.3263587e-15 -1.4999988
v -20.002136 0.99999984 -1.500557
l 465 466
v -20.002136 0.0021356237 -1.5
v -20.002136 1.0004062 -1.4412141
l 467 468
v -20.002136 0.35302809 -1.4793367
v -20.002136 1.3370608 -1.3013491
l 469 470
v -20.002136 0.6989159 -1.416774
v -20.002136 1.6521771 -1.1146265
l 471 472
v -20.002136 1.0342339 -1.310491
v -20.002136 1.9349303 -0.87604186
l 473 474
v -20.002136 1.3510618 -1.1576697
v -20.002136 2.1922975 -0.61700105
l 475 476
v -20.002136 0.35302809 1.4793367
v -20.002136 -0.64524253 1.5381226
l 477 478
v -20.002136 0.0021356237 1.5
v -20.002136 -0.99786422 1.4994418
l 479 480
v -20.002136 0.6989159 1.416774
v -20.002136 -0.28511683 1.5947617
l 481 482
v -20.002136 1.5032706 1.0598439
v -20.002136 0.66203496 1.6005125
l 483 484
v -20.002136 1.0342339 1.310491
v -20.002136 0.080972759 1.6126385
l 485 486
v -20.002136 1.3510618 1.1576697
v -20.002136 0.45036544 1.5921188
l 487 488
v -20.002136 1.5032706 -1.0598439
v -20.002136 2.2905707 -0.44327392
l 489 490
v -20.002136 1.6461608 -0.94794017
v -20.002136 2.3655252 -0.2533072
l 491 492
v -20.002136 1.7766447 -0.82194227
v -20.002136 2.4110563 -0.048946813
l 493 494
v -20.002136 1.8916343 -0.68183374
v -20.002136 2.4204501 0.16690288
l 495 496
v -20.002136 1.9887707 -0.52593219
v -20.002136 2.3897304 0.39016353
l 497 498
v -20.002136 2.0616913 -0.35932636
v -20.002136 2.3140296 0.6083127
l 499 500
v -20.002136 2.1075387 -0.18351579
v -20.002136 2.1939496 0.8127438
l 501 502
v -20.002136 1.8916343 0.68183374
v -20.002136 1.2572228 1.4548292
l 503 504
v -20.002136 1.7766447 0.82194227
v -20.002136 1.0572804 1.5165752
l 505 506
v -20.002136 1.6461608 0.94794017
v -20.002136 0.85886073 1.5645101
l 507 508
v -20.002136 2.1075387 0.18351579
v -20.002136 1.8552003 1.1511549
l 509 510
v -20.002136 1.9887707 0.52593219
v -20.002136 1.4599549 1.3746688
l 511 512
v -20.002136 2.0616913 0.35932636
v -20.002136 1.6607316 1.2754221
l 513 514
v -20.002136 2.123456 -2.5838197e-16
v -20.002136 2.0370451 0.99625958
l 515 516
v 10 102.05576 -0.37005267
v 10 101.6377 -1.278476
l 517 518
v 10 101.97006 -0.5562638
v 10 101.409 -1.3840367
l 519 520
v 10 101.84729 -0.73739761
v 10 101.16601 -1.4694192
l 521 522
v 10 102.11717 -0.094326638
v 10 101.9841 -1.0854334
l 523 524
v 10 102.10461 -0.18785922
v 10 101.8456 -1.1537319
l 525 526
v 10 102.12132 -1.8369701e-16
v 10 102.07736 -0.99903339
l 527 528
v 10 101.68851 -0.90799814
v 10 100.91073 -1.5365286
l 529 530
v 10 101.27726 -1.1976237
v 10 100.36929 -1.6166515
l 531 532
v 10 101.03623 -1.3088576
v 10 100.08834 -1.6274574
l 533 534
v 10 101.49684 -1.0628899
v 10 100.6445 -1.5858795
l 535 536
v 10 101.97006 0.5562638
v 10 102.38811 -0.35215952
l 537 538
v 10 101.84729 0.73739761
v 10 102.40835 -0.090375333
l 539 540
v 10 102.05576 0.37005267
v 10 102.31477 -0.59582005
l 541 542
v 10 101.68851 0.90799814
v 10 102.3698 0.17597653
l 543 544
v 10 101.49684 1.0628899
v 10 102.27463 0.43435944
l 545 546
v 10 101.27726 1.1976237
v 10 102.1296 0.67463419
l 547 548
v 10 102.10461 0.18785922
v 10 102.23768 -0.80324753
l 549 550
v 10 101.03623 1.3088576
v 10 101.94421 0.88982977
l 551 552
v 10 100.78111 1.3946096
v 10 101.72899 1.0760097
l 553 554
v 10 102.11717 0.094326638
v 10 102.16113 -0.90470676
l 555 556
v -11.688514 80 -0.90799814
v -10.910727 80 -1.5365267
l 557 558
v -11.49684 80 -1.0628899
v -10.644503 80 -1.5858844
l 559 560
v -12.055755 80 -0.37005267
v -11.637703 80 -1.278476
l 561 562
v -11.970061 80 -0.5562638
v -11.40901 80 -1.3840448
l 563 564
v -11.847293 80 -0.73739761
v -11.166003 80 -1.4694111
l 565 566
v -11.277261 80 -1.1976237
v -10.369289 80 -1.6166543
l 567 568
v -11.036235 80 -1.3088576
v -10.088345 80 -1.6274564
l 569 570
v -12.104614 80 -0.18785922
v -11.845592 80 -1.1537307
l 571 572
v -12.117174 80 0.094326638
v -12.161091 80 -0.90470853
l 573 574
v -12.121321 80 -1.8369701e-16
v -12.077403 80 -0.99903517
l 575 576
v -12.055755 80 0.37005267
v -12.314777 80 -0.59581879
l 577 578
v -11.970061 80 0.5562638
v -12.388113 80 -0.35215952
l 579 580
v -12.104614 80 0.18785922
v -12.237703 80 -0.80324487
l 581 582
v -12.117174 80 -0.094326638
v -11.984085 80 -1.0854307
l 583 584
v -11.847293 80 0.73739761
v -12.408344 80 -0.09038343
l 585 586
v -11.688514 80 0.90799814
v -12.369804 80 0.1759847
l 587 588
v -11.49684 80 1.0628899
v -12.274626 80 0.43436133
l 589 590
v -11.277261 80 1.1976237
v -12.129597 80 0.67462924
l 591 592
v -11.036235 80 1.3088576
v -11.944207 80 0.88982703
l 593 594
v -10.781107 80 1.3946096
v -11.728997 80 1.0760108
l 595 596
v 10 57.944244 -0.37005267
v 10 58.362296 -1.278476
l 597 598
v 10 58.029938 -0.5562638
v 10 58.590989 -1.3840448
l 599 600
v 10 58.152706 -0.73739761
v 10 58.833996 -1.4694111
l 601 602
v 10 57.882824 -0.094326638
v 10 58.015933 -1.0854281
l 603 604
v 10 57.895386 -0.18785922
v 10 58.154403 -1.1537319
l 605 606
v 10 57.878681 -1.8369701e-16
v 10 57.922558 -0.99903694
l 607 608
v 10 58.311485 -0.90799814
v 10 59.08927 -1.5365286
l 609 610
v 10 58.72274 -1.1976237
v 10 59.630711 -1.616657
l 611 612
v 10 58.963764 -1.3088576
v 10 59.911653 -1.6274574
l 613 614
v 10 58.503159 -1.0628899
v 10 59.355498 -1.5858795
l 615 616
v 10 58.029938 0.5562638
v 10 57.611886 -0.35215952
l 617 618
v 10 58.152706 0.73739761
v 10 57.591655 -0.09038343
l 619 620
v 10 57.944244 0.37005267
v 10 57.685227 -0.59582005
l 621 622
v 10 58.311485 0.90799814
v 10 57.630195 0.1759847
l 623 624
v 10 58.503159 1.0628899
v 10 57.725374 0.43435944
l 625 626
v 10 58.72274 1.1976237
v 10 57.870401 0.67463419
l 627 628
v 10 57.895386 0.18785922
v 10 57.762277 -0.8032422
l 629 630
v 10 58.963764 1.3088576
v 10 58.055793 0.8898243
l 631 632
v 10 59.218891 1.3946096
v 10 58.271002 1.0760097
l 633 634
v 10 57.882824 0.094326638
v 10 57.838947 -0.9047103
l 635 636
v 31.688515 80 -0.90799814
v 30.910727 80 -1.5365249
l 637 638
v 31.49684 80 -1.0628899
v 30.644502 80 -1.5858828
l 639 640
v 32.055756 80 -0.37005267
v 31.637696 80 -1.2784725
l 641 642
v 31.97006 80 -0.5562638
v 31.409009 80 -1.3840448
l 643 644
v 31.847292 80 -0.73739761
v 31.166006 80 -1.4694151
l 645 646
v 31.27726 80 -1.1976237
v 30.369289 80 -1.616657
l 647 648
v 31.036236 80 -1.3088576
v 30.088346 80 -1.6274553
l 649 650
v 32.104614 80 -0.18785922
v 31.845597 80 -1.1537319
l 651 652
v 32.117176 80 0.094326638
v 32.161053 80 -0.9047103
l 653 654
v 32.121319 80 -1.8369701e-16
v 32.077442 80 -0.99903694
l 655 656
v 32.055756 80 0.37005267
v 32.314773 80 -0.59582005
l 657 658
v 31.97006 80 0.5562638
v 32.38812 80 -0.35215599
l 659 660
v 32.104614 80 0.18785922
v 32.237723 80 -0.8032422
l 661 662
v 32.117176 80 -0.094326638
v 31.984067 80 -1.0854281
l 663 664
v 31.847292 80 0.73739761
v 32.408343 80 -0.09038343
l 665 666
v 31.688515 80 0.90799814
v 32.369801 80 0.17598062
l 667 668
v 31.49684 80 1.0628899
v 32.274628 80 0.43436322
l 669 670
v 31.27726 80 1.1976237
v 32.129597 80 0.67463089
l 671 672
v 31.036236 80 1.3088576
v 31.944207 80 0.8898243
l 673 674
v 30.781107 80 1.3946096
v 31.728997 80 1.0760118
l 675 676
v 18.72274 -8.3001512e-15 -1.1976237
v 17.870403 -7.5096201e-15 -0.67463089
l 677 678
v 19.218893 -2.8596197e-15 -1.3946096
v 18.271003 -2.3156201e-14 -1.0760118
l 679 680
v 18.963764 -8.3225358e-15 -1.3088576
v 18.055793 -8.2382101e-15 -0.8898243
l 681 682
v 20 1.3489262 -1.1576697
v 20 0.4482298 -1.5921188
l 683 684
v 20 1.6440252 -0.94794017
v 20 0.8567251 -1.5645101
l 685 686
v 20 1.501135 -1.0598439
v 20 0.65989932 -1.6005125
l 687 688
v 20 1.0320983 -1.310491
v 20 0.078837125 -1.6126385
l 689 690
v 18.50316 -8.096494e-15 -1.0628899
v 17.725372 2.7499999e-14 -0.43436322
l 691 692
v 17.895386 -2.4452416e-15 -0.18785922
v 17.762297 2.4571336e-15 0.80324487
l 693 694
v 17.944246 -3.0142919e-15 -0.37005267
v 17.68522 2.4396512e-18 0.59581752
l 695 696
v 17.882826 -1.9825941e-15 -0.094326638
v 17.838909 -1.3026744e-14 0.90470853
l 697 698
v 20 1.7745091 -0.82194227
v 20 1.0551447 -1.5165752
l 699 700
v 20 1.8894987 -0.68183374
v 20 1.2550872 -1.4548292
l 701 702
v 18.152708 2.7681189e-15 -0.73739761
v 17.591657 -3.2324787e-15 0.09038343
l 703 704
v 18.311485 6.7577363e-16 -0.90799814
v 17.630199 9.6536672e-15 -0.17598062
l 705 706
v 18.02994 1.4550771e-15 -0.5562638
v 17.611888 -2.0348555e-14 0.35215952
l 707 708
v 20 1.9866351 -0.52593219
v 20 1.4578193 -1.3746688
l 709 710
v 20 1.501135 1.0598439
v 20 2.2884351 0.44327392
l 711 712
v 20 1.0320983 1.310491
v 20 1.9327947 0.87604186
l 713 714
v 20 1.3489262 1.1576697
v 20 2.1901619 0.61700105
l 715 716
v 20 0.69678026 1.416774
v 20 1.6500414 1.1146265
l 717 718
v 18.50316 -2.9950613e-15 1.0628899
v 19.355498 -4.1749053e-15 1.5858828
l 719 720
v 18.72274 -3.2990135e-15 1.1976237
v 19.630711 -3.1620741e-15 1.616657
l 721 722
v 18.963764 -3.2626625e-15 1.3088576
v 19.911654 -1.5407132e-15 1.6274553
l 723 724
v 20 1.6440252 0.94794017
v 20 2.3633895 0.2533072
l 725 726
v 20 1.9866351 0.52593219
v 20 2.3875942 -0.39016377
l 727 728
v 20 2.1054029 -0.18351579
v 20 1.8530646 -1.1511549
l 729 730
v 20 2.1054029 0.18351579
v 20 2.1918138 -0.8127438
l 731 732
v 20 2.1213202 -1.8369701e-16
v 20 2.0349094 -0.99625958
l 733 734
v 20 2.0595555 -0.35932636
v 20 1.6585964 -1.2754223
l 735 736
v 20 2.0595555 0.35932636
v 20 2.3118939 -0.6083127
l 737 738
v 20 1.7745091 0.82194227
v 20 2.4089206 0.048946813
l 739 740
v 18.152708 -2.1884606e-15 0.73739761
v 18.833994 -3.3139934e-14 1.4694151
l 741 742
v 20 1.8894987 0.68183374
v 20 2.4183145 -0.16690288
l 743 744
v 18.311485 -9.4018641e-15 0.90799814
v 19.089273 1.6595942e-14 1.5365249
l 745 746
v 18.02994 -3.394432e-15 0.5562638
v 18.590991 2.1168543e-15 1.3840448
l 747 748
v 17.882826 -6.9548758e-16 0.094326638
v 18.015915 -2.222491e-14 1.0854307
l 749 750
v 17.944246 -8.280722e-15 0.37005267
v 18.362298 1.5556841e-14 1.278476
l 751 752
v 17.895386 -2.7272646e-15 0.18785922
v 18.154412 -3.2168055e-14 1.1537294
l 753 754
v 17.878679 -3.0253577e-15 -1.8369701e-16
v 17.922597 2.1650834e-14 0.99903517
l 755 756
v 0 17.895386 -0.18785922
v 0 18.154412 -1.1537294
l 757 758
v 0 17.882826 -0.094326638
v 0 18.015915 -1.0854307
l 759 760
v 0 18.02994 -0.5562638
v 0 18.590991 -1.3840448
l 761 762
v 1.7429487 20 -0.85465187
v 2.4061295 20 -0.10619272
l 763 764
v 0 18.152708 -0.73739761
v 0 18.833994 -1.4694151
l 765 766
v 0 17.944246 -0.37005267
v 0 18.362298 -1.278476
l 767 768
v 1.8485347 20 -0.73548853
v 2.427664 20 0.079747198
l 769 770
v 2.1088045 20 -0.16389392
v 2.1849479 20 0.83320295
l 771 772
v 2.1088045 20 0.16389392
v 1.8843427 20 1.1383768
l 773 774
v 1.94032 20 -0.60628307
v 2.4187984 20 0.27181625
l 775 776
v 2.0158978 20 -0.46758348
v 2.3758502 20 0.46538715
l 777 778
v 2.0728614 20 -0.31993777
v 2.2973232 20 0.65454514
l 779 780
v 2.0728614 20 0.31993777
v 1.7129089 20 1.2529084
l 781 782
v 2.1213202 20 -1.8369701e-16
v 2.0451768 20 0.99709687
l 783 784
v -1.1379834e-15 18.72274 -1.1976237
v -1.4646111e-14 19.630711 -1.616657
l 785 786
v 0 18.50316 -1.0628899
v -4.4172819e-15 19.355498 -1.5858828
l 787 788
v -4.7237626e-15 18.963764 -1.3088576
v 5.0630062e-15 19.911654 -1.6274553
l 789 790
v 1.3327049 20 -1.1670355
v 2.1765609 20 -0.63046582
l 791 792
v 1.6259682 20 -0.96322507
v 2.3589226 20 -0.28294723
l 793 794
v 1.5 20 -1.0606601
v 2.2909933 20 -0.44883533
l 795 796
v 0.39526385 20 -1.473731
v 1.3747975 20 -1.2724507
l 797 798
v 0.78329217 20 -1.3939967
v 1.7224851 20 -1.0506068
l 799 800
v 0 20 -1.5
v 0.99779887 20 -1.433687
l 801 802
v 0 18.311485 -0.90799814
v 0 19.089273 -1.5365249
l 803 804
v 2.0158978 20 0.46758348
v 1.5374193 20 1.3456828
l 805 806
v 1.94032 20 0.60628307
v 1.3611908 20 1.4215188
l 807 808
v -8.153789e-15 18.152708 0.73739761
v 4.2297055e-14 17.591657 -0.09038343
l 809 810
v 1.7429487 20 0.85465187
v 1.0099943 20 1.5349297
l 811 812
v 1.8485347 20 0.73548853
v 1.1853538 20 1.4839477
l 813 814
v 2.1681212e-15 17.944246 0.37005267
v -7.8890914e-15 17.68522 -0.59581752
l 815 816
v 3.3876894e-17 17.882826 0.094326638
v -3.249211e-16 17.838909 -0.90470853
l 817 818
v 2.7101515e-16 17.895386 0.18785922
v -2.2417851e-15 17.762297 -0.80324487
l 819 820
v 2.8857892e-15 18.02994 0.5562638
v -6.1532413e-16 17.611888 -0.35215952
l 821 822
v 1.5 20 1.0606601
v 0.65614396 20 1.5972298
l 823 824
v 0.78329217 20 1.3939967
v -0.19624151 20 1.595277
l 825 826
v 0.39526385 20 1.473731
v -0.60253502 20 1.5400441
l 827 828
v 1.1558154 20 1.2577939
v 0.21662244 20 1.6011838
l 829 830
v -1.2439201e-15 18.72274 1.1976237
v -1.4751277e-14 17.870403 0.67463089
l 831 832
v -3.6694204e-15 18.311485 0.90799814
v -2.2911074e-14 17.630199 0.17598062
l 833 834
v -4.7236952e-15 18.50316 1.0628899
v -4.4561256e-16 17.725372 0.43436322
l 835 836
v -5.0158174e-15 19.218893 1.3946096
v 9.286425e-15 18.271003 1.0760118
l 837 838
v -1.1663045e-15 18.963764 1.3088576
v -1.458693e-15 18.055793 0.8898243
l 839 840
v 1.6259682 20 0.96322507
v 0.8349749 20 1.5750499
l 841 842
v 0 17.878679 -1.8369701e-16
v 0 17.922597 -0.99903517
l 843 844
v -1.3489262 20 -1.1576697
v -0.4482298 20 -1.5921188
l 845 846
v -1.501135 20 -1.0598439
v -0.65989932 20 -1.6005125
l 847 848
v -1.0320983 20 -1.310491
v -0.078837125 20 -1.6126385
l 849 850
v -1.6440252 20 -0.94794017
v -0.8567251 20 -1.5645101
l 851 852
v -2.1213202 20 -1.8369701e-16
v -2.0349094 20 -0.99625958
l 853 854
v -1.7745091 20 -0.82194227
v -1.0551447 20 -1.5165752
l 855 856
v -1.8894987 20 -0.68183374
v -1.2550872 20 -1.4548292
l 857 858
v -2.0595555 20 -0.35932636
v -1.6585964 20 -1.2754223
l 859 860
v -1.9866351 20 -0.52593219
v -1.4578193 20 -1.3746688
l 861 862
v -2.1054029 20 -0.18351579
v -1.8530646 20 -1.1511549
l 863 864
v -1.3489262 20 1.1576697
v -2.1901619 20 0.61700105
l 865 866
v -1.0320983 20 1.310491
v -1.9327947 20 0.87604186
l 867 868
v -0.69678026 20 1.416774
v -1.6500414 20 1.1146265
l 869 870
v -1.7745091 20 0.82194227
v -2.4089206 20 0.048946813
l 871 872
v -1.6440252 20 0.94794017
v -2.3633895 20 0.2533072
l 873 874
v -2.0595555 20 0.35932636
v -2.3118939 20 -0.6083127
l 875 876
v -1.9866351 20 0.52593219
v -2.3875942 20 -0.39016377
l 877 878
v -1.8894987 20 0.68183374
v -2.4183145 20 -0.16690288
l 879 880
v -2.1054029 20 0.18351579
v -2.1918138 20 -0.8127438
l 881 882
v -1.501135 20 1.0598439
v -2.2884351 20 0.44327392
l 883 884
v -17.895386 1.9619085e-15 -0.18785922
v -18.154412 -1.121535e-14 -1.1537294
l 885 886
v -17.882826 1.0340167e-15 -0.094326638
v -18.015915 1.0866284e-14 -1.0854307
l 887 888
v -18.152708 -1.7080063e-15 -0.73739761
v -18.833994 1.1520327e-14 -1.4694151
l 889 890
v -18.02994 -1.69061e-15 -0.5562638
v -18.590991 -1.7701108e-15 -1.3840448
l 891 892
v -17.944246 -5.2373614e-16 -0.37005267
v -18.362298 -6.2162819e-15 -1.278476
l 893 894
v -20 2.0595555 -0.35932636
v -20 2.3118939 0.6083127
l 895 896
v -20 1.9866351 -0.52593219
v -20 2.3875942 0.39016377
l 897 898
v -20 1.7745091 -0.82194227
v -20 2.4089206 -0.048946813
l 899 900
v -20 1.8894987 -0.68183374
v -20 2.4183145 0.16690288
l 901 902
v -20 1.6440252 -0.94794017
v -20 2.3633895 -0.2533072
l 903 904
v -18.311485 1.3749263e-15 -0.90799814
v -19.089273 -7.4832903e-15 -1.5365249
l 905 906
v -20 2.1054029 -0.18351579
v -20 2.1918138 0.8127438
l 907 908
v -18.963764 2.5963881e-16 -1.3088576
v -19.911654 -1.5954035e-14 -1.6274553
l 909 910
v -18.72274 2.378315e-15 -1.1976237
v -19.630711 -5.6030319e-15 -1.616657
l 911 912
v -20 1.501135 -1.0598439
v -20 2.2884351 -0.44327392
l 913 914
v -20 1.3489262 -1.1576697
v -20 2.1901619 -0.61700105
l 915 916
v -20 0.69678026 -1.416774
v -20 1.6500414 -1.1146265
l 917 918
v -20 1.0320983 -1.310491
v -20 1.9327947 -0.87604186
l 919 920
v -18.50316 -8.0805969e-16 -1.0628899
v -19.355498 1.1560412e-14 -1.5858828
l 921 922
v -20 2.0595555 0.35932636
v -20 1.6585964 1.2754223
l 923 924
v -20 2.1054029 0.18351579
v -20 1.8530646 1.1511549
l 925 926
v -20 1.7745091 0.82194227
v -20 1.0551447 1.5165752
l 927 928
v -20 1.8894987 0.68183374
v -20 1.2550872 1.4548292
l 929 930
v -20 1.9866351 0.52593219
v -20 1.4578193 1.3746688
l 931 932
v -17.882826 -1.7099716e-15 0.094326638
v -17.838909 -1.8875152e-14 -0.90470853
l 933 934
v -17.895386 -1.8266293e-15 0.18785922
v -17.762297 -5.9048318e-16 -0.80324487
l 935 936
v -18.311485 1.2969902e-15 0.90799814
v -17.630199 -1.1627129e-14 0.17598062
l 937 938
v -18.02994 -1.7106594e-15 0.5562638
v -17.611888 -8.4766674e-15 -0.35215952
l 939 940
v -18.152708 -1.7150437e-15 0.73739761
v -17.591657 -1.6950073e-15 -0.09038343
l 941 942
v -17.944246 -3.0975745e-15 0.37005267
v -17.68522 3.6401437e-15 -0.59581752
l 943 944
v -20 1.6440252 0.94794017
v -20 0.8567251 1.5645101
l 945 946
v -20 2.1213202 -1.8369701e-16
v -20 2.0349094 0.99625958
l 947 948
v -20 1.3489262 1.1576697
v -20 0.4482298 1.5921188
l 949 950
v -20 1.501135 1.0598439
v -20 0.65989932 1.6005125
l 951 952
v -20 1.0320983 1.310491
v -20 0.078837125 1.6126385
l 953 954
v -18.72274 4.8418813e-15 1.1976237
v -17.870403 -1.7023617e-14 0.67463089
l 955 956
v -18.963764 -2.3601629e-15 1.3088576
v -18.055793 2.4770936e-14 0.8898243
l 957 958
v -19.218893 -2.8082719e-15 1.3946096
v -18.271003 -1.1433953e-15 1.0760118
l 959 960
v -18.50316 -7.9112433e-16 1.0628899
v -17.725372 7.6821186e-15 0.43436322
l 961 962
v -17.878679 -3.3306691e-15 0
v -17.922597 4.2896725e-14 -0.99903517
l 963 964
v 20 -1.3489262 -1.1576697
v 20 -0.4482298 -1.5921188
l 965 966
v 20 -1.501135 -1.0598439
v 20 -0.65989932 -1.6005125
l 967 968
v 20 -1.0320983 -1.310491
v 20 -0.078837125 -1.6126385
l 969 970
v 20 -1.3489262 1.1576697
v 20 -2.1901619 0.61700105
l 971 972
v 20 -1.501135 1.0598439
v 20 -2.2884351 0.44327392
l 973 974
v 20 -0.69678026 1.416774
v 20 -1.6500414 1.1146265
l 975 976
v 20 -1.0320983 1.310491
v 20 -1.9327947 0.87604186
l 977 978
v 20 -1.6440252 -0.94794017
v 20 -0.8567251 -1.5645101
l 979 980
v 20 -1.7745091 -0.82194227
v 20 -1.0551447 -1.5165752
l 981 982
v 20 -1.9866351 -0.52593219
v 20 -1.4578193 -1.3746688
l 983 984
v 20 -1.8894987 -0.68183374
v 20 -1.2550872 -1.4548292
l 985 986
v 20 -2.0595555 -0.35932636
v 20 -1.6585964 -1.2754223
l 987 988
v 20 -2.1213202 -1.8369701e-16
v 20 -2.0349094 -0.99625958
l 989 990
v 20 -2.1054029 -0.18351579
v 20 -1.8530646 -1.1511549
l 991 992
v 20 -1.7745091 0.82194227
v 20 -2.4089206 0.048946813
l 993 994
v 20 -1.8894987 0.68183374
v 20 -2.4183145 -0.16690288
l 995 996
v 20 -1.6440252 0.94794017
v 20 -2.3633895 0.2533072
l 997 998
v 20 -2.1054029 0.18351579
v 20 -2.1918138 -0.8127438
l 999 1000
v 20 -1.9866351 0.52593219
v 20 -2.3875942 -0.39016377
l 1001 1002
v 20 -2.0595555 0.35932636
v 20 -2.3118939 -0.6083127
l 1003 1004
v -20 -1.0320983 -1.310491
v -20 -0.078837125 -1.6126385
l 1005 1006
v -20 -1.501135 -1.0598439
v -20 -0.65989932 -1.6005125
l 1007 1008
v -20 -1.7745091 -0.82194227
v -20 -1.0551447 -1.5165752
l 1009 1010
v -20 -1.6440252 -0.94794017
v -20 -0.8567251 -1.5645101
l 1011 1012
v -20 -1.3489262 -1.1576697
v -20 -0.4482298 -1.5921188
l 1013 1014
v 0 -17.878679 0
v -7.1598604e-14 -17.922597 -0.99903517
l 1015 1016
v -6.760178e-15 -17.882826 -0.094326638
v -1.6681421e-14 -18.015915 -1.0854307
l 1017 1018
v -20 -1.9866351 -0.52593219
v -20 -1.4578193 -1.3746688
l 1019 1020
v -20 -2.1054029 -0.18351579
v -20 -1.8530646 -1.1511549
l 1021 1022
v -20 -2.1213202 -1.8369701e-16
v -20 -2.0349094 -0.99625958
l 1023 1024
v -20 -2.0595555 -0.35932636
v -20 -1.6585964 -1.2754223
l 1025 1026
v -20 -1.8894987 -0.68183374
v -20 -1.2550872 -1.4548292
l 1027 1028
v -7.6964666e-15 -17.895386 -0.18785922
v 1.2273055e-14 -18.154412 -1.1537294
l 1029 1030
v -20 -1.501135 1.0598439
v -20 -2.2884351 0.44327392
l 1031 1032
v -20 -1.0320983 1.310491
v -20 -1.9327947 0.87604186
l 1033 1034
v -20 -1.3489262 1.1576697
v -20 -2.1901619 0.61700105
l 1035 1036
v -20 -0.69678026 1.416774
v -20 -1.6500414 1.1146265
l 1037 1038
v -20 -1.6440252 0.94794017
v -20 -2.3633895 0.2533072
l 1039 1040
v -20 -1.7745091 0.82194227
v -20 -2.4089206 0.048946813
l 1041 1042
v -20 -1.8894987 0.68183374
v -20 -2.4183145 -0.16690288
l 1043 1044
v -20 -2.1054029 0.18351579
v -20 -2.1918138 -0.8127438
l 1045 1046
v -20 -2.0595555 0.35932636
v -20 -2.3118939 -0.6083127
l 1047 1048
v -20 -1.9866351 0.52593219
v -20 -2.3875942 -0.39016377
l 1049 1050
v 9.4005334e-15 -17.944246 0.37005267
v -3.4999433e-14 -17.68522 -0.59581752
l 1051 1052
v -1.9076785e-15 -17.882826 0.094326638
v 1.8296984e-14 -17.838909 -0.90470853
l 1053 1054
v 1.0253057e-15 -17.895386 0.18785922
v -3.0053625e-14 -17.762297 -0.80324487
l 1055 1056
v -6.0272421e-15 -18.152708 -0.73739761
v 9.6195304e-15 -18.833994 -1.4694151
l 1057 1058
v -6.103265e-15 -18.02994 -0.5562638
v -5.7558405e-15 -18.590991 -1.3840448
l 1059 1060
v -4.7236952e-15 -18.50316 -1.0628899
v 8.7836618e-15 -19.355498 -1.5858828
l 1061 1062
v -1.2439201e-15 -18.72274 -1.1976237
v -5.3451625e-15 -19.630711 -1.616657
l 1063 1064
v -2.3806795e-15 -18.311485 -0.90799814
v -1.1888272e-14 -19.089273 -1.5365249
l 1065 1066
v -2.3326091e-15 -18.963764 -1.3088576
v -2.422141e-14 -19.911654 -1.6274553
l 1067 1068
v -2.3440684e-15 -18.311485 0.90799814
v 2.8949477e-14 -17.630199 0.17598062
l 1069 1070
v 8.1075902e-15 -18.02994 0.5562638
v 1.441516e-14 -17.611888 -0.35215952
l 1071 1072
v 4.9490568e-15 -18.152708 0.73739761
v 1.9383546e-14 -17.591657 -0.09038343
l 1073 1074
v -2.3816648e-15 -18.963764 1.3088576
v -6.5177529e-15 -18.055793 0.8898243
l 1075 1076
v -3.4796037e-15 -18.72274 1.1976237
v 1.9117827e-14 -17.870403 0.67463089
l 1077 1078
v 2.3419629e-15 -18.50316 1.0628899
v -1.6673221e-14 -17.725372 0.43436322
l 1079 1080
v -5.0158174e-15 -19.218893 1.3946096
v 4.7709506e-15 -18.271003 1.0760118
l 1081 1082
v -3.9295879e-15 -17.944246 -0.37005267
v -1.4533782e-14 -18.362298 -1.278476
l 1083 1084
v 10 97.878677 0
v 10 97.922635 -0.99903339
l 1085 1086
v 10 97.882828 -0.094326638
v 10 98.015897 -1.0854334
l 1087 1088
v 10 97.944244 -0.37005267
v 10 98.362296 -1.278476
l 1089 1090
v 10 98.311485 -0.90799814
v 10 99.08927 -1.5365286
l 1091 1092
v 10 97.895386 -0.18785922
v 10 98.154403 -1.1537319
l 1093 1094
v 10 98.029938 0.5562638
v 10 97.611886 -0.35215952
l 1095 1096
v 10 97.895386 0.18785922
v 10 97.762317 -0.80324753
l 1097 1098
v 10 97.882828 0.094326638
v 10 97.83887 -0.90470676
l 1099 1100
v 10 97.944244 0.37005267
v 10 97.685227 -0.59582005
l 1101 1102
v 10 98.15271 -0.73739761
v 10 98.833991 -1.4694192
l 1103 1104
v 10 98.029938 -0.5562638
v 10 98.591001 -1.3840367
l 1105 1106
v 10 98.503159 -1.0628899
v 10 99.355498 -1.5858795
l 1107 1108
v 10 98.963768 -1.3088576
v 10 99.911657 -1.6274574
l 1109 1110
v 10 98.72274 -1.1976237
v 10 99.630714 -1.6166515
l 1111 1112
v 10 98.15271 0.73739761
v 10 97.591647 -0.090375333
l 1113 1114
v 10 98.963768 1.3088576
v 10 98.055795 0.88982977
l 1115 1116
v 10 98.311485 0.90799814
v 10 97.630204 0.17597653
l 1117 1118
v 10 98.503159 1.0628899
v 10 97.725374 0.43435944
l 1119 1120
v 10 98.72274 1.1976237
v 10 97.870401 0.67463419
l 1121 1122
v 10 99.218895 1.3946096
v 10 98.271006 1.0760097
l 1123 1124
v -7.8953862 80 -0.18785922
v -8.1544081 80 -1.1537307
l 1125 1126
v -7.8828259 80 -0.094326638
v -8.0159198 80 -1.0854301
l 1127 1128
v -8.0299387 80 -0.5562638
v -8.59099 80 -1.3840448
l 1129 1130
v -8.3114862 80 -0.90799814
v -9.0892727 80 -1.5365267
l 1131 1132
v -8.1527071 80 -0.73739761
v -8.8339973 80 -1.4694111
l 1133 1134
v -7.9442458 80 -0.37005267
v -8.3622954 80 -1.2784769
l 1135 1136
v -8.9637651 80 -1.3088576
v -9.9116548 80 -1.6274564
l 1137 1138
v -8.7227392 80 -1.1976237
v -9.6307114 80 -1.6166543
l 1139 1140
v -8.5031605 80 -1.0628899
v -9.3554965 80 -1.5858844
l 1141 1142
v -8.9637651 80 1.3088576
v -8.055793 80 0.88982703
l 1143 1144
v -9.2188931 80 1.3946096
v -8.2710034 80 1.0760108
l 1145 1146
v -8.7227392 80 1.1976237
v -7.8704032 80 0.67462924
l 1147 1148
v -7.9442458 80 0.37005267
v -7.6852239 80 -0.59581879
l 1149 1150
v -7.8828259 80 0.094326638
v -7.8389136 80 -0.90470875
l 1151 1152
v -7.8953862 80 0.18785922
v -7.7622922 80 -0.8032442
l 1153 1154
v -8.5031605 80 1.0628899
v -7.725374 80 0.43436133
l 1155 1156
v -8.1527071 80 0.73739761
v -7.5916558 80 -0.09038343
l 1157 1158
v -8.3114862 80 0.90799814
v -7.6301961 80 0.1759847
l 1159 1160
v -8.0299387 80 0.5562638
v -7.6118891 80 -0.35216041
l 1161 1162
v -7.8786798 80 0
v -7.9225921 80 -0.99903539
l 1163 1164
v 10 62.104614 -0.18785922
v 10 61.845597 -1.1537319
l 1165 1166
v 10 62.117176 -0.094326638
v 10 61.984067 -1.0854281
l 1167 1168
v 10 61.970062 -0.5562638
v 10 61.409011 -1.3840448
l 1169 1170
v 10 61.688515 -0.90799814
v 10 60.91073 -1.5365286
l 1171 1172
v 10 61.847294 -0.73739761
v 10 61.166004 -1.4694111
l 1173 1174
v 10 62.055756 -0.37005267
v 10 61.637704 -1.278476
l 1175 1176
v 10 61.036236 -1.3088576
v 10 60.088347 -1.6274574
l 1177 1178
v 10 61.27726 -1.1976237
v 10 60.369289 -1.616657
l 1179 1180
v 10 61.496841 -1.0628899
v 10 60.644502 -1.5858795
l 1181 1182
v 10 61.036236 1.3088576
v 10 61.944207 0.8898243
l 1183 1184
v 10 60.781109 1.3946096
v 10 61.728998 1.0760097
l 1185 1186
v 10 61.27726 1.1976237
v 10 62.129599 0.67463419
l 1187 1188
v 10 62.055756 0.37005267
v 10 62.314773 -0.59582005
l 1189 1190
v 10 62.117176 0.094326638
v 10 62.161053 -0.9047103
l 1191 1192
v 10 62.104614 0.18785922
v 10 62.237723 -0.8032422
l 1193 1194
v 10 61.496841 1.0628899
v 10 62.274626 0.43435944
l 1195 1196
v 10 61.847294 0.73739761
v 10 62.408345 -0.09038343
l 1197 1198
v 10 61.688515 0.90799814
v 10 62.369805 0.1759847
l 1199 1200
v 10 61.970062 0.5562638
v 10 62.388114 -0.35215952
l 1201 1202
v 10 62.121319 0
v 10 62.077442 -0.99903694
l 1203 1204
v 27.895386 80 -0.18785922
v 28.154412 80 -1.1537294
l 1205 1206
v 27.882826 80 -0.094326638
v 28.015915 80 -1.0854307
l 1207 1208
v 28.02994 80 -0.5562638
v 28.590991 80 -1.3840448
l 1209 1210
v 28.311485 80 -0.90799814
v 29.089273 80 -1.5365249
l 1211 1212
v 28.152708 80 -0.73739761
v 28.833994 80 -1.4694151
l 1213 1214
v 27.944246 80 -0.37005267
v 28.362298 80 -1.278476
l 1215 1216
v 28.963764 80 -1.3088576
v 29.911654 80 -1.6274553
l 1217 1218
v 28.72274 80 -1.1976237
v 29.630711 80 -1.616657
l 1219 1220
v 28.50316 80 -1.0628899
v 29.355498 80 -1.5858828
l 1221 1222
v 28.963764 80 1.3088576
v 28.055793 80 0.8898243
l 1223 1224
v 29.218893 80 1.3946096
v 28.271003 80 1.0760118
l 1225 1226
v 28.72274 80 1.1976237
v 27.870403 80 0.67463089
l 1227 1228
v 27.944246 80 0.37005267
v 27.68522 80 -0.59581752
l 1229 1230
v 27.882826 80 0.094326638
v 27.838909 80 -0.90470853
l 1231 1232
v 27.895386 80 0.18785922
v 27.762297 80 -0.80324487
l 1233 1234
v 28.50316 80 1.0628899
v 27.725372 80 0.43436322
l 1235 1236
v 28.152708 80 0.73739761
v 27.591657 80 -0.09038343
l 1237 1238
v 28.311485 80 0.90799814
v 27.630199 80 0.17598062
l 1239 1240
v 28.02994 80 0.5562638
v 27.611888 80 -0.35215952
l 1241 1242
v 27.878679 80 0
v 27.922597 80 -0.99903517
l 1243 1244
