v 20 1.0320983 -1.310491
v 20 0.69678026 -1.416774
l 1 2
v 19.218893 -2.8596197e-15 -1.3946096
v 18.963764 -8.3225358e-15 -1.3088576
l 3 4
v 18.72274 -8.3001512e-15 -1.1976237
v 18.50316 -8.096494e-15 -1.0628899
l 5 6
v 18.311485 6.7577363e-16 -0.90799814
v 18.152708 2.7681189e-15 -0.73739761
l 7 8
v 18.50316 -8.096494e-15 -1.0628899
v 18.311485 6.7577363e-16 -0.90799814
l 9 10
v 20 1.3489262 -1.1576697
v 20 1.0320983 -1.310491
l 11 12
v 18.963764 -8.3225358e-15 -1.3088576
v 18.72274 -8.3001512e-15 -1.1976237
l 13 14
v 20 1.6440252 -0.94794017
v 20 1.3489262 -1.1576697
l 15 16
v 20 1.8894987 -0.68183374
v 20 1.6440252 -0.94794017
l 17 18
v 18.72274 -3.2990135e-15 1.1976237
v 18.963764 -3.2626625e-15 1.3088576
l 19 20
v 18.963764 -3.2626625e-15 1.3088576
v 19.218893 -2.7991921e-15 1.3946096
l 21 22
v 20 0.69678026 1.416774
v 20 1.0320983 1.310491
l 23 24
v 18.50316 -2.9950613e-15 1.0628899
v 18.72274 -3.2990135e-15 1.1976237
l 25 26
v 20 1.0320983 1.310491
v 20 1.3489262 1.1576697
l 27 28
v 18.311485 -9.4018641e-15 0.90799814
v 18.50316 -2.9950613e-15 1.0628899
l 29 30
v 20 1.3489262 1.1576697
v 20 1.6440252 0.94794017
l 31 32
v 18.152708 -2.1884606e-15 0.73739761
v 18.311485 -9.4018641e-15 0.90799814
l 33 34
v 17.944246 -8.280722e-15 0.37005267
v 18.02994 -3.394432e-15 0.5562638
l 35 36
v 18.02994 -3.394432e-15 0.5562638
v 18.152708 -2.1884606e-15 0.73739761
l 37 38
v 20 1.6440252 0.94794017
v 20 1.8894987 0.68183374
l 39 40
v 18.152708 2.7681189e-15 -0.73739761
v 18.02994 1.4550771e-15 -0.5562638
l 41 42
v 17.944246 -3.0142919e-15 -0.37005267
v 17.878679 -3.0253577e-15 -1.8369701e-16
l 43 44
v 20 2.0595555 -0.35932636
v 20 1.8894987 -0.68183374
l 45 46
v 20 2.0595555 0.35932636
v 20 2.1213202 -1.8369701e-16
l 47 48
v 20 2.1213202 -1.8369701e-16
v 20 2.0595555 -0.35932636
l 49 50
v 20 1.8894987 0.68183374
v 20 2.0595555 0.35932636
l 51 52
v 17.878679 -3.0253577e-15 -1.8369701e-16
v 17.944246 -8.280722e-15 0.37005267
l 53 54
v 18.02994 1.4550771e-15 -0.5562638
v 17.944246 -3.0142919e-15 -0.37005267
l 55 56
v 0 17.878679 -1.8369701e-16
v 0 17.944246 -0.37005267
l 57 58
v 2.1681212e-15 17.944246 0.37005267
v 0 17.878679 -1.8369701e-16
l 59 60
v 2.8857892e-15 18.02994 0.5562638
v 2.1681212e-15 17.944246 0.37005267
l 61 62
v 0 18.152708 -0.73739761
v 0 18.311485 -0.90799814
l 63 64
v 0 18.02994 -0.5562638
v 0 18.152708 -0.73739761
l 65 66
v 0 18.311485 -0.90799814
v 0 18.50316 -1.0628899
l 67 68
v -1.1379834e-15 18.72274 -1.1976237
v -4.7237626e-15 18.963764 -1.3088576
l 69 70
v 0 18.50316 -1.0628899
v -1.1379834e-15 18.72274 -1.1976237
l 71 72
v -4.7237626e-15 18.963764 -1.3088576
v -2.0896097e-15 19.218893 -1.3946096
l 73 74
v 0.78329217 20 -1.3939967
v 1.1558154 20 -1.2577939
l 75 76
v 0.39526385 20 -1.473731
v 0.78329217 20 -1.3939967
l 77 78
v 0 20 -1.5
v 0.39526385 20 -1.473731
l 79 80
v -8.153789e-15 18.152708 0.73739761
v 2.8857892e-15 18.02994 0.5562638
l 81 82
v -4.7236952e-15 18.50316 1.0628899
v -3.6694204e-15 18.311485 0.90799814
l 83 84
v -3.6694204e-15 18.311485 0.90799814
v -8.153789e-15 18.152708 0.73739761
l 85 86
v -1.2439201e-15 18.72274 1.1976237
v -4.7236952e-15 18.50316 1.0628899
l 87 88
v 0.78329217 20 1.3939967
v 0.39526385 20 1.473731
l 89 90
v 0.39526385 20 1.473731
v 0 20 1.5
l 91 92
v -1.1663045e-15 18.963764 1.3088576
v -1.2439201e-15 18.72274 1.1976237
l 93 94
v -5.0158174e-15 19.218893 1.3946096
v -1.1663045e-15 18.963764 1.3088576
l 95 96
v 1.1558154 20 1.2577939
v 0.78329217 20 1.3939967
l 97 98
v 0 17.944246 -0.37005267
v 0 18.02994 -0.5562638
l 99 100
v -1.0320983 20 -1.310491
v -0.69678026 20 -1.416774
l 101 102
v -1.3489262 20 -1.1576697
v -1.0320983 20 -1.310491
l 103 104
v -1.6440252 20 -0.94794017
v -1.3489262 20 -1.1576697
l 105 106
v -1.8894987 20 -0.68183374
v -1.6440252 20 -0.94794017
l 107 108
v -2.0595555 20 -0.35932636
v -1.8894987 20 -0.68183374
l 109 110
v -2.1213202 20 -1.8369701e-16
v -2.0595555 20 -0.35932636
l 111 112
v -0.69678026 20 1.416774
v -1.0320983 20 1.310491
l 113 114
v -1.0320983 20 1.310491
v -1.3489262 20 1.1576697
l 115 116
v -1.8894987 20 0.68183374
v -2.0595555 20 0.35932636
l 117 118
v -1.3489262 20 1.1576697
v -1.6440252 20 0.94794017
l 119 120
v -1.6440252 20 0.94794017
v -1.8894987 20 0.68183374
l 121 122
v -2.0595555 20 0.35932636
v -2.1213202 20 -1.8369701e-16
l 123 124
v -17.944246 -5.2373614e-16 -0.37005267
v -18.02994 -1.69061e-15 -0.5562638
l 125 126
v -18.152708 -1.7080063e-15 -0.73739761
v -18.311485 1.3749263e-15 -0.90799814
l 127 128
v -18.02994 -1.69061e-15 -0.5562638
v -18.152708 -1.7080063e-15 -0.73739761
l 129 130
v -20 1.8894987 -0.68183374
v -20 2.0595555 -0.35932636
l 131 132
v -18.50316 -8.0805969e-16 -1.0628899
v -18.72274 2.378315e-15 -1.1976237
l 133 134
v -20 1.3489262 -1.1576697
v -20 1.6440252 -0.94794017
l 135 136
v -20 1.6440252 -0.94794017
v -20 1.8894987 -0.68183374
l 137 138
v -18.311485 1.3749263e-15 -0.90799814
v -18.50316 -8.0805969e-16 -1.0628899
l 139 140
v -20 2.0595555 -0.35932636
v -20 2.1213202 -1.8369701e-16
l 141 142
v -18.963764 2.5963881e-16 -1.3088576
v -19.218893 -4.1043443e-15 -1.3946096
l 143 144
v -20 1.0320983 -1.310491
v -20 1.3489262 -1.1576697
l 145 146
v -20 0.69678026 -1.416774
v -20 1.0320983 -1.310491
l 147 148
v -18.72274 2.378315e-15 -1.1976237
v -18.963764 2.5963881e-16 -1.3088576
l 149 150
v -20 2.0595555 0.35932636
v -20 1.8894987 0.68183374
l 151 152
v -20 1.6440252 0.94794017
v -20 1.3489262 1.1576697
l 153 154
v -20 1.8894987 0.68183374
v -20 1.6440252 0.94794017
l 155 156
v -17.944246 -3.0975745e-15 0.37005267
v -17.878679 -3.3306691e-15 0
l 157 158
v -18.152708 -1.7150437e-15 0.73739761
v -18.02994 -1.7106594e-15 0.5562638
l 159 160
v -18.311485 1.2969902e-15 0.90799814
v -18.152708 -1.7150437e-15 0.73739761
l 161 162
v -18.02994 -1.7106594e-15 0.5562638
v -17.944246 -3.0975745e-15 0.37005267
l 163 164
v -18.50316 -7.9112433e-16 1.0628899
v -18.311485 1.2969902e-15 0.90799814
l 165 166
v -20 2.1213202 -1.8369701e-16
v -20 2.0595555 0.35932636
l 167 168
v -20 1.0320983 1.310491
v -20 0.69678026 1.416774
l 169 170
v -18.72274 4.8418813e-15 1.1976237
v -18.50316 -7.9112433e-16 1.0628899
l 171 172
v -19.218893 -2.8082719e-15 1.3946096
v -18.963764 -2.3601629e-15 1.3088576
l 173 174
v -18.963764 -2.3601629e-15 1.3088576
v -18.72274 4.8418813e-15 1.1976237
l 175 176
v -20 1.3489262 1.1576697
v -20 1.0320983 1.310491
l 177 178
v -17.878679 -3.3306691e-15 0
v -17.944246 -5.2373614e-16 -0.37005267
l 179 180
v 20 -1.0320983 -1.310491
v 20 -0.69678026 -1.416774
l 181 182
v 20 -1.0320983 1.310491
v 20 -1.3489262 1.1576697
l 183 184
v 20 -0.69678026 1.416774
v 20 -1.0320983 1.310491
l 185 186
v 20 -1.3489262 -1.1576697
v 20 -1.0320983 -1.310491
l 187 188
v 20 -1.6440252 -0.94794017
v 20 -1.3489262 -1.1576697
l 189 190
v 20 -1.8894987 -0.68183374
v 20 -1.6440252 -0.94794017
l 191 192
v 20 -2.0595555 -0.35932636
v 20 -1.8894987 -0.68183374
l 193 194
v 20 -2.1213202 -1.8369701e-16
v 20 -2.0595555 -0.35932636
l 195 196
v 20 -1.6440252 0.94794017
v 20 -1.8894987 0.68183374
l 197 198
v 20 -1.3489262 1.1576697
v 20 -1.6440252 0.94794017
l 199 200
v 20 -2.0595555 0.35932636
v 20 -2.1213202 -1.8369701e-16
l 201 202
v 20 -1.8894987 0.68183374
v 20 -2.0595555 0.35932636
l 203 204
v -20 -1.3489262 -1.1576697
v -20 -1.0320983 -1.310491
l 205 206
v -20 -1.6440252 -0.94794017
v -20 -1.3489262 -1.1576697
l 207 208
v -20 -1.0320983 -1.310491
v -20 -0.69678026 -1.416774
l 209 210
v 0 -17.878679 0
v -3.9295879e-15 -17.944246 -0.37005267
l 211 212
v -20 -2.0595555 -0.35932636
v -20 -1.8894987 -0.68183374
l 213 214
v -20 -2.1213202 -1.8369701e-16
v -20 -2.0595555 -0.35932636
l 215 216
v -20 -1.8894987 -0.68183374
v -20 -1.6440252 -0.94794017
l 217 218
v -3.9295879e-15 -17.944246 -0.37005267
v -6.103265e-15 -18.02994 -0.5562638
l 219 220
v -20 -1.0320983 1.310491
v -20 -1.3489262 1.1576697
l 221 222
v -20 -0.69678026 1.416774
v -20 -1.0320983 1.310491
l 223 224
v -20 -1.3489262 1.1576697
v -20 -1.6440252 0.94794017
l 225 226
v -20 -1.6440252 0.94794017
v -20 -1.8894987 0.68183374
l 227 228
v -20 -2.0595555 0.35932636
v -20 -2.1213202 -1.8369701e-16
l 229 230
v -20 -1.8894987 0.68183374
v -20 -2.0595555 0.35932636
l 231 232
v 8.1075902e-15 -18.02994 0.5562638
v 9.4005334e-15 -17.944246 0.37005267
l 233 234
v 9.4005334e-15 -17.944246 0.37005267
v 0 -17.878679 0
l 235 236
v -6.0272421e-15 -18.152708 -0.73739761
v -2.3806795e-15 -18.311485 -0.90799814
l 237 238
v -1.2439201e-15 -18.72274 -1.1976237
v -2.3326091e-15 -18.963764 -1.3088576
l 239 240
v -4.7236952e-15 -18.50316 -1.0628899
v -1.2439201e-15 -18.72274 -1.1976237
l 241 242
v -2.3806795e-15 -18.311485 -0.90799814
v -4.7236952e-15 -18.50316 -1.0628899
l 243 244
v -2.3326091e-15 -18.963764 -1.3088576
v -8.2240784e-15 -19.218893 -1.3946096
l 245 246
v -5.0158174e-15 -19.218893 1.3946096
v -2.3816648e-15 -18.963764 1.3088576
l 247 248
v 4.9490568e-15 -18.152708 0.73739761
v 8.1075902e-15 -18.02994 0.5562638
l 249 250
v -2.3440684e-15 -18.311485 0.90799814
v 4.9490568e-15 -18.152708 0.73739761
l 251 252
v -3.4796037e-15 -18.72274 1.1976237
v 2.3419629e-15 -18.50316 1.0628899
l 253 254
v -2.3816648e-15 -18.963764 1.3088576
v -3.4796037e-15 -18.72274 1.1976237
l 255 256
v 2.3419629e-15 -18.50316 1.0628899
v -2.3440684e-15 -18.311485 0.90799814
l 257 258
v -6.103265e-15 -18.02994 -0.5562638
v -6.0272421e-15 -18.152708 -0.73739761
l 259 260
