v 2.0728614 20 -0.31993777
v 2.2226167 20 0.66878534
l 1 2
v 2.1213202 20 -1.8369701e-16
v 1.971565 20 0.9887231
l 3 4
v -2.0616133 20.002136 -0.35955703
v -1.5950941 20.002136 -1.2440681
l 5 6
v -2.123456 20.002136 -2.0287081e-16
v -1.9539481 20.002136 -0.98552883
l 7 8
v -1.3510618 20.002136 -1.1576697
v -0.45036563 20.002136 -1.5921192
l 9 10
v -1.8916343 20.002136 -0.68183374
v -1.2136006 20.002136 -1.4168645
l 11 12
v -1.6461778 20.002136 -0.94792396
v -0.83107308 20.002136 -1.5272376
l 13 14
v -2.0616913 20.002136 0.35932636
v -2.2310971 20.002136 -0.62622001
l 15 16
v -1.8916343 20.002136 0.68183374
v -2.3580598 20.002136 -0.20272676
l 17 18
v -1.6461608 20.002136 0.94794017
v -2.3241975 20.002136 0.2129121
l 19 20
v -1.0342339 20.002136 1.310491
v -1.9349303 20.002136 0.87604186
l 21 22
v -1.3510618 20.002136 1.1576697
v -2.166172 20.002136 0.57836365
l 23 24
v -0.6989159 20.002136 -1.416774
v 0.28511684 20.002136 -1.5947616
l 25 26
v -1.034234 20.002136 -1.3104911
v -0.08097275 20.002136 -1.6126382
l 27 28
v -0.0021356237 20.002136 -1.5
v 0.99786422 20.002136 -1.4994418
l 29 30
v -0.353028 20.002136 -1.4793367
v 0.64524261 20.002136 -1.5381226
l 31 32
v -0.6989159 20.002136 1.416774
v -1.6521771 20.002136 1.1146265
l 33 34
v -0.35302809 20.002136 1.4793367
v -1.3370608 20.002136 1.3013491
l 35 36
v -0.0021356237 20.002136 1.5
v -1.0004062 20.002136 1.4412141
l 37 38
v 3.5527137e-15 20.002136 1.4999988
v -0.99999984 20.002136 1.500557
l 39 40
v 20.002136 -1.7631065e-15 -1.4999988
v 20.002136 -0.99999984 -1.500557
l 41 42
v 20.002136 -0.0021356237 -1.5
v 20.002136 -1.0004062 -1.4412141
l 43 44
v 20.002136 -0.35302809 -1.4793367
v 20.002136 -1.3370608 -1.3013491
l 45 46
v 20.002136 -0.6989159 -1.416774
v 20.002136 -1.6521771 -1.1146265
l 47 48
v 20.002136 -0.0021356237 1.5
v 20.002136 0.99786422 1.4994418
l 49 50
v 20.002136 -0.35302809 1.4793367
v 20.002136 0.64524253 1.5381226
l 51 52
v 20.002136 -1.0342339 1.310491
v 20.002136 -0.080972759 1.6126385
l 53 54
v 20.002136 -0.6989159 1.416774
v 20.002136 0.28511683 1.5947617
l 55 56
v 20.002136 -1.0342339 -1.310491
v 20.002136 -1.9349303 -0.87604186
l 57 58
v 20.002136 -1.3510618 -1.1576697
v 20.002136 -2.166172 -0.57836365
l 59 60
v 20.002136 -1.6461608 -0.94794017
v 20.002136 -2.3241975 -0.2129121
l 61 62
v 20.002136 -1.8916343 -0.68183374
v 20.002136 -2.3580598 0.20272676
l 63 64
v 20.002136 -2.0616913 -0.35932636
v 20.002136 -2.2310971 0.62622001
l 65 66
v 20.002136 -1.6461608 0.94794017
v 20.002136 -0.8310507 1.5272462
l 67 68
v 20.002136 -1.3510618 1.1576697
v 20.002136 -0.45036544 1.5921188
l 69 70
v 20.002136 -2.0616913 0.35932636
v 20.002136 -1.5952658 1.2438869
l 71 72
v 20.002136 -1.8916343 0.68183374
v 20.002136 -1.2135977 1.4168618
l 73 74
v 20.002136 -2.123456 -9.1848507e-17
v 20.002136 -1.9540501 0.98554637
l 75 76
v 0.00053390634 -20.002136 -1.4999986
v -0.99946599 -20.002136 -1.5004451
l 77 78
v 0.0010678124 -20.002136 -1.4999982
v -0.99893196 -20.002136 -1.500668
l 79 80
v 0.0016017182 -20.002136 -1.4999976
v -0.99839766 -20.002136 -1.501114
l 81 82
v 0.0021356237 -20.002136 -1.4999969
v -0.99786348 -20.002136 -1.5013366
l 83 84
v 0.00053390622 -20.002136 1.4999986
v 1.0005337 -20.002136 1.4993287
l 85 86
v 0.0010678123 -20.002136 1.4999982
v 1.0010672 -20.002136 1.4988818
l 87 88
v 0 -20.002136 1.4999988
v 0.9999999 -20.002136 1.4995523
l 89 90
v 0.0016017181 -20.002136 1.4999976
v 1.0016008 -20.002136 1.4986579
l 91 92
v -1.8880247 -20.002136 -0.68091631
v -2.3538622 -20.002136 0.20395397
l 93 94
v -2.0576067 -20.002136 -0.35879093
v -2.22676 -20.002136 0.62679881
l 95 96
v -2.1191847 -20.002136 -9.1848507e-17
v -1.9500314 -20.002136 0.98558975
l 97 98
v -1.6431576 -20.002136 -0.94683951
v -2.3205403 -20.002136 -0.2112087
l 99 100
v -0.69779885 -20.002136 -1.4159964
v -1.6267263 -20.002136 -1.0457348
l 101 102
v -1.3487135 -20.002136 -1.156548
v -2.1632426 -20.002136 -0.57642535
l 103 104
v -0.0021356237 -20.002136 -1.4999969
v -0.99492426 -20.002136 -1.3801189
l 105 106
v -1.8880247 -20.002136 0.68091631
v -1.210642 -20.002136 1.4165471
l 107 108
v -1.3487135 -20.002136 1.156548
v -0.41978602 -20.002136 1.5268097
l 109 110
v -0.69779885 -20.002136 1.4159964
v 0.29498978 -20.002136 1.5358744
l 111 112
v -1.6431576 -20.002136 0.94683951
v -0.82862848 -20.002136 1.5269622
l 113 114
v -2.0576067 -20.002136 0.35879093
v -1.5917692 -20.002136 1.2436612
l 115 116
v -0.0021356237 -20.002136 1.4999969
v 0.99786348 -20.002136 1.5013366
l 117 118
v -0.0010678124 -20.002136 1.4999982
v 0.99893196 -20.002136 1.500668
l 119 120
v -0.00053390634 -20.002136 1.4999986
v 0.99946599 -20.002136 1.5004451
l 121 122
v -0.0016017182 -20.002136 1.4999976
v 0.99839766 -20.002136 1.501114
l 123 124
v -1.7763568e-15 -20.002136 -1.4999988
v -0.9999999 -20.002136 -1.4995523
l 125 126
v -0.0016017181 -20.002136 -1.4999976
v -1.0016008 -20.002136 -1.4986579
l 127 128
v -0.0010678123 -20.002136 -1.4999982
v -1.0010672 -20.002136 -1.4988818
l 129 130
v -0.00053390622 -20.002136 -1.4999986
v -1.0005337 -20.002136 -1.4993287
l 131 132
v -20.002136 -2.0616913 -0.35932636
v -20.002136 -1.5952658 -1.2438869
l 133 134
v -20.002136 -2.123456 -3.1389313e-16
v -20.002136 -1.9540501 -0.98554637
l 135 136
v -20.002136 -1.3510618 -1.1576697
v -20.002136 -0.45036544 -1.5921188
l 137 138
v -20.002136 -1.8916343 -0.68183374
v -20.002136 -1.2135977 -1.4168618
l 139 140
v -20.002136 -1.6461608 -0.94794017
v -20.002136 -0.8310507 -1.5272462
l 141 142
v -20.002136 -2.0616913 0.35932636
v -20.002136 -2.2310971 -0.62622001
l 143 144
v -20.002136 -1.8916343 0.68183374
v -20.002136 -2.3580598 -0.20272676
l 145 146
v -20.002136 -1.3510618 1.1576697
v -20.002136 -2.166172 0.57836365
l 147 148
v -20.002136 -1.0342339 1.310491
v -20.002136 -1.9349303 0.87604186
l 149 150
v -20.002136 -1.6461608 0.94794017
v -20.002136 -2.3241975 0.2129121
l 151 152
v -20.002136 -0.6989159 -1.416774
v -20.002136 0.28511683 -1.5947617
l 153 154
v -20.002136 -1.0342339 -1.310491
v -20.002136 -0.080972759 -1.6126385
l 155 156
v -20.002136 -0.0021356237 -1.5
v -20.002136 0.99786422 -1.4994418
l 157 158
v -20.002136 -0.35302809 -1.4793367
v -20.002136 0.64524253 -1.5381226
l 159 160
v -20.002136 -0.6989159 1.416774
v -20.002136 -1.6521771 1.1146265
l 161 162
v -20.002136 -0.35302809 1.4793367
v -20.002136 -1.3370608 1.3013491
l 163 164
v -20.002136 -0.0021356237 1.5
v -20.002136 -1.0004062 1.4412141
l 165 166
v -20.002136 -5.3296639e-15 1.4999988
v -20.002136 -0.99999984 1.500557
l 167 168
v 0.69779885 -20.002136 -1.4159964
v -0.29498978 -20.002136 -1.5358744
l 169 170
v 1.3487135 -20.002136 -1.156548
v 0.41978602 -20.002136 -1.5268097
l 171 172
v 1.6431576 -20.002136 -0.94683951
v 0.82862848 -20.002136 -1.5269622
l 173 174
v 0.0021356237 -20.002136 1.4999969
v 0.99492426 -20.002136 1.3801189
l 175 176
v 0.69779885 -20.002136 1.4159964
v 1.6267263 -20.002136 1.0457348
l 177 178
v 1.8880247 -20.002136 -0.68091631
v 1.210642 -20.002136 -1.4165471
l 179 180
v 2.1191847 -20.002136 -2.0287081e-16
v 1.9500314 -20.002136 -0.98558975
l 181 182
v 1.8880247 -20.002136 0.68091631
v 2.3538622 -20.002136 -0.20395397
l 183 184
v 2.0576067 -20.002136 0.35879093
v 2.22676 -20.002136 -0.62679881
l 185 186
v 2.0576067 -20.002136 -0.35879093
v 1.5917692 -20.002136 -1.2436612
l 187 188
v 1.6431576 -20.002136 0.94683951
v 2.3205403 -20.002136 0.2112087
l 189 190
v 1.3487135 -20.002136 1.156548
v 2.1632426 -20.002136 0.57642535
l 191 192
v 3.5527137e-15 20.002136 -1.4999988
v 0.99999984 20.002136 -1.500557
l 193 194
v 0.35302809 20.002136 -1.4793367
v -0.64524512 19.996096 -1.5377672
l 195 196
v 0.0021356237 20.002136 -1.5
v 1.0004062 20.002136 -1.4412141
l 197 198
v 0.35302809 20.002136 -1.4793367
v 1.3430913 19.95206 -1.3479316
l 199 200
v 0.6989159 20.002136 -1.416774
v -0.28391975 19.995222 -1.6011277
l 201 202
v 0.35302809 20.002136 -1.4793367
v 1.3370608 20.002136 -1.3013491
l 203 204
v 0.78329217 20 -1.3939967
v 1.7321049 20.008077 -1.0782608
l 205 206
v 1.0342339 20.002136 -1.310491
v 1.9516379 19.986017 -0.91286039
l 207 208
v 0.78329217 20 -1.3939967
v -0.18186094 20.024436 -1.6545392
l 209 210
v 0 20 1.5
v 0.99827321 20.006041 1.4415696
l 211 212
v 0.35302809 20.002136 1.4793367
v -0.64524253 20.002136 1.5381226
l 213 214
v 0.39526385 20 1.473731
v -0.59479932 20.050076 1.6051361
l 215 216
v 0.0021356237 20.002136 1.5
v -0.99786422 20.002136 1.4994418
l 217 218
v 1.0342339 20.002136 1.310491
v 1.9516379 19.986017 0.91286039
l 219 220
v 0.78329217 20 1.3939967
v -0.18186094 20.024436 1.6545392
l 221 222
v 0.6989159 20.002136 1.416774
v -0.28391975 19.995222 1.6011277
l 223 224
v 0.78329217 20 1.3939967
v 1.7321049 20.008077 1.0782608
l 225 226
v 0.6989159 20.002136 1.416774
v -0.28511683 20.002136 1.5947617
l 227 228
v 20.002136 2.0616133 -0.35955703
v 20.002136 1.5950941 -1.2440681
l 229 230
v 20.002136 2.123456 -2.0287081e-16
v 20.002136 1.9539481 -0.98552883
l 231 232
v 20.002136 1.3510618 -1.1576697
v 20.002136 0.45036563 -1.5921192
l 233 234
v 20.002136 1.8916343 -0.68183374
v 20.002136 1.2136006 -1.4168645
l 235 236
v 20.002136 1.6461778 -0.94792396
v 20.002136 0.83107308 -1.5272376
l 237 238
v 20.002136 1.8916343 0.68183374
v 20.002136 2.3580598 -0.20272676
l 239 240
v 20.002136 2.0616913 0.35932636
v 20.002136 2.2310971 -0.62622001
l 241 242
v 20.002136 1.3510618 1.1576697
v 20.002136 2.166172 0.57836365
l 243 244
v 20.002136 1.0342339 1.310491
v 20.002136 1.9349303 0.87604186
l 245 246
v 20.002136 1.6461608 0.94794017
v 20.002136 2.3241975 0.2129121
l 247 248
v 20.002136 0.6989159 -1.416774
v 20.002136 -0.28511684 -1.5947616
l 249 250
v 20.002136 1.034234 -1.3104911
v 20.002136 0.08097275 -1.6126382
l 251 252
v 20.002136 0.0021356237 -1.5
v 20.002136 -0.99786422 -1.4994418
l 253 254
v 20.002136 0.353028 -1.4793367
v 20.002136 -0.64524261 -1.5381226
l 255 256
v 20.002136 0.6989159 1.416774
v 20.002136 1.6521771 1.1146265
l 257 258
v 20.002136 0.35302809 1.4793367
v 20.002136 1.3370608 1.3013491
l 259 260
v 20.002136 0.0021356237 1.5
v 20.002136 1.0004062 1.4412141
l 261 262
v 20.002136 -1.7769426e-15 1.4999988
v 20.002136 0.99999984 1.500557
l 263 264
v -20.002136 -5.3263587e-15 -1.4999988
v -20.002136 0.99999984 -1.500557
l 265 266
v -20.002136 0.0021356237 -1.5
v -20.002136 1.0004062 -1.4412141
l 267 268
v -20.002136 0.35302809 -1.4793367
v -20.002136 1.3370608 -1.3013491
l 269 270
v -20.002136 0.6989159 -1.416774
v -20.002136 1.6521771 -1.1146265
l 271 272
v -20.002136 0.0021356237 1.5
v -20.002136 -0.99786422 1.4994418
l 273 274
v -20.002136 0.35302809 1.4793367
v -20.002136 -0.64524253 1.5381226
l 275 276
v -20.002136 1.0342339 1.310491
v -20.002136 0.080972759 1.6126385
l 277 278
v -20.002136 0.6989159 1.416774
v -20.002136 -0.28511683 1.5947617
l 279 280
v -20.002136 1.0342339 -1.310491
v -20.002136 1.9349303 -0.87604186
l 281 282
v -20.002136 1.3510618 -1.1576697
v -20.002136 2.166172 -0.57836365
l 283 284
v -20.002136 1.6461608 -0.94794017
v -20.002136 2.3241975 -0.2129121
l 285 286
v -20.002136 1.8916343 -0.68183374
v -20.002136 2.3580598 0.20272676
l 287 288
v -20.002136 2.0616913 -0.35932636
v -20.002136 2.2310971 0.62622001
l 289 290
v -20.002136 1.6461608 0.94794017
v -20.002136 0.8310507 1.5272462
l 291 292
v -20.002136 1.3510618 1.1576697
v -20.002136 0.45036544 1.5921188
l 293 294
v -20.002136 2.123456 -2.5838197e-16
v -20.002136 1.9540501 0.98554637
l 295 296
v -20.002136 2.0616913 0.35932636
v -20.002136 1.5952658 1.2438869
l 297 298
v -20.002136 1.8916343 0.68183374
v -20.002136 1.2135977 1.4168618
l 299 300
v 1.5 20 -1.0606601
v 2.2972189 19.963547 -0.45807134
l 301 302
v 1.70996 19.998245 -0.88601106
v 2.4342023 20.03677 -0.19754258
l 303 304
v 1.7429487 20 -0.85465187
v 2.4048472 19.955674 -0.10637021
l 305 306
v 1.9222438 19.998358 -0.63192779
v 2.4975868 20.050628 0.18431257
l 307 308
v 1.46735 19.998709 -1.0823802
v 2.2994975 20.031619 -0.52880317
l 309 310
v 1.94032 20 0.60628307
v 1.3649771 19.94773 1.4225234
l 311 312
v 1.7896863 19.99687 0.80181456
v 1.1277877 20.041197 1.5500962
l 313 314
v 1.5 20 1.0606601
v 0.66785207 19.96709 1.6142364
l 315 316
v 1.7429487 20 0.85465187
v 1.0187063 19.961475 1.5431204
l 317 318
v 1.5312017 19.998573 1.0370759
v 0.73398284 20.035026 1.6396647
l 319 320
v 1.94032 20 0.60628307
v 2.3985709 19.954776 -0.28138856
l 321 322
v 1.9901451 19.995083 -0.50976759
v 1.5318942 20.040307 -1.3974392
l 323 324
v 1.3510618 20.002136 1.1576697
v 2.1902295 19.977402 0.61435964
l 325 326
v 1.4673498 19.998709 1.0823803
v 0.62818205 20.023443 1.6256903
l 327 328
v 1.3510618 20.002136 -1.1576697
v 2.1902297 19.977402 -0.61435982
l 329 330
v 1.46735 19.998709 -1.0823802
v 0.62818218 20.023443 -1.62569
l 331 332
v 20 1.0320983 -1.310491
v 20 0.078837125 -1.6126385
l 333 334
v 19.218893 -2.8596197e-15 -1.3946096
v 18.271003 -2.3156201e-14 -1.0760118
l 335 336
v 18.72274 -8.3001512e-15 -1.1976237
v 17.870403 -7.5096201e-15 -0.67463089
l 337 338
v 18.311485 6.7577363e-16 -0.90799814
v 17.630199 9.6536672e-15 -0.17598062
l 339 340
v 18.50316 -8.096494e-15 -1.0628899
v 17.725372 2.7499999e-14 -0.43436322
l 341 342
v 20 1.3489262 -1.1576697
v 20 0.4482298 -1.5921188
l 343 344
v 18.963764 -8.3225358e-15 -1.3088576
v 18.055793 -8.2382101e-15 -0.8898243
l 345 346
v 20 1.6440252 -0.94794017
v 20 0.82891506 -1.5272462
l 347 348
v 20 1.8894987 -0.68183374
v 20 1.211462 -1.4168618
l 349 350
v 18.72274 -3.2990135e-15 1.1976237
v 19.630711 -3.1620741e-15 1.616657
l 351 352
v 18.963764 -3.2626625e-15 1.3088576
v 19.911654 -1.5407132e-15 1.6274553
l 353 354
v 20 0.69678026 1.416774
v 20 1.6500414 1.1146265
l 355 356
v 18.50316 -2.9950613e-15 1.0628899
v 19.355498 -4.1749053e-15 1.5858828
l 357 358
v 20 1.0320983 1.310491
v 20 1.9327947 0.87604186
l 359 360
v 18.311485 -9.4018641e-15 0.90799814
v 19.089273 1.6595942e-14 1.5365249
l 361 362
v 20 1.3489262 1.1576697
v 20 2.1640363 0.57836365
l 363 364
v 18.152708 -2.1884606e-15 0.73739761
v 18.833994 -3.3139934e-14 1.4694151
l 365 366
v 17.944246 -8.280722e-15 0.37005267
v 18.362298 1.5556841e-14 1.278476
l 367 368
v 18.02994 -3.394432e-15 0.5562638
v 18.590991 2.1168543e-15 1.3840448
l 369 370
v 20 1.6440252 0.94794017
v 20 2.3220619 0.2129121
l 371 372
v 18.152708 2.7681189e-15 -0.73739761
v 17.591657 -3.2324787e-15 0.09038343
l 373 374
v 17.944246 -3.0142919e-15 -0.37005267
v 17.769781 -3.0437367e-15 0.61461062
l 375 376
v 20 2.0595555 -0.35932636
v 20 1.5931303 -1.243887
l 377 378
v 20 2.0595555 0.35932636
v 20 2.2289614 -0.62622001
l 379 380
v 20 2.1213202 -1.8369701e-16
v 20 1.9519144 -0.98554637
l 381 382
v 20 1.8894987 0.68183374
v 20 2.3559239 -0.2027269
l 383 384
v 17.878679 -3.0253577e-15 -1.8369701e-16
v 18.053145 -1.7009217e-14 0.98466328
l 385 386
v 18.02994 1.4550771e-15 -0.5562638
v 17.611888 -2.0348555e-14 0.35215952
l 387 388
v 0 17.878679 -1.8369701e-16
v 0 18.053145 -0.98466328
l 389 390
v 2.1681212e-15 17.944246 0.37005267
v -3.6009748e-15 17.769781 -0.61461062
l 391 392
v 2.8857892e-15 18.02994 0.5562638
v -6.1532413e-16 17.611888 -0.35215952
l 393 394
v 0 18.152708 -0.73739761
v 0 18.833994 -1.4694151
l 395 396
v 0 18.02994 -0.5562638
v 0 18.590991 -1.3840448
l 397 398
v 0 18.311485 -0.90799814
v 0 19.089273 -1.5365249
l 399 400
v -1.1379834e-15 18.72274 -1.1976237
v -1.4646111e-14 19.630711 -1.616657
l 401 402
v 0 18.50316 -1.0628899
v -4.4172819e-15 19.355498 -1.5858828
l 403 404
v -4.7237626e-15 18.963764 -1.3088576
v 5.0630062e-15 19.911654 -1.6274553
l 405 406
v 0.78329217 20 -1.3939967
v 1.7224851 20 -1.0506068
l 407 408
v 0.39526385 20 -1.473731
v 1.3747975 20 -1.2724507
l 409 410
v 0 20 -1.5
v 0.99779887 20 -1.433687
l 411 412
v -8.153789e-15 18.152708 0.73739761
v 4.2297055e-14 17.591657 -0.09038343
l 413 414
v -4.7236952e-15 18.50316 1.0628899
v -4.4561256e-16 17.725372 0.43436322
l 415 416
v -3.6694204e-15 18.311485 0.90799814
v -2.2911074e-14 17.630199 0.17598062
l 417 418
v -1.2439201e-15 18.72274 1.1976237
v -1.4751277e-14 17.870403 0.67463089
l 419 420
v 0.78329217 20 1.3939967
v -0.19624151 20 1.595277
l 421 422
v 0.39526385 20 1.473731
v -0.60253502 20 1.5400441
l 423 424
v -1.1663045e-15 18.963764 1.3088576
v -1.458693e-15 18.055793 0.8898243
l 425 426
v -5.0158174e-15 19.218893 1.3946096
v 9.286425e-15 18.271003 1.0760118
l 427 428
v 1.1558154 20 1.2577939
v 0.21662244 20 1.6011838
l 429 430
v 0 17.944246 -0.37005267
v 0 18.362298 -1.278476
l 431 432
v -1.0320983 20 -1.310491
v -0.078837125 20 -1.6126385
l 433 434
v -1.3489262 20 -1.1576697
v -0.4482298 20 -1.5921188
l 435 436
v -1.6440252 20 -0.94794017
v -0.82891506 20 -1.5272462
l 437 438
v -1.8894987 20 -0.68183374
v -1.211462 20 -1.4168618
l 439 440
v -2.0595555 20 -0.35932636
v -1.5931303 20 -1.243887
l 441 442
v -2.1213202 20 -1.8369701e-16
v -1.9519144 20 -0.98554637
l 443 444
v -0.69678026 20 1.416774
v -1.6500414 20 1.1146265
l 445 446
v -1.0320983 20 1.310491
v -1.9327947 20 0.87604186
l 447 448
v -1.8894987 20 0.68183374
v -2.3559239 20 -0.2027269
l 449 450
v -1.3489262 20 1.1576697
v -2.1640363 20 0.57836365
l 451 452
v -1.6440252 20 0.94794017
v -2.3220619 20 0.2129121
l 453 454
v -2.0595555 20 0.35932636
v -2.2289614 20 -0.62622001
l 455 456
v -17.944246 -5.2373614e-16 -0.37005267
v -18.362298 -6.2162819e-15 -1.278476
l 457 458
v -18.152708 -1.7080063e-15 -0.73739761
v -18.833994 1.1520327e-14 -1.4694151
l 459 460
v -18.02994 -1.69061e-15 -0.5562638
v -18.590991 -1.7701108e-15 -1.3840448
l 461 462
v -20 1.8894987 -0.68183374
v -20 2.3559239 0.2027269
l 463 464
v -18.50316 -8.0805969e-16 -1.0628899
v -19.355498 1.1560412e-14 -1.5858828
l 465 466
v -20 1.3489262 -1.1576697
v -20 2.1640363 -0.57836365
l 467 468
v -20 1.6440252 -0.94794017
v -20 2.3220619 -0.2129121
l 469 470
v -18.311485 1.3749263e-15 -0.90799814
v -19.089273 -7.4832903e-15 -1.5365249
l 471 472
v -20 2.0595555 -0.35932636
v -20 2.2289614 0.62622001
l 473 474
v -18.963764 2.5963881e-16 -1.3088576
v -19.911654 -1.5954035e-14 -1.6274553
l 475 476
v -20 1.0320983 -1.310491
v -20 1.9327947 -0.87604186
l 477 478
v -20 0.69678026 -1.416774
v -20 1.6500414 -1.1146265
l 479 480
v -18.72274 2.378315e-15 -1.1976237
v -19.630711 -5.6030319e-15 -1.616657
l 481 482
v -20 2.0595555 0.35932636
v -20 1.5931303 1.243887
l 483 484
v -20 1.6440252 0.94794017
v -20 0.82891506 1.5272462
l 485 486
v -20 1.8894987 0.68183374
v -20 1.211462 1.4168618
l 487 488
v -17.944246 -3.0975745e-15 0.37005267
v -17.769781 -3.7178096e-15 -0.61461062
l 489 490
v -18.152708 -1.7150437e-15 0.73739761
v -17.591657 -1.6950073e-15 -0.09038343
l 491 492
v -18.311485 1.2969902e-15 0.90799814
v -17.630199 -1.1627129e-14 0.17598062
l 493 494
v -18.02994 -1.7106594e-15 0.5562638
v -17.611888 -8.4766674e-15 -0.35215952
l 495 496
v -18.50316 -7.9112433e-16 1.0628899
v -17.725372 7.6821186e-15 0.43436322
l 497 498
v -20 2.1213202 -1.8369701e-16
v -20 1.9519144 0.98554637
l 499 500
v -20 1.0320983 1.310491
v -20 0.078837125 1.6126385
l 501 502
v -18.72274 4.8418813e-15 1.1976237
v -17.870403 -1.7023617e-14 0.67463089
l 503 504
v -19.218893 -2.8082719e-15 1.3946096
v -18.271003 -1.1433953e-15 1.0760118
l 505 506
v -18.963764 -2.3601629e-15 1.3088576
v -18.055793 2.4770936e-14 0.8898243
l 507 508
v -20 1.3489262 1.1576697
v -20 0.4482298 1.5921188
l 509 510
v -17.878679 -3.3306691e-15 0
v -18.053145 4.138224e-15 -0.98466328
l 511 512
v 20 -1.0320983 -1.310491
v 20 -0.078837125 -1.6126385
l 513 514
v 20 -1.0320983 1.310491
v 20 -1.9327947 0.87604186
l 515 516
v 20 -0.69678026 1.416774
v 20 -1.6500414 1.1146265
l 517 518
v 20 -1.3489262 -1.1576697
v 20 -0.4482298 -1.5921188
l 519 520
v 20 -1.6440252 -0.94794017
v 20 -0.82891506 -1.5272462
l 521 522
v 20 -1.8894987 -0.68183374
v 20 -1.211462 -1.4168618
l 523 524
v 20 -2.0595555 -0.35932636
v 20 -1.5931303 -1.243887
l 525 526
v 20 -2.1213202 -1.8369701e-16
v 20 -1.9519144 -0.98554637
l 527 528
v 20 -1.6440252 0.94794017
v 20 -2.3220619 0.2129121
l 529 530
v 20 -1.3489262 1.1576697
v 20 -2.1640363 0.57836365
l 531 532
v 20 -2.0595555 0.35932636
v 20 -2.2289614 -0.62622001
l 533 534
v 20 -1.8894987 0.68183374
v 20 -2.3559239 -0.2027269
l 535 536
v -20 -1.3489262 -1.1576697
v -20 -0.4482298 -1.5921188
l 537 538
v -20 -1.6440252 -0.94794017
v -20 -0.82891506 -1.5272462
l 539 540
v -20 -1.0320983 -1.310491
v -20 -0.078837125 -1.6126385
l 541 542
v 0 -17.878679 0
v -1.0456136e-14 -18.053145 -0.98466328
l 543 544
v -20 -2.0595555 -0.35932636
v -20 -1.5931303 -1.243887
l 545 546
v -20 -2.1213202 -1.8369701e-16
v -20 -1.9519144 -0.98554637
l 547 548
v -20 -1.8894987 -0.68183374
v -20 -1.211462 -1.4168618
l 549 550
v -3.9295879e-15 -17.944246 -0.37005267
v -1.4533782e-14 -18.362298 -1.278476
l 551 552
v -20 -1.0320983 1.310491
v -20 -1.9327947 0.87604186
l 553 554
v -20 -0.69678026 1.416774
v -20 -1.6500414 1.1146265
l 555 556
v -20 -1.3489262 1.1576697
v -20 -2.1640363 0.57836365
l 557 558
v -20 -1.6440252 0.94794017
v -20 -2.3220619 0.2129121
l 559 560
v -20 -2.0595555 0.35932636
v -20 -2.2289614 -0.62622001
l 561 562
v -20 -1.8894987 0.68183374
v -20 -2.3559239 -0.2027269
l 563 564
v 8.1075902e-15 -18.02994 0.5562638
v 1.441516e-14 -17.611888 -0.35215952
l 565 566
v 9.4005334e-15 -17.944246 0.37005267
v -1.5613096e-14 -17.769781 -0.61461062
l 567 568
v -6.0272421e-15 -18.152708 -0.73739761
v 9.6195304e-15 -18.833994 -1.4694151
l 569 570
v -1.2439201e-15 -18.72274 -1.1976237
v -5.3451625e-15 -19.630711 -1.616657
l 571 572
v -4.7236952e-15 -18.50316 -1.0628899
v 8.7836618e-15 -19.355498 -1.5858828
l 573 574
v -2.3806795e-15 -18.311485 -0.90799814
v -1.1888272e-14 -19.089273 -1.5365249
l 575 576
v -2.3326091e-15 -18.963764 -1.3088576
v -2.422141e-14 -19.911654 -1.6274553
l 577 578
v -5.0158174e-15 -19.218893 1.3946096
v 4.7709506e-15 -18.271003 1.0760118
l 579 580
v 4.9490568e-15 -18.152708 0.73739761
v 1.9383546e-14 -17.591657 -0.09038343
l 581 582
v -2.3440684e-15 -18.311485 0.90799814
v 2.8949477e-14 -17.630199 0.17598062
l 583 584
v -3.4796037e-15 -18.72274 1.1976237
v 1.9117827e-14 -17.870403 0.67463089
l 585 586
v -2.3816648e-15 -18.963764 1.3088576
v -6.5177529e-15 -18.055793 0.8898243
l 587 588
v 2.3419629e-15 -18.50316 1.0628899
v -1.6673221e-14 -17.725372 0.43436322
l 589 590
v -6.103265e-15 -18.02994 -0.5562638
v -5.7558405e-15 -18.590991 -1.3840448
l 591 592
v 1.1558154 20 -1.2577939
v 2.0271754 19.996388 -0.76716304
l 593 594
v 1.4673498 19.998709 1.0823803
v 0.59598975 20.00232 1.5730112
l 595 596
v 1.3510618 20.002136 -1.1576697
v 0.46128255 19.992401 -1.6139569
l 597 598
v 1.1558154 20 1.2577939
v 2.0455946 20.009735 0.80150663
l 599 600
v 1.5312017 19.998573 -1.0370759
v 2.3212387 20.023059 -0.42450589
l 601 602
v 1.6461608 20.002136 -0.94794017
v 2.3630194 19.958416 -0.25209366
l 603 604
v 1.7896863 19.99687 -0.80181456
v 2.4368413 20.030299 -0.040189379
l 605 606
v 1.8916343 20.002136 -0.68183374
v 2.4133836 19.937731 0.1688305
l 607 608
v 1.9222438 19.998358 0.63192779
v 1.4004945 20.062763 1.482592
l 609 610
v 1.8916343 20.002136 0.68183374
v 1.2444794 19.968707 1.4434589
l 611 612
v 1.70996 19.998245 0.88601106
v 0.99310141 20.041965 1.5818576
l 613 614
v 1.6461608 20.002136 0.94794017
v 0.85612383 19.977651 1.5605102
l 615 616
v 1.6461608 20.002136 -0.94794017
v 1.6461608 20.002136 -0.94794017
l 617 618
v 2.0616913 20.002136 -0.35932636
v 2.0616913 20.002136 -0.35932636
l 619 620
v 2.0616913 20.002136 -0.35932636
v 2.3341504 19.95003 0.60142906
l 621 622
v 2.0728614 20 -0.31993777
v 1.8004023 20.052106 -1.2806932
l 623 624
v 2.0616913 20.002136 -0.35932636
v 1.6325948 19.959834 -1.2615939
l 625 626
v 1.9901451 19.995083 -0.50976759
v 2.4192416 20.037385 0.39249992
l 627 628
v 1.8916343 20.002136 -0.68183374
v 1.8916343 20.002136 -0.68183374
l 629 630
v 1.6461608 20.002136 0.94794017
v 1.6461608 20.002136 0.94794017
l 631 632
v 1.3510618 20.002136 1.1576697
v 1.3510618 20.002136 1.1576697
l 633 634
v 1.8916343 20.002136 0.68183374
v 1.8916343 20.002136 0.68183374
l 635 636
v 2.0616913 20.002136 0.35932636
v 2.0616913 20.002136 0.35932636
l 637 638
v 2.0616913 20.002136 0.35932636
v 2.3341504 19.95003 -0.60142906
l 639 640
v 2.0728614 20 0.31993777
v 1.8004023 20.052106 1.2806932
l 641 642
v 2.0616913 20.002136 0.35932636
v 1.6325948 19.959834 1.2615939
l 643 644
v 1.9901451 19.995083 0.50976759
v 2.4192416 20.037385 -0.39249992
l 645 646
v 1.3510618 20.002136 -1.1576697
v 1.3510618 20.002136 -1.1576697
l 647 648
