v -2.1075094 20.002136 -0.18369444
v -2.0616133 20.002136 -0.35955703
l 1 2
v -2.123456 20.002136 -2.0287081e-16
v -2.1075094 20.002136 -0.18369444
l 3 4
v -2.0616133 20.002136 -0.35955703
v -1.9886832 20.002136 -0.52609956
l 5 6
v -1.776657 20.002136 -0.82192796
v -1.6461778 20.002136 -0.94792396
l 7 8
v -1.6461778 20.002136 -0.94792396
v -1.5032837 20.002136 -1.0598338
l 9 10
v -1.9886832 20.002136 -0.52609956
v -1.8916343 20.002136 -0.68183374
l 11 12
v -1.8916343 20.002136 -0.68183374
v -1.776657 20.002136 -0.82192796
l 13 14
v -2.0616913 20.002136 0.35932636
v -2.1075387 20.002136 0.18351579
l 15 16
v -2.1075387 20.002136 0.18351579
v -2.123456 20.002136 -2.0287081e-16
l 17 18
v -1.9887707 20.002136 0.52593219
v -2.0616913 20.002136 0.35932636
l 19 20
v -1.7766447 20.002136 0.82194227
v -1.8916343 20.002136 0.68183374
l 21 22
v -1.8916343 20.002136 0.68183374
v -1.9887707 20.002136 0.52593219
l 23 24
v -1.6461608 20.002136 0.94794017
v -1.7766447 20.002136 0.82194227
l 25 26
v -1.5032706 20.002136 1.0598439
v -1.6461608 20.002136 0.94794017
l 27 28
v -1.3510618 20.002136 -1.1576697
v -1.034234 20.002136 -1.3104911
l 29 30
v -1.034234 20.002136 -1.3104911
v -0.6989159 20.002136 -1.416774
l 31 32
v -1.5032837 20.002136 -1.0598338
v -1.3510618 20.002136 -1.1576697
l 33 34
v -0.0021356237 20.002136 -1.5
v 3.5527137e-15 20.002136 -1.4999988
l 35 36
v -0.6989159 20.002136 -1.416774
v -0.353028 20.002136 -1.4793367
l 37 38
v -0.353028 20.002136 -1.4793367
v -0.0021356237 20.002136 -1.5
l 39 40
v -1.3510618 20.002136 1.1576697
v -1.5032706 20.002136 1.0598439
l 41 42
v -1.0342339 20.002136 1.310491
v -1.3510618 20.002136 1.1576697
l 43 44
v -0.6989159 20.002136 1.416774
v -1.0342339 20.002136 1.310491
l 45 46
v -0.35302809 20.002136 1.4793367
v -0.6989159 20.002136 1.416774
l 47 48
v -0.0021356237 20.002136 1.5
v -0.35302809 20.002136 1.4793367
l 49 50
v 3.5527137e-15 20.002136 1.4999988
v -0.0021356237 20.002136 1.5
l 51 52
v 20.002136 -1.7631065e-15 -1.4999988
v 20.002136 -0.0021356237 -1.5
l 53 54
v 20.002136 -0.0021356237 -1.5
v 20.002136 -0.35302809 -1.4793367
l 55 56
v 20.002136 -0.35302809 -1.4793367
v 20.002136 -0.6989159 -1.416774
l 57 58
v 20.002136 -0.6989159 -1.416774
v 20.002136 -1.0342339 -1.310491
l 59 60
v 20.002136 -1.0342339 -1.310491
v 20.002136 -1.3510618 -1.1576697
l 61 62
v 20.002136 -1.3510618 -1.1576697
v 20.002136 -1.5032706 -1.0598439
l 63 64
v 20.002136 -0.35302809 1.4793367
v 20.002136 -0.0021356237 1.5
l 65 66
v 20.002136 -0.0021356237 1.5
v 20.002136 -1.7769426e-15 1.4999988
l 67 68
v 20.002136 -0.6989159 1.416774
v 20.002136 -0.35302809 1.4793367
l 69 70
v 20.002136 -1.5032706 1.0598439
v 20.002136 -1.3510618 1.1576697
l 71 72
v 20.002136 -1.0342339 1.310491
v 20.002136 -0.6989159 1.416774
l 73 74
v 20.002136 -1.3510618 1.1576697
v 20.002136 -1.0342339 1.310491
l 75 76
v 20.002136 -1.5032706 -1.0598439
v 20.002136 -1.6461608 -0.94794017
l 77 78
v 20.002136 -1.6461608 -0.94794017
v 20.002136 -1.7766447 -0.82194227
l 79 80
v 20.002136 -1.7766447 -0.82194227
v 20.002136 -1.8916343 -0.68183374
l 81 82
v 20.002136 -1.8916343 -0.68183374
v 20.002136 -1.9887707 -0.52593219
l 83 84
v 20.002136 -1.9887707 -0.52593219
v 20.002136 -2.0616913 -0.35932636
l 85 86
v 20.002136 -2.0616913 -0.35932636
v 20.002136 -2.1075387 -0.18351579
l 87 88
v 20.002136 -2.1075387 -0.18351579
v 20.002136 -2.123456 -9.1848507e-17
l 89 90
v 20.002136 -1.8916343 0.68183374
v 20.002136 -1.7766447 0.82194227
l 91 92
v 20.002136 -1.7766447 0.82194227
v 20.002136 -1.6461608 0.94794017
l 93 94
v 20.002136 -1.6461608 0.94794017
v 20.002136 -1.5032706 1.0598439
l 95 96
v 20.002136 -2.1075387 0.18351579
v 20.002136 -2.0616913 0.35932636
l 97 98
v 20.002136 -1.9887707 0.52593219
v 20.002136 -1.8916343 0.68183374
l 99 100
v 20.002136 -2.0616913 0.35932636
v 20.002136 -1.9887707 0.52593219
l 101 102
v 20.002136 -2.123456 -9.1848507e-17
v 20.002136 -2.1075387 0.18351579
l 103 104
v 0.00053390634 -20.002136 -1.4999986
v -1.7763568e-15 -20.002136 -1.4999988
l 105 106
v 0.0010678124 -20.002136 -1.4999982
v 0.00053390634 -20.002136 -1.4999986
l 107 108
v 0.0016017182 -20.002136 -1.4999976
v 0.0010678124 -20.002136 -1.4999982
l 109 110
v 0.0021356237 -20.002136 -1.4999969
v 0.0016017182 -20.002136 -1.4999976
l 111 112
v 0.00053390622 -20.002136 1.4999986
v 0.0010678123 -20.002136 1.4999982
l 113 114
v 0.0010678123 -20.002136 1.4999982
v 0.0016017181 -20.002136 1.4999976
l 115 116
v 0 -20.002136 1.4999988
v 0.00053390622 -20.002136 1.4999986
l 117 118
v 0.0016017181 -20.002136 1.4999976
v 0.0021356237 -20.002136 1.4999969
l 119 120
v -2.0576067 -20.002136 -0.35879093
v -2.1033168 -20.002136 -0.18323168
l 121 122
v -2.1033168 -20.002136 -0.18323168
v -2.1191847 -20.002136 -9.1848507e-17
l 123 124
v -2.1191847 -20.002136 -9.1848507e-17
v -2.1033168 -20.002136 0.18323168
l 125 126
v -1.0325092 -20.002136 -1.3094865
v -1.3487135 -20.002136 -1.156548
l 127 128
v -1.9848956 -20.002136 -0.5251838
v -2.0576067 -20.002136 -0.35879093
l 129 130
v -1.8880247 -20.002136 -0.68091631
v -1.9848956 -20.002136 -0.5251838
l 131 132
v -1.3487135 -20.002136 -1.156548
v -1.500594 -20.002136 -1.0587134
l 133 134
v -1.6431576 -20.002136 -0.94683951
v -1.7733269 -20.002136 -0.82091194
l 135 136
v -1.500594 -20.002136 -1.0587134
v -1.6431576 -20.002136 -0.94683951
l 137 138
v -1.7733269 -20.002136 -0.82091194
v -1.8880247 -20.002136 -0.68091631
l 139 140
v -0.35249025 -20.002136 -1.4788916
v -0.69779885 -20.002136 -1.4159964
l 141 142
v -0.69779885 -20.002136 -1.4159964
v -1.0325092 -20.002136 -1.3094865
l 143 144
v -0.0021356237 -20.002136 -1.4999969
v -0.35249025 -20.002136 -1.4788916
l 145 146
v -1.9848956 -20.002136 0.5251838
v -1.8880247 -20.002136 0.68091631
l 147 148
v -2.0576067 -20.002136 0.35879093
v -1.9848956 -20.002136 0.5251838
l 149 150
v -1.7733269 -20.002136 0.82091194
v -1.6431576 -20.002136 0.94683951
l 151 152
v -1.500594 -20.002136 1.0587134
v -1.3487135 -20.002136 1.156548
l 153 154
v -1.6431576 -20.002136 0.94683951
v -1.500594 -20.002136 1.0587134
l 155 156
v -1.8880247 -20.002136 0.68091631
v -1.7733269 -20.002136 0.82091194
l 157 158
v -1.0325092 -20.002136 1.3094865
v -0.69779885 -20.002136 1.4159964
l 159 160
v -1.3487135 -20.002136 1.156548
v -1.0325092 -20.002136 1.3094865
l 161 162
v -2.1033168 -20.002136 0.18323168
v -2.0576067 -20.002136 0.35879093
l 163 164
v -0.35249025 -20.002136 1.4788916
v -0.0021356237 -20.002136 1.4999969
l 165 166
v -0.69779885 -20.002136 1.4159964
v -0.35249025 -20.002136 1.4788916
l 167 168
v -0.0021356237 -20.002136 1.4999969
v -0.0016017182 -20.002136 1.4999976
l 169 170
v -0.0010678124 -20.002136 1.4999982
v -0.00053390634 -20.002136 1.4999986
l 171 172
v -0.00053390634 -20.002136 1.4999986
v 0 -20.002136 1.4999988
l 173 174
v -0.0016017182 -20.002136 1.4999976
v -0.0010678124 -20.002136 1.4999982
l 175 176
v -1.7763568e-15 -20.002136 -1.4999988
v -0.00053390622 -20.002136 -1.4999986
l 177 178
v -0.0016017181 -20.002136 -1.4999976
v -0.0021356237 -20.002136 -1.4999969
l 179 180
v -0.0010678123 -20.002136 -1.4999982
v -0.0016017181 -20.002136 -1.4999976
l 181 182
v -0.00053390622 -20.002136 -1.4999986
v -0.0010678123 -20.002136 -1.4999982
l 183 184
v -20.002136 -2.0616913 -0.35932636
v -20.002136 -1.9887707 -0.52593219
l 185 186
v -20.002136 -2.123456 -3.1389313e-16
v -20.002136 -2.1075387 -0.18351579
l 187 188
v -20.002136 -2.1075387 -0.18351579
v -20.002136 -2.0616913 -0.35932636
l 189 190
v -20.002136 -1.7766447 -0.82194227
v -20.002136 -1.6461608 -0.94794017
l 191 192
v -20.002136 -1.6461608 -0.94794017
v -20.002136 -1.5032706 -1.0598439
l 193 194
v -20.002136 -1.9887707 -0.52593219
v -20.002136 -1.8916343 -0.68183374
l 195 196
v -20.002136 -1.8916343 -0.68183374
v -20.002136 -1.7766447 -0.82194227
l 197 198
v -20.002136 -2.0616913 0.35932636
v -20.002136 -2.1075387 0.18351579
l 199 200
v -20.002136 -2.1075387 0.18351579
v -20.002136 -2.123456 -3.1389313e-16
l 201 202
v -20.002136 -1.9887707 0.52593219
v -20.002136 -2.0616913 0.35932636
l 203 204
v -20.002136 -1.7766447 0.82194227
v -20.002136 -1.8916343 0.68183374
l 205 206
v -20.002136 -1.8916343 0.68183374
v -20.002136 -1.9887707 0.52593219
l 207 208
v -20.002136 -1.6461608 0.94794017
v -20.002136 -1.7766447 0.82194227
l 209 210
v -20.002136 -1.5032706 1.0598439
v -20.002136 -1.6461608 0.94794017
l 211 212
v -20.002136 -1.3510618 -1.1576697
v -20.002136 -1.0342339 -1.310491
l 213 214
v -20.002136 -1.0342339 -1.310491
v -20.002136 -0.6989159 -1.416774
l 215 216
v -20.002136 -1.5032706 -1.0598439
v -20.002136 -1.3510618 -1.1576697
l 217 218
v -20.002136 -0.0021356237 -1.5
v -20.002136 -5.3263587e-15 -1.4999988
l 219 220
v -20.002136 -0.6989159 -1.416774
v -20.002136 -0.35302809 -1.4793367
l 221 222
v -20.002136 -0.35302809 -1.4793367
v -20.002136 -0.0021356237 -1.5
l 223 224
v -20.002136 -1.3510618 1.1576697
v -20.002136 -1.5032706 1.0598439
l 225 226
v -20.002136 -1.0342339 1.310491
v -20.002136 -1.3510618 1.1576697
l 227 228
v -20.002136 -0.6989159 1.416774
v -20.002136 -1.0342339 1.310491
l 229 230
v -20.002136 -0.35302809 1.4793367
v -20.002136 -0.6989159 1.416774
l 231 232
v -20.002136 -5.3296639e-15 1.4999988
v -20.002136 -0.0021356237 1.5
l 233 234
v -20.002136 -0.0021356237 1.5
v -20.002136 -0.35302809 1.4793367
l 235 236
v 1.0325092 -20.002136 -1.3094865
v 0.69779885 -20.002136 -1.4159964
l 237 238
v 1.3487135 -20.002136 -1.156548
v 1.0325092 -20.002136 -1.3094865
l 239 240
v 0.35249025 -20.002136 -1.4788916
v 0.0021356237 -20.002136 -1.4999969
l 241 242
v 0.69779885 -20.002136 -1.4159964
v 0.35249025 -20.002136 -1.4788916
l 243 244
v 1.500594 -20.002136 -1.0587134
v 1.3487135 -20.002136 -1.156548
l 245 246
v 1.6431576 -20.002136 -0.94683951
v 1.500594 -20.002136 -1.0587134
l 247 248
v 1.7733269 -20.002136 -0.82091194
v 1.6431576 -20.002136 -0.94683951
l 249 250
v 1.8880247 -20.002136 -0.68091631
v 1.7733269 -20.002136 -0.82091194
l 251 252
v 1.0325092 -20.002136 1.3094865
v 1.3487135 -20.002136 1.156548
l 253 254
v 0.0021356237 -20.002136 1.4999969
v 0.35249025 -20.002136 1.4788916
l 255 256
v 0.35249025 -20.002136 1.4788916
v 0.69779885 -20.002136 1.4159964
l 257 258
v 0.69779885 -20.002136 1.4159964
v 1.0325092 -20.002136 1.3094865
l 259 260
v 1.3487135 -20.002136 1.156548
v 1.500594 -20.002136 1.0587134
l 261 262
v 1.9848956 -20.002136 -0.5251838
v 1.8880247 -20.002136 -0.68091631
l 263 264
v 1.8880247 -20.002136 0.68091631
v 1.9848956 -20.002136 0.5251838
l 265 266
v 2.1033168 -20.002136 -0.18323168
v 2.0576067 -20.002136 -0.35879093
l 267 268
v 2.1033168 -20.002136 0.18323168
v 2.1191847 -20.002136 -2.0287081e-16
l 269 270
v 2.0576067 -20.002136 0.35879093
v 2.1033168 -20.002136 0.18323168
l 271 272
v 2.1191847 -20.002136 -2.0287081e-16
v 2.1033168 -20.002136 -0.18323168
l 273 274
v 2.0576067 -20.002136 -0.35879093
v 1.9848956 -20.002136 -0.5251838
l 275 276
v 1.9848956 -20.002136 0.5251838
v 2.0576067 -20.002136 0.35879093
l 277 278
v 1.6431576 -20.002136 0.94683951
v 1.7733269 -20.002136 0.82091194
l 279 280
v 1.500594 -20.002136 1.0587134
v 1.6431576 -20.002136 0.94683951
l 281 282
v 1.7733269 -20.002136 0.82091194
v 1.8880247 -20.002136 0.68091631
l 283 284
v 3.5527137e-15 20.002136 -1.4999988
v 0.0021356237 20.002136 -1.5
l 285 286
v 0.35302809 20.002136 -1.4793367
v 0 20 -1.5
l 287 288
v 0.0021356237 20.002136 -1.5
v 0.35302809 20.002136 -1.4793367
l 289 290
v 0.39526385 20 -1.473731
v 0.35302809 20.002136 -1.4793367
l 291 292
v 0.6989159 20.002136 -1.416774
v 0.39526385 20 -1.473731
l 293 294
v 0.35302809 20.002136 -1.4793367
v 0.6989159 20.002136 -1.416774
l 295 296
v 0.78329217 20 -1.3939967
v 1.0342339 20.002136 -1.310491
l 297 298
v 1.0342339 20.002136 -1.310491
v 1.1558154 20 -1.2577939
l 299 300
v 0.78329217 20 -1.3939967
v 0.6989159 20.002136 -1.416774
l 301 302
v 1.3510618 20.002136 -1.1576697
v 1.1558154 20 -1.2577939
l 303 304
v 1.3327049 20 -1.1670355
v 1.3510618 20.002136 -1.1576697
l 305 306
v 1.3510618 20.002136 -1.1576697
v 1.5032706 20.002136 -1.0598439
l 307 308
v 0.78329217 20 1.3939967
v 0.6989159 20.002136 1.416774
l 309 310
v 0.6989159 20.002136 1.416774
v 0.39526385 20 1.473731
l 311 312
v 0.78329217 20 1.3939967
v 1.0342339 20.002136 1.310491
l 313 314
v 0.35302809 20.002136 1.4793367
v 0.39526385 20 1.473731
l 315 316
v 0.6989159 20.002136 1.416774
v 0.35302809 20.002136 1.4793367
l 317 318
v 0.0021356237 20.002136 1.5
v 3.5527137e-15 20.002136 1.4999988
l 319 320
v 0 20 1.5
v 0.35302809 20.002136 1.4793367
l 321 322
v 0.35302809 20.002136 1.4793367
v 0.0021356237 20.002136 1.5
l 323 324
v 1.6259682 20 0.96322507
v 1.6461608 20.002136 0.94794017
l 325 326
v 1.6461608 20.002136 0.94794017
v 1.5032706 20.002136 1.0598439
l 327 328
v 1.5032706 20.002136 1.0598439
v 1.3510618 20.002136 1.1576697
l 329 330
v 1.1558154 20 1.2577939
v 1.3510618 20.002136 1.1576697
l 331 332
v 1.0342339 20.002136 1.310491
v 1.1558154 20 1.2577939
l 333 334
v 1.3327049 20 1.1670355
v 1.3510618 20.002136 1.1576697
l 335 336
v 1.6259682 20 -0.96322507
v 1.6461608 20.002136 -0.94794017
l 337 338
v 1.6461608 20.002136 -0.94794017
v 1.7429487 20 -0.85465187
l 339 340
v 1.5032706 20.002136 -1.0598439
v 1.6461608 20.002136 -0.94794017
l 341 342
v 1.7766447 20.002136 -0.82194227
v 1.7429487 20 -0.85465187
l 343 344
v 1.6461608 20.002136 -0.94794017
v 1.7766447 20.002136 -0.82194227
l 345 346
v 1.8485347 20 -0.73548853
v 1.7766447 20.002136 -0.82194227
l 347 348
v 1.8916343 20.002136 -0.68183374
v 1.8485347 20 -0.73548853
l 349 350
v 1.7766447 20.002136 -0.82194227
v 1.8916343 20.002136 -0.68183374
l 351 352
v 1.8916343 20.002136 -0.68183374
v 1.94032 20 -0.60628307
l 353 354
v 1.94032 20 -0.60628307
v 1.9887707 20.002136 -0.52593219
l 355 356
v 1.9887707 20.002136 -0.52593219
v 2.0158978 20 -0.46758348
l 357 358
v 1.8916343 20.002136 -0.68183374
v 1.9887707 20.002136 -0.52593219
l 359 360
v 2.0616913 20.002136 -0.35932636
v 2.0158978 20 -0.46758348
l 361 362
v 1.9887707 20.002136 -0.52593219
v 2.0616913 20.002136 -0.35932636
l 363 364
v 2.0616913 20.002136 -0.35932636
v 2.0728614 20 -0.31993777
l 365 366
v 2.1075387 20.002136 -0.18351579
v 2.0728614 20 -0.31993777
l 367 368
v 2.0616913 20.002136 -0.35932636
v 2.1075387 20.002136 -0.18351579
l 369 370
v 2.1088045 20 -0.16389392
v 2.1075387 20.002136 -0.18351579
l 371 372
v 2.123456 20.002136 -6.4696001e-16
v 2.1088045 20 -0.16389392
l 373 374
v 2.1075387 20.002136 -0.18351579
v 2.123456 20.002136 -6.4696001e-16
l 375 376
v 1.8916343 20.002136 0.68183374
v 1.94032 20 0.60628307
l 377 378
v 1.94032 20 0.60628307
v 1.9887707 20.002136 0.52593219
l 379 380
v 1.9887707 20.002136 0.52593219
v 1.8916343 20.002136 0.68183374
l 381 382
v 1.8916343 20.002136 0.68183374
v 1.8485347 20 0.73548853
l 383 384
v 2.0158978 20 0.46758348
v 1.9887707 20.002136 0.52593219
l 385 386
v 1.7429487 20 0.85465187
v 1.7766447 20.002136 0.82194227
l 387 388
v 1.6461608 20.002136 0.94794017
v 1.7429487 20 0.85465187
l 389 390
v 1.7766447 20.002136 0.82194227
v 1.6461608 20.002136 0.94794017
l 391 392
v 1.7766447 20.002136 0.82194227
v 1.8485347 20 0.73548853
l 393 394
v 1.8916343 20.002136 0.68183374
v 1.7766447 20.002136 0.82194227
l 395 396
v 2.123456 20.002136 -6.4696001e-16
v 2.1088045 20 0.16389392
l 397 398
v 2.1075387 20.002136 0.18351579
v 2.1088045 20 0.16389392
l 399 400
v 2.123456 20.002136 -6.4696001e-16
v 2.1075387 20.002136 0.18351579
l 401 402
v 2.0158978 20 0.46758348
v 2.0616913 20.002136 0.35932636
l 403 404
v 2.0616913 20.002136 0.35932636
v 1.9887707 20.002136 0.52593219
l 405 406
v 2.0728614 20 0.31993777
v 2.0616913 20.002136 0.35932636
l 407 408
v 2.0728614 20 0.31993777
v 2.1075387 20.002136 0.18351579
l 409 410
v 2.1075387 20.002136 0.18351579
v 2.0616913 20.002136 0.35932636
l 411 412
v 20.002136 2.1075094 -0.18369444
v 20.002136 2.0616133 -0.35955703
l 413 414
v 20.002136 2.123456 -2.0287081e-16
v 20.002136 2.1075094 -0.18369444
l 415 416
v 20.002136 2.0616133 -0.35955703
v 20.002136 1.9886832 -0.52609956
l 417 418
v 20.002136 1.776657 -0.82192796
v 20.002136 1.6461778 -0.94792396
l 419 420
v 20.002136 1.6461778 -0.94792396
v 20.002136 1.5032837 -1.0598338
l 421 422
v 20.002136 1.9886832 -0.52609956
v 20.002136 1.8916343 -0.68183374
l 423 424
v 20.002136 1.8916343 -0.68183374
v 20.002136 1.776657 -0.82192796
l 425 426
v 20.002136 2.0616913 0.35932636
v 20.002136 2.1075387 0.18351579
l 427 428
v 20.002136 2.1075387 0.18351579
v 20.002136 2.123456 -2.0287081e-16
l 429 430
v 20.002136 1.9887707 0.52593219
v 20.002136 2.0616913 0.35932636
l 431 432
v 20.002136 1.7766447 0.82194227
v 20.002136 1.8916343 0.68183374
l 433 434
v 20.002136 1.8916343 0.68183374
v 20.002136 1.9887707 0.52593219
l 435 436
v 20.002136 1.6461608 0.94794017
v 20.002136 1.7766447 0.82194227
l 437 438
v 20.002136 1.5032706 1.0598439
v 20.002136 1.6461608 0.94794017
l 439 440
v 20.002136 1.3510618 -1.1576697
v 20.002136 1.034234 -1.3104911
l 441 442
v 20.002136 1.034234 -1.3104911
v 20.002136 0.6989159 -1.416774
l 443 444
v 20.002136 1.5032837 -1.0598338
v 20.002136 1.3510618 -1.1576697
l 445 446
v 20.002136 0.0021356237 -1.5
v 20.002136 -1.7631065e-15 -1.4999988
l 447 448
v 20.002136 0.6989159 -1.416774
v 20.002136 0.353028 -1.4793367
l 449 450
v 20.002136 0.353028 -1.4793367
v 20.002136 0.0021356237 -1.5
l 451 452
v 20.002136 1.3510618 1.1576697
v 20.002136 1.5032706 1.0598439
l 453 454
v 20.002136 1.0342339 1.310491
v 20.002136 1.3510618 1.1576697
l 455 456
v 20.002136 0.6989159 1.416774
v 20.002136 1.0342339 1.310491
l 457 458
v 20.002136 0.35302809 1.4793367
v 20.002136 0.6989159 1.416774
l 459 460
v 20.002136 -1.7769426e-15 1.4999988
v 20.002136 0.0021356237 1.5
l 461 462
v 20.002136 0.0021356237 1.5
v 20.002136 0.35302809 1.4793367
l 463 464
v -20.002136 -5.3263587e-15 -1.4999988
v -20.002136 0.0021356237 -1.5
l 465 466
v -20.002136 0.0021356237 -1.5
v -20.002136 0.35302809 -1.4793367
l 467 468
v -20.002136 0.35302809 -1.4793367
v -20.002136 0.6989159 -1.416774
l 469 470
v -20.002136 0.6989159 -1.416774
v -20.002136 1.0342339 -1.310491
l 471 472
v -20.002136 1.0342339 -1.310491
v -20.002136 1.3510618 -1.1576697
l 473 474
v -20.002136 1.3510618 -1.1576697
v -20.002136 1.5032706 -1.0598439
l 475 476
v -20.002136 0.35302809 1.4793367
v -20.002136 0.0021356237 1.5
l 477 478
v -20.002136 0.0021356237 1.5
v -20.002136 -5.3296639e-15 1.4999988
l 479 480
v -20.002136 0.6989159 1.416774
v -20.002136 0.35302809 1.4793367
l 481 482
v -20.002136 1.5032706 1.0598439
v -20.002136 1.3510618 1.1576697
l 483 484
v -20.002136 1.0342339 1.310491
v -20.002136 0.6989159 1.416774
l 485 486
v -20.002136 1.3510618 1.1576697
v -20.002136 1.0342339 1.310491
l 487 488
v -20.002136 1.5032706 -1.0598439
v -20.002136 1.6461608 -0.94794017
l 489 490
v -20.002136 1.6461608 -0.94794017
v -20.002136 1.7766447 -0.82194227
l 491 492
v -20.002136 1.7766447 -0.82194227
v -20.002136 1.8916343 -0.68183374
l 493 494
v -20.002136 1.8916343 -0.68183374
v -20.002136 1.9887707 -0.52593219
l 495 496
v -20.002136 1.9887707 -0.52593219
v -20.002136 2.0616913 -0.35932636
l 497 498
v -20.002136 2.0616913 -0.35932636
v -20.002136 2.1075387 -0.18351579
l 499 500
v -20.002136 2.1075387 -0.18351579
v -20.002136 2.123456 -2.5838197e-16
l 501 502
v -20.002136 1.8916343 0.68183374
v -20.002136 1.7766447 0.82194227
l 503 504
v -20.002136 1.7766447 0.82194227
v -20.002136 1.6461608 0.94794017
l 505 506
v -20.002136 1.6461608 0.94794017
v -20.002136 1.5032706 1.0598439
l 507 508
v -20.002136 2.1075387 0.18351579
v -20.002136 2.0616913 0.35932636
l 509 510
v -20.002136 1.9887707 0.52593219
v -20.002136 1.8916343 0.68183374
l 511 512
v -20.002136 2.0616913 0.35932636
v -20.002136 1.9887707 0.52593219
l 513 514
v -20.002136 2.123456 -2.5838197e-16
v -20.002136 2.1075387 0.18351579
l 515 516
