v 1.1558154 20 -1.2577939
v 0.39526385 20 -1.473731
v 2.0728614 20 -0.31993777
v 0.39526385 20 1.473731
v 1.1558154 20 1.2577939
v 2.0728614 20 0.31993777
v 0.78329217 20 -1.3939967
v 0.78329217 20 1.3939967
v 1.3510618 20.002136 -1.1576697
v 1.3510618 20.002136 1.1576697
v 1.6461608 20.002136 -0.94794017
v 1.8916343 20.002136 -0.68183374
v 1.46735 19.998709 -1.0823802
v 1.8916343 20.002136 0.68183374
v 1.4673498 19.998709 1.0823803
v 1.6461608 20.002136 0.94794017
v 2.0616913 20.002136 -0.35932636
v 1.9901451 19.995083 -0.50976759
v 2.0616913 20.002136 0.35932636
v 1.9901451 19.995083 0.50976759
