v 0.39526385 20 -1.473731
v 0.35302809 20.002136 -1.4793367
l 1 2
v 0.6989159 20.002136 -1.416774
v 0.39526385 20 -1.473731
l 3 4
v 0.39526385 20 -1.473731
v 0.78329217 20 -1.3939967
l 5 6
v 0 20 -1.5
v 0.39526385 20 -1.473731
l 7 8
v 0.78329217 20 -1.3939967
v 1.0342339 20.002136 -1.310491
l 9 10
v 0.78329217 20 -1.3939967
v 0.6989159 20.002136 -1.416774
l 11 12
v 0.39526385 20 -1.473731
v 0.78329217 20 -1.3939967
l 13 14
v 0.78329217 20 -1.3939967
v 1.1558154 20 -1.2577939
l 15 16
v 1.0342339 20.002136 -1.310491
v 1.1558154 20 -1.2577939
l 17 18
v 1.3510618 20.002136 -1.1576697
v 1.1558154 20 -1.2577939
l 19 20
v 0.78329217 20 -1.3939967
v 1.1558154 20 -1.2577939
l 21 22
v 1.6461608 20.002136 -0.94794017
v 1.7429487 20 -0.85465187
l 23 24
v 1.7766447 20.002136 -0.82194227
v 1.7429487 20 -0.85465187
l 25 26
v 1.7429487 20 -0.85465187
v 1.8485347 20 -0.73548853
l 27 28
v 1.6259682 20 -0.96322507
v 1.7429487 20 -0.85465187
l 29 30
v 1.8916343 20.002136 -0.68183374
v 1.94032 20 -0.60628307
l 31 32
v 1.94032 20 -0.60628307
v 1.9887707 20.002136 -0.52593219
l 33 34
v 1.8485347 20 -0.73548853
v 1.94032 20 -0.60628307
l 35 36
v 1.94032 20 -0.60628307
v 2.0158978 20 -0.46758348
l 37 38
v 1.8485347 20 -0.73548853
v 1.7766447 20.002136 -0.82194227
l 39 40
v 1.8916343 20.002136 -0.68183374
v 1.8485347 20 -0.73548853
l 41 42
v 1.7429487 20 -0.85465187
v 1.8485347 20 -0.73548853
l 43 44
v 1.8485347 20 -0.73548853
v 1.94032 20 -0.60628307
l 45 46
v 1.6259682 20 -0.96322507
v 1.6461608 20.002136 -0.94794017
l 47 48
v 1.6259682 20 -0.96322507
v 1.7429487 20 -0.85465187
l 49 50
v 1.5 20 -1.0606601
v 1.6259682 20 -0.96322507
l 51 52
v 2.0616913 20.002136 -0.35932636
v 2.0728614 20 -0.31993777
l 53 54
v 2.1075387 20.002136 -0.18351579
v 2.0728614 20 -0.31993777
l 55 56
v 2.0158978 20 -0.46758348
v 2.0728614 20 -0.31993777
l 57 58
v 2.0728614 20 -0.31993777
v 2.1088045 20 -0.16389392
l 59 60
v 2.1088045 20 -0.16389392
v 2.1075387 20.002136 -0.18351579
l 61 62
v 2.123456 20.002136 -6.4696001e-16
v 2.1088045 20 -0.16389392
l 63 64
v 2.1088045 20 -0.16389392
v 2.1213202 20 -1.8369701e-16
l 65 66
v 2.0728614 20 -0.31993777
v 2.1088045 20 -0.16389392
l 67 68
v 2.0728614 20 0.31993777
v 2.0616913 20.002136 0.35932636
l 69 70
v 2.0728614 20 0.31993777
v 2.1075387 20.002136 0.18351579
l 71 72
v 2.1088045 20 0.16389392
v 2.0728614 20 0.31993777
l 73 74
v 2.0728614 20 0.31993777
v 2.0158978 20 0.46758348
l 75 76
v 2.123456 20.002136 -6.4696001e-16
v 2.1088045 20 0.16389392
l 77 78
v 2.1075387 20.002136 0.18351579
v 2.1088045 20 0.16389392
l 79 80
v 2.1088045 20 0.16389392
v 2.0728614 20 0.31993777
l 81 82
v 2.1213202 20 -1.8369701e-16
v 2.1088045 20 0.16389392
l 83 84
v 1.8916343 20.002136 0.68183374
v 1.94032 20 0.60628307
l 85 86
v 1.94032 20 0.60628307
v 1.9887707 20.002136 0.52593219
l 87 88
v 2.0158978 20 0.46758348
v 1.94032 20 0.60628307
l 89 90
v 1.94032 20 0.60628307
v 1.8485347 20 0.73548853
l 91 92
v 1.7429487 20 0.85465187
v 1.7766447 20.002136 0.82194227
l 93 94
v 1.6461608 20.002136 0.94794017
v 1.7429487 20 0.85465187
l 95 96
v 1.7429487 20 0.85465187
v 1.6259682 20 0.96322507
l 97 98
v 1.8485347 20 0.73548853
v 1.7429487 20 0.85465187
l 99 100
v 1.8916343 20.002136 0.68183374
v 1.8485347 20 0.73548853
l 101 102
v 1.7766447 20.002136 0.82194227
v 1.8485347 20 0.73548853
l 103 104
v 1.94032 20 0.60628307
v 1.8485347 20 0.73548853
l 105 106
v 1.8485347 20 0.73548853
v 1.7429487 20 0.85465187
l 107 108
v 1.1558154 20 1.2577939
v 1.3510618 20.002136 1.1576697
l 109 110
v 1.0342339 20.002136 1.310491
v 1.1558154 20 1.2577939
l 111 112
v 1.1558154 20 1.2577939
v 0.78329217 20 1.3939967
l 113 114
v 1.6259682 20 0.96322507
v 1.6461608 20.002136 0.94794017
l 115 116
v 1.7429487 20 0.85465187
v 1.6259682 20 0.96322507
l 117 118
v 1.6259682 20 0.96322507
v 1.5 20 1.0606601
l 119 120
v 2.0158978 20 0.46758348
v 1.9887707 20.002136 0.52593219
l 121 122
v 2.0158978 20 0.46758348
v 2.0616913 20.002136 0.35932636
l 123 124
v 2.0728614 20 0.31993777
v 2.0158978 20 0.46758348
l 125 126
v 2.0158978 20 0.46758348
v 1.94032 20 0.60628307
l 127 128
v 0.78329217 20 1.3939967
v 0.6989159 20.002136 1.416774
l 129 130
v 0.78329217 20 1.3939967
v 1.0342339 20.002136 1.310491
l 131 132
v 0.78329217 20 1.3939967
v 0.39526385 20 1.473731
l 133 134
v 1.1558154 20 1.2577939
v 0.78329217 20 1.3939967
l 135 136
v 0.6989159 20.002136 1.416774
v 0.39526385 20 1.473731
l 137 138
v 0.35302809 20.002136 1.4793367
v 0.39526385 20 1.473731
l 139 140
v 0.78329217 20 1.3939967
v 0.39526385 20 1.473731
l 141 142
v 0.39526385 20 1.473731
v 0 20 1.5
l 143 144
v 1.9887707 20.002136 -0.52593219
v 2.0158978 20 -0.46758348
l 145 146
v 2.0616913 20.002136 -0.35932636
v 2.0158978 20 -0.46758348
l 147 148
v 1.94032 20 -0.60628307
v 2.0158978 20 -0.46758348
l 149 150
v 2.0158978 20 -0.46758348
v 2.0728614 20 -0.31993777
l 151 152
