# Wavefront OBJ file written 2026-06-20T22:27:16
o netSurface_edgeMesh

# points : 604
# lines  : 622

# <points count="604">
v 0.35302809 20.002136 -1.4793367
v 0.6989159 20.002136 -1.416774
v 1.3510618 20.002136 -1.1576697
v 0.6989159 20.002136 1.416774
v 0.35302809 20.002136 1.4793367
v 1.6461608 20.002136 0.94794017
v 1.3510618 20.002136 1.1576697
v 1.6461608 20.002136 -0.94794017
v 1.7766447 20.002136 -0.82194227
v 1.8916343 20.002136 -0.68183374
v 1.9887707 20.002136 -0.52593219
v 2.0616913 20.002136 -0.35932636
v 2.1075387 20.002136 -0.18351579
v 2.123456 20.002136 -6.4696001e-16
v 1.9887707 20.002136 0.52593219
v 1.8916343 20.002136 0.68183374
v 1.7766447 20.002136 0.82194227
v 2.1075387 20.002136 0.18351579
v 2.0616913 20.002136 0.35932636
v 0.39526385 20 -1.473731
v 0.78329217 20 -1.3939967
v 1.1558154 20 -1.2577939
v 1.7429487 20 -0.85465187
v 1.94032 20 -0.60628307
v 1.8485347 20 -0.73548853
v 1.6259682 20 -0.96322507
v 2.0728614 20 -0.31993777
v 2.1088045 20 -0.16389392
v 2.0728614 20 0.31993777
v 2.1088045 20 0.16389392
v 1.94032 20 0.60628307
v 1.7429487 20 0.85465187
v 1.8485347 20 0.73548853
v 1.1558154 20 1.2577939
v 1.6259682 20 0.96322507
v 2.0158978 20 0.46758348
v 0.78329217 20 1.3939967
v 0.39526385 20 1.473731
v 2.0158978 20 -0.46758348
v -2.1075094 20.002136 -0.18369444
v -2.0616133 20.002136 -0.35955703
v -2.123456 20.002136 -2.0287081e-16
v -1.9886832 20.002136 -0.52609956
v -1.776657 20.002136 -0.82192796
v -1.6461778 20.002136 -0.94792396
v -1.5032837 20.002136 -1.0598338
v -1.8916343 20.002136 -0.68183374
v -2.0616913 20.002136 0.35932636
v -2.1075387 20.002136 0.18351579
v -1.9887707 20.002136 0.52593219
v -1.7766447 20.002136 0.82194227
v -1.8916343 20.002136 0.68183374
v -1.6461608 20.002136 0.94794017
v -1.5032706 20.002136 1.0598439
v -1.3510618 20.002136 -1.1576697
v -1.034234 20.002136 -1.3104911
v -0.6989159 20.002136 -1.416774
v -0.0021356237 20.002136 -1.5
v 3.5527137e-15 20.002136 -1.4999988
v -0.353028 20.002136 -1.4793367
v -1.3510618 20.002136 1.1576697
v -1.0342339 20.002136 1.310491
v -0.6989159 20.002136 1.416774
v -0.35302809 20.002136 1.4793367
v -0.0021356237 20.002136 1.5
v 3.5527137e-15 20.002136 1.4999988
v 20.002136 -1.7631065e-15 -1.4999988
v 20.002136 -0.0021356237 -1.5
v 20.002136 -0.35302809 -1.4793367
v 20.002136 -0.6989159 -1.416774
v 20.002136 -1.0342339 -1.310491
v 20.002136 -1.3510618 -1.1576697
v 20.002136 -1.5032706 -1.0598439
v 20.002136 -0.35302809 1.4793367
v 20.002136 -0.0021356237 1.5
v 20.002136 -1.7769426e-15 1.4999988
v 20.002136 -0.6989159 1.416774
v 20.002136 -1.5032706 1.0598439
v 20.002136 -1.3510618 1.1576697
v 20.002136 -1.0342339 1.310491
v 20.002136 -1.6461608 -0.94794017
v 20.002136 -1.7766447 -0.82194227
v 20.002136 -1.8916343 -0.68183374
v 20.002136 -1.9887707 -0.52593219
v 20.002136 -2.0616913 -0.35932636
v 20.002136 -2.1075387 -0.18351579
v 20.002136 -2.123456 -9.1848507e-17
v 20.002136 -1.8916343 0.68183374
v 20.002136 -1.7766447 0.82194227
v 20.002136 -1.6461608 0.94794017
v 20.002136 -2.1075387 0.18351579
v 20.002136 -2.0616913 0.35932636
v 20.002136 -1.9887707 0.52593219
v 0.00053390634 -20.002136 -1.4999986
v -1.7763568e-15 -20.002136 -1.4999988
v 0.0010678124 -20.002136 -1.4999982
v 0.0016017182 -20.002136 -1.4999976
v 0.0021356237 -20.002136 -1.4999969
v 0.00053390622 -20.002136 1.4999986
v 0.0010678123 -20.002136 1.4999982
v 0.0016017181 -20.002136 1.4999976
v 0 -20.002136 1.4999988
v 0.0021356237 -20.002136 1.4999969
v -2.0576067 -20.002136 -0.35879093
v -2.1033168 -20.002136 -0.18323168
v -2.1191847 -20.002136 -9.1848507e-17
v -2.1033168 -20.002136 0.18323168
v -1.0325092 -20.002136 -1.3094865
v -1.3487135 -20.002136 -1.156548
v -1.9848956 -20.002136 -0.5251838
v -1.8880247 -20.002136 -0.68091631
v -1.500594 -20.002136 -1.0587134
v -1.6431576 -20.002136 -0.94683951
v -1.7733269 -20.002136 -0.82091194
v -0.35249025 -20.002136 -1.4788916
v -0.69779885 -20.002136 -1.4159964
v -0.0021356237 -20.002136 -1.4999969
v -1.9848956 -20.002136 0.5251838
v -1.8880247 -20.002136 0.68091631
v -2.0576067 -20.002136 0.35879093
v -1.7733269 -20.002136 0.82091194
v -1.6431576 -20.002136 0.94683951
v -1.500594 -20.002136 1.0587134
v -1.3487135 -20.002136 1.156548
v -1.0325092 -20.002136 1.3094865
v -0.69779885 -20.002136 1.4159964
v -0.35249025 -20.002136 1.4788916
v -0.0021356237 -20.002136 1.4999969
v -0.0016017182 -20.002136 1.4999976
v -0.0010678124 -20.002136 1.4999982
v -0.00053390634 -20.002136 1.4999986
v -0.00053390622 -20.002136 -1.4999986
v -0.0016017181 -20.002136 -1.4999976
v -0.0010678123 -20.002136 -1.4999982
v -20.002136 -2.0616913 -0.35932636
v -20.002136 -1.9887707 -0.52593219
v -20.002136 -2.123456 -3.1389313e-16
v -20.002136 -2.1075387 -0.18351579
v -20.002136 -1.7766447 -0.82194227
v -20.002136 -1.6461608 -0.94794017
v -20.002136 -1.5032706 -1.0598439
v -20.002136 -1.8916343 -0.68183374
v -20.002136 -2.0616913 0.35932636
v -20.002136 -2.1075387 0.18351579
v -20.002136 -1.9887707 0.52593219
v -20.002136 -1.7766447 0.82194227
v -20.002136 -1.8916343 0.68183374
v -20.002136 -1.6461608 0.94794017
v -20.002136 -1.5032706 1.0598439
v -20.002136 -1.3510618 -1.1576697
v -20.002136 -1.0342339 -1.310491
v -20.002136 -0.6989159 -1.416774
v -20.002136 -0.0021356237 -1.5
v -20.002136 -5.3263587e-15 -1.4999988
v -20.002136 -0.35302809 -1.4793367
v -20.002136 -1.3510618 1.1576697
v -20.002136 -1.0342339 1.310491
v -20.002136 -0.6989159 1.416774
v -20.002136 -0.35302809 1.4793367
v -20.002136 -5.3296639e-15 1.4999988
v -20.002136 -0.0021356237 1.5
v 1.0325092 -20.002136 -1.3094865
v 0.69779885 -20.002136 -1.4159964
v 1.3487135 -20.002136 -1.156548
v 0.35249025 -20.002136 -1.4788916
v 1.500594 -20.002136 -1.0587134
v 1.6431576 -20.002136 -0.94683951
v 1.7733269 -20.002136 -0.82091194
v 1.8880247 -20.002136 -0.68091631
v 1.0325092 -20.002136 1.3094865
v 1.3487135 -20.002136 1.156548
v 0.35249025 -20.002136 1.4788916
v 0.69779885 -20.002136 1.4159964
v 1.500594 -20.002136 1.0587134
v 1.9848956 -20.002136 -0.5251838
v 1.8880247 -20.002136 0.68091631
v 1.9848956 -20.002136 0.5251838
v 2.1033168 -20.002136 -0.18323168
v 2.0576067 -20.002136 -0.35879093
v 2.1033168 -20.002136 0.18323168
v 2.1191847 -20.002136 -2.0287081e-16
v 2.0576067 -20.002136 0.35879093
v 1.6431576 -20.002136 0.94683951
v 1.7733269 -20.002136 0.82091194
v 0.0021356237 20.002136 -1.5
v 0 20 -1.5
v 1.0342339 20.002136 -1.310491
v 1.3327049 20 -1.1670355
v 1.5032706 20.002136 -1.0598439
v 1.0342339 20.002136 1.310491
v 0.0021356237 20.002136 1.5
v 0 20 1.5
v 1.5032706 20.002136 1.0598439
v 1.3327049 20 1.1670355
v 20.002136 2.1075094 -0.18369444
v 20.002136 2.0616133 -0.35955703
v 20.002136 2.123456 -2.0287081e-16
v 20.002136 1.9886832 -0.52609956
v 20.002136 1.776657 -0.82192796
v 20.002136 1.6461778 -0.94792396
v 20.002136 1.5032837 -1.0598338
v 20.002136 1.8916343 -0.68183374
v 20.002136 2.0616913 0.35932636
v 20.002136 2.1075387 0.18351579
v 20.002136 1.9887707 0.52593219
v 20.002136 1.7766447 0.82194227
v 20.002136 1.8916343 0.68183374
v 20.002136 1.6461608 0.94794017
v 20.002136 1.5032706 1.0598439
v 20.002136 1.3510618 -1.1576697
v 20.002136 1.034234 -1.3104911
v 20.002136 0.6989159 -1.416774
v 20.002136 0.0021356237 -1.5
v 20.002136 0.353028 -1.4793367
v 20.002136 1.3510618 1.1576697
v 20.002136 1.0342339 1.310491
v 20.002136 0.6989159 1.416774
v 20.002136 0.35302809 1.4793367
v 20.002136 0.0021356237 1.5
v -20.002136 0.0021356237 -1.5
v -20.002136 0.35302809 -1.4793367
v -20.002136 0.6989159 -1.416774
v -20.002136 1.0342339 -1.310491
v -20.002136 1.3510618 -1.1576697
v -20.002136 1.5032706 -1.0598439
v -20.002136 0.35302809 1.4793367
v -20.002136 0.0021356237 1.5
v -20.002136 0.6989159 1.416774
v -20.002136 1.5032706 1.0598439
v -20.002136 1.3510618 1.1576697
v -20.002136 1.0342339 1.310491
v -20.002136 1.6461608 -0.94794017
v -20.002136 1.7766447 -0.82194227
v -20.002136 1.8916343 -0.68183374
v -20.002136 1.9887707 -0.52593219
v -20.002136 2.0616913 -0.35932636
v -20.002136 2.1075387 -0.18351579
v -20.002136 2.123456 -2.5838197e-16
v -20.002136 1.8916343 0.68183374
v -20.002136 1.7766447 0.82194227
v -20.002136 1.6461608 0.94794017
v -20.002136 2.1075387 0.18351579
v -20.002136 2.0616913 0.35932636
v -20.002136 1.9887707 0.52593219
v 10 102.05576 -0.37005267
v 10 101.97006 -0.5562638
v 10 101.84729 -0.73739761
v 10 101.68851 -0.90799814
v 10 102.11717 -0.094326638
v 10 102.10461 -0.18785922
v 10 102.12132 -1.8369701e-16
v 10 101.49684 -1.0628899
v 10 101.27726 -1.1976237
v 10 101.03623 -1.3088576
v 10 100.78111 -1.3946096
v 10 101.97006 0.5562638
v 10 102.05576 0.37005267
v 10 101.84729 0.73739761
v 10 102.10461 0.18785922
v 10 101.68851 0.90799814
v 10 101.49684 1.0628899
v 10 101.27726 1.1976237
v 10 102.11717 0.094326638
v 10 101.03623 1.3088576
v 10 100.78111 1.3946096
v -11.688514 80 -0.90799814
v -11.49684 80 -1.0628899
v -11.277261 80 -1.1976237
v -12.055755 80 -0.37005267
v -11.970061 80 -0.5562638
v -11.847293 80 -0.73739761
v -11.036235 80 -1.3088576
v -10.781107 80 -1.3946096
v -12.104614 80 -0.18785922
v -12.117174 80 0.094326638
v -12.121321 80 -1.8369701e-16
v -12.117174 80 -0.094326638
v -12.055755 80 0.37005267
v -12.104614 80 0.18785922
v -11.970061 80 0.5562638
v -11.847293 80 0.73739761
v -11.688514 80 0.90799814
v -11.49684 80 1.0628899
v -11.277261 80 1.1976237
v -11.036235 80 1.3088576
v -10.781107 80 1.3946096
v 10 57.944244 -0.37005267
v 10 58.029938 -0.5562638
v 10 58.152706 -0.73739761
v 10 58.311485 -0.90799814
v 10 57.882824 -0.094326638
v 10 57.895386 -0.18785922
v 10 57.878681 -1.8369701e-16
v 10 58.503159 -1.0628899
v 10 58.72274 -1.1976237
v 10 58.963764 -1.3088576
v 10 59.218891 -1.3946096
v 10 58.029938 0.5562638
v 10 57.944244 0.37005267
v 10 58.152706 0.73739761
v 10 57.895386 0.18785922
v 10 58.311485 0.90799814
v 10 58.503159 1.0628899
v 10 58.72274 1.1976237
v 10 57.882824 0.094326638
v 10 58.963764 1.3088576
v 10 59.218891 1.3946096
v 31.688515 80 -0.90799814
v 31.49684 80 -1.0628899
v 31.27726 80 -1.1976237
v 32.055756 80 -0.37005267
v 31.97006 80 -0.5562638
v 31.847292 80 -0.73739761
v 31.036236 80 -1.3088576
v 30.781107 80 -1.3946096
v 32.104614 80 -0.18785922
v 32.117176 80 0.094326638
v 32.121319 80 -1.8369701e-16
v 32.117176 80 -0.094326638
v 32.055756 80 0.37005267
v 32.104614 80 0.18785922
v 31.97006 80 0.5562638
v 31.847292 80 0.73739761
v 31.688515 80 0.90799814
v 31.49684 80 1.0628899
v 31.27726 80 1.1976237
v 31.036236 80 1.3088576
v 30.781107 80 1.3946096
v 18.72274 -8.3001512e-15 -1.1976237
v 18.50316 -8.096494e-15 -1.0628899
v 19.218893 -2.8596197e-15 -1.3946096
v 18.963764 -8.3225358e-15 -1.3088576
v 20 1.3489262 -1.1576697
v 20 1.0320983 -1.310491
v 20 1.6440252 -0.94794017
v 20 1.501135 -1.0598439
v 20 0.69678026 -1.416774
v 18.311485 6.7577363e-16 -0.90799814
v 17.895386 -2.4452416e-15 -0.18785922
v 17.882826 -1.9825941e-15 -0.094326638
v 17.944246 -3.0142919e-15 -0.37005267
v 17.878679 -3.0253577e-15 -1.8369701e-16
v 20 1.7745091 -0.82194227
v 20 1.8894987 -0.68183374
v 18.152708 2.7681189e-15 -0.73739761
v 18.02994 1.4550771e-15 -0.5562638
v 20 1.9866351 -0.52593219
v 20 1.501135 1.0598439
v 20 1.6440252 0.94794017
v 20 1.0320983 1.310491
v 20 1.3489262 1.1576697
v 20 0.69678026 1.416774
v 18.50316 -2.9950613e-15 1.0628899
v 18.72274 -3.2990135e-15 1.1976237
v 18.963764 -3.2626625e-15 1.3088576
v 19.218893 -2.7991921e-15 1.3946096
v 20 1.7745091 0.82194227
v 20 1.9866351 0.52593219
v 20 2.0595555 0.35932636
v 20 2.1054029 -0.18351579
v 20 2.0595555 -0.35932636
v 20 2.1054029 0.18351579
v 20 2.1213202 -1.8369701e-16
v 20 1.8894987 0.68183374
v 18.152708 -2.1884606e-15 0.73739761
v 18.311485 -9.4018641e-15 0.90799814
v 18.02994 -3.394432e-15 0.5562638
v 17.882826 -6.9548758e-16 0.094326638
v 17.895386 -2.7272646e-15 0.18785922
v 17.944246 -8.280722e-15 0.37005267
v 0 17.895386 -0.18785922
v 0 17.944246 -0.37005267
v 0 17.882826 -0.094326638
v 0 18.02994 -0.5562638
v 0 18.152708 -0.73739761
v 0 18.311485 -0.90799814
v 2.1213202 20 -1.8369701e-16
v -1.1379834e-15 18.72274 -1.1976237
v -4.7237626e-15 18.963764 -1.3088576
v 0 18.50316 -1.0628899
v -2.0896097e-15 19.218893 -1.3946096
v 1.5 20 -1.0606601
v -8.153789e-15 18.152708 0.73739761
v 2.8857892e-15 18.02994 0.5562638
v 2.1681212e-15 17.944246 0.37005267
v 2.7101515e-16 17.895386 0.18785922
v 3.3876894e-17 17.882826 0.094326638
v 0 17.878679 -1.8369701e-16
v 1.5 20 1.0606601
v -1.2439201e-15 18.72274 1.1976237
v -4.7236952e-15 18.50316 1.0628899
v -3.6694204e-15 18.311485 0.90799814
v -5.0158174e-15 19.218893 1.3946096
v -1.1663045e-15 18.963764 1.3088576
v -1.3489262 20 -1.1576697
v -1.0320983 20 -1.310491
v -1.501135 20 -1.0598439
v -0.69678026 20 -1.416774
v -1.6440252 20 -0.94794017
v -2.1213202 20 -1.8369701e-16
v -2.1054029 20 -0.18351579
v -1.7745091 20 -0.82194227
v -1.8894987 20 -0.68183374
v -2.0595555 20 -0.35932636
v -1.9866351 20 -0.52593219
v -1.3489262 20 1.1576697
v -1.501135 20 1.0598439
v -1.0320983 20 1.310491
v -0.69678026 20 1.416774
v -1.7745091 20 0.82194227
v -1.8894987 20 0.68183374
v -1.6440252 20 0.94794017
v -2.0595555 20 0.35932636
v -2.1054029 20 0.18351579
v -1.9866351 20 0.52593219
v -17.895386 1.9619085e-15 -0.18785922
v -17.944246 -5.2373614e-16 -0.37005267
v -17.882826 1.0340167e-15 -0.094326638
v -18.152708 -1.7080063e-15 -0.73739761
v -18.311485 1.3749263e-15 -0.90799814
v -18.02994 -1.69061e-15 -0.5562638
v -20 2.0595555 -0.35932636
v -20 2.1054029 -0.18351579
v -20 1.9866351 -0.52593219
v -20 1.7745091 -0.82194227
v -20 1.8894987 -0.68183374
v -20 1.6440252 -0.94794017
v -18.50316 -8.0805969e-16 -1.0628899
v -20 2.1213202 -1.8369701e-16
v -18.963764 2.5963881e-16 -1.3088576
v -19.218893 -4.1043443e-15 -1.3946096
v -18.72274 2.378315e-15 -1.1976237
v -20 1.501135 -1.0598439
v -20 1.3489262 -1.1576697
v -20 0.69678026 -1.416774
v -20 1.0320983 -1.310491
v -20 2.0595555 0.35932636
v -20 1.9866351 0.52593219
v -20 2.1054029 0.18351579
v -20 1.7745091 0.82194227
v -20 1.6440252 0.94794017
v -20 1.8894987 0.68183374
v -17.882826 -1.7099716e-15 0.094326638
v -17.878679 -3.3306691e-15 0
v -17.895386 -1.8266293e-15 0.18785922
v -18.311485 1.2969902e-15 0.90799814
v -18.152708 -1.7150437e-15 0.73739761
v -18.02994 -1.7106594e-15 0.5562638
v -17.944246 -3.0975745e-15 0.37005267
v -20 1.501135 1.0598439
v -20 1.3489262 1.1576697
v -20 1.0320983 1.310491
v -20 0.69678026 1.416774
v -18.72274 4.8418813e-15 1.1976237
v -18.50316 -7.9112433e-16 1.0628899
v -18.963764 -2.3601629e-15 1.3088576
v -19.218893 -2.8082719e-15 1.3946096
v 20 -1.3489262 -1.1576697
v 20 -1.0320983 -1.310491
v 20 -1.501135 -1.0598439
v 20 -0.69678026 -1.416774
v 20 -1.3489262 1.1576697
v 20 -1.501135 1.0598439
v 20 -1.6440252 0.94794017
v 20 -0.69678026 1.416774
v 20 -1.0320983 1.310491
v 20 -1.6440252 -0.94794017
v 20 -1.7745091 -0.82194227
v 20 -1.9866351 -0.52593219
v 20 -1.8894987 -0.68183374
v 20 -2.0595555 -0.35932636
v 20 -2.1213202 -1.8369701e-16
v 20 -2.1054029 -0.18351579
v 20 -1.7745091 0.82194227
v 20 -1.8894987 0.68183374
v 20 -1.9866351 0.52593219
v 20 -2.1054029 0.18351579
v 20 -2.0595555 0.35932636
v -20 -1.0320983 -1.310491
v -20 -0.69678026 -1.416774
v -20 -1.501135 -1.0598439
v -20 -1.3489262 -1.1576697
v -20 -1.7745091 -0.82194227
v -20 -1.6440252 -0.94794017
v 0 -17.878679 0
v -6.760178e-15 -17.882826 -0.094326638
v -7.6964666e-15 -17.895386 -0.18785922
v -20 -1.9866351 -0.52593219
v -20 -1.8894987 -0.68183374
v -20 -2.1054029 -0.18351579
v -20 -2.0595555 -0.35932636
v -20 -2.1213202 -1.8369701e-16
v -3.9295879e-15 -17.944246 -0.37005267
v -20 -1.501135 1.0598439
v -20 -1.6440252 0.94794017
v -20 -1.0320983 1.310491
v -20 -1.3489262 1.1576697
v -20 -0.69678026 1.416774
v -20 -1.7745091 0.82194227
v -20 -1.8894987 0.68183374
v -20 -1.9866351 0.52593219
v -20 -2.1054029 0.18351579
v -20 -2.0595555 0.35932636
v 9.4005334e-15 -17.944246 0.37005267
v 1.0253057e-15 -17.895386 0.18785922
v -1.9076785e-15 -17.882826 0.094326638
v -6.0272421e-15 -18.152708 -0.73739761
v -2.3806795e-15 -18.311485 -0.90799814
v -6.103265e-15 -18.02994 -0.5562638
v -4.7236952e-15 -18.50316 -1.0628899
v -1.2439201e-15 -18.72274 -1.1976237
v -2.3326091e-15 -18.963764 -1.3088576
v -8.2240784e-15 -19.218893 -1.3946096
v -2.3440684e-15 -18.311485 0.90799814
v 4.9490568e-15 -18.152708 0.73739761
v 8.1075902e-15 -18.02994 0.5562638
v -2.3816648e-15 -18.963764 1.3088576
v -3.4796037e-15 -18.72274 1.1976237
v 2.3419629e-15 -18.50316 1.0628899
v -5.0158174e-15 -19.218893 1.3946096
v 10 97.878677 0
v 10 97.882828 -0.094326638
v 10 97.895386 -0.18785922
v 10 97.944244 -0.37005267
v 10 98.029938 -0.5562638
v 10 98.311485 -0.90799814
v 10 98.503159 -1.0628899
v 10 98.029938 0.5562638
v 10 97.944244 0.37005267
v 10 97.895386 0.18785922
v 10 97.882828 0.094326638
v 10 98.15271 -0.73739761
v 10 98.72274 -1.1976237
v 10 98.963768 -1.3088576
v 10 99.218895 -1.3946096
v 10 98.15271 0.73739761
v 10 98.963768 1.3088576
v 10 98.72274 1.1976237
v 10 98.311485 0.90799814
v 10 98.503159 1.0628899
v 10 99.218895 1.3946096
v -7.8953862 80 -0.18785922
v -7.9442458 80 -0.37005267
v -7.8828259 80 -0.094326638
v -8.0299387 80 -0.5562638
v -8.1527071 80 -0.73739761
v -8.3114862 80 -0.90799814
v -8.5031605 80 -1.0628899
v -8.9637651 80 -1.3088576
v -9.2188931 80 -1.3946096
v -8.7227392 80 -1.1976237
v -8.9637651 80 1.3088576
v -8.7227392 80 1.1976237
v -9.2188931 80 1.3946096
v -8.5031605 80 1.0628899
v -7.9442458 80 0.37005267
v -7.8953862 80 0.18785922
v -7.8828259 80 0.094326638
v -7.8786798 80 0
v -8.3114862 80 0.90799814
v -8.1527071 80 0.73739761
v -8.0299387 80 0.5562638
v 10 62.104614 -0.18785922
v 10 62.055756 -0.37005267
v 10 62.117176 -0.094326638
v 10 61.970062 -0.5562638
v 10 61.847294 -0.73739761
v 10 61.688515 -0.90799814
v 10 61.496841 -1.0628899
v 10 61.036236 -1.3088576
v 10 60.781109 -1.3946096
v 10 61.27726 -1.1976237
v 10 61.036236 1.3088576
v 10 61.27726 1.1976237
v 10 60.781109 1.3946096
v 10 61.496841 1.0628899
v 10 62.055756 0.37005267
v 10 62.104614 0.18785922
v 10 62.117176 0.094326638
v 10 62.121319 0
v 10 61.688515 0.90799814
v 10 61.847294 0.73739761
v 10 61.970062 0.5562638
v 27.895386 80 -0.18785922
v 27.944246 80 -0.37005267
v 27.882826 80 -0.094326638
v 28.02994 80 -0.5562638
v 28.152708 80 -0.73739761
v 28.311485 80 -0.90799814
v 28.50316 80 -1.0628899
v 28.963764 80 -1.3088576
v 29.218893 80 -1.3946096
v 28.72274 80 -1.1976237
v 28.963764 80 1.3088576
v 28.72274 80 1.1976237
v 29.218893 80 1.3946096
v 28.50316 80 1.0628899
v 27.944246 80 0.37005267
v 27.895386 80 0.18785922
v 27.882826 80 0.094326638
v 27.878679 80 0
v 28.311485 80 0.90799814
v 28.152708 80 0.73739761
v 28.02994 80 0.5562638
# </points>

# <edges count="622">
l 40 41
l 42 40
l 41 43
l 44 45
l 45 46
l 43 47
l 47 44
l 48 49
l 49 42
l 50 48
l 51 52
l 52 50
l 53 51
l 54 53
l 55 56
l 56 57
l 46 55
l 58 59
l 57 60
l 60 58
l 61 54
l 62 61
l 63 62
l 64 63
l 65 64
l 66 65
l 67 68
l 68 69
l 69 70
l 70 71
l 71 72
l 72 73
l 74 75
l 75 76
l 77 74
l 78 79
l 80 77
l 79 80
l 73 81
l 81 82
l 82 83
l 83 84
l 84 85
l 85 86
l 86 87
l 88 89
l 89 90
l 90 78
l 91 92
l 93 88
l 92 93
l 87 91
l 94 95
l 96 94
l 97 96
l 98 97
l 99 100
l 100 101
l 102 99
l 101 103
l 104 105
l 105 106
l 106 107
l 108 109
l 110 104
l 111 110
l 109 112
l 113 114
l 112 113
l 114 111
l 115 116
l 116 108
l 117 115
l 118 119
l 120 118
l 121 122
l 123 124
l 122 123
l 119 121
l 125 126
l 124 125
l 107 120
l 127 128
l 126 127
l 128 129
l 130 131
l 131 102
l 129 130
l 95 132
l 133 117
l 134 133
l 132 134
l 135 136
l 137 138
l 138 135
l 139 140
l 140 141
l 136 142
l 142 139
l 143 144
l 144 137
l 145 143
l 146 147
l 147 145
l 148 146
l 149 148
l 150 151
l 151 152
l 141 150
l 153 154
l 152 155
l 155 153
l 156 149
l 157 156
l 158 157
l 159 158
l 160 161
l 161 159
l 162 163
l 164 162
l 165 98
l 163 165
l 166 164
l 167 166
l 168 167
l 169 168
l 170 171
l 103 172
l 172 173
l 173 170
l 171 174
l 175 169
l 176 177
l 178 179
l 180 181
l 182 180
l 181 178
l 179 175
l 177 182
l 183 184
l 174 183
l 184 176
l 59 185
l 1 186
l 185 1
l 20 1
l 2 20
l 1 2
l 21 187
l 187 22
l 21 2
l 3 22
l 188 3
l 3 189
l 37 4
l 4 38
l 37 190
l 5 38
l 4 5
l 191 66
l 192 5
l 5 191
l 35 6
l 6 193
l 193 7
l 34 7
l 190 34
l 194 7
l 26 8
l 8 23
l 189 8
l 9 23
l 8 9
l 25 9
l 10 25
l 9 10
l 10 24
l 24 11
l 11 39
l 10 11
l 12 39
l 11 12
l 12 27
l 13 27
l 12 13
l 28 13
l 14 28
l 13 14
l 16 31
l 31 15
l 15 16
l 16 33
l 36 15
l 32 17
l 6 32
l 17 6
l 17 33
l 16 17
l 14 30
l 18 30
l 14 18
l 36 19
l 19 15
l 29 19
l 29 18
l 18 19
l 195 196
l 197 195
l 196 198
l 199 200
l 200 201
l 198 202
l 202 199
l 203 204
l 204 197
l 205 203
l 206 207
l 207 205
l 208 206
l 209 208
l 210 211
l 211 212
l 201 210
l 213 67
l 212 214
l 214 213
l 215 209
l 216 215
l 217 216
l 218 217
l 76 219
l 219 218
l 154 220
l 220 221
l 221 222
l 222 223
l 223 224
l 224 225
l 226 227
l 227 160
l 228 226
l 229 230
l 231 228
l 230 231
l 225 232
l 232 233
l 233 234
l 234 235
l 235 236
l 236 237
l 237 238
l 239 240
l 240 241
l 241 229
l 242 243
l 244 239
l 243 244
l 238 242
l 245 246
l 246 247
l 247 248
l 249 250
l 250 245
l 251 249
l 248 252
l 253 254
l 254 255
l 252 253
l 256 257
l 258 256
l 257 259
l 260 258
l 261 260
l 262 261
l 259 263
l 264 262
l 265 264
l 263 251
l 266 267
l 267 268
l 269 270
l 270 271
l 271 266
l 268 272
l 272 273
l 274 269
l 275 276
l 276 277
l 278 279
l 280 278
l 279 275
l 277 274
l 281 280
l 282 281
l 283 282
l 284 283
l 285 284
l 286 285
l 287 288
l 288 289
l 289 290
l 291 292
l 292 287
l 293 291
l 290 294
l 295 296
l 296 297
l 294 295
l 298 299
l 300 298
l 299 301
l 302 300
l 303 302
l 304 303
l 301 305
l 306 304
l 307 306
l 305 293
l 308 309
l 309 310
l 311 312
l 312 313
l 313 308
l 310 314
l 314 315
l 316 311
l 317 318
l 318 319
l 320 321
l 322 320
l 321 317
l 319 316
l 323 322
l 324 323
l 325 324
l 326 325
l 327 326
l 328 327
l 329 330
l 331 332
l 332 329
l 333 334
l 335 336
l 336 333
l 334 337
l 330 338
l 339 340
l 341 339
l 340 342
l 343 335
l 344 343
l 345 346
l 338 345
l 346 341
l 347 344
l 348 349
l 350 351
l 351 348
l 352 350
l 353 354
l 354 355
l 355 356
l 349 357
l 358 359
l 360 361
l 362 363
l 363 360
l 361 347
l 359 362
l 357 364
l 365 366
l 364 358
l 366 353
l 367 365
l 368 369
l 370 367
l 369 370
l 342 368
l 371 372
l 373 371
l 374 375
l 23 25
l 375 376
l 372 374
l 25 24
l 28 377
l 30 29
l 24 39
l 39 27
l 27 28
l 29 36
l 377 30
l 378 379
l 380 378
l 379 381
l 188 382
l 26 23
l 382 26
l 20 21
l 21 22
l 186 20
l 376 380
l 36 31
l 31 33
l 383 384
l 32 35
l 33 32
l 385 386
l 387 388
l 386 387
l 384 385
l 389 194
l 37 38
l 38 192
l 34 37
l 390 391
l 392 383
l 391 392
l 393 394
l 394 390
l 35 389
l 388 373
l 395 396
l 397 395
l 396 398
l 399 397
l 400 401
l 402 399
l 403 402
l 404 405
l 405 403
l 401 404
l 406 407
l 408 406
l 409 408
l 410 411
l 412 410
l 413 414
l 415 413
l 411 415
l 414 400
l 407 412
l 416 417
l 418 416
l 419 420
l 421 419
l 417 421
l 422 423
l 424 422
l 425 426
l 426 424
l 427 425
l 420 428
l 423 429
l 430 431
l 432 430
l 433 427
l 434 433
l 435 436
l 436 434
l 428 432
l 437 438
l 439 437
l 440 441
l 442 440
l 438 442
l 443 444
l 445 443
l 446 447
l 448 449
l 447 448
l 449 445
l 441 450
l 429 439
l 451 452
l 450 451
l 452 453
l 454 455
l 456 454
l 457 456
l 455 446
l 444 418
l 458 459
l 460 458
l 459 461
l 462 463
l 463 464
l 465 466
l 466 462
l 467 460
l 468 467
l 469 470
l 470 468
l 471 469
l 472 473
l 473 471
l 474 475
l 475 476
l 464 474
l 477 472
l 476 478
l 478 477
l 479 480
l 481 482
l 483 484
l 484 481
l 482 479
l 485 486
l 486 487
l 488 489
l 490 491
l 492 490
l 491 488
l 489 483
l 487 493
l 494 495
l 496 497
l 497 494
l 498 496
l 495 499
l 499 500
l 500 501
l 502 492
l 503 502
l 501 503
l 504 505
l 506 485
l 505 506
l 507 508
l 509 507
l 510 511
l 511 512
l 508 510
l 512 513
l 514 515
l 516 504
l 515 516
l 517 518
l 518 519
l 519 514
l 520 517
l 493 509
l 521 522
l 522 523
l 524 525
l 526 527
l 523 524
l 528 529
l 530 531
l 531 521
l 529 530
l 532 526
l 525 532
l 527 533
l 534 535
l 533 534
l 536 528
l 537 538
l 539 536
l 540 539
l 538 540
l 541 537
l 542 543
l 544 542
l 545 546
l 547 548
l 546 547
l 543 545
l 549 550
l 551 549
l 548 551
l 552 553
l 554 552
l 553 555
l 556 557
l 558 559
l 557 558
l 555 560
l 561 562
l 560 561
l 562 556
l 559 544
l 563 564
l 565 563
l 566 567
l 568 569
l 567 568
l 564 566
l 570 571
l 572 570
l 569 572
l 573 574
l 575 573
l 574 576
l 577 578
l 579 580
l 578 579
l 576 581
l 582 583
l 581 582
l 583 577
l 580 565
l 584 585
l 586 584
l 587 588
l 589 590
l 588 589
l 585 587
l 591 592
l 593 591
l 590 593
l 594 595
l 596 594
l 595 597
l 598 599
l 600 601
l 599 600
l 597 602
l 603 604
l 602 603
l 604 598
l 601 586
# </edges>
