v 0.35302809 20.002136 -1.4793367
v 0.6989159 20.002136 -1.416774
v 1.3510618 20.002136 -1.1576697
v 0.6989159 20.002136 1.416774
v 0.35302809 20.002136 1.4793367
v 1.6461608 20.002136 0.94794017
v 1.3510618 20.002136 1.1576697
v 1.6461608 20.002136 -0.94794017
v 1.7766447 20.002136 -0.82194227
v 1.8916343 20.002136 -0.68183374
v 1.9887707 20.002136 -0.52593219
v 2.0616913 20.002136 -0.35932636
v 2.1075387 20.002136 -0.18351579
v 2.123456 20.002136 -6.4696001e-16
v 1.9887707 20.002136 0.52593219
v 1.8916343 20.002136 0.68183374
v 1.7766447 20.002136 0.82194227
v 2.1075387 20.002136 0.18351579
v 2.0616913 20.002136 0.35932636
