v 0.39526385 20 -1.473731
v 0.78329217 20 -1.3939967
v 1.1558154 20 -1.2577939
v 1.7429487 20 -0.85465187
v 1.94032 20 -0.60628307
v 1.8485347 20 -0.73548853
v 1.6259682 20 -0.96322507
v 2.0728614 20 -0.31993777
v 2.1088045 20 -0.16389392
v 2.0728614 20 0.31993777
v 2.1088045 20 0.16389392
v 1.94032 20 0.60628307
v 1.7429487 20 0.85465187
v 1.8485347 20 0.73548853
v 1.1558154 20 1.2577939
v 1.6259682 20 0.96322507
v 2.0158978 20 0.46758348
v 0.78329217 20 1.3939967
v 0.39526385 20 1.473731
v 2.0158978 20 -0.46758348
