# Wavefront OBJ file written 2026-06-21T21:51:50
o netSurface_edgeMesh

# points : 309
# lines  : 324

# <points count="309">
v 0.35302809 20.002136 -1.4793367
v 0.6989159 20.002136 -1.416774
v 0.35302809 20.002136 1.4793367
v 0.6989159 20.002136 1.416774
v 1.1558154 20 -1.2577939
v 0.39526385 20 -1.473731
v 2.0728614 20 -0.31993777
v 0.39526385 20 1.473731
v 1.1558154 20 1.2577939
v 2.0728614 20 0.31993777
v 0.78329217 20 -1.3939967
v 0.78329217 20 1.3939967
v 1.3510618 20.002136 -1.1576697
v 1.3510618 20.002136 1.1576697
v 1.6461608 20.002136 -0.94794017
v 1.8916343 20.002136 -0.68183374
v 1.46735 19.998709 -1.0823802
v 1.8916343 20.002136 0.68183374
v 1.4673498 19.998709 1.0823803
v 1.6461608 20.002136 0.94794017
v 2.0616913 20.002136 -0.35932636
v 1.9901451 19.995083 -0.50976759
v 2.0616913 20.002136 0.35932636
v 1.9901451 19.995083 0.50976759
v 1.5312017 19.998573 -1.0370759
v 1.70996 19.998245 -0.88601106
v 1.7896863 19.99687 -0.80181456
v 1.9222438 19.998358 -0.63192779
v 1.9222438 19.998358 0.63192779
v 1.7896863 19.99687 0.80181456
v 1.70996 19.998245 0.88601106
v 1.5312017 19.998573 1.0370759
v 2.1213202 20 -1.8369701e-16
v -2.0616133 20.002136 -0.35955703
v -1.8916343 20.002136 -0.68183374
v -2.123456 20.002136 -2.0287081e-16
v -1.3510618 20.002136 -1.1576697
v -1.034234 20.002136 -1.3104911
v -1.6461778 20.002136 -0.94792396
v -2.0616913 20.002136 0.35932636
v -1.8916343 20.002136 0.68183374
v -1.6461608 20.002136 0.94794017
v -1.0342339 20.002136 1.310491
v -1.3510618 20.002136 1.1576697
v -0.6989159 20.002136 -1.416774
v -0.353028 20.002136 -1.4793367
v -0.0021356237 20.002136 -1.5
v 3.5527137e-15 20.002136 -1.4999988
v -0.6989159 20.002136 1.416774
v -0.35302809 20.002136 1.4793367
v -0.0021356237 20.002136 1.5
v 3.5527137e-15 20.002136 1.4999988
v 20.002136 -1.7631065e-15 -1.4999988
v 20.002136 -0.0021356237 -1.5
v 20.002136 -0.35302809 -1.4793367
v 20.002136 -0.6989159 -1.416774
v 20.002136 -1.0342339 -1.310491
v 20.002136 -0.0021356237 1.5
v 20.002136 -1.7769426e-15 1.4999988
v 20.002136 -0.35302809 1.4793367
v 20.002136 -1.0342339 1.310491
v 20.002136 -0.6989159 1.416774
v 20.002136 -1.3510618 -1.1576697
v 20.002136 -1.6461608 -0.94794017
v 20.002136 -1.8916343 -0.68183374
v 20.002136 -2.0616913 -0.35932636
v 20.002136 -2.123456 -9.1848507e-17
v 20.002136 -1.6461608 0.94794017
v 20.002136 -1.3510618 1.1576697
v 20.002136 -2.0616913 0.35932636
v 20.002136 -1.8916343 0.68183374
v 0.00053390634 -20.002136 -1.4999986
v -1.7763568e-15 -20.002136 -1.4999988
v 0.0010678124 -20.002136 -1.4999982
v 0.0016017182 -20.002136 -1.4999976
v 0.0021356237 -20.002136 -1.4999969
v 0.00053390622 -20.002136 1.4999986
v 0.0010678123 -20.002136 1.4999982
v 0.0016017181 -20.002136 1.4999976
v 0 -20.002136 1.4999988
v 0.0021356237 -20.002136 1.4999969
v -1.8880247 -20.002136 -0.68091631
v -2.0576067 -20.002136 -0.35879093
v -2.1191847 -20.002136 -9.1848507e-17
v -2.0576067 -20.002136 0.35879093
v -1.6431576 -20.002136 -0.94683951
v -0.69779885 -20.002136 -1.4159964
v -1.3487135 -20.002136 -1.156548
v -0.0021356237 -20.002136 -1.4999969
v -1.8880247 -20.002136 0.68091631
v -1.6431576 -20.002136 0.94683951
v -1.3487135 -20.002136 1.156548
v -0.69779885 -20.002136 1.4159964
v -0.0021356237 -20.002136 1.4999969
v -0.0016017182 -20.002136 1.4999976
v -0.0010678124 -20.002136 1.4999982
v -0.00053390634 -20.002136 1.4999986
v -0.00053390622 -20.002136 -1.4999986
v -0.0016017181 -20.002136 -1.4999976
v -0.0010678123 -20.002136 -1.4999982
v -20.002136 -2.0616913 -0.35932636
v -20.002136 -1.8916343 -0.68183374
v -20.002136 -2.123456 -3.1389313e-16
v -20.002136 -1.3510618 -1.1576697
v -20.002136 -1.0342339 -1.310491
v -20.002136 -1.6461608 -0.94794017
v -20.002136 -2.0616913 0.35932636
v -20.002136 -1.8916343 0.68183374
v -20.002136 -1.3510618 1.1576697
v -20.002136 -1.6461608 0.94794017
v -20.002136 -1.0342339 1.310491
v -20.002136 -0.6989159 -1.416774
v -20.002136 -0.35302809 -1.4793367
v -20.002136 -0.0021356237 -1.5
v -20.002136 -5.3263587e-15 -1.4999988
v -20.002136 -0.6989159 1.416774
v -20.002136 -0.35302809 1.4793367
v -20.002136 -0.0021356237 1.5
v -20.002136 -5.3296639e-15 1.4999988
v 0.69779885 -20.002136 -1.4159964
v 1.3487135 -20.002136 -1.156548
v 1.6431576 -20.002136 -0.94683951
v 0.69779885 -20.002136 1.4159964
v 1.3487135 -20.002136 1.156548
v 1.8880247 -20.002136 -0.68091631
v 2.1191847 -20.002136 -2.0287081e-16
v 2.0576067 -20.002136 -0.35879093
v 1.8880247 -20.002136 0.68091631
v 2.0576067 -20.002136 0.35879093
v 1.6431576 -20.002136 0.94683951
v 0.0021356237 20.002136 -1.5
v 0 20 -1.5
v 1.0342339 20.002136 -1.310491
v 0 20 1.5
v 0.0021356237 20.002136 1.5
v 1.0342339 20.002136 1.310491
v 20.002136 2.0616133 -0.35955703
v 20.002136 1.8916343 -0.68183374
v 20.002136 2.123456 -2.0287081e-16
v 20.002136 1.3510618 -1.1576697
v 20.002136 1.034234 -1.3104911
v 20.002136 1.6461778 -0.94792396
v 20.002136 1.8916343 0.68183374
v 20.002136 2.0616913 0.35932636
v 20.002136 1.3510618 1.1576697
v 20.002136 1.6461608 0.94794017
v 20.002136 1.0342339 1.310491
v 20.002136 0.6989159 -1.416774
v 20.002136 0.353028 -1.4793367
v 20.002136 0.0021356237 -1.5
v 20.002136 0.6989159 1.416774
v 20.002136 0.35302809 1.4793367
v 20.002136 0.0021356237 1.5
v -20.002136 0.0021356237 -1.5
v -20.002136 0.35302809 -1.4793367
v -20.002136 0.6989159 -1.416774
v -20.002136 1.0342339 -1.310491
v -20.002136 0.0021356237 1.5
v -20.002136 0.35302809 1.4793367
v -20.002136 1.0342339 1.310491
v -20.002136 0.6989159 1.416774
v -20.002136 1.3510618 -1.1576697
v -20.002136 1.6461608 -0.94794017
v -20.002136 1.8916343 -0.68183374
v -20.002136 2.0616913 -0.35932636
v -20.002136 2.123456 -2.5838197e-16
v -20.002136 1.6461608 0.94794017
v -20.002136 1.3510618 1.1576697
v -20.002136 2.0616913 0.35932636
v -20.002136 1.8916343 0.68183374
v 1.5 20 -1.0606601
v 1.7429487 20 -0.85465187
v 1.94032 20 -0.60628307
v 1.94032 20 0.60628307
v 1.7429487 20 0.85465187
v 1.5 20 1.0606601
v 20 1.0320983 -1.310491
v 20 0.69678026 -1.416774
v 19.218893 -2.8596197e-15 -1.3946096
v 18.963764 -8.3225358e-15 -1.3088576
v 18.72274 -8.3001512e-15 -1.1976237
v 18.50316 -8.096494e-15 -1.0628899
v 18.311485 6.7577363e-16 -0.90799814
v 18.152708 2.7681189e-15 -0.73739761
v 20 1.3489262 -1.1576697
v 20 1.6440252 -0.94794017
v 20 1.8894987 -0.68183374
v 18.72274 -3.2990135e-15 1.1976237
v 18.963764 -3.2626625e-15 1.3088576
v 19.218893 -2.7991921e-15 1.3946096
v 20 0.69678026 1.416774
v 20 1.0320983 1.310491
v 18.50316 -2.9950613e-15 1.0628899
v 20 1.3489262 1.1576697
v 18.311485 -9.4018641e-15 0.90799814
v 20 1.6440252 0.94794017
v 18.152708 -2.1884606e-15 0.73739761
v 17.944246 -8.280722e-15 0.37005267
v 18.02994 -3.394432e-15 0.5562638
v 20 1.8894987 0.68183374
v 18.02994 1.4550771e-15 -0.5562638
v 17.944246 -3.0142919e-15 -0.37005267
v 17.878679 -3.0253577e-15 -1.8369701e-16
v 20 2.0595555 -0.35932636
v 20 2.0595555 0.35932636
v 20 2.1213202 -1.8369701e-16
v 0 17.878679 -1.8369701e-16
v 0 17.944246 -0.37005267
v 2.1681212e-15 17.944246 0.37005267
v 2.8857892e-15 18.02994 0.5562638
v 0 18.152708 -0.73739761
v 0 18.311485 -0.90799814
v 0 18.02994 -0.5562638
v 0 18.50316 -1.0628899
v -1.1379834e-15 18.72274 -1.1976237
v -4.7237626e-15 18.963764 -1.3088576
v -2.0896097e-15 19.218893 -1.3946096
v -8.153789e-15 18.152708 0.73739761
v -4.7236952e-15 18.50316 1.0628899
v -3.6694204e-15 18.311485 0.90799814
v -1.2439201e-15 18.72274 1.1976237
v -1.1663045e-15 18.963764 1.3088576
v -5.0158174e-15 19.218893 1.3946096
v -1.0320983 20 -1.310491
v -0.69678026 20 -1.416774
v -1.3489262 20 -1.1576697
v -1.6440252 20 -0.94794017
v -1.8894987 20 -0.68183374
v -2.0595555 20 -0.35932636
v -2.1213202 20 -1.8369701e-16
v -0.69678026 20 1.416774
v -1.0320983 20 1.310491
v -1.3489262 20 1.1576697
v -1.8894987 20 0.68183374
v -2.0595555 20 0.35932636
v -1.6440252 20 0.94794017
v -17.944246 -5.2373614e-16 -0.37005267
v -18.02994 -1.69061e-15 -0.5562638
v -18.152708 -1.7080063e-15 -0.73739761
v -18.311485 1.3749263e-15 -0.90799814
v -20 1.8894987 -0.68183374
v -20 2.0595555 -0.35932636
v -18.50316 -8.0805969e-16 -1.0628899
v -18.72274 2.378315e-15 -1.1976237
v -20 1.3489262 -1.1576697
v -20 1.6440252 -0.94794017
v -20 2.1213202 -1.8369701e-16
v -18.963764 2.5963881e-16 -1.3088576
v -19.218893 -4.1043443e-15 -1.3946096
v -20 1.0320983 -1.310491
v -20 0.69678026 -1.416774
v -20 2.0595555 0.35932636
v -20 1.8894987 0.68183374
v -20 1.6440252 0.94794017
v -20 1.3489262 1.1576697
v -17.944246 -3.0975745e-15 0.37005267
v -17.878679 -3.3306691e-15 0
v -18.152708 -1.7150437e-15 0.73739761
v -18.02994 -1.7106594e-15 0.5562638
v -18.311485 1.2969902e-15 0.90799814
v -18.50316 -7.9112433e-16 1.0628899
v -20 1.0320983 1.310491
v -20 0.69678026 1.416774
v -18.72274 4.8418813e-15 1.1976237
v -19.218893 -2.8082719e-15 1.3946096
v -18.963764 -2.3601629e-15 1.3088576
v 20 -1.0320983 -1.310491
v 20 -0.69678026 -1.416774
v 20 -1.0320983 1.310491
v 20 -1.3489262 1.1576697
v 20 -0.69678026 1.416774
v 20 -1.3489262 -1.1576697
v 20 -1.6440252 -0.94794017
v 20 -1.8894987 -0.68183374
v 20 -2.0595555 -0.35932636
v 20 -2.1213202 -1.8369701e-16
v 20 -1.6440252 0.94794017
v 20 -1.8894987 0.68183374
v 20 -2.0595555 0.35932636
v -20 -1.3489262 -1.1576697
v -20 -1.0320983 -1.310491
v -20 -1.6440252 -0.94794017
v -20 -0.69678026 -1.416774
v 0 -17.878679 0
v -3.9295879e-15 -17.944246 -0.37005267
v -20 -2.0595555 -0.35932636
v -20 -1.8894987 -0.68183374
v -20 -2.1213202 -1.8369701e-16
v -6.103265e-15 -18.02994 -0.5562638
v -20 -1.0320983 1.310491
v -20 -1.3489262 1.1576697
v -20 -0.69678026 1.416774
v -20 -1.6440252 0.94794017
v -20 -1.8894987 0.68183374
v -20 -2.0595555 0.35932636
v 8.1075902e-15 -18.02994 0.5562638
v 9.4005334e-15 -17.944246 0.37005267
v -6.0272421e-15 -18.152708 -0.73739761
v -2.3806795e-15 -18.311485 -0.90799814
v -1.2439201e-15 -18.72274 -1.1976237
v -2.3326091e-15 -18.963764 -1.3088576
v -4.7236952e-15 -18.50316 -1.0628899
v -8.2240784e-15 -19.218893 -1.3946096
v -5.0158174e-15 -19.218893 1.3946096
v -2.3816648e-15 -18.963764 1.3088576
v 4.9490568e-15 -18.152708 0.73739761
v -2.3440684e-15 -18.311485 0.90799814
v -3.4796037e-15 -18.72274 1.1976237
v 2.3419629e-15 -18.50316 1.0628899
# </points>

# <edges count="324">
l 7 33
l 33 10
l 34 35
l 36 34
l 37 38
l 35 39
l 39 37
l 40 36
l 41 40
l 42 41
l 43 44
l 44 42
l 45 46
l 38 45
l 47 48
l 46 47
l 49 43
l 50 49
l 51 50
l 52 51
l 53 54
l 54 55
l 55 56
l 56 57
l 58 59
l 60 58
l 61 62
l 62 60
l 57 63
l 63 64
l 64 65
l 65 66
l 66 67
l 68 69
l 69 61
l 70 71
l 71 68
l 67 70
l 72 73
l 74 72
l 75 74
l 76 75
l 77 78
l 78 79
l 80 77
l 79 81
l 82 83
l 83 84
l 84 85
l 86 82
l 87 88
l 88 86
l 89 87
l 90 91
l 92 93
l 93 94
l 91 92
l 85 90
l 94 95
l 96 97
l 97 80
l 95 96
l 73 98
l 99 89
l 100 99
l 98 100
l 101 102
l 103 101
l 104 105
l 102 106
l 106 104
l 107 103
l 108 107
l 109 110
l 111 109
l 110 108
l 112 113
l 105 112
l 114 115
l 113 114
l 116 111
l 117 116
l 118 117
l 119 118
l 120 76
l 121 120
l 122 121
l 81 123
l 123 124
l 125 122
l 126 127
l 128 129
l 129 126
l 127 125
l 130 128
l 124 130
l 48 131
l 1 132
l 131 1
l 1 6
l 2 6
l 1 2
l 11 133
l 133 5
l 11 2
l 134 3
l 3 135
l 8 3
l 135 52
l 136 9
l 12 4
l 4 8
l 12 136
l 4 3
l 137 138
l 139 137
l 140 141
l 138 142
l 142 140
l 143 144
l 144 139
l 145 146
l 147 145
l 146 143
l 148 149
l 141 148
l 150 53
l 149 150
l 151 147
l 152 151
l 153 152
l 59 153
l 115 154
l 154 155
l 155 156
l 156 157
l 158 119
l 159 158
l 160 161
l 161 159
l 157 162
l 162 163
l 163 164
l 164 165
l 165 166
l 167 168
l 168 160
l 166 169
l 169 170
l 170 167
l 171 25
l 26 172
l 172 27
l 28 173
l 17 171
l 174 29
l 30 175
l 176 19
l 175 31
l 32 176
l 174 24
l 22 173
l 14 19
l 19 14
l 13 17
l 17 13
l 177 178
l 179 180
l 181 182
l 183 184
l 182 183
l 185 177
l 180 181
l 186 185
l 187 186
l 188 189
l 189 190
l 191 192
l 193 188
l 192 194
l 195 193
l 194 196
l 197 195
l 198 199
l 199 197
l 196 200
l 184 201
l 202 203
l 204 187
l 205 206
l 206 204
l 200 205
l 203 198
l 201 202
l 207 208
l 209 207
l 210 209
l 211 212
l 213 211
l 212 214
l 215 216
l 214 215
l 216 217
l 11 5
l 6 11
l 132 6
l 218 210
l 219 220
l 220 218
l 221 219
l 12 8
l 8 134
l 222 221
l 223 222
l 9 12
l 208 213
l 224 225
l 226 224
l 227 226
l 228 227
l 229 228
l 230 229
l 231 232
l 232 233
l 234 235
l 233 236
l 236 234
l 235 230
l 237 238
l 239 240
l 238 239
l 241 242
l 243 244
l 245 246
l 246 241
l 240 243
l 242 247
l 248 249
l 250 245
l 251 250
l 244 248
l 252 253
l 254 255
l 253 254
l 256 257
l 258 259
l 260 258
l 259 256
l 261 260
l 247 252
l 262 263
l 264 261
l 265 266
l 266 264
l 255 262
l 257 237
l 267 268
l 269 270
l 271 269
l 272 267
l 273 272
l 274 273
l 275 274
l 276 275
l 277 278
l 270 277
l 279 276
l 278 279
l 280 281
l 282 280
l 281 283
l 284 285
l 286 287
l 288 286
l 287 282
l 285 289
l 290 291
l 292 290
l 291 293
l 293 294
l 295 288
l 294 295
l 296 297
l 297 284
l 298 299
l 300 301
l 302 300
l 299 302
l 301 303
l 304 305
l 306 296
l 307 306
l 308 309
l 305 308
l 309 307
l 289 298
l 5 17
l 19 9
l 13 5
l 9 14
l 25 15
l 15 26
l 27 16
l 16 28
l 29 18
l 18 30
l 31 20
l 20 32
l 15 15
l 21 21
l 21 7
l 7 21
l 21 22
l 22 21
l 16 16
l 20 20
l 14 14
l 18 18
l 23 23
l 23 10
l 10 23
l 23 24
l 24 23
l 13 13
# </edges>
